<svg width="440" height="298" viewBox="0 0 440 298" fill="none" xmlns="http://www.w3.org/2000/svg"><path d="M77.377 231.829l7.2 7.2-.873.872-6.285-6.286-.042.042-.59 2.925-.887-.886.605-2.995.872-.872zm9.27 5.129l-.633-.633-.225-4.978a23.298 23.298 0 00-.105-1.483 4.159 4.159 0 00-.24-1.041 2.192 2.192 0 00-.499-.766 1.66 1.66 0 00-.84-.475 1.681 1.681 0 00-.92.064c-.31.107-.595.291-.855.552-.277.276-.46.575-.552.896a1.677 1.677 0 000 .949c.094.314.278.608.552.883l-.83.829c-.422-.422-.695-.889-.819-1.402a2.868 2.868 0 01.05-1.54c.159-.516.448-.983.868-1.403.422-.422.884-.706 1.388-.854a2.84 2.84 0 011.487-.046c.488.117.917.361 1.287.731.265.265.476.572.633.921.157.345.273.789.348 1.333a21.4 21.4 0 01.158 2.091l.112 3.347.057.056 3.346-3.346.774.773-4.542 4.542zm4.461-18.86l.872-.872 5.146 5.146c.46.46.766.934.918 1.424.152.49.158.972.017 1.445-.14.474-.419.919-.836 1.336-.394.394-.816.673-1.266.837-.452.161-.9.197-1.343.105-.443-.091-.848-.321-1.216-.689l.858-.858c.204.204.432.332.685.383.253.047.511.024.774-.07a1.99 1.99 0 00.734-.481c.251-.251.412-.517.482-.798.07-.282.05-.57-.063-.865-.113-.3-.318-.599-.615-.897l-5.147-5.146zm10.901-.918l-3.192-3.192.83-.829 5.4 5.399-.83.83-.914-.914-.056.056c.147.401.184.831.109 1.29-.078.457-.32.89-.728 1.297a2.546 2.546 0 01-1.121.679 2.197 2.197 0 01-1.294-.056c-.452-.153-.908-.458-1.367-.918l-3.432-3.431.83-.83 3.375 3.375c.394.394.818.598 1.272.612.457.012.858-.155 1.203-.499a2 2 0 00.471-.788c.11-.321.129-.663.056-1.026-.07-.366-.274-.717-.612-1.055zm2.139-4.219l3.248 3.248-.83.83-5.399-5.4.801-.802.844.844.07-.07a2.174 2.174 0 01-.084-1.238c.089-.426.337-.843.745-1.251.366-.366.76-.611 1.185-.735.422-.126.86-.115 1.314.035.453.148.909.451 1.368.911l3.431 3.431-.83.83-3.374-3.375c-.425-.424-.865-.645-1.322-.661-.46-.019-.881.164-1.266.548a2.048 2.048 0 00-.538.883c-.091.321-.086.651.014.991.101.34.309.667.623.981zm29.654 19.575l7.2 7.2-.872.872-6.285-6.286-.043.042-.59 2.925-.886-.886.605-2.995.871-.872zm4.265-4.461a3.637 3.637 0 011.054-.717 3.053 3.053 0 011.357-.26c.497.009 1.038.159 1.624.45.586.29 1.21.766 1.871 1.427.639.64 1.147 1.269 1.522 1.888.375.614.619 1.204.731 1.772a3.268 3.268 0 01-.049 1.596 3.168 3.168 0 01-.826 1.353c-.403.403-.843.683-1.319.84a2.976 2.976 0 01-1.444.102 3.3 3.3 0 01-1.386-.619l.858-.857c.408.253.835.372 1.28.358.445-.018.858-.218 1.237-.597.556-.556.751-1.237.587-2.043-.161-.808-.685-1.656-1.571-2.541l-.056.056c.065.328.079.654.042.977a2.933 2.933 0 01-.858 1.751 3.091 3.091 0 01-1.441.829 3.285 3.285 0 01-1.67-.024c-.565-.157-1.079-.468-1.543-.932a3.535 3.535 0 01-.914-1.504 3.235 3.235 0 01-.043-1.716c.143-.579.462-1.108.957-1.589zm.773.773a2.096 2.096 0 00-.576 1.02c-.09.38-.079.763.031 1.149.11.383.315.724.615 1.023.3.3.639.508 1.016.623.378.11.754.123 1.129.038.375-.089.71-.281 1.005-.576.223-.223.387-.474.492-.752.103-.282.15-.57.141-.865-.009-.3-.07-.588-.183-.865a2.242 2.242 0 00-.492-.738 2.268 2.268 0 00-.995-.587 2.287 2.287 0 00-1.153-.043c-.387.082-.73.273-1.03.573zm8.877-10.227l.872-.872 5.147 5.147c.459.459.765.934.917 1.424.153.49.159.971.018 1.445-.141.473-.42.918-.837 1.335-.393.394-.815.673-1.265.837-.453.162-.9.197-1.343.106-.443-.092-.849-.322-1.216-.689l.857-.858c.204.204.433.331.686.383.253.047.511.023.773-.07.263-.094.508-.255.735-.482.251-.251.411-.517.482-.798.07-.281.049-.569-.064-.865-.112-.3-.317-.599-.615-.896l-5.147-5.147zm10.902-.917l-3.192-3.192.829-.83 5.4 5.4-.829.829-.914-.914-.057.057c.148.4.184.83.109 1.29-.077.457-.32.889-.727 1.297a2.552 2.552 0 01-1.122.678c-.412.113-.844.094-1.294-.056-.452-.152-.908-.458-1.367-.917l-3.431-3.431.83-.83 3.374 3.375c.394.393.818.597 1.273.611.457.012.858-.154 1.202-.499.206-.206.363-.468.471-.787.11-.321.129-.663.057-1.027-.071-.365-.275-.717-.612-1.054zm2.138-4.22l3.248 3.248-.829.83-5.4-5.4.802-.801.843.844.071-.071a2.18 2.18 0 01-.085-1.237c.089-.427.338-.844.745-1.252.366-.365.761-.61 1.185-.734a2.14 2.14 0 011.315.035c.452.147.908.451 1.367.91l3.432 3.431-.83.83-3.375-3.375c-.424-.424-.865-.644-1.322-.661-.459-.018-.881.164-1.265.549a2.045 2.045 0 00-.538.882c-.092.321-.087.652.014.991.101.34.308.667.622.981zm34.849 30.197l-.633-.633-.225-4.978a23.109 23.109 0 00-.106-1.483 4.102 4.102 0 00-.239-1.041 2.175 2.175 0 00-.499-.766 1.658 1.658 0 00-.84-.475 1.68 1.68 0 00-.921.064 2.261 2.261 0 00-.854.552 2.06 2.06 0 00-.552.896 1.666 1.666 0 000 .949c.094.314.278.608.552.883l-.83.829c-.422-.422-.695-.889-.819-1.402a2.87 2.87 0 01.049-1.54c.16-.516.449-.983.869-1.403.421-.422.884-.706 1.388-.854a2.84 2.84 0 011.487-.046c.488.117.917.361 1.287.731.265.265.476.572.633.921.157.345.273.789.348 1.333.075.539.127 1.236.158 2.092l.112 3.346.057.056 3.346-3.346.774.773-4.542 4.542zm8.482-8.286c-.3.291-.651.53-1.054.717a2.99 2.99 0 01-1.354.264c-.501-.014-1.045-.166-1.631-.457-.588-.293-1.215-.772-1.881-1.438-.637-.637-1.142-1.262-1.515-1.874-.375-.614-.617-1.203-.727-1.768a3.314 3.314 0 01.049-1.596c.147-.499.424-.951.829-1.357.404-.403.843-.681 1.319-.833a2.897 2.897 0 011.441-.105c.485.086.943.287 1.375.601l-.858.858a2.242 2.242 0 00-1.269-.341c-.443.016-.854.214-1.234.594-.558.557-.755 1.239-.591 2.046.167.803.687 1.645 1.561 2.524l.056-.057a2.985 2.985 0 01.816-2.728 3.044 3.044 0 011.441-.822 3.242 3.242 0 011.67.024c.565.153 1.079.461 1.543.925.446.445.754.953.925 1.522.169.567.182 1.14.039 1.719-.143.574-.46 1.102-.95 1.582zm-.773-.773c.295-.295.486-.634.573-1.016a2.245 2.245 0 00-.035-1.153 2.37 2.37 0 00-.622-1.037 2.345 2.345 0 00-1.013-.612 2.156 2.156 0 00-1.132-.042c-.375.084-.71.274-1.005.569a2.068 2.068 0 00-.489.756 2.28 2.28 0 00-.147.865c.009.295.071.582.186.861.112.277.276.523.492.739a2.34 2.34 0 002.159.646 2.053 2.053 0 001.033-.576zm2.929-15.979l.872-.872 5.147 5.147c.459.459.765.934.917 1.424.153.49.158.971.018 1.445-.141.473-.42.918-.837 1.336-.394.393-.815.672-1.265.836-.453.162-.9.197-1.343.106-.443-.092-.849-.321-1.217-.689l.858-.858c.204.204.433.331.686.383.253.047.511.023.773-.07.263-.094.507-.255.735-.482.251-.251.411-.517.481-.798.071-.281.05-.569-.063-.865-.112-.3-.317-.598-.615-.896l-5.147-5.147zm10.902-.917l-3.192-3.192.829-.83 5.4 5.4-.83.829-.914-.914-.056.057c.148.4.184.83.109 1.29-.077.457-.32.889-.728 1.297a2.546 2.546 0 01-1.121.679 2.197 2.197 0 01-1.294-.057c-.452-.152-.908-.458-1.367-.917l-3.431-3.431.829-.83 3.375 3.375c.394.394.818.597 1.273.612.457.011.858-.155 1.202-.5.206-.206.363-.468.471-.787.11-.321.129-.663.056-1.027-.07-.365-.274-.717-.611-1.054zm2.138-4.22l3.248 3.249-.829.829-5.4-5.399.801-.802.844.844.07-.071a2.188 2.188 0 01-.084-1.237c.089-.427.338-.844.745-1.252.366-.365.761-.61 1.185-.734a2.14 2.14 0 011.315.035c.452.148.908.451 1.367.91l3.431 3.431-.829.83-3.375-3.375c-.424-.424-.865-.644-1.322-.661-.459-.018-.881.164-1.265.549a2.041 2.041 0 00-.538.882c-.092.321-.087.652.014.991.101.34.308.667.622.981zm37.4 17.941c-.464.464-.958.798-1.48 1.002a3.007 3.007 0 01-1.526.197 2.528 2.528 0 01-1.339-.65l.886-.886c.25.213.53.334.84.362.307.026.62-.029.938-.165.319-.136.617-.342.893-.619.31-.309.53-.637.661-.984s.169-.685.113-1.013a1.604 1.604 0 00-.464-.872 1.776 1.776 0 00-.897-.502 1.84 1.84 0 00-1.054.098c-.368.138-.735.39-1.101.756l-.576.577-.774-.774.577-.576c.286-.286.485-.589.597-.907a1.649 1.649 0 00-.4-1.793 1.726 1.726 0 00-.798-.475 1.562 1.562 0 00-.879.035 2.082 2.082 0 00-.84.538 2.574 2.574 0 00-.566.84 1.863 1.863 0 00-.145.925c.031.307.16.586.387.837l-.844.843a2.421 2.421 0 01-.65-1.332 3.036 3.036 0 01.169-1.505c.187-.506.489-.966.903-1.381.446-.446.918-.737 1.417-.876.497-.14.977-.15 1.441-.028.464.122.866.353 1.206.693.406.405.645.858.717 1.357.075.497-.014.982-.267 1.455l.056.056c.53-.379 1.078-.541 1.646-.485.564.054 1.075.31 1.532.767.392.391.637.849.735 1.374.099.52.054 1.052-.133 1.596-.188.544-.515 1.049-.981 1.515zm2.239-16.835l.872-.872 5.146 5.147c.46.459.766.934.918 1.423.152.49.158.972.018 1.445-.141.474-.42.919-.837 1.336-.394.394-.816.673-1.266.837-.452.162-.9.197-1.343.105-.442-.091-.848-.321-1.216-.689l.858-.857c.204.203.432.331.685.383.254.047.511.023.774-.071.262-.093.507-.254.735-.481.25-.251.411-.517.481-.798s.049-.57-.063-.865c-.113-.3-.318-.599-.615-.896l-5.147-5.147zm10.901-.918l-3.192-3.192.83-.829 5.4 5.399-.83.83-.914-.914-.056.056c.148.401.184.831.109 1.29-.077.457-.32.89-.728 1.298a2.553 2.553 0 01-1.121.678 2.189 2.189 0 01-1.294-.056c-.452-.152-.908-.458-1.367-.918l-3.432-3.431.83-.829 3.375 3.374c.394.394.818.598 1.273.612.457.012.857-.155 1.202-.499.206-.206.363-.469.471-.787a1.94 1.94 0 00.056-1.027c-.07-.366-.274-.717-.612-1.055zm-1.813-8.17l7.2 7.199-.83.83-7.199-7.2.829-.829zm30.122 23.477l7.199 7.199-.872.872-6.285-6.286-.042.043-.591 2.925-.886-.886.605-2.996.872-.871zm11.716 2.879c-.529.529-1.124.836-1.785.921-.664.082-1.369-.054-2.117-.408-.75-.356-1.516-.926-2.299-1.708-.778-.779-1.344-1.541-1.698-2.289-.354-.752-.49-1.46-.408-2.123.083-.668.386-1.265.911-1.79.525-.525 1.12-.827 1.786-.907.665-.084 1.373.052 2.123.408.75.352 1.514.916 2.292 1.695.783.782 1.353 1.549 1.709 2.299.354.747.49 1.453.408 2.116-.085.661-.392 1.256-.922 1.786zm-.773-.774c.525-.525.68-1.185.464-1.982-.215-.797-.792-1.664-1.729-2.602-.624-.623-1.222-1.087-1.793-1.392-.57-.307-1.094-.451-1.572-.432a1.776 1.776 0 00-1.234.545c-.52.52-.67 1.183-.45 1.989.218.804.795 1.674 1.73 2.609.623.623 1.219 1.087 1.786 1.392.567.305 1.087.448 1.561.429a1.809 1.809 0 001.237-.556zm2.981-16.03l.872-.872 5.147 5.147c.459.459.765.934.917 1.424.152.489.158.971.018 1.444-.141.474-.42.919-.837 1.336-.394.394-.816.673-1.265.837-.453.162-.9.197-1.343.105-.443-.091-.849-.321-1.217-.689l.858-.857c.204.203.432.331.686.383.253.047.51.023.773-.071.262-.093.507-.254.735-.481.25-.251.411-.517.481-.798.071-.281.049-.57-.063-.865-.112-.3-.318-.599-.615-.896l-5.147-5.147zm10.902-.918l-3.192-3.192.829-.829 5.4 5.399-.83.83-.914-.914-.056.056c.148.401.184.831.109 1.291-.077.457-.32.889-.728 1.297a2.553 2.553 0 01-1.121.678 2.189 2.189 0 01-1.294-.056c-.452-.152-.908-.458-1.367-.918l-3.431-3.431.829-.829 3.375 3.375c.394.393.818.597 1.273.611.457.012.857-.154 1.202-.499.206-.206.363-.469.471-.787a1.94 1.94 0 00.056-1.027c-.07-.366-.274-.717-.611-1.055zm-1.814-8.17l7.2 7.199-.83.83-7.199-7.2.829-.829zm30.585 22.306l7.2 7.199-.872.872-6.286-6.286-.042.043-.59 2.924-.886-.885.604-2.996.872-.871zm9.495 4.904l-3.149-9.591-.057-.056-3.712 3.712-.773-.773 4.612-4.612.815.815 3.178 9.591-.914.914zm3.898-18.297l.872-.872 5.147 5.146c.459.46.765.934.917 1.424.152.49.158.972.018 1.445-.141.473-.42.919-.837 1.336-.394.394-.816.672-1.266.836a2.45 2.45 0 01-1.342.106c-.443-.091-.849-.321-1.217-.689l.858-.858c.204.204.432.332.685.383.254.047.511.024.774-.07.262-.094.507-.254.735-.482.25-.25.411-.516.481-.798a1.412 1.412 0 00-.063-.864c-.113-.3-.318-.599-.615-.897l-5.147-5.146zm10.902-.918l-3.192-3.192.829-.83 5.4 5.4-.83.83-.914-.914-.056.056c.148.401.184.831.109 1.29-.077.457-.32.89-.728 1.297a2.546 2.546 0 01-1.121.679 2.197 2.197 0 01-1.294-.056c-.452-.153-.908-.459-1.367-.918l-3.431-3.431.829-.83 3.375 3.375c.394.394.818.598 1.273.612.457.012.857-.155 1.202-.499.206-.207.363-.469.471-.788.11-.321.129-.663.056-1.026-.07-.366-.274-.717-.611-1.055zm-1.814-8.171l7.2 7.2-.83.83-7.199-7.2.829-.83zm35.078 34.334l-.632-.633-.225-4.978a23.146 23.146 0 00-.106-1.484 4.147 4.147 0 00-.239-1.04 2.193 2.193 0 00-.499-.767 1.649 1.649 0 00-.84-.474 1.671 1.671 0 00-.921.063c-.31.108-.595.292-.855.552-.276.277-.46.575-.552.897a1.684 1.684 0 000 .949c.094.314.278.608.552.882l-.829.83c-.422-.422-.695-.89-.819-1.403a2.86 2.86 0 01.049-1.54c.159-.515.449-.983.868-1.402.422-.422.885-.707 1.389-.855a2.84 2.84 0 011.487-.045c.487.117.916.361 1.286.731.265.265.476.572.633.921.157.344.273.789.348 1.332.075.539.128 1.237.158 2.092l.113 3.347.056.056 3.347-3.347.773.774-4.542 4.542zm4.194-7.147l-.717-.717-1.842-8.17.52-.521 1.111 1.111-.351.352 1.392 6.173.056.056 4.261-4.261.773.774-5.203 5.203zm4.866-1.913l-1.695-1.694-.334-.334-5.171-5.171.83-.83 7.199 7.2-.829.829zm1.598-15.998l.872-.871 5.147 5.146c.459.459.765.934.917 1.424.153.49.158.971.018 1.445-.141.473-.42.918-.837 1.336-.394.393-.815.672-1.265.836-.453.162-.9.197-1.343.106-.443-.092-.849-.321-1.217-.689l.858-.858c.204.204.432.332.686.383.253.047.511.024.773-.07s.507-.254.735-.482c.25-.251.411-.517.481-.798.071-.281.05-.569-.063-.865-.112-.3-.317-.598-.615-.896l-5.147-5.147zm10.902-.917l-3.192-3.192.829-.83 5.4 5.4-.83.83-.914-.914-.056.056c.148.401.184.831.109 1.29-.077.457-.32.889-.728 1.297a2.546 2.546 0 01-1.121.679 2.197 2.197 0 01-1.294-.057c-.452-.152-.908-.458-1.367-.917l-3.431-3.431.829-.83 3.375 3.375c.394.394.818.598 1.273.612.457.011.858-.155 1.202-.5.206-.206.363-.468.471-.787.11-.321.129-.663.056-1.027-.07-.365-.274-.717-.611-1.054zM429.036 206l7.199 7.2-.829.829-7.2-7.199.83-.83zM11.749 59.818V70h-1.233v-8.89h-.06L7.97 62.762v-1.253l2.546-1.69h1.233zM14.95 70.08a.861.861 0 01-.63-.263.861.861 0 01-.264-.631.86.86 0 01.263-.632.861.861 0 01.631-.263c.246 0 .456.088.632.263a.861.861 0 01.263.632.928.928 0 01-.447.775.852.852 0 01-.447.12zm5.958.06a3.496 3.496 0 01-1.576-.348 2.926 2.926 0 01-1.124-.954 2.601 2.601 0 01-.462-1.383h1.193c.046.461.255.842.626 1.144.375.298.822.448 1.343.448.417 0 .788-.098 1.113-.294a2.07 2.07 0 00.77-.805 2.39 2.39 0 00.284-1.169c0-.444-.098-.84-.293-1.188a2.154 2.154 0 00-.796-.83 2.248 2.248 0 00-1.158-.308 3.18 3.18 0 00-.96.144 2.66 2.66 0 00-.81.373l-1.153-.14.616-5.01h5.29v1.093h-4.256l-.358 3.003h.06c.209-.166.47-.303.786-.413a2.98 2.98 0 01.984-.164A3.134 3.134 0 0123.846 65c.282.513.422 1.1.422 1.76 0 .65-.145 1.23-.437 1.74a3.199 3.199 0 01-1.193 1.203c-.507.291-1.084.437-1.73.437zM30.36 70V59.818h1.233v5.051h.12l4.573-5.05h1.61l-4.275 4.593L37.897 70h-1.492l-3.54-4.733-1.272 1.432V70H30.36zM17.568 14v-.895l3.36-3.679c.395-.43.72-.805.975-1.123.255-.322.444-.624.567-.905a2.19 2.19 0 00.189-.895c0-.358-.087-.668-.259-.93a1.677 1.677 0 00-.696-.606 2.256 2.256 0 00-.994-.214c-.391 0-.733.081-1.024.243-.289.16-.512.383-.672.672a2.102 2.102 0 00-.233 1.014h-1.174c0-.597.138-1.12.413-1.571.275-.451.65-.802 1.124-1.054a3.387 3.387 0 011.606-.378c.596 0 1.125.126 1.585.378.461.252.822.591 1.084 1.019.262.428.393.903.393 1.427 0 .374-.068.74-.204 1.099-.132.354-.364.75-.696 1.188-.328.434-.784.964-1.367 1.59l-2.287 2.447v.08h4.733V14h-6.423zm12.593 0V3.818h1.233V8.87h.119l4.574-5.05h1.61l-4.275 4.593L37.698 14h-1.492l-3.54-4.733-1.272 1.432V14H30.16zm-6.346 101.818V126h-1.233v-8.889h-.06l-2.485 1.65v-1.252l2.545-1.691h1.233zM30.86 126v-10.182h1.233v5.051h.12l4.573-5.051h1.611l-4.276 4.594L38.397 126h-1.491l-3.54-4.733-1.273 1.432V126H30.86zm3.525 56.139c-.749 0-1.387-.204-1.914-.611-.527-.411-.93-1.006-1.208-1.785-.279-.782-.418-1.727-.418-2.834 0-1.1.14-2.04.418-2.819.282-.782.686-1.379 1.213-1.79.53-.414 1.167-.621 1.91-.621.741 0 1.376.207 1.903.621.53.411.935 1.008 1.213 1.79.282.779.423 1.719.423 2.819 0 1.107-.14 2.052-.418 2.834-.278.779-.68 1.374-1.208 1.785-.527.407-1.165.611-1.914.611zm0-1.094c.742 0 1.32-.358 1.73-1.073.411-.716.617-1.737.617-3.063 0-.882-.095-1.632-.284-2.252-.185-.62-.454-1.092-.805-1.417a1.777 1.777 0 00-1.258-.487c-.736 0-1.31.363-1.725 1.089-.414.722-.621 1.745-.621 3.067 0 .882.092 1.631.278 2.247.185.617.452 1.086.8 1.407a1.81 1.81 0 001.268.482z" fill="#7B91B0"/><ellipse cx="171.122" cy="288.5" rx="6.12" ry="6" fill="#FA0060"/><path d="M190.255 283.614v-1.25h8.727v1.25h-3.659V294h-1.409v-10.386h-3.659zM201.793 294l-2.659-8.727h1.409l1.886 6.682h.091l1.864-6.682h1.431l1.841 6.659h.091l1.887-6.659h1.409L208.384 294h-1.319l-1.909-6.705h-.136L203.111 294h-1.318zm14.225.182c-.841 0-1.567-.186-2.177-.557a3.742 3.742 0 01-1.403-1.568c-.326-.674-.489-1.459-.489-2.352 0-.894.163-1.682.489-2.364.33-.686.788-1.22 1.375-1.602.591-.387 1.28-.58 2.068-.58.455 0 .904.076 1.347.227.443.152.846.398 1.21.739.364.337.653.784.869 1.341.216.557.324 1.242.324 2.057v.568h-6.727v-1.159h5.364c0-.493-.099-.932-.296-1.318a2.223 2.223 0 00-.829-.915c-.357-.224-.777-.335-1.262-.335-.534 0-.996.132-1.386.397a2.617 2.617 0 00-.892 1.023 2.997 2.997 0 00-.313 1.352v.773c0 .659.114 1.218.341 1.676.231.455.551.801.96 1.04.409.235.885.352 1.427.352.352 0 .67-.049.954-.147.288-.103.536-.254.744-.455.209-.205.37-.458.483-.761l1.296.363c-.137.44-.366.826-.688 1.159-.322.33-.719.587-1.193.773a4.42 4.42 0 01-1.596.273zm9.152 0c-.841 0-1.566-.186-2.176-.557a3.744 3.744 0 01-1.404-1.568c-.325-.674-.488-1.459-.488-2.352 0-.894.163-1.682.488-2.364.33-.686.788-1.22 1.375-1.602.591-.387 1.281-.58 2.069-.58.454 0 .903.076 1.346.227.443.152.847.398 1.21.739.364.337.654.784.87 1.341.216.557.324 1.242.324 2.057v.568h-6.728v-1.159h5.364c0-.493-.098-.932-.295-1.318a2.226 2.226 0 00-.83-.915c-.356-.224-.776-.335-1.261-.335-.534 0-.997.132-1.387.397a2.633 2.633 0 00-.892 1.023 3.01 3.01 0 00-.312 1.352v.773c0 .659.113 1.218.341 1.676.231.455.551.801.96 1.04.409.235.884.352 1.426.352.352 0 .67-.049.955-.147.287-.103.536-.254.744-.455.208-.205.369-.458.483-.761l1.295.363a2.86 2.86 0 01-.687 1.159c-.322.33-.72.587-1.193.773a4.425 4.425 0 01-1.597.273zm9.289-8.909v1.136h-4.523v-1.136h4.523zm-3.205-2.091h1.341v8.318c0 .379.055.663.165.852a.853.853 0 00.432.375c.178.061.365.091.562.091.148 0 .269-.007.364-.023l.227-.045.273 1.205a2.74 2.74 0 01-.381.102 2.792 2.792 0 01-.619.057 2.7 2.7 0 01-1.114-.245 2.214 2.214 0 01-.897-.744c-.235-.333-.353-.754-.353-1.261v-8.682zm11.088 4.045l-1.205.341a2.253 2.253 0 00-.335-.585 1.63 1.63 0 00-.591-.477c-.25-.125-.57-.188-.96-.188-.534 0-.98.123-1.336.37-.352.242-.528.551-.528.926 0 .333.121.596.364.789.242.194.621.355 1.136.483l1.295.319c.781.189 1.362.479 1.745.869.382.386.574.884.574 1.494 0 .5-.144.947-.432 1.341-.284.394-.682.705-1.193.932-.512.227-1.106.341-1.784.341-.891 0-1.627-.193-2.211-.58-.583-.386-.952-.95-1.108-1.693l1.273-.318c.121.47.35.822.688 1.057.34.235.786.352 1.335.352.625 0 1.121-.133 1.488-.398.372-.269.557-.591.557-.966 0-.303-.106-.556-.318-.761-.212-.208-.538-.364-.977-.466l-1.455-.341c-.799-.189-1.386-.483-1.761-.88-.371-.402-.557-.904-.557-1.506 0-.493.138-.928.415-1.307a2.82 2.82 0 011.142-.892c.485-.216 1.034-.324 1.648-.324.863 0 1.541.189 2.034.568a3.07 3.07 0 011.057 1.5z" fill="#2C2C2C"/><path d="M83.64 179l64.261-44.5 59.67 44.5 47.94-111.5 48.45 67 61.2 44.5 59.16-44.5" stroke="#FA0060" stroke-width="2" stroke-linecap="round"/><ellipse cx="83.64" cy="178.995" rx="3.06" ry="2.995" fill="#FA0060"/><ellipse cx="207.06" cy="178.995" rx="3.06" ry="2.995" fill="#FA0060"/><ellipse cx="256.021" cy="66.995" rx="3.06" ry="2.995" fill="#FA0060"/><ellipse cx="424.32" cy="134.995" rx="3.06" ry="2.995" fill="#FA0060"/><ellipse cx="365.16" cy="178.995" rx="3.06" ry="2.995" fill="#FA0060"/><ellipse cx="303.96" cy="133.995" rx="3.06" ry="2.995" fill="#FA0060"/><ellipse cx="147.9" cy="133.995" rx="3.06" ry="2.995" fill="#FA0060"/></svg>