<svg width="428" height="298" viewBox="0 0 428 298" fill="none" xmlns="http://www.w3.org/2000/svg"><path d="M64.976 231.829l7.2 7.2-.872.871-6.286-6.285-.042.042-.59 2.925-.886-.886.604-2.995.872-.872zm9.27 5.129l-.632-.633-.225-4.978a23.38 23.38 0 00-.106-1.483 4.163 4.163 0 00-.239-1.041 2.192 2.192 0 00-.499-.766 1.66 1.66 0 00-.84-.475 1.681 1.681 0 00-.921.064 2.24 2.24 0 00-.855.552c-.276.276-.46.575-.551.896a1.677 1.677 0 000 .949c.093.314.277.608.552.883l-.83.829c-.422-.422-.695-.889-.82-1.403a2.865 2.865 0 01.05-1.539 3.4 3.4 0 01.868-1.403c.422-.422.885-.707 1.389-.854a2.84 2.84 0 011.487-.046c.487.117.916.361 1.287.731.264.265.475.572.632.921.157.345.273.789.348 1.333.075.539.128 1.236.159 2.091l.112 3.347.056.056 3.347-3.346.773.773-4.541 4.542zm4.462-18.86l.871-.872 5.147 5.146c.46.46.765.934.918 1.424.152.49.158.972.017 1.445-.14.473-.42.919-.837 1.336-.393.394-.815.673-1.265.837a2.46 2.46 0 01-1.343.105c-.443-.091-.848-.321-1.216-.689l.857-.858c.204.204.433.332.686.383.253.047.51.024.773-.07s.508-.254.735-.481c.25-.251.411-.517.482-.798.07-.282.049-.57-.064-.865-.112-.3-.317-.599-.615-.897l-5.146-5.146zm10.901-.918l-3.192-3.192.83-.83 5.4 5.4-.83.83-.914-.914-.057.056c.148.401.184.831.11 1.29-.078.457-.32.89-.728 1.297a2.55 2.55 0 01-1.122.679 2.196 2.196 0 01-1.293-.056c-.453-.153-.909-.459-1.368-.918l-3.431-3.431.83-.83 3.375 3.375c.393.394.817.598 1.272.612.457.012.858-.155 1.202-.499.207-.207.364-.469.471-.788.11-.321.13-.663.057-1.026-.07-.366-.275-.717-.612-1.055zm2.138-4.219l3.249 3.248-.83.83-5.4-5.4.802-.802.843.844.07-.07a2.182 2.182 0 01-.084-1.238c.09-.426.338-.843.746-1.251.365-.366.76-.611 1.184-.735.422-.126.86-.115 1.315.035.452.148.908.451 1.368.911l3.43 3.431-.829.829-3.375-3.374c-.424-.425-.865-.645-1.322-.661-.459-.019-.88.164-1.265.548a2.047 2.047 0 00-.538.883c-.091.321-.087.651.014.991.1.34.308.667.622.981zm29.655 19.575l7.2 7.2-.872.872-6.286-6.286-.042.042-.591 2.925-.885-.886.604-2.995.872-.872zm4.264-4.461a3.642 3.642 0 011.055-.717 3.05 3.05 0 011.357-.26c.497.009 1.038.159 1.624.45.586.29 1.209.766 1.87 1.427.64.64 1.147 1.269 1.522 1.888.375.614.619 1.205.732 1.772a3.267 3.267 0 01-.05 1.596c-.145.497-.42.948-.826 1.353-.403.403-.842.683-1.318.84a2.98 2.98 0 01-1.445.102 3.312 3.312 0 01-1.385-.618l.858-.858a2.25 2.25 0 001.279.358c.446-.018.858-.218 1.238-.597.555-.556.751-1.237.587-2.043-.162-.808-.686-1.655-1.571-2.541l-.057.056c.066.328.08.654.042.977a2.898 2.898 0 01-.27.932c-.143.297-.339.57-.587.819a3.094 3.094 0 01-1.442.829 3.281 3.281 0 01-1.669-.024c-.565-.157-1.08-.468-1.544-.932a3.555 3.555 0 01-.914-1.504 3.235 3.235 0 01-.042-1.716c.143-.579.462-1.108.956-1.589zm.774.774a2.082 2.082 0 00-.577 1.019c-.089.38-.078.763.032 1.15.11.382.315.723.615 1.023.3.3.639.507 1.016.622.377.11.753.123 1.128.038a2.09 2.09 0 001.006-.576c.222-.223.387-.473.492-.752.103-.282.15-.57.141-.865-.01-.3-.071-.588-.183-.865a2.283 2.283 0 00-1.487-1.325 2.276 2.276 0 00-1.153-.042c-.387.082-.73.273-1.03.573zm8.877-10.228l.872-.872 5.146 5.147c.46.459.766.934.918 1.424.152.49.158.971.018 1.445-.141.473-.42.918-.837 1.336-.394.393-.816.672-1.266.836-.452.162-.9.197-1.343.106-.442-.092-.848-.321-1.216-.689l.858-.858c.204.204.432.331.685.383.254.047.511.023.774-.07.262-.094.507-.255.735-.482.25-.251.411-.517.481-.798s.049-.569-.063-.865c-.113-.3-.318-.598-.615-.896l-5.147-5.147zm10.901-.917l-3.192-3.192.83-.83 5.4 5.4-.83.829-.914-.914-.056.057c.148.4.184.83.109 1.29-.077.457-.32.889-.728 1.297a2.543 2.543 0 01-1.121.678 2.189 2.189 0 01-1.294-.056c-.452-.152-.908-.458-1.367-.917l-3.432-3.431.83-.83 3.375 3.375c.394.394.818.597 1.273.612.457.011.857-.155 1.202-.5.206-.206.363-.468.471-.787.11-.321.129-.663.056-1.027-.07-.365-.274-.717-.612-1.054zm2.139-4.22l3.248 3.249-.83.829-5.399-5.4.801-.801.844.844.07-.071a2.18 2.18 0 01-.084-1.237c.089-.427.337-.844.745-1.252.366-.365.761-.61 1.185-.734a2.14 2.14 0 011.315.035c.452.148.908.451 1.367.91l3.431 3.431-.83.83-3.374-3.375c-.425-.424-.865-.644-1.322-.661-.46-.018-.881.164-1.266.549a2.05 2.05 0 00-.538.882c-.091.321-.086.652.014.991.101.34.309.667.623.981zm34.846 30.197l-.632-.633-.225-4.978a23.109 23.109 0 00-.106-1.483 4.145 4.145 0 00-.239-1.041 2.189 2.189 0 00-.499-.766 1.658 1.658 0 00-.84-.475 1.68 1.68 0 00-.921.064 2.24 2.24 0 00-.855.552c-.276.276-.46.575-.552.896a1.684 1.684 0 000 .949c.094.314.278.608.552.883l-.829.829c-.422-.422-.695-.889-.819-1.402a2.86 2.86 0 01.049-1.54 3.39 3.39 0 01.868-1.403c.422-.422.885-.706 1.389-.854a2.84 2.84 0 011.487-.046c.487.117.916.361 1.286.731.265.265.476.572.633.921.157.345.273.789.348 1.333.075.539.128 1.236.158 2.091l.113 3.347.056.056 3.347-3.346.773.773-4.542 4.542zm8.483-8.286c-.3.291-.651.53-1.055.717a2.988 2.988 0 01-1.353.264c-.501-.014-1.045-.166-1.631-.457-.588-.293-1.215-.772-1.881-1.438-.637-.637-1.142-1.262-1.515-1.874-.375-.614-.618-1.203-.728-1.768a3.327 3.327 0 01.049-1.596c.148-.499.425-.951.83-1.357.403-.403.843-.681 1.318-.833a2.901 2.901 0 011.442-.105c.485.086.943.287 1.374.601l-.857.857a2.263 2.263 0 00-1.27-.341c-.442.017-.854.215-1.233.595-.558.557-.755 1.239-.591 2.046.166.803.687 1.645 1.561 2.524l.056-.057a2.985 2.985 0 01.816-2.728 3.044 3.044 0 011.441-.822 3.242 3.242 0 011.67.024c.565.153 1.079.461 1.543.925.445.445.754.953.925 1.522.168.567.181 1.14.038 1.719-.143.574-.459 1.102-.949 1.582zm-.773-.773c.295-.296.486-.634.573-1.016a2.245 2.245 0 00-.035-1.153 2.372 2.372 0 00-.623-1.037 2.342 2.342 0 00-1.012-.612 2.157 2.157 0 00-1.132-.042c-.375.084-.71.274-1.005.569a2.068 2.068 0 00-.489.756 2.262 2.262 0 00-.148.865c.01.295.072.582.187.861a2.36 2.36 0 001.494 1.34c.384.112.769.127 1.156.045a2.056 2.056 0 001.034-.576zm2.929-15.979l.872-.872 5.146 5.147c.46.459.766.934.918 1.424.152.49.158.971.018 1.445-.141.473-.42.918-.837 1.335-.394.394-.816.673-1.266.837-.452.162-.9.197-1.343.106-.443-.092-.848-.321-1.216-.689l.858-.858c.204.204.432.331.685.383.253.047.511.023.774-.07.262-.094.507-.255.734-.482.251-.251.412-.517.482-.798s.049-.569-.063-.865c-.113-.3-.318-.599-.615-.896l-5.147-5.147zm10.901-.917l-3.192-3.192.83-.83 5.4 5.4-.83.829-.914-.914-.056.057c.147.4.184.83.109 1.29-.078.457-.32.889-.728 1.297a2.543 2.543 0 01-1.121.678 2.189 2.189 0 01-1.294-.056c-.452-.152-.908-.458-1.368-.917l-3.431-3.431.83-.83 3.375 3.375c.394.394.818.597 1.272.611.457.012.858-.154 1.203-.499.206-.206.363-.468.471-.787.11-.321.129-.663.056-1.027-.07-.365-.274-.717-.612-1.054zm2.139-4.22l3.248 3.249-.83.829-5.399-5.4.801-.801.844.844.07-.071a2.17 2.17 0 01-.084-1.237c.089-.427.337-.844.745-1.252.366-.365.76-.61 1.185-.734.422-.127.86-.115 1.314.035.453.147.909.451 1.368.91l3.431 3.431-.83.83-3.374-3.375c-.425-.424-.865-.644-1.322-.661-.46-.018-.881.164-1.266.549a2.05 2.05 0 00-.538.882c-.091.321-.086.652.014.991.101.34.309.667.623.981zm37.401 17.941c-.464.464-.957.798-1.48 1.002a3.003 3.003 0 01-1.525.197 2.53 2.53 0 01-1.34-.65l.886-.886c.251.213.531.334.84.362.307.026.62-.029.939-.165.319-.136.616-.342.893-.619a2.8 2.8 0 00.661-.984c.131-.347.168-.685.112-1.013a1.597 1.597 0 00-.464-.872 1.773 1.773 0 00-.896-.502 1.844 1.844 0 00-1.055.098c-.368.138-.735.39-1.1.756l-.577.577-.773-.774.576-.576a2.44 2.44 0 00.598-.907c.115-.321.139-.637.074-.946a1.65 1.65 0 00-.475-.847 1.716 1.716 0 00-.798-.475 1.571 1.571 0 00-.879.035 2.096 2.096 0 00-.84.538 2.59 2.59 0 00-.566.84 1.85 1.85 0 00-.144.925c.031.307.159.586.387.837l-.844.843a2.421 2.421 0 01-.65-1.332 3.035 3.035 0 01.168-1.505 3.83 3.83 0 01.904-1.381c.445-.446.917-.737 1.417-.876.497-.14.977-.15 1.441-.028.464.122.866.353 1.206.693.405.405.644.858.717 1.357.075.497-.014.982-.267 1.455l.056.056c.53-.379 1.078-.541 1.645-.485.565.054 1.076.31 1.533.767.391.391.636.849.735 1.374a3.071 3.071 0 01-.134 1.596c-.187.544-.514 1.049-.981 1.515zm2.24-16.835l.871-.872 5.147 5.147c.459.459.765.934.918 1.423.152.49.158.972.017 1.445-.14.474-.419.919-.836 1.336-.394.394-.816.673-1.266.837-.452.162-.9.197-1.343.105-.443-.091-.848-.321-1.216-.689l.857-.857c.204.203.433.331.686.383.253.047.511.023.773-.071.263-.093.508-.254.735-.481.251-.251.411-.517.482-.798.07-.281.049-.57-.064-.865-.112-.3-.317-.599-.615-.896l-5.146-5.147zm10.901-.918l-3.192-3.192.83-.829 5.399 5.399-.829.83-.914-.914-.057.056c.148.401.184.831.109 1.291-.077.457-.319.889-.727 1.297a2.561 2.561 0 01-1.122.678c-.412.113-.843.094-1.293-.056-.453-.152-.909-.458-1.368-.918l-3.431-3.431.83-.829 3.375 3.375c.393.393.817.597 1.272.611.457.012.858-.154 1.202-.499a1.98 1.98 0 00.471-.787 1.94 1.94 0 00.057-1.027c-.071-.366-.274-.717-.612-1.055zm-1.813-8.17l7.2 7.199-.83.83-7.2-7.2.83-.829zm30.121 23.477l7.2 7.199-.872.872-6.286-6.286-.042.043-.59 2.924-.886-.885.604-2.996.872-.871zm11.717 2.879c-.53.529-1.125.836-1.786.921-.663.082-1.368-.054-2.116-.408-.75-.356-1.516-.926-2.299-1.708-.778-.779-1.344-1.541-1.698-2.289-.354-.752-.49-1.46-.408-2.123.082-.668.386-1.265.911-1.79.525-.525 1.12-.827 1.785-.907.666-.084 1.374.052 2.124.408.75.352 1.514.916 2.292 1.695.783.782 1.352 1.549 1.708 2.299.354.747.49 1.453.408 2.116-.084.661-.391 1.256-.921 1.786zm-.773-.774c.525-.525.679-1.186.464-1.982-.216-.797-.792-1.664-1.73-2.602-.623-.623-1.221-1.087-1.793-1.392-.569-.307-1.093-.451-1.571-.432a1.776 1.776 0 00-1.234.545c-.52.52-.67 1.183-.45 1.989.218.804.794 1.674 1.73 2.609.623.623 1.218 1.087 1.785 1.392.568.305 1.088.448 1.561.429a1.811 1.811 0 001.238-.556zm2.981-16.03l.872-.872 5.146 5.147c.46.459.765.934.918 1.423.152.49.158.972.017 1.445-.14.474-.419.919-.836 1.336-.394.394-.816.673-1.266.837-.452.162-.9.197-1.343.105-.443-.091-.848-.321-1.216-.689l.858-.857c.204.203.432.331.685.383.253.047.511.023.774-.071.262-.093.507-.254.734-.481.251-.251.412-.517.482-.798s.049-.57-.063-.865c-.113-.3-.318-.599-.616-.896l-5.146-5.147zm10.901-.918l-3.192-3.192.83-.829 5.4 5.399-.83.83-.914-.914-.056.056c.147.401.184.831.109 1.291-.078.457-.32.889-.728 1.297a2.556 2.556 0 01-1.122.678c-.412.113-.843.094-1.293-.056-.453-.152-.908-.458-1.368-.918l-3.431-3.431.83-.829 3.375 3.375c.393.393.818.597 1.272.611.457.012.858-.154 1.203-.499.206-.206.363-.469.471-.787a1.94 1.94 0 00.056-1.027c-.07-.366-.274-.717-.612-1.055zm-1.813-8.17l7.2 7.199-.83.83-7.2-7.2.83-.829zm30.585 22.306l7.199 7.199-.871.872-6.286-6.286-.042.043-.591 2.924-.886-.885.605-2.996.872-.871zm9.495 4.904l-3.15-9.591-.056-.056-3.712 3.713-.774-.774 4.612-4.612.816.815 3.178 9.591-.914.914zm3.898-18.297l.872-.872 5.146 5.146c.46.46.765.934.918 1.424.152.49.158.972.017 1.445-.14.473-.419.919-.836 1.336-.394.394-.816.672-1.266.837a2.46 2.46 0 01-1.343.105c-.443-.091-.848-.321-1.216-.689l.858-.858c.203.204.432.332.685.383.253.047.511.024.773-.07.263-.094.508-.254.735-.482.251-.25.412-.516.482-.798.07-.281.049-.569-.063-.864-.113-.3-.318-.599-.616-.897l-5.146-5.146zm10.901-.918l-3.192-3.192.83-.83 5.399 5.4-.829.83-.914-.914-.056.056c.147.401.184.831.109 1.29-.078.457-.32.89-.728 1.297a2.549 2.549 0 01-1.122.679 2.194 2.194 0 01-1.293-.056c-.453-.153-.908-.459-1.368-.918l-3.431-3.431.83-.83 3.375 3.375c.393.394.818.598 1.272.612.457.012.858-.155 1.203-.499.206-.207.363-.469.471-.788.11-.321.128-.663.056-1.026-.07-.366-.274-.717-.612-1.055zm-1.813-8.171l7.2 7.2-.83.83-7.2-7.2.83-.83zm35.08 34.334l-.633-.633-.225-4.978a23.893 23.893 0 00-.105-1.483 4.19 4.19 0 00-.239-1.041 2.182 2.182 0 00-.5-.766 1.644 1.644 0 00-1.761-.412 2.261 2.261 0 00-.854.552 2.068 2.068 0 00-.552.897 1.684 1.684 0 000 .949c.094.314.278.608.552.882l-.83.83c-.422-.422-.695-.89-.819-1.403a2.87 2.87 0 01.049-1.54c.16-.515.449-.983.869-1.402.422-.422.884-.707 1.388-.855a2.85 2.85 0 011.487-.045c.488.117.917.361 1.287.731.265.265.476.572.633.921.157.345.273.789.348 1.332.075.539.128 1.237.158 2.092l.112 3.347.057.056 3.346-3.347.774.774-4.542 4.542zm4.194-7.147l-.717-.717-1.842-8.17.52-.521 1.111 1.111-.352.352 1.392 6.173.057.056 4.26-4.26.774.773-5.203 5.203zm4.865-1.913l-1.694-1.694-.334-.334-5.171-5.171.829-.83 7.2 7.2-.83.829zm1.599-15.998l.872-.871 5.146 5.146c.46.46.765.934.918 1.424.152.49.158.971.017 1.445-.14.473-.419.919-.836 1.336-.394.393-.816.672-1.266.836-.452.162-.9.197-1.343.106-.443-.092-.848-.321-1.216-.689l.858-.858c.204.204.432.332.685.383.253.047.511.024.774-.07a1.98 1.98 0 00.734-.482c.251-.25.412-.516.482-.798.07-.281.049-.569-.063-.864-.113-.3-.318-.599-.616-.897l-5.146-5.147zm10.901-.917l-3.192-3.192.83-.83 5.4 5.4-.83.83-.914-.914-.056.056c.147.401.184.831.109 1.29-.078.457-.32.889-.728 1.297a2.551 2.551 0 01-1.121.679 2.197 2.197 0 01-1.294-.057c-.453-.152-.908-.458-1.368-.917l-3.431-3.431.83-.83 3.375 3.375c.393.394.818.598 1.272.612.457.011.858-.155 1.203-.499.206-.207.363-.469.471-.788.11-.321.129-.663.056-1.026-.07-.366-.274-.718-.612-1.055zM416.637 206l7.2 7.2-.83.829-7.2-7.199.83-.83zM5.08 70.14c-.656 0-1.241-.114-1.755-.339a3.006 3.006 0 01-1.218-.94 2.526 2.526 0 01-.487-1.407h1.253c.026.329.14.612.338.85.199.236.459.418.78.548a2.85 2.85 0 001.07.194c.437 0 .825-.077 1.163-.23a1.91 1.91 0 00.795-.636c.192-.271.289-.586.289-.944a1.77 1.77 0 00-.279-.99 1.844 1.844 0 00-.815-.676c-.358-.162-.796-.243-1.313-.243h-.815v-1.094H4.9a2.44 2.44 0 001.064-.219 1.651 1.651 0 00.985-1.551c0-.345-.077-.645-.23-.9a1.564 1.564 0 00-.645-.596 2.092 2.092 0 00-.975-.214 2.57 2.57 0 00-.994.194c-.308.126-.56.31-.756.552a1.437 1.437 0 00-.318.865H1.839c.02-.534.18-1.001.482-1.402.302-.405.696-.72 1.183-.945a3.825 3.825 0 011.616-.338c.63 0 1.17.128 1.62.383.452.252.798.585 1.04 1 .242.413.363.86.363 1.341 0 .574-.151 1.063-.453 1.467a2.292 2.292 0 01-1.218.84v.08c.643.106 1.145.38 1.507.82.361.438.542.98.542 1.626 0 .553-.151 1.05-.453 1.491a3.073 3.073 0 01-1.223 1.034c-.517.252-1.105.378-1.765.378zm8.795 0c-.75 0-1.387-.205-1.914-.612-.527-.411-.93-1.006-1.208-1.785-.279-.782-.418-1.727-.418-2.834 0-1.1.14-2.04.418-2.819.282-.782.686-1.379 1.213-1.79.53-.414 1.167-.621 1.909-.621s1.377.207 1.904.621c.53.411.935 1.008 1.213 1.79.282.78.423 1.719.423 2.82 0 1.106-.14 2.05-.418 2.833-.278.779-.68 1.374-1.208 1.785-.527.407-1.165.611-1.914.611zm0-1.094c.742 0 1.32-.359 1.73-1.074.411-.716.617-1.737.617-3.063 0-.882-.095-1.632-.284-2.252-.185-.62-.454-1.092-.805-1.417a1.778 1.778 0 00-1.258-.487c-.736 0-1.31.363-1.725 1.089-.414.722-.622 1.745-.622 3.067 0 .882.093 1.63.279 2.247.185.617.452 1.086.8 1.407.352.322.774.483 1.268.483zm8.75 1.093c-.75 0-1.387-.204-1.914-.611-.527-.411-.93-1.006-1.208-1.785-.279-.782-.418-1.727-.418-2.834 0-1.1.14-2.04.418-2.819.282-.782.686-1.379 1.213-1.79.53-.414 1.167-.621 1.909-.621s1.377.207 1.904.621c.53.411.935 1.008 1.213 1.79.282.78.423 1.719.423 2.82 0 1.106-.14 2.05-.418 2.833-.278.779-.68 1.374-1.208 1.785-.527.407-1.165.611-1.914.611zm0-1.093c.742 0 1.32-.359 1.73-1.074.411-.716.617-1.737.617-3.063 0-.882-.095-1.632-.284-2.252-.185-.62-.454-1.092-.805-1.417a1.778 1.778 0 00-1.258-.487c-.736 0-1.31.363-1.725 1.089-.414.722-.622 1.745-.622 3.067 0 .882.093 1.63.279 2.247.185.617.452 1.086.8 1.407.352.322.774.483 1.268.483zM1.565 11.912v-1.014l4.475-7.08h.736V5.39h-.498l-3.38 5.35v.08h6.025v1.093H1.565zM6.358 14V3.818H7.53V14H6.358zm7.61.14a3.496 3.496 0 01-1.576-.349 2.928 2.928 0 01-1.123-.954 2.6 2.6 0 01-.463-1.383H12c.046.461.255.842.626 1.144.374.298.822.447 1.342.447.418 0 .789-.097 1.114-.293a2.07 2.07 0 00.77-.805 2.39 2.39 0 00.284-1.169c0-.444-.098-.84-.293-1.188a2.153 2.153 0 00-.796-.83 2.248 2.248 0 00-1.158-.308 3.182 3.182 0 00-.96.144 2.65 2.65 0 00-.81.373l-1.154-.14.617-5.01h5.29v1.093h-4.256l-.358 3.003h.06c.209-.166.47-.303.785-.413.315-.11.643-.164.985-.164.623 0 1.178.15 1.665.448.49.294.875.699 1.153 1.213.282.513.423 1.1.423 1.76 0 .65-.146 1.23-.438 1.74a3.198 3.198 0 01-1.193 1.203c-.507.291-1.084.437-1.73.437zm8.657 0c-.75 0-1.387-.205-1.914-.612-.527-.411-.93-1.006-1.208-1.785-.279-.782-.418-1.727-.418-2.834 0-1.1.14-2.04.418-2.819.282-.782.686-1.379 1.213-1.79.53-.414 1.167-.621 1.909-.621s1.377.207 1.904.621c.53.411.935 1.008 1.213 1.79.282.78.423 1.719.423 2.82 0 1.106-.14 2.05-.418 2.833-.278.779-.68 1.374-1.208 1.785-.527.407-1.165.611-1.914.611zm0-1.095c.742 0 1.32-.357 1.73-1.073.411-.716.617-1.737.617-3.063 0-.882-.095-1.632-.284-2.252-.185-.62-.454-1.092-.805-1.417a1.778 1.778 0 00-1.258-.487c-.736 0-1.31.363-1.725 1.089-.414.722-.622 1.745-.622 3.067 0 .882.093 1.63.279 2.247.185.617.452 1.086.8 1.407.352.322.774.482 1.268.482zM7.858 115.818V126H6.625v-8.889h-.06l-2.485 1.65v-1.252l2.545-1.691h1.233zm6.11 10.321a3.496 3.496 0 01-1.576-.348 2.93 2.93 0 01-1.123-.954 2.602 2.602 0 01-.463-1.382H12c.046.46.255.841.626 1.143.374.298.822.447 1.342.447.418 0 .789-.097 1.114-.293a2.07 2.07 0 00.77-.805 2.38 2.38 0 00.284-1.169c0-.444-.098-.84-.293-1.188a2.153 2.153 0 00-.796-.83 2.246 2.246 0 00-1.158-.308 3.142 3.142 0 00-.96.144 2.65 2.65 0 00-.81.373l-1.154-.139.617-5.012h5.29v1.094h-4.256l-.358 3.003h.06c.209-.166.47-.303.785-.413a2.99 2.99 0 01.985-.164c.623 0 1.178.149 1.665.448.49.294.875.699 1.153 1.213.282.513.423 1.1.423 1.76 0 .649-.146 1.229-.438 1.74a3.198 3.198 0 01-1.193 1.203c-.507.291-1.084.437-1.73.437zm8.657 0c-.75 0-1.387-.204-1.914-.611-.527-.411-.93-1.006-1.208-1.785-.279-.782-.418-1.727-.418-2.834 0-1.1.14-2.04.418-2.819.282-.782.686-1.379 1.213-1.79.53-.414 1.167-.621 1.909-.621s1.377.207 1.904.621c.53.411.935 1.008 1.213 1.79.282.779.423 1.719.423 2.819 0 1.107-.14 2.052-.418 2.834-.278.779-.68 1.374-1.208 1.785-.527.407-1.165.611-1.914.611zm0-1.094c.742 0 1.32-.358 1.73-1.073.411-.716.617-1.737.617-3.063 0-.882-.095-1.632-.284-2.252-.185-.62-.454-1.092-.805-1.417a1.777 1.777 0 00-1.258-.487c-.736 0-1.31.363-1.725 1.089-.414.722-.622 1.745-.622 3.067 0 .882.093 1.631.279 2.247.185.617.452 1.086.8 1.407a1.81 1.81 0 001.268.482zm0 57.094c-.75 0-1.387-.204-1.914-.611-.527-.411-.93-1.006-1.208-1.785-.279-.782-.418-1.727-.418-2.834 0-1.1.14-2.04.418-2.819.282-.782.686-1.379 1.213-1.79.53-.414 1.167-.621 1.909-.621s1.377.207 1.904.621c.53.411.935 1.008 1.213 1.79.282.779.423 1.719.423 2.819 0 1.107-.14 2.052-.418 2.834-.278.779-.68 1.374-1.208 1.785-.527.407-1.165.611-1.914.611zm0-1.094c.742 0 1.32-.358 1.73-1.073.411-.716.617-1.737.617-3.063 0-.882-.095-1.632-.284-2.252-.185-.62-.454-1.092-.805-1.417a1.777 1.777 0 00-1.258-.487c-.736 0-1.31.363-1.725 1.089-.414.722-.622 1.745-.622 3.067 0 .882.093 1.631.279 2.247.185.617.452 1.086.8 1.407a1.81 1.81 0 001.268.482z" fill="#7B91B0"/><circle cx="148" cy="288.5" fill="#00D3A2" r="6"/><path d="M171 294h-3.591v-11.636h3.75c1.129 0 2.095.233 2.898.698.803.463 1.418 1.127 1.846 1.995.428.863.642 1.898.642 3.102 0 1.212-.215 2.256-.647 3.131a4.618 4.618 0 01-1.887 2.011c-.825.466-1.829.699-3.011.699zm-2.182-1.25h2.091c.962 0 1.76-.186 2.392-.557a3.428 3.428 0 001.415-1.585c.311-.686.466-1.502.466-2.449 0-.939-.154-1.748-.46-2.426a3.396 3.396 0 00-1.375-1.568c-.61-.368-1.37-.551-2.279-.551h-2.25v9.136zm9.749 1.25v-8.727h1.341V294h-1.341zm.682-10.182a.953.953 0 01-.676-.267.856.856 0 01-.278-.642c0-.25.092-.464.278-.642a.953.953 0 01.676-.267c.261 0 .485.089.671.267a.851.851 0 01.284.642c0 .25-.095.464-.284.642a.936.936 0 01-.671.267zM182.204 294v-8.727h1.296v1.318h.091c.159-.432.446-.782.863-1.051a2.544 2.544 0 011.409-.404c.099 0 .222.002.37.006.147.004.259.01.335.017v1.364a3.462 3.462 0 00-.313-.051 3.014 3.014 0 00-.505-.04c-.425 0-.803.089-1.137.267a2.019 2.019 0 00-.784.727 1.963 1.963 0 00-.284 1.051V294h-1.341zm9.187.182c-.841 0-1.567-.186-2.176-.557a3.744 3.744 0 01-1.404-1.568c-.326-.674-.488-1.459-.488-2.352 0-.894.162-1.682.488-2.364.33-.686.788-1.22 1.375-1.602.591-.387 1.28-.58 2.068-.58.455 0 .904.076 1.347.227.443.152.847.398 1.21.739.364.337.654.784.87 1.341.215.557.323 1.242.323 2.057v.568h-6.727v-1.159h5.364c0-.493-.099-.932-.296-1.318a2.217 2.217 0 00-.829-.915c-.356-.224-.777-.335-1.262-.335-.534 0-.996.132-1.386.397a2.625 2.625 0 00-.892 1.023 3.01 3.01 0 00-.313 1.352v.773c0 .659.114 1.218.341 1.676.231.455.552.801.961 1.04.409.235.884.352 1.426.352.352 0 .67-.049.954-.147.288-.103.536-.254.745-.455.208-.205.369-.458.483-.761l1.295.363c-.136.44-.366.826-.687 1.159a3.35 3.35 0 01-1.194.773 4.416 4.416 0 01-1.596.273zm9.039 0c-.819 0-1.523-.193-2.114-.58a3.78 3.78 0 01-1.364-1.596c-.318-.678-.477-1.453-.477-2.324 0-.887.163-1.669.489-2.347.329-.682.788-1.214 1.375-1.596.591-.387 1.28-.58 2.068-.58.614 0 1.167.114 1.659.341.492.227.896.545 1.21.955.315.409.51.886.585 1.431h-1.34c-.103-.397-.33-.75-.682-1.056-.349-.311-.818-.466-1.409-.466-.523 0-.981.136-1.375.409-.391.269-.695.649-.915 1.142-.216.488-.324 1.062-.324 1.721 0 .675.106 1.262.318 1.762.216.5.519.888.909 1.164.394.277.856.415 1.387.415.348 0 .664-.06.948-.182a1.95 1.95 0 00.722-.522c.197-.228.337-.5.421-.818h1.34a3.1 3.1 0 01-.562 1.392 3.158 3.158 0 01-1.176.977c-.485.238-1.049.358-1.693.358zm9.027-8.909v1.136h-4.523v-1.136h4.523zm-3.204-2.091h1.34v8.318c0 .379.055.663.165.852a.853.853 0 00.432.375c.178.061.366.091.563.091.147 0 .268-.007.363-.023l.227-.045.273 1.205a2.76 2.76 0 01-.38.102c-.163.038-.37.057-.62.057-.379 0-.75-.082-1.113-.245a2.21 2.21 0 01-.898-.744c-.235-.333-.352-.754-.352-1.261v-8.682zM215.654 294v-8.727h1.296v1.363h.113c.182-.466.476-.827.881-1.085.405-.261.892-.392 1.46-.392.576 0 1.055.131 1.438.392.386.258.687.619.903 1.085h.091a2.55 2.55 0 011.006-1.074c.447-.268.983-.403 1.608-.403.78 0 1.418.244 1.914.733.497.485.745 1.241.745 2.267V294h-1.341v-5.841c0-.644-.176-1.104-.529-1.381a1.957 1.957 0 00-1.244-.414c-.614 0-1.089.185-1.426.556-.337.368-.506.834-.506 1.398V294H220.7v-5.977c0-.496-.161-.896-.483-1.199-.322-.307-.737-.46-1.245-.46-.348 0-.674.092-.977.278a2.1 2.1 0 00-.727.773 2.277 2.277 0 00-.273 1.13V294h-1.341zm17.405.182c-.84 0-1.566-.186-2.176-.557a3.736 3.736 0 01-1.403-1.568c-.326-.674-.489-1.459-.489-2.352 0-.894.163-1.682.489-2.364.329-.686.788-1.22 1.375-1.602.591-.387 1.28-.58 2.068-.58.455 0 .904.076 1.347.227.443.152.846.398 1.21.739.364.337.653.784.869 1.341.216.557.324 1.242.324 2.057v.568h-6.727v-1.159h5.363c0-.493-.098-.932-.295-1.318a2.219 2.219 0 00-.83-.915c-.356-.224-.776-.335-1.261-.335-.534 0-.996.132-1.386.397a2.617 2.617 0 00-.892 1.023 2.997 2.997 0 00-.313 1.352v.773c0 .659.114 1.218.341 1.676.231.455.551.801.96 1.04.409.235.885.352 1.426.352.353 0 .671-.049.955-.147.288-.103.536-.254.744-.455.209-.205.37-.458.483-.761l1.296.363c-.137.44-.366.826-.688 1.159-.322.33-.719.587-1.193.773a4.421 4.421 0 01-1.597.273zm11.676-6.955l-1.205.341a2.224 2.224 0 00-.335-.585 1.63 1.63 0 00-.591-.477c-.25-.125-.57-.188-.96-.188-.534 0-.979.123-1.335.37-.353.242-.529.551-.529.926 0 .333.121.596.364.789.242.194.621.355 1.136.483l1.296.319c.78.189 1.361.479 1.744.869.383.386.574.884.574 1.494 0 .5-.144.947-.432 1.341-.284.394-.682.705-1.193.932-.512.227-1.106.341-1.784.341-.89 0-1.627-.193-2.211-.58-.583-.386-.952-.95-1.107-1.693l1.272-.318c.121.47.351.822.688 1.057.341.235.786.352 1.335.352.625 0 1.121-.133 1.489-.398.371-.269.556-.591.556-.966 0-.303-.106-.556-.318-.761-.212-.208-.538-.364-.977-.466l-1.455-.341c-.799-.189-1.386-.483-1.761-.88-.371-.402-.557-.904-.557-1.506 0-.493.139-.928.415-1.307a2.82 2.82 0 011.142-.892c.485-.216 1.034-.324 1.648-.324.863 0 1.541.189 2.034.568a3.07 3.07 0 011.057 1.5zm8.199 0l-1.204.341a2.229 2.229 0 00-.336-.585 1.63 1.63 0 00-.591-.477c-.25-.125-.57-.188-.96-.188-.534 0-.979.123-1.335.37-.352.242-.528.551-.528.926 0 .333.121.596.363.789.243.194.621.355 1.137.483l1.295.319c.78.189 1.362.479 1.744.869.383.386.574.884.574 1.494 0 .5-.144.947-.432 1.341-.284.394-.681.705-1.193.932-.511.227-1.106.341-1.784.341-.89 0-1.627-.193-2.21-.58-.583-.386-.953-.95-1.108-1.693l1.273-.318c.121.47.35.822.687 1.057.341.235.786.352 1.335.352.625 0 1.122-.133 1.489-.398.371-.269.557-.591.557-.966 0-.303-.106-.556-.318-.761-.212-.208-.538-.364-.978-.466l-1.454-.341c-.799-.189-1.387-.483-1.762-.88-.371-.402-.556-.904-.556-1.506 0-.493.138-.928.414-1.307a2.827 2.827 0 011.142-.892c.485-.216 1.035-.324 1.648-.324.864 0 1.542.189 2.034.568.496.379.849.879 1.057 1.5zm4.586 6.978a3.554 3.554 0 01-1.506-.313 2.58 2.58 0 01-1.074-.915c-.265-.401-.397-.886-.397-1.454 0-.5.098-.906.295-1.216.197-.315.46-.561.79-.739.329-.178.693-.31 1.091-.398.401-.09.805-.162 1.21-.215.53-.069.96-.12 1.29-.154.333-.038.575-.1.727-.187.155-.087.233-.239.233-.455v-.045c0-.561-.153-.997-.46-1.307-.303-.311-.764-.466-1.381-.466-.64 0-1.142.14-1.506.42-.363.281-.619.58-.767.898l-1.272-.454c.227-.531.53-.944.909-1.239a3.398 3.398 0 011.25-.625 5.193 5.193 0 011.341-.182c.28 0 .602.034.965.102.368.065.722.199 1.063.404.345.204.631.513.858.926.227.413.341.966.341 1.659V294h-1.341v-1.182h-.068a2.36 2.36 0 01-.455.608c-.212.216-.494.4-.846.551-.353.152-.783.228-1.29.228zm.204-1.205c.531 0 .978-.104 1.341-.312.368-.209.644-.478.83-.807.189-.33.284-.676.284-1.04v-1.227c-.057.068-.182.13-.375.187a6.143 6.143 0 01-.659.142c-.246.038-.487.072-.722.102-.231.027-.418.05-.562.069a5.107 5.107 0 00-.978.221 1.69 1.69 0 00-.727.449c-.182.197-.273.466-.273.807 0 .466.173.818.518 1.057.348.235.789.352 1.323.352zm9.606 4.455c-.648 0-1.205-.084-1.67-.25a3.54 3.54 0 01-1.165-.648 3.54 3.54 0 01-.733-.852l1.068-.75c.121.159.275.34.46.545.186.208.44.388.762.54.325.155.751.233 1.278.233.705 0 1.286-.171 1.744-.512.459-.341.688-.875.688-1.602v-1.773h-.114a7.079 7.079 0 01-.42.591c-.178.231-.436.438-.773.62-.333.178-.784.267-1.352.267a3.646 3.646 0 01-1.898-.5c-.557-.334-.998-.819-1.324-1.455-.322-.636-.483-1.409-.483-2.318 0-.894.157-1.672.472-2.335.314-.667.752-1.182 1.312-1.546.561-.367 1.209-.551 1.943-.551.569 0 1.019.095 1.353.284.337.186.594.398.772.637.182.234.322.428.421.579h.136v-1.386h1.296v8.977c0 .75-.171 1.36-.512 1.83-.337.473-.791.82-1.363 1.039a5.135 5.135 0 01-1.898.336zm-.045-4.796c.537 0 .992-.123 1.363-.369s.654-.601.847-1.063c.193-.462.29-1.015.29-1.659 0-.629-.095-1.184-.285-1.665-.189-.481-.469-.858-.84-1.13-.372-.273-.83-.409-1.375-.409-.569 0-1.042.144-1.421.431a2.628 2.628 0 00-.846 1.16 4.465 4.465 0 00-.279 1.613c0 .606.095 1.142.284 1.608.193.462.477.826.852 1.091.379.261.849.392 1.41.392zm9.771 1.523c-.841 0-1.566-.186-2.176-.557a3.736 3.736 0 01-1.403-1.568c-.326-.674-.489-1.459-.489-2.352 0-.894.163-1.682.489-2.364.329-.686.788-1.22 1.375-1.602.591-.387 1.28-.58 2.068-.58.455 0 .903.076 1.347.227.443.152.846.398 1.21.739.363.337.653.784.869 1.341.216.557.324 1.242.324 2.057v.568h-6.727v-1.159h5.363c0-.493-.098-.932-.295-1.318a2.219 2.219 0 00-.83-.915c-.356-.224-.776-.335-1.261-.335-.534 0-.996.132-1.386.397a2.617 2.617 0 00-.892 1.023 2.997 2.997 0 00-.313 1.352v.773c0 .659.114 1.218.341 1.676.231.455.551.801.96 1.04.409.235.885.352 1.426.352.353 0 .671-.049.955-.147.288-.103.536-.254.744-.455.209-.205.37-.458.483-.761l1.296.363c-.137.44-.366.826-.688 1.159-.322.33-.72.587-1.193.773a4.425 4.425 0 01-1.597.273z" fill="#2C2C2C"/><path d="M71 179l64-82 57.5 82L239 29.5l58 111 57.5 38.5 53-42" stroke="#00D3A2" stroke-width="2" stroke-linecap="round"/><ellipse cx="71" cy="178.995" rx="3" ry="2.995" fill="#00D3A2"/><ellipse cx="192" cy="177.995" rx="3" ry="2.995" fill="#00D3A2"/><ellipse cx="239" cy="29.995" rx="3" ry="2.995" fill="#00D3A2"/><ellipse cx="407" cy="136.995" rx="3" ry="2.995" fill="#00D3A2"/><ellipse cx="354" cy="177.995" rx="3" ry="2.995" fill="#00D3A2"/><ellipse cx="297" cy="140.995" rx="3" ry="2.995" fill="#00D3A2"/><ellipse cx="135" cy="96.995" rx="3" ry="2.995" fill="#00D3A2"/></svg>