<svg width="257" height="260" viewBox="0 0 257 260" fill="none" xmlns="http://www.w3.org/2000/svg"><circle cx="8" cy="250.5" r="8" fill="#4EC125"/><path d="M26.886 256H25.41l4.273-11.636h1.454L35.41 256h-1.477l-3.478-9.795h-.09L26.886 256zm.546-4.545h5.954v1.25h-5.954v-1.25zm10.789-.705V256H36.88v-8.727h1.295v1.363h.114c.204-.443.515-.799.932-1.068.416-.273.954-.409 1.613-.409.591 0 1.108.121 1.551.364.444.238.788.602 1.035 1.091.246.484.369 1.098.369 1.841V256h-1.341v-5.455c0-.685-.178-1.219-.534-1.602-.356-.386-.845-.579-1.466-.579-.428 0-.81.092-1.148.278a1.99 1.99 0 00-.79.813c-.193.356-.29.787-.29 1.295zm14.04-1.523l-1.205.341a2.225 2.225 0 00-.335-.585 1.628 1.628 0 00-.59-.477c-.25-.125-.57-.188-.96-.188-.535 0-.98.123-1.336.37-.352.242-.529.551-.529.926 0 .333.122.596.364.789.242.194.621.355 1.136.483l1.296.319c.78.189 1.362.479 1.744.869.383.386.574.884.574 1.494 0 .5-.144.947-.432 1.341-.284.394-.682.705-1.193.932-.511.227-1.106.341-1.784.341-.89 0-1.627-.193-2.21-.58-.584-.386-.953-.95-1.108-1.693l1.273-.318c.12.47.35.822.687 1.057.34.235.786.352 1.335.352.625 0 1.121-.133 1.489-.398.371-.269.557-.591.557-.966 0-.303-.106-.556-.319-.761-.212-.208-.537-.364-.977-.466l-1.454-.341c-.8-.189-1.387-.483-1.762-.88-.37-.402-.556-.904-.556-1.506 0-.493.138-.928.414-1.307a2.82 2.82 0 011.142-.892c.485-.216 1.034-.324 1.648-.324.864 0 1.542.189 2.034.568.496.379.849.879 1.057 1.5zM56.256 256l-2.66-8.727h1.41l1.886 6.682h.091l1.864-6.682h1.431l1.841 6.659h.091l1.887-6.659h1.409L62.846 256H61.53l-1.91-6.705h-.136L57.574 256h-1.318zm14.225.182c-.841 0-1.566-.186-2.176-.557a3.74 3.74 0 01-1.404-1.568c-.326-.674-.488-1.459-.488-2.352 0-.894.162-1.682.488-2.364.33-.686.788-1.22 1.375-1.602.591-.387 1.28-.58 2.068-.58.455 0 .904.076 1.347.227.443.152.847.398 1.21.739.364.337.654.784.87 1.341.215.557.323 1.242.323 2.057v.568h-6.727v-1.159h5.364c0-.493-.099-.932-.296-1.318a2.22 2.22 0 00-.83-.915c-.355-.224-.776-.335-1.26-.335-.535 0-.997.132-1.387.397a2.624 2.624 0 00-.892 1.023 3.004 3.004 0 00-.313 1.352v.773c0 .659.114 1.218.341 1.676.231.455.552.801.96 1.04.41.235.885.352 1.427.352.352 0 .67-.049.954-.147a2.05 2.05 0 00.745-.455c.208-.205.369-.458.483-.761l1.295.363c-.136.44-.365.826-.688 1.159-.322.33-.72.587-1.193.773a4.421 4.421 0 01-1.596.273zm5.493-.182v-8.727h1.296v1.318h.09c.16-.432.448-.782.864-1.051a2.542 2.542 0 011.41-.404c.098 0 .22.002.369.006.147.004.259.01.335.017v1.364a3.412 3.412 0 00-.313-.051 3.023 3.023 0 00-.505-.04c-.425 0-.803.089-1.137.267-.33.174-.59.417-.784.727a1.96 1.96 0 00-.284 1.051V256h-1.34zm9.187.182c-.841 0-1.567-.186-2.176-.557a3.74 3.74 0 01-1.404-1.568c-.326-.674-.488-1.459-.488-2.352 0-.894.162-1.682.488-2.364.33-.686.788-1.22 1.375-1.602.591-.387 1.28-.58 2.068-.58.455 0 .904.076 1.347.227.443.152.847.398 1.21.739.364.337.654.784.87 1.341.215.557.323 1.242.323 2.057v.568h-6.727v-1.159h5.364c0-.493-.099-.932-.296-1.318a2.22 2.22 0 00-.83-.915c-.355-.224-.776-.335-1.26-.335-.535 0-.997.132-1.387.397a2.624 2.624 0 00-.892 1.023 3.004 3.004 0 00-.313 1.352v.773c0 .659.114 1.218.341 1.676.231.455.552.801.96 1.04.41.235.885.352 1.427.352.352 0 .67-.049.954-.147a2.05 2.05 0 00.745-.455c.208-.205.369-.458.483-.761l1.295.363c-.136.44-.366.826-.688 1.159-.322.33-.72.587-1.193.773a4.421 4.421 0 01-1.596.273zm8.789 0c-.728 0-1.37-.184-1.927-.551-.556-.372-.992-.894-1.306-1.569-.315-.678-.472-1.479-.472-2.403 0-.917.157-1.712.472-2.386.314-.675.752-1.195 1.312-1.563.56-.367 1.209-.551 1.943-.551.569 0 1.017.095 1.347.284.333.186.587.398.761.637.178.234.317.428.415.579h.114v-4.295h1.34V256h-1.295v-1.341h-.159a8.54 8.54 0 01-.42.602c-.182.239-.442.453-.779.642-.337.186-.786.279-1.346.279zm.181-1.205c.538 0 .993-.14 1.364-.42.371-.284.653-.676.847-1.176.193-.504.29-1.086.29-1.745 0-.651-.095-1.221-.285-1.71-.19-.492-.47-.875-.84-1.148-.372-.276-.83-.414-1.376-.414-.568 0-1.041.145-1.42.437-.375.288-.657.68-.847 1.176a4.68 4.68 0 00-.278 1.659c0 .622.095 1.186.284 1.694.193.503.477.905.852 1.204.38.296.849.443 1.41.443z" fill="#2C2C2C"/><circle cx="145" cy="250.5" r="8" fill="#D13C3C"/><path d="M170.045 244.364h1.41v7.704c0 .796-.188 1.506-.563 2.131a3.932 3.932 0 01-1.574 1.471c-.678.357-1.473.535-2.386.535s-1.709-.178-2.387-.535a3.972 3.972 0 01-1.579-1.471c-.371-.625-.557-1.335-.557-2.131v-7.704h1.409v7.591c0 .568.125 1.073.375 1.517.25.439.606.786 1.068 1.039.466.25 1.023.375 1.671.375.648 0 1.204-.125 1.67-.375.466-.253.822-.6 1.068-1.039.25-.444.375-.949.375-1.517v-7.591zm5.223 6.386V256h-1.341v-8.727h1.295v1.363h.114c.204-.443.515-.799.932-1.068.416-.273.954-.409 1.613-.409.591 0 1.108.121 1.551.364.444.238.788.602 1.034 1.091.247.484.37 1.098.37 1.841V256h-1.341v-5.455c0-.685-.178-1.219-.534-1.602-.356-.386-.845-.579-1.466-.579-.428 0-.811.092-1.148.278a1.998 1.998 0 00-.79.813c-.193.356-.289.787-.289 1.295zm8.517 5.25h-1.477l4.273-11.636h1.454L192.308 256h-1.477l-3.478-9.795h-.091L183.785 256zm.546-4.545h5.954v1.25h-5.954v-1.25zm10.788-.705V256h-1.34v-8.727h1.295v1.363h.114c.204-.443.515-.799.931-1.068.417-.273.955-.409 1.614-.409.591 0 1.108.121 1.551.364.443.238.788.602 1.034 1.091.247.484.37 1.098.37 1.841V256h-1.341v-5.455c0-.685-.178-1.219-.534-1.602-.356-.386-.845-.579-1.466-.579-.428 0-.811.092-1.148.278a1.992 1.992 0 00-.79.813c-.193.356-.29.787-.29 1.295zm14.041-1.523l-1.205.341a2.224 2.224 0 00-.335-.585 1.63 1.63 0 00-.591-.477c-.25-.125-.57-.188-.96-.188-.534 0-.979.123-1.335.37-.353.242-.529.551-.529.926 0 .333.121.596.364.789.242.194.621.355 1.136.483l1.296.319c.78.189 1.361.479 1.744.869.383.386.574.884.574 1.494 0 .5-.144.947-.432 1.341-.284.394-.682.705-1.193.932-.512.227-1.106.341-1.784.341-.89 0-1.627-.193-2.211-.58-.583-.386-.952-.95-1.107-1.693l1.272-.318c.121.47.351.822.688 1.057.341.235.786.352 1.335.352.625 0 1.121-.133 1.489-.398.371-.269.556-.591.556-.966 0-.303-.106-.556-.318-.761-.212-.208-.538-.364-.977-.466l-1.455-.341c-.799-.189-1.386-.483-1.761-.88-.371-.402-.557-.904-.557-1.506 0-.493.139-.928.415-1.307a2.82 2.82 0 011.142-.892c.485-.216 1.034-.324 1.648-.324.863 0 1.541.189 2.034.568a3.07 3.07 0 011.057 1.5zm3.995 6.773l-2.66-8.727h1.41l1.886 6.682h.091l1.863-6.682h1.432l1.841 6.659h.091l1.886-6.659h1.41l-2.66 8.727h-1.318l-1.909-6.705h-.136L214.473 256h-1.318zm14.224.182c-.84 0-1.566-.186-2.176-.557a3.736 3.736 0 01-1.403-1.568c-.326-.674-.489-1.459-.489-2.352 0-.894.163-1.682.489-2.364.329-.686.788-1.22 1.375-1.602.591-.387 1.28-.58 2.068-.58.455 0 .904.076 1.347.227.443.152.846.398 1.21.739.364.337.653.784.869 1.341.216.557.324 1.242.324 2.057v.568h-6.727v-1.159h5.363c0-.493-.098-.932-.295-1.318a2.219 2.219 0 00-.83-.915c-.356-.224-.776-.335-1.261-.335-.534 0-.996.132-1.386.397a2.617 2.617 0 00-.892 1.023 2.997 2.997 0 00-.313 1.352v.773c0 .659.114 1.218.341 1.676.231.455.551.801.96 1.04.409.235.885.352 1.426.352.353 0 .671-.049.955-.147.288-.103.536-.254.744-.455.209-.205.37-.458.483-.761l1.296.363c-.137.44-.366.826-.688 1.159-.322.33-.719.587-1.193.773a4.421 4.421 0 01-1.597.273zm5.494-.182v-8.727h1.295v1.318h.091c.159-.432.447-.782.864-1.051a2.542 2.542 0 011.409-.404c.098 0 .222.002.369.006.148.004.26.01.336.017v1.364a3.462 3.462 0 00-.313-.051 3.026 3.026 0 00-.506-.04c-.424 0-.803.089-1.136.267-.33.174-.591.417-.784.727a1.963 1.963 0 00-.284 1.051V256h-1.341zm9.186.182c-.84 0-1.566-.186-2.176-.557a3.736 3.736 0 01-1.403-1.568c-.326-.674-.489-1.459-.489-2.352 0-.894.163-1.682.489-2.364.329-.686.788-1.22 1.375-1.602.591-.387 1.28-.58 2.068-.58.455 0 .904.076 1.347.227.443.152.846.398 1.21.739.364.337.653.784.869 1.341.216.557.324 1.242.324 2.057v.568h-6.727v-1.159h5.363c0-.493-.098-.932-.295-1.318a2.219 2.219 0 00-.83-.915c-.356-.224-.776-.335-1.261-.335-.534 0-.996.132-1.386.397a2.617 2.617 0 00-.892 1.023 2.997 2.997 0 00-.313 1.352v.773c0 .659.114 1.218.341 1.676.231.455.551.801.96 1.04.409.235.885.352 1.426.352.353 0 .671-.049.955-.147.288-.103.536-.254.744-.455.209-.205.37-.458.483-.761l1.296.363c-.137.44-.366.826-.688 1.159-.322.33-.719.587-1.193.773a4.421 4.421 0 01-1.597.273zm8.789 0c-.727 0-1.369-.184-1.926-.551-.557-.372-.992-.894-1.307-1.569-.314-.678-.471-1.479-.471-2.403 0-.917.157-1.712.471-2.386.315-.675.752-1.195 1.313-1.563.561-.367 1.208-.551 1.943-.551.568 0 1.017.095 1.347.284.333.186.587.398.761.637.178.234.316.428.415.579h.113v-4.295h1.341V256h-1.295v-1.341h-.159c-.099.159-.239.36-.421.602-.181.239-.441.453-.778.642-.337.186-.786.279-1.347.279zm.182-1.205c.538 0 .993-.14 1.364-.42.371-.284.653-.676.846-1.176.194-.504.29-1.086.29-1.745 0-.651-.095-1.221-.284-1.71-.189-.492-.47-.875-.841-1.148-.371-.276-.829-.414-1.375-.414-.568 0-1.041.145-1.42.437-.375.288-.657.68-.847 1.176a4.694 4.694 0 00-.278 1.659c0 .622.094 1.186.284 1.694.193.503.477.905.852 1.204.379.296.849.443 1.409.443z" fill="#2C2C2C"/><path d="M129.027 101V1c55.229 0 100 44.772 100 100 0 42.04-26.293 79.591-65.798 93.969L129.027 101z" fill="#D13C3C" stroke="#fff"/><path d="M129.027 101l34.202 93.969c-51.898 18.89-109.282-7.869-128.171-59.767C16.168 83.304 42.928 25.92 94.825 7.031A100 100 0 01129.027 1v100z" fill="#4EC125" stroke="#fff"/><circle cx="129.5" cy="101.5" r="71.5" fill="#fff"/></svg>