<svg width="957" height="367" viewBox="0 0 957 367" fill="none" xmlns="http://www.w3.org/2000/svg"><path d="M98.063 285.15h1.531v7.219c0 .653-.129 1.211-.387 1.675a2.587 2.587 0 01-1.08 1.064c-.463.242-1.007.363-1.63.363a3.68 3.68 0 01-1.546-.313 2.544 2.544 0 01-1.079-.91c-.262-.401-.392-.888-.392-1.462h1.526c0 .282.064.526.194.731.132.206.313.367.542.483.232.112.497.169.795.169.325 0 .6-.068.825-.204.229-.139.403-.343.522-.612.12-.268.18-.596.18-.984v-7.219zm10.315 0h1.541v6.697c0 .712-.167 1.344-.502 1.894a3.51 3.51 0 01-1.412 1.293c-.606.311-1.317.467-2.133.467-.812 0-1.521-.156-2.127-.467a3.503 3.503 0 01-1.412-1.293c-.335-.55-.502-1.182-.502-1.894v-6.697h1.536v6.573c0 .46.101.87.303 1.228.206.357.496.639.87.845.375.202.819.303 1.332.303.517 0 .963-.101 1.338-.303.378-.206.666-.488.865-.845.202-.358.303-.768.303-1.228v-6.573zm11.993 0v10.182h-1.412l-5.176-7.467h-.094v7.467h-1.536V285.15h1.422l5.18 7.477h.095v-7.477h1.521zm2.241 10.182V285.15h6.383v1.323h-4.847v3.102h4.514v1.317h-4.514v3.117h4.907v1.323h-6.443z" fill="#7B91B0"/><rect x=".559" y="123.274" width="106.394" height="130.943" rx="4.486" fill="#6441A5"/><rect x="113.601" y="246.281" width="106.394" height="7.936" rx="3.968" fill="#EDF0F7"/><rect x="245.929" y=".267" width="106.394" height="253.937" rx="4.486" fill="#6441A5"/><rect x="358.971" y="240.329" width="106.394" height="13.888" rx="4.486" fill="#EDF0F7"/><path d="M344.099 285.15h1.531v7.219c0 .653-.129 1.211-.388 1.675a2.583 2.583 0 01-1.078 1.064c-.464.242-1.008.363-1.631.363a3.678 3.678 0 01-1.546-.313 2.543 2.543 0 01-1.079-.91c-.262-.401-.393-.888-.393-1.462h1.526c0 .282.065.526.194.731.133.206.314.366.542.482.232.113.497.169.796.169.324 0 .6-.068.825-.203.229-.14.403-.343.522-.612.119-.268.179-.596.179-.984v-7.219zm10.315 0h1.541v6.697c0 .712-.167 1.344-.502 1.894a3.507 3.507 0 01-1.412 1.292c-.607.312-1.318.468-2.133.468-.812 0-1.521-.156-2.128-.468a3.507 3.507 0 01-1.412-1.292c-.334-.55-.502-1.182-.502-1.894v-6.697h1.536v6.572c0 .461.101.87.304 1.228a2.2 2.2 0 00.87.846c.374.202.818.303 1.332.303.517 0 .963-.101 1.337-.303.378-.206.667-.488.865-.846.203-.358.304-.767.304-1.228v-6.572zm3.774 10.182V285.15h1.537v8.859h4.613v1.323h-6.15zm6.365-10.182h1.745l2.66 4.629h.11l2.659-4.629h1.745l-3.694 6.185v3.997h-1.531v-3.997l-3.694-6.185z" fill="#7B91B0"/><path d="M588.369 295.332h-1.63l3.664-10.182h1.775l3.664 10.182h-1.631L591.332 287h-.079l-2.884 8.332zm.274-3.987h5.29v1.292h-5.29v-1.292zm15.217-6.195h1.541v6.697c0 .712-.168 1.344-.502 1.894a3.516 3.516 0 01-1.412 1.293c-.607.311-1.318.467-2.133.467-.812 0-1.521-.156-2.128-.467a3.51 3.51 0 01-1.412-1.293c-.335-.55-.502-1.182-.502-1.894v-6.697h1.536v6.573c0 .46.101.87.303 1.228.206.357.496.639.87.845.375.202.819.303 1.333.303.517 0 .963-.101 1.337-.303.378-.206.666-.488.865-.845.202-.358.304-.768.304-1.228v-6.573zm10.665 3.217a3.121 3.121 0 00-.388-.811 2.475 2.475 0 00-1.332-1.009 3.078 3.078 0 00-.93-.134c-.573 0-1.09.147-1.551.442-.461.295-.825.728-1.094 1.298-.265.567-.398 1.261-.398 2.083 0 .825.135 1.523.403 2.093.269.57.636 1.003 1.104 1.298.467.295.999.442 1.596.442.553 0 1.035-.113 1.446-.338.415-.225.735-.544.96-.954.229-.415.343-.902.343-1.462l.398.074h-2.914v-1.267h4.002v1.158c0 .855-.182 1.598-.546 2.227a3.722 3.722 0 01-1.502 1.452c-.636.341-1.365.512-2.187.512-.922 0-1.73-.212-2.426-.636-.693-.424-1.233-1.026-1.621-1.805-.388-.782-.582-1.71-.582-2.784 0-.812.113-1.541.338-2.188a4.758 4.758 0 01.95-1.645 4.14 4.14 0 011.446-1.039 4.53 4.53 0 011.825-.363c.55 0 1.062.081 1.536.243.478.163.902.393 1.273.692a3.91 3.91 0 011.427 2.421h-1.576z" fill="#8B9FBA"/><path d="M840.426 291.132a1.452 1.452 0 00-.656-1.094c-.385-.262-.869-.393-1.452-.393-.418 0-.779.066-1.084.199a1.664 1.664 0 00-.711.537 1.263 1.263 0 00-.248.77c0 .242.056.451.169.627.116.176.266.323.452.442.189.116.391.214.606.294.216.076.423.139.622.189l.994.258c.325.08.658.187 1 .323.341.136.657.315.949.537.292.222.527.497.706.825.182.329.274.721.274 1.179 0 .576-.15 1.089-.448 1.536-.295.447-.724.8-1.288 1.059-.56.258-1.237.388-2.033.388-.762 0-1.422-.121-1.979-.363-.556-.242-.992-.585-1.307-1.029-.315-.448-.489-.978-.522-1.591h1.541c.03.368.149.674.358.919.212.242.482.423.81.542.332.116.695.174 1.089.174.434 0 .82-.068 1.158-.203.342-.14.61-.332.806-.577a1.37 1.37 0 00.293-.87c0-.302-.086-.549-.258-.741a1.918 1.918 0 00-.691-.477 6.752 6.752 0 00-.98-.333l-1.203-.328c-.815-.222-1.462-.549-1.939-.98-.474-.431-.711-1.001-.711-1.71 0-.587.159-1.099.478-1.536a3.123 3.123 0 011.292-1.019c.544-.246 1.157-.368 1.84-.368.689 0 1.297.121 1.824.363.531.242.948.575 1.253.999.305.421.464.905.477 1.452h-1.481zm3.456 7.507v-10.182h6.384v1.322h-4.847v3.103h4.514v1.317h-4.514v3.117h4.906v1.323h-6.443zm8.436 0v-10.182h3.629c.792 0 1.448.144 1.969.432.52.289.91.683 1.168 1.184.259.497.388 1.057.388 1.68 0 .626-.131 1.19-.393 1.69a2.834 2.834 0 01-1.173 1.184c-.52.288-1.175.432-1.964.432h-2.496v-1.302h2.357c.5 0 .906-.087 1.218-.259.312-.176.54-.414.686-.716.146-.301.219-.645.219-1.029a2.3 2.3 0 00-.219-1.024 1.57 1.57 0 00-.691-.701c-.312-.169-.723-.254-1.233-.254h-1.929v8.865h-1.536z" fill="#8398B5"/><rect x="736.67" y="123.274" width="106.394" height="130.943" rx="4.486" fill="#6441A5"/><rect x="849.717" y="240.33" width="106.394" height="13.888" rx="4.486" fill="#EDF0F7"/><rect x="491.3" y="93.514" width="106.394" height="160.703" rx="4.486" fill="#6441A5"/><rect x="604.343" y="234.378" width="106.394" height="19.84" rx="4.486" fill="#EDF0F7"/><circle cx="392.736" cy="354.205" r="5.299" fill="#6441A5"/><path d="M405.778 359.705v-10.182h3.629c.792 0 1.448.145 1.969.433.52.288.91.683 1.168 1.183.259.497.388 1.057.388 1.681a3.59 3.59 0 01-.393 1.69 2.838 2.838 0 01-1.173 1.183c-.521.288-1.175.433-1.964.433h-2.496v-1.303h2.357c.5 0 .906-.086 1.218-.258.311-.176.54-.415.686-.716.146-.302.219-.645.219-1.029 0-.385-.073-.726-.219-1.025a1.57 1.57 0 00-.691-.701c-.312-.169-.723-.253-1.233-.253h-1.929v8.864h-1.536zm10.989.169c-.483 0-.921-.089-1.312-.268a2.218 2.218 0 01-.93-.791c-.225-.344-.338-.767-.338-1.267 0-.431.083-.786.249-1.064.166-.279.389-.499.671-.662a3.53 3.53 0 01.945-.368 9.536 9.536 0 011.064-.188l1.113-.13c.285-.036.492-.094.622-.174.129-.079.193-.209.193-.387v-.035c0-.434-.122-.771-.367-1.01-.242-.238-.604-.357-1.084-.357-.501 0-.895.111-1.183.333-.286.218-.483.462-.592.73l-1.397-.318c.166-.464.408-.838.726-1.123a2.945 2.945 0 011.108-.627 4.35 4.35 0 011.318-.199c.305 0 .628.037.969.11.345.069.667.199.965.388.301.188.548.459.741.81.192.348.288.8.288 1.357v5.071h-1.452v-1.044h-.059a2.152 2.152 0 01-.433.567c-.192.186-.439.34-.741.462-.301.123-.663.184-1.084.184zm.324-1.193c.411 0 .762-.081 1.054-.244.295-.162.518-.374.671-.636.156-.265.233-.548.233-.85v-.984c-.053.053-.155.102-.308.149-.149.043-.32.081-.512.114l-.562.085-.457.059a3.744 3.744 0 00-.791.184 1.356 1.356 0 00-.566.373c-.139.159-.209.371-.209.636 0 .368.136.647.408.836.271.185.618.278 1.039.278zm8.627 4.047c-.607 0-1.129-.08-1.566-.239-.435-.159-.789-.369-1.064-.631a2.663 2.663 0 01-.617-.86l1.278-.527c.089.146.209.3.358.462.152.166.358.307.616.423.262.116.599.174 1.01.174.563 0 1.029-.138 1.397-.413.367-.272.551-.706.551-1.302v-1.502h-.094c-.09.163-.219.343-.388.542a2.096 2.096 0 01-.686.517c-.292.146-.671.219-1.138.219a3.178 3.178 0 01-1.631-.423c-.481-.285-.862-.704-1.144-1.258-.278-.556-.417-1.241-.417-2.053 0-.812.137-1.508.412-2.088.279-.58.66-1.024 1.144-1.332a2.97 2.97 0 011.645-.468c.474 0 .857.08 1.149.239.292.156.519.338.681.547a4.4 4.4 0 01.383.552h.109v-1.238h1.457v7.805c0 .656-.153 1.195-.457 1.616a2.7 2.7 0 01-1.238.935c-.517.202-1.101.303-1.75.303zm-.015-4.37c.427 0 .789-.1 1.083-.298.299-.203.524-.491.677-.865.155-.378.233-.831.233-1.358 0-.513-.076-.966-.228-1.357a2.025 2.025 0 00-.672-.915c-.295-.222-.659-.333-1.093-.333-.448 0-.821.116-1.119.348-.298.229-.524.54-.676.935a3.715 3.715 0 00-.224 1.322c0 .501.076.94.229 1.318.152.378.378.673.676.885.302.212.673.318 1.114.318zm8.745 1.501c-.753 0-1.401-.16-1.944-.482a3.272 3.272 0 01-1.253-1.367c-.292-.59-.438-1.281-.438-2.073 0-.782.146-1.472.438-2.068a3.39 3.39 0 011.233-1.397c.53-.335 1.15-.503 1.859-.503.431 0 .849.072 1.253.214a3.04 3.04 0 011.089.671c.321.305.575.701.761 1.189.185.483.278 1.072.278 1.764v.527h-6.07v-1.113h4.613c0-.391-.079-.738-.238-1.039a1.808 1.808 0 00-.671-.721 1.876 1.876 0 00-1.005-.264 1.94 1.94 0 00-1.094.309 2.066 2.066 0 00-.715.795 2.294 2.294 0 00-.249 1.059v.87c0 .51.089.945.268 1.303.183.358.436.631.761.82.325.186.704.278 1.139.278.281 0 .538-.039.77-.119a1.66 1.66 0 00.602-.368c.169-.162.298-.363.388-.601l1.407.253a2.554 2.554 0 01-.607 1.089 2.945 2.945 0 01-1.089.721c-.434.169-.929.253-1.486.253zm8.75-.154v-10.182h3.629c.792 0 1.448.145 1.969.433.52.288.91.683 1.168 1.183.259.497.388 1.057.388 1.681a3.59 3.59 0 01-.393 1.69c-.258.497-.65.891-1.173 1.183-.521.288-1.175.433-1.964.433h-2.496v-1.303h2.357c.5 0 .906-.086 1.218-.258.311-.176.54-.415.686-.716.146-.302.219-.645.219-1.029 0-.385-.073-.726-.219-1.025a1.57 1.57 0 00-.691-.701c-.312-.169-.723-.253-1.233-.253h-1.929v8.864h-1.536zm11.956.154c-.716 0-1.34-.164-1.874-.492a3.315 3.315 0 01-1.243-1.377c-.295-.59-.442-1.279-.442-2.068 0-.792.147-1.485.442-2.078a3.305 3.305 0 011.243-1.382c.534-.329 1.158-.493 1.874-.493.716 0 1.341.164 1.875.493.533.328.948.788 1.243 1.382.295.593.442 1.286.442 2.078 0 .789-.147 1.478-.442 2.068a3.322 3.322 0 01-1.243 1.377c-.534.328-1.159.492-1.875.492zm.005-1.248c.464 0 .849-.122 1.154-.367a2.16 2.16 0 00.676-.98 3.9 3.9 0 00.224-1.347 3.88 3.88 0 00-.224-1.342 2.192 2.192 0 00-.676-.99c-.305-.248-.69-.373-1.154-.373-.467 0-.855.125-1.163.373a2.224 2.224 0 00-.681.99 3.952 3.952 0 00-.219 1.342c0 .49.073.939.219 1.347.149.408.376.734.681.98.308.245.696.367 1.163.367zm10.937-4.678l-1.348.239a1.584 1.584 0 00-.268-.492 1.322 1.322 0 00-.487-.383c-.206-.1-.463-.149-.771-.149-.421 0-.772.094-1.054.283-.282.186-.423.426-.423.721 0 .255.095.461.284.616.189.156.494.284.915.383l1.213.279c.702.162 1.226.412 1.571.75.344.338.517.778.517 1.318 0 .457-.133.865-.398 1.223-.262.354-.628.633-1.099.835-.467.202-1.009.303-1.625.303-.856 0-1.553-.182-2.093-.547-.541-.367-.872-.889-.995-1.566l1.437-.218c.09.374.273.658.552.85.278.189.641.283 1.089.283.487 0 .876-.101 1.168-.303.292-.206.437-.456.437-.751a.779.779 0 00-.268-.601c-.176-.163-.446-.285-.81-.368l-1.293-.284c-.713-.162-1.24-.421-1.581-.775-.338-.355-.507-.804-.507-1.348 0-.45.126-.845.378-1.183.252-.338.6-.601 1.044-.79.444-.192.953-.289 1.526-.289.825 0 1.475.179 1.949.537.474.355.787.831.94 1.427zm5.348-1.864v1.193h-4.171v-1.193h4.171zm-3.053-1.83h1.487v7.224c0 .288.043.505.129.651a.672.672 0 00.333.294c.139.049.29.074.453.074.119 0 .223-.008.313-.025l.209-.039.268 1.228a2.99 2.99 0 01-.964.159 2.623 2.623 0 01-1.094-.209 1.88 1.88 0 01-.821-.676c-.208-.305-.313-.688-.313-1.149v-7.532z" fill="#8398B5"/><circle cx="488.489" cy="354.205" r="5.299" fill="#EDF0F7"/><path d="M508.078 349.524h1.541v6.696c0 .713-.167 1.344-.502 1.894a3.503 3.503 0 01-1.412 1.293c-.606.312-1.317.467-2.132.467-.812 0-1.522-.155-2.128-.467a3.51 3.51 0 01-1.412-1.293c-.335-.55-.502-1.181-.502-1.894v-6.696h1.536v6.572c0 .461.101.87.303 1.228.206.358.496.64.87.845.375.202.819.303 1.333.303.517 0 .962-.101 1.337-.303.378-.205.666-.487.865-.845.202-.358.303-.767.303-1.228v-6.572zm9.378 4.409l-1.347.239a1.61 1.61 0 00-.269-.492 1.322 1.322 0 00-.487-.383c-.206-.099-.462-.149-.771-.149-.421 0-.772.094-1.054.283-.281.186-.422.426-.422.721a.76.76 0 00.283.617c.189.155.494.283.915.382l1.213.279c.703.162 1.226.412 1.571.75.345.339.517.778.517 1.318 0 .457-.132.865-.398 1.223-.261.355-.628.633-1.098.835-.468.202-1.01.303-1.626.303-.855 0-1.553-.182-2.093-.546-.54-.368-.872-.89-.994-1.566l1.436-.219c.09.374.274.658.552.85.279.189.642.283 1.089.283.487 0 .877-.101 1.168-.303.292-.205.438-.456.438-.751a.78.78 0 00-.269-.601c-.175-.163-.445-.285-.81-.368l-1.293-.284c-.712-.162-1.239-.42-1.581-.775-.338-.355-.507-.804-.507-1.347 0-.451.126-.846.378-1.184.252-.338.6-.601 1.044-.79.444-.192.953-.288 1.526-.288.826 0 1.475.179 1.949.536a2.5 2.5 0 01.94 1.427zm5.075 5.926c-.753 0-1.401-.16-1.944-.482a3.272 3.272 0 01-1.253-1.367c-.292-.59-.438-1.281-.438-2.073 0-.782.146-1.472.438-2.068a3.39 3.39 0 011.233-1.397c.53-.335 1.15-.502 1.859-.502.431 0 .849.071 1.253.213.405.143.767.367 1.089.671.321.305.575.701.761 1.189.185.484.278 1.072.278 1.765v.527h-6.07v-1.114h4.613c0-.391-.079-.738-.238-1.039a1.808 1.808 0 00-.671-.721 1.876 1.876 0 00-1.005-.263c-.417 0-.782.102-1.093.308a2.061 2.061 0 00-.716.795 2.294 2.294 0 00-.249 1.059v.87c0 .511.09.945.268 1.303.183.358.436.631.761.82.325.186.704.278 1.139.278.281 0 .538-.039.77-.119a1.66 1.66 0 00.602-.368c.169-.162.298-.363.388-.601l1.407.253a2.548 2.548 0 01-.607 1.089 2.932 2.932 0 01-1.089.721c-.434.169-.929.253-1.486.253zm4.925-.154v-7.636h1.437v1.213h.08c.139-.411.384-.734.735-.969a2.105 2.105 0 011.204-.358 5.986 5.986 0 01.631.034v1.422a2.664 2.664 0 00-.318-.054 2.943 2.943 0 00-.458-.035c-.351 0-.664.074-.939.224a1.66 1.66 0 00-.885 1.496v4.663h-1.487zm11.096-5.772l-1.348.239a1.585 1.585 0 00-.268-.492 1.322 1.322 0 00-.487-.383c-.206-.099-.463-.149-.771-.149-.421 0-.772.094-1.054.283-.282.186-.422.426-.422.721a.76.76 0 00.283.617c.189.155.494.283.915.382l1.213.279c.702.162 1.226.412 1.571.75.344.339.517.778.517 1.318 0 .457-.133.865-.398 1.223-.262.355-.628.633-1.099.835-.467.202-1.009.303-1.625.303-.855 0-1.553-.182-2.093-.546-.541-.368-.872-.89-.995-1.566l1.437-.219c.09.374.274.658.552.85.278.189.641.283 1.089.283.487 0 .876-.101 1.168-.303.292-.205.438-.456.438-.751a.78.78 0 00-.269-.601c-.176-.163-.446-.285-.81-.368l-1.293-.284c-.713-.162-1.239-.42-1.581-.775-.338-.355-.507-.804-.507-1.347 0-.451.126-.846.378-1.184.252-.338.6-.601 1.044-.79.444-.192.953-.288 1.526-.288.825 0 1.475.179 1.949.536.474.355.787.831.94 1.427zm5.608 5.772v-10.181h3.629c.792 0 1.448.144 1.969.432.52.288.909.683 1.168 1.183.258.497.388 1.058.388 1.681 0 .626-.131 1.19-.393 1.69-.259.497-.65.892-1.173 1.183-.521.289-1.175.433-1.964.433h-2.496v-1.303h2.357c.5 0 .906-.086 1.218-.258.311-.176.54-.415.686-.716.146-.302.219-.645.219-1.029 0-.385-.073-.726-.219-1.024a1.565 1.565 0 00-.691-.701c-.312-.17-.723-.254-1.233-.254h-1.929v8.864h-1.536zm11.956.154c-.716 0-1.34-.164-1.874-.492a3.315 3.315 0 01-1.243-1.377c-.295-.59-.442-1.279-.442-2.068 0-.792.147-1.485.442-2.078a3.31 3.31 0 011.243-1.382c.534-.328 1.158-.492 1.874-.492.716 0 1.341.164 1.875.492.533.328.948.789 1.242 1.382.295.593.443 1.286.443 2.078 0 .789-.148 1.478-.443 2.068a3.313 3.313 0 01-1.242 1.377c-.534.328-1.159.492-1.875.492zm.005-1.247c.464 0 .849-.123 1.154-.368a2.16 2.16 0 00.676-.98c.149-.407.224-.856.224-1.347a3.88 3.88 0 00-.224-1.342 2.192 2.192 0 00-.676-.99c-.305-.248-.69-.373-1.154-.373-.467 0-.855.125-1.163.373a2.224 2.224 0 00-.681.99 3.952 3.952 0 00-.219 1.342c0 .491.073.94.219 1.347.149.408.376.734.681.98.308.245.696.368 1.163.368zm10.937-4.679l-1.348.239a1.606 1.606 0 00-.268-.492 1.33 1.33 0 00-.487-.383c-.206-.099-.463-.149-.771-.149-.421 0-.772.094-1.054.283-.282.186-.423.426-.423.721 0 .255.095.461.284.617.189.155.494.283.915.382l1.213.279c.702.162 1.226.412 1.571.75.344.339.517.778.517 1.318 0 .457-.133.865-.398 1.223-.262.355-.628.633-1.099.835-.467.202-1.009.303-1.625.303-.856 0-1.553-.182-2.094-.546-.54-.368-.871-.89-.994-1.566l1.437-.219c.089.374.273.658.552.85.278.189.641.283 1.089.283.487 0 .876-.101 1.168-.303.292-.205.437-.456.437-.751a.779.779 0 00-.268-.601c-.176-.163-.446-.285-.81-.368l-1.293-.284c-.713-.162-1.24-.42-1.581-.775-.338-.355-.507-.804-.507-1.347 0-.451.126-.846.378-1.184.252-.338.6-.601 1.044-.79.444-.192.953-.288 1.526-.288.825 0 1.475.179 1.949.536.474.355.787.831.94 1.427zm5.348-1.864v1.193h-4.171v-1.193h4.171zm-3.053-1.83h1.487v7.224c0 .288.043.506.129.651a.672.672 0 00.333.294c.139.049.29.074.452.074.12 0 .224-.008.314-.025l.208-.039.269 1.228a2.507 2.507 0 01-.368.099 2.92 2.92 0 01-.597.06 2.621 2.621 0 01-1.093-.209 1.88 1.88 0 01-.821-.676c-.208-.305-.313-.688-.313-1.149v-7.532z" fill="#8398B5"/></svg>