<svg width="479" height="385" viewBox="0 0 479 385" fill="none" xmlns="http://www.w3.org/2000/svg"><path d="M35.606 173.354c19.494-34.429 65.6-121.592 81.426-121.592 31.762 0 41.984-15.09 62.383-15.09s41.115 75.961 69.391 75.961c28.275 0 41.377-80.991 69.771-80.991 27.307 0 66.679 52.157 93.786 56.152 2.103.31 4.224-.037 6.308-.453 35.166-7.027 53.546 15.902 53.546 15.902" stroke="#5A3795" stroke-width="2.66" stroke-linecap="round"/><path fill-rule="evenodd" clip-rule="evenodd" d="M34.172 185.865c.003-17.334 16.256-39.135 25.311-53.916 18.06-29.476 35.686-80.85 57.549-80.85 31.762 0 41.984-15.091 62.384-15.091 20.399 0 42.352 77.213 70.628 77.213 28.275 0 40.14-82.243 68.534-82.243 28.394 0 67.644 55.331 94.774 55.331 23.668 0 62.384-.05 62.384 23.618V259.71c0 14.69-11.909 26.598-26.599 26.598H60.814c-14.675 0-26.576-11.846-26.593-26.52-.025-21.141-.053-50.911-.05-73.923z" fill="url(#paint0_linear_122_496)"/><ellipse cx="472.517" cy="102.825" rx="4.322" ry="4.315" fill="#6441A5"/><path d="M419.728 86.258a4.32 4.32 0 01-4.323 4.314 4.318 4.318 0 01-4.322-4.314 4.318 4.318 0 014.322-4.315 4.32 4.32 0 014.323 4.315z" fill="#6441A5"/><ellipse cx="319.301" cy="30.262" rx="4.322" ry="4.315" fill="#6441A5"/><ellipse cx="249.725" cy="111.589" rx="4.322" ry="4.315" fill="#6441A5"/><ellipse cx="180.139" cy="35.292" rx="4.322" ry="4.315" fill="#6441A5"/><ellipse cx="117.755" cy="50.383" rx="4.322" ry="4.315" fill="#6441A5"/><ellipse cx="34.978" cy="172.31" rx="4.322" ry="4.315" fill="#6441A5"/><path d="M34.187 227.437c14.285-20.18 39.933-25.176 59.229-30.696 7.859-2.249 16.607-2.072 23.158 2.817 27.711 20.68 30.993 48.851 43.399 56.031 3.884 2.248 8.644.616 12.479-1.714 49.986-30.358 46.258-66.598 75.853-66.598 33.248 0 42.739-92.603 71.15-92.603 23.882 0 43.874 99.662 65.764 131.445 5.739 8.334 15.466 3.731 20.453-5.073 44.726-78.959 70.049-22.153 70.049-22.153" stroke="#FA0060" stroke-width="2.66" stroke-linecap="round"/><path fill-rule="evenodd" clip-rule="evenodd" d="M34.19 238.23c-.01-15.822 14.368-27.69 29.041-33.611 11.169-4.506 21.93-10.704 40.112-10.704 31.76 0 42.109 63.394 62.506 63.394 20.398 0 55.922-69.574 84.196-69.574 28.273 0 42.348-93.061 70.74-93.061 24.538 0 42.276 102.389 64.152 130.186 5.126 6.514 13.609 3.028 18.641-3.559l24.409-31.95c15.445-20.217 47.734-9.294 47.734 16.148v54.983c0 14.729-11.969 26.654-26.698 26.599L60.7 285.621c-14.623-.055-26.46-11.905-26.485-26.529-.01-6.719-.02-13.985-.025-20.862z" fill="url(#paint1_linear_122_496)"/><ellipse cx="474.059" cy="196.902" rx="4.322" ry="4.315" fill="#FA0060"/><path d="M398.585 234.076a4.318 4.318 0 01-4.322 4.314 4.318 4.318 0 01-4.322-4.314 4.319 4.319 0 014.322-4.315 4.319 4.319 0 014.322 4.315z" fill="#FA0060"/><ellipse cx="314.468" cy="141.805" rx="4.322" ry="4.315" fill="#FA0060"/><ellipse cx="247.972" cy="188.272" rx="4.322" ry="4.315" fill="#FA0060"/><ellipse cx="164.187" cy="257.309" rx="4.322" ry="4.315" fill="#FA0060"/><ellipse cx="318.458" cy="94.674" rx="4.322" ry="4.315" fill="#FA0060"/><ellipse cx="35.184" cy="227.437" rx="4.322" ry="4.315" fill="#FA0060"/><path d="M34.187 258.589c15.937-10.292 46.015-11.944 65.64-14.929 3.862-.587 7.848-.545 11.596.554 35.017 10.272 35.687 25.995 51.793 27.85 2.176.251 4.412-.092 6.528-.654 52.837-14.021 48.441-31.18 78.561-31.18 33.248 0 42.739-42.333 71.15-42.333 24.881 0 45.54 49.453 68.522 61.745 5.905 3.158 12.629.103 17.845-4.095 44.632-35.917 69.899-10.006 69.899-10.006" stroke="#00D3A2" stroke-width="2.66" stroke-linecap="round"/><path fill-rule="evenodd" clip-rule="evenodd" d="M34.2 268.403c-.027-9.735 7.887-17.504 17.58-18.421 16.333-1.546 27.39-6.571 51.563-6.571 31.76 0 42.109 29.074 62.506 29.074 20.398 0 55.922-31.908 84.196-31.908 28.273 0 42.348-42.68 70.74-42.68 25.824 0 44.116 52.007 67.626 61.417 4.478 1.792 9.367.139 13.502-2.343l33.581-20.159c17.702-10.627 40.227 2.124 40.227 22.77 0 14.685-11.918 26.583-26.603 26.557l-397.091-.684c-9.828-.017-17.8-7.224-17.827-17.052z" fill="url(#paint2_linear_122_496)"/><ellipse cx="474.059" cy="246.688" rx="4.322" ry="4.315" fill="#00D3A2"/><path d="M399.25 261.292a4.319 4.319 0 01-4.322 4.315 4.319 4.319 0 01-4.322-4.315 4.319 4.319 0 014.322-4.315 4.319 4.319 0 014.322 4.315z" fill="#00D3A2"/><ellipse cx="258.611" cy="238.058" rx="4.322" ry="4.315" fill="#00D3A2"/><ellipse cx="164.187" cy="271.913" rx="4.322" ry="4.315" fill="#00D3A2"/><ellipse cx="35.184" cy="257.309" rx="4.322" ry="4.315" fill="#00D3A2"/><ellipse cx="319.123" cy="197.566" rx="4.322" ry="4.315" fill="#00D3A2"/><ellipse cx="105.005" cy="242.705" rx="4.322" ry="4.315" fill="#00D3A2"/><circle cx="118.637" cy="374.68" fill="#5A3795" r="6.65"/><path d="M139.995 380.18v-11.637h1.409v10.387h5.409v1.25h-6.818zm8.658 0v-8.728h1.341v8.728h-1.341zm.682-10.182a.955.955 0 01-.677-.267.86.86 0 01-.278-.642.86.86 0 01.278-.642.955.955 0 01.677-.267c.261 0 .484.089.67.267a.851.851 0 01.284.642c0 .25-.095.464-.284.642a.934.934 0 01-.67.267zm4.205 7l-.023-1.659h.273l3.818-3.887h1.659l-4.068 4.114h-.114l-1.545 1.432zm-1.25 3.182v-11.637h1.341v11.637h-1.341zm5.545 0l-3.409-4.319.955-.931 4.159 5.25h-1.705zm6.297.181c-.84 0-1.566-.185-2.176-.556a3.732 3.732 0 01-1.403-1.569c-.326-.674-.489-1.458-.489-2.352 0-.894.163-1.682.489-2.364.329-.685.788-1.219 1.375-1.602.591-.386 1.28-.579 2.068-.579.455 0 .903.075 1.347.227.443.151.846.398 1.21.739.364.337.653.784.869 1.34.216.557.324 1.243.324 2.057v.568h-6.727v-1.159h5.363c0-.492-.098-.931-.295-1.318a2.231 2.231 0 00-.83-.915c-.356-.223-.776-.335-1.261-.335-.534 0-.996.133-1.386.398a2.603 2.603 0 00-.892 1.023c-.209.42-.313.871-.313 1.352v.773c0 .659.114 1.217.341 1.676.231.454.551.801.96 1.04.409.234.885.352 1.426.352.353 0 .671-.049.955-.148.288-.102.536-.254.744-.454.209-.205.37-.459.483-.762l1.296.364a2.88 2.88 0 01-.688 1.159 3.36 3.36 0 01-1.193.773 4.443 4.443 0 01-1.597.272zm11.676-6.954l-1.205.341a2.224 2.224 0 00-.335-.585 1.621 1.621 0 00-.591-.478c-.25-.125-.57-.187-.96-.187-.534 0-.979.123-1.335.369-.353.242-.529.551-.529.926 0 .334.121.597.364.79.242.193.621.354 1.136.483l1.296.318c.78.19 1.361.479 1.744.869.382.387.574.885.574 1.495 0 .5-.144.947-.432 1.341-.284.394-.682.704-1.193.931-.512.228-1.106.341-1.784.341-.89 0-1.627-.193-2.211-.579-.583-.387-.952-.951-1.108-1.693l1.273-.319c.121.47.351.822.688 1.057.341.235.786.353 1.335.353.625 0 1.121-.133 1.489-.398.371-.269.556-.591.556-.966 0-.303-.106-.557-.318-.761-.212-.209-.538-.364-.977-.466l-1.455-.341c-.799-.19-1.386-.483-1.761-.881-.371-.401-.557-.903-.557-1.506 0-.492.138-.928.415-1.306.28-.379.661-.677 1.142-.892.485-.216 1.034-.324 1.648-.324.863 0 1.541.189 2.034.568a3.07 3.07 0 011.057 1.5z" fill="#2C2C2C"/><circle cx="203.752" cy="374.68" fill="#FA0060" r="6.65"/><path d="M234.473 372.18h-1.409a2.929 2.929 0 00-1.187-1.841 3.193 3.193 0 00-.972-.478 3.88 3.88 0 00-1.113-.159 3.55 3.55 0 00-1.915.534c-.568.356-1.021.881-1.358 1.574-.333.693-.5 1.544-.5 2.551 0 1.008.167 1.858.5 2.552.337.693.79 1.217 1.358 1.573a3.55 3.55 0 001.915.534 3.88 3.88 0 001.113-.159 3.27 3.27 0 00.972-.471 2.975 2.975 0 001.187-1.847h1.409a4.7 4.7 0 01-.579 1.597c-.28.469-.629.869-1.046 1.199a4.574 4.574 0 01-1.403.744 5.241 5.241 0 01-1.653.256c-.993 0-1.875-.243-2.648-.728-.773-.484-1.381-1.174-1.824-2.068-.443-.894-.665-1.954-.665-3.182 0-1.227.222-2.287.665-3.181.443-.894 1.051-1.584 1.824-2.069.773-.484 1.655-.727 2.648-.727.587 0 1.138.085 1.653.256.519.17.987.42 1.403.75.417.326.766.723 1.046 1.193.28.466.473.998.579 1.597zm5.481 8.181c-.788 0-1.479-.187-2.074-.562-.591-.375-1.053-.9-1.386-1.574-.33-.674-.495-1.462-.495-2.364 0-.909.165-1.702.495-2.38.333-.678.795-1.205 1.386-1.58.595-.375 1.286-.562 2.074-.562.788 0 1.477.187 2.068.562.595.375 1.057.902 1.387 1.58.333.678.5 1.471.5 2.38 0 .902-.167 1.69-.5 2.364-.33.674-.792 1.199-1.387 1.574-.591.375-1.28.562-2.068.562zm0-1.204c.599 0 1.091-.154 1.477-.46.387-.307.673-.711.858-1.211.186-.5.279-1.041.279-1.625 0-.583-.093-1.127-.279-1.63a2.741 2.741 0 00-.858-1.222c-.386-.31-.878-.466-1.477-.466-.598 0-1.091.156-1.477.466a2.741 2.741 0 00-.858 1.222 4.666 4.666 0 00-.279 1.63c0 .584.093 1.125.279 1.625.185.5.471.904.858 1.211.386.306.879.46 1.477.46zm5.841 1.023v-8.728h1.296v1.364h.114c.181-.466.475-.828.88-1.085.406-.262.892-.392 1.46-.392.576 0 1.055.13 1.438.392.386.257.687.619.903 1.085h.091a2.544 2.544 0 011.006-1.074c.447-.269.983-.403 1.608-.403.78 0 1.418.244 1.915.733.496.484.744 1.24.744 2.267v5.841h-1.341v-5.841c0-.644-.176-1.105-.528-1.381a1.955 1.955 0 00-1.245-.415c-.613 0-1.089.186-1.426.557-.337.367-.505.833-.505 1.398v5.682h-1.364v-5.978c0-.496-.161-.896-.483-1.199-.322-.306-.737-.46-1.244-.46-.349 0-.675.093-.978.279a2.104 2.104 0 00-.727.772 2.281 2.281 0 00-.273 1.131v5.455h-1.341zm13.747 0v-8.728h1.295v1.364h.114a2.19 2.19 0 01.88-1.085c.406-.262.893-.392 1.461-.392.575 0 1.055.13 1.437.392.387.257.688.619.904 1.085h.091a2.536 2.536 0 011.005-1.074c.447-.269.983-.403 1.608-.403.78 0 1.419.244 1.915.733.496.484.744 1.24.744 2.267v5.841h-1.341v-5.841c0-.644-.176-1.105-.528-1.381a1.952 1.952 0 00-1.244-.415c-.614 0-1.089.186-1.427.557-.337.367-.505.833-.505 1.398v5.682h-1.364v-5.978c0-.496-.161-.896-.483-1.199-.322-.306-.737-.46-1.244-.46-.349 0-.674.093-.977.279-.3.185-.542.443-.728.772a2.292 2.292 0 00-.272 1.131v5.455h-1.341zm17.405.181c-.841 0-1.566-.185-2.176-.556a3.732 3.732 0 01-1.403-1.569c-.326-.674-.489-1.458-.489-2.352 0-.894.163-1.682.489-2.364.329-.685.787-1.219 1.375-1.602.59-.386 1.28-.579 2.068-.579.454 0 .903.075 1.346.227.443.151.847.398 1.211.739.363.337.653.784.869 1.34.216.557.324 1.243.324 2.057v.568h-6.728v-1.159h5.364c0-.492-.098-.931-.295-1.318a2.238 2.238 0 00-.83-.915c-.356-.223-.776-.335-1.261-.335-.534 0-.997.133-1.387.398a2.619 2.619 0 00-.892 1.023c-.208.42-.312.871-.312 1.352v.773c0 .659.113 1.217.341 1.676.231.454.551.801.96 1.04.409.234.884.352 1.426.352.352 0 .671-.049.955-.148.287-.102.536-.254.744-.454a2.08 2.08 0 00.483-.762l1.295.364a2.867 2.867 0 01-.687 1.159c-.322.329-.72.587-1.193.773a4.447 4.447 0 01-1.597.272zm6.834-5.431v5.25h-1.341v-8.728h1.296v1.364h.114c.204-.443.515-.799.931-1.068.417-.273.955-.409 1.614-.409.591 0 1.108.121 1.551.363.443.239.788.603 1.034 1.091.246.485.37 1.099.37 1.841v5.546h-1.341v-5.455c0-.686-.178-1.22-.534-1.602-.357-.387-.845-.58-1.466-.58-.428 0-.811.093-1.148.279a1.989 1.989 0 00-.79.812c-.193.356-.29.788-.29 1.296zm11.654-3.478v1.137h-4.522v-1.137h4.522zm-3.204-2.091h1.341v8.319c0 .378.055.662.164.852.114.185.258.31.432.375.178.06.366.091.563.091.147 0 .269-.008.363-.023l.228-.045.272 1.204a2.72 2.72 0 01-.38.102c-.163.038-.37.057-.62.057-.378 0-.75-.081-1.113-.244a2.217 2.217 0 01-.898-.744c-.235-.334-.352-.754-.352-1.262v-8.682zm11.087 4.046l-1.205.341a2.197 2.197 0 00-.335-.585 1.621 1.621 0 00-.591-.478c-.25-.125-.57-.187-.96-.187-.534 0-.979.123-1.335.369-.353.242-.529.551-.529.926 0 .334.122.597.364.79.242.193.621.354 1.136.483l1.296.318c.78.19 1.362.479 1.744.869.383.387.574.885.574 1.495 0 .5-.144.947-.432 1.341-.284.394-.682.704-1.193.931-.511.228-1.106.341-1.784.341-.89 0-1.627-.193-2.21-.579-.584-.387-.953-.951-1.108-1.693l1.272-.319c.122.47.351.822.688 1.057.341.235.786.353 1.335.353.625 0 1.121-.133 1.489-.398.371-.269.557-.591.557-.966a1.01 1.01 0 00-.319-.761c-.212-.209-.537-.364-.977-.466l-1.454-.341c-.8-.19-1.387-.483-1.762-.881-.371-.401-.557-.903-.557-1.506 0-.492.139-.928.415-1.306a2.819 2.819 0 011.142-.892c.485-.216 1.034-.324 1.648-.324.864 0 1.542.189 2.034.568.496.379.849.879 1.057 1.5z" fill="#2C2C2C"/><circle cx="324.11" cy="374.68" fill="#00D3A2" r="6.65"/><path d="M351.832 371.452a1.786 1.786 0 00-.83-1.341c-.485-.318-1.079-.477-1.784-.477-.515 0-.966.083-1.352.25a2.16 2.16 0 00-.898.688 1.647 1.647 0 00-.318.994c0 .311.074.578.222.801.151.22.344.403.579.551.235.144.481.263.739.358.257.091.494.165.71.222l1.182.318c.303.079.64.189 1.011.329.375.141.733.332 1.074.574.345.239.629.546.852.921.224.375.336.835.336 1.38 0 .629-.165 1.197-.495 1.705-.326.508-.803.911-1.432 1.21-.625.299-1.384.449-2.278.449-.833 0-1.555-.134-2.165-.403-.606-.269-1.083-.644-1.432-1.125a3.22 3.22 0 01-.585-1.676h1.455c.038.439.185.803.443 1.09.261.285.591.497.989.637.401.136.833.204 1.295.204.538 0 1.021-.087 1.449-.261.428-.178.767-.424 1.017-.739.25-.318.375-.689.375-1.113 0-.387-.108-.701-.324-.943-.216-.243-.5-.44-.852-.591a8.98 8.98 0 00-1.142-.398l-1.432-.409c-.909-.262-1.629-.635-2.159-1.119-.53-.485-.796-1.12-.796-1.904 0-.651.176-1.22.529-1.704a3.505 3.505 0 011.432-1.137c.602-.273 1.274-.409 2.017-.409.75 0 1.416.135 2 .404.583.265 1.045.628 1.386 1.09.345.463.527.987.545 1.574h-1.363zm4.838 3.478v5.25h-1.341v-11.637h1.341v4.273h.114c.205-.451.511-.809.92-1.074.413-.269.963-.403 1.648-.403.595 0 1.116.119 1.563.358.447.234.793.596 1.039 1.085.25.485.375 1.102.375 1.852v5.546h-1.34v-5.455c0-.693-.18-1.229-.54-1.608-.356-.383-.851-.574-1.483-.574-.44 0-.833.093-1.182.279a2.029 2.029 0 00-.818.812c-.197.356-.296.788-.296 1.296zm10.521 5.454a3.554 3.554 0 01-1.506-.312 2.587 2.587 0 01-1.074-.915c-.265-.402-.397-.887-.397-1.455 0-.5.098-.905.295-1.216.197-.314.46-.56.79-.738a4.138 4.138 0 011.091-.398 13.22 13.22 0 011.21-.216c.53-.068.96-.119 1.29-.153.333-.038.575-.101.727-.188.155-.087.233-.238.233-.454v-.046c0-.56-.154-.996-.46-1.307-.303-.31-.764-.466-1.381-.466-.64 0-1.142.141-1.506.421-.363.28-.619.579-.767.898l-1.272-.455c.227-.53.53-.943.909-1.239a3.413 3.413 0 011.25-.625 5.191 5.191 0 011.341-.181c.28 0 .602.034.965.102.368.064.722.199 1.063.403.345.205.631.514.858.926.227.413.341.966.341 1.66v5.75h-1.341v-1.182h-.068a2.377 2.377 0 01-.455.608 2.628 2.628 0 01-.846.551c-.353.151-.783.227-1.29.227zm.204-1.204c.531 0 .978-.105 1.341-.313a2.123 2.123 0 001.114-1.847v-1.227c-.057.068-.182.131-.375.188-.19.053-.409.1-.659.142a27.765 27.765 0 01-1.284.17c-.349.046-.675.12-.978.222a1.68 1.68 0 00-.727.449c-.182.197-.273.466-.273.806 0 .466.173.819.517 1.057.349.235.79.353 1.324.353zm6.083 1v-8.728h1.296v1.318h.091a2.1 2.1 0 01.863-1.051 2.543 2.543 0 011.409-.403c.099 0 .222.002.37.006.147.003.259.009.335.017v1.363a4.44 4.44 0 00-.313-.051 3.123 3.123 0 00-.505-.04c-.425 0-.803.089-1.137.267a2.021 2.021 0 00-.784.728 1.963 1.963 0 00-.284 1.051v5.523h-1.341zm9.187.181c-.841 0-1.566-.185-2.176-.556a3.741 3.741 0 01-1.404-1.569c-.325-.674-.488-1.458-.488-2.352 0-.894.163-1.682.488-2.364.33-.685.788-1.219 1.375-1.602.591-.386 1.281-.579 2.068-.579.455 0 .904.075 1.347.227.443.151.847.398 1.21.739.364.337.654.784.87 1.34.216.557.323 1.243.323 2.057v.568h-6.727v-1.159h5.364c0-.492-.099-.931-.296-1.318a2.229 2.229 0 00-.829-.915c-.356-.223-.777-.335-1.262-.335-.534 0-.996.133-1.386.398a2.61 2.61 0 00-.892 1.023c-.208.42-.312.871-.312 1.352v.773c0 .659.113 1.217.34 1.676.232.454.552.801.961 1.04.409.234.884.352 1.426.352.352 0 .67-.049.954-.148.288-.102.536-.254.745-.454a2.08 2.08 0 00.483-.762l1.295.364a2.867 2.867 0 01-.687 1.159c-.322.329-.72.587-1.194.773a4.437 4.437 0 01-1.596.272zm11.675-6.954l-1.204.341a2.229 2.229 0 00-.336-.585 1.621 1.621 0 00-.591-.478c-.25-.125-.57-.187-.96-.187-.534 0-.979.123-1.335.369-.352.242-.528.551-.528.926 0 .334.121.597.363.79.243.193.621.354 1.137.483l1.295.318c.78.19 1.362.479 1.744.869.383.387.574.885.574 1.495 0 .5-.144.947-.432 1.341-.284.394-.681.704-1.193.931-.511.228-1.106.341-1.784.341-.89 0-1.627-.193-2.21-.579-.584-.387-.953-.951-1.108-1.693l1.273-.319c.121.47.35.822.687 1.057.341.235.786.353 1.335.353.625 0 1.122-.133 1.489-.398.371-.269.557-.591.557-.966 0-.303-.106-.557-.318-.761-.213-.209-.538-.364-.978-.466l-1.454-.341c-.799-.19-1.387-.483-1.762-.881-.371-.401-.556-.903-.556-1.506 0-.492.138-.928.414-1.306a2.819 2.819 0 011.142-.892c.485-.216 1.035-.324 1.648-.324.864 0 1.542.189 2.034.568.496.379.849.879 1.057 1.5z" fill="#2C2C2C"/><path d="M2.278 70.866v-.895l3.36-3.679c.395-.43.72-.805.975-1.123a4.16 4.16 0 00.567-.905 2.19 2.19 0 00.189-.895c0-.358-.087-.668-.259-.93a1.677 1.677 0 00-.696-.606 2.257 2.257 0 00-.994-.214c-.391 0-.733.081-1.024.243-.289.16-.513.383-.672.672a2.102 2.102 0 00-.233 1.014H2.317c0-.597.138-1.12.413-1.571.275-.45.65-.802 1.124-1.054a3.387 3.387 0 011.605-.378c.597 0 1.126.126 1.586.378.461.252.822.591 1.084 1.02.262.427.393.902.393 1.426 0 .374-.068.74-.204 1.099-.132.354-.364.75-.696 1.188-.328.434-.784.964-1.367 1.59l-2.287 2.447v.08H8.7v1.093H2.278zm11.797.14c-.749 0-1.387-.204-1.914-.612-.527-.411-.93-1.006-1.208-1.785-.278-.782-.418-1.727-.418-2.834 0-1.1.14-2.04.418-2.819.282-.782.686-1.379 1.213-1.79.53-.414 1.167-.62 1.91-.62.742 0 1.376.206 1.903.62.53.412.935 1.008 1.213 1.79.282.78.423 1.719.423 2.82 0 1.106-.14 2.05-.418 2.833-.278.779-.68 1.374-1.208 1.785-.527.407-1.165.611-1.914.611zm0-1.094c.743 0 1.32-.358 1.73-1.074.411-.716.617-1.737.617-3.063 0-.881-.095-1.632-.284-2.252-.185-.62-.454-1.092-.805-1.417a1.778 1.778 0 00-1.258-.487c-.736 0-1.31.363-1.725 1.089-.414.722-.621 1.745-.621 3.067 0 .882.092 1.63.278 2.247.186.617.452 1.086.8 1.407.352.322.774.483 1.268.483zm8.611 1.093a3.496 3.496 0 01-1.576-.348 2.927 2.927 0 01-1.124-.954 2.6 2.6 0 01-.462-1.382h1.193c.047.46.255.841.627 1.143.374.298.822.448 1.342.448.418 0 .789-.098 1.114-.294a2.07 2.07 0 00.77-.805 2.39 2.39 0 00.284-1.169c0-.444-.098-.84-.294-1.188a2.154 2.154 0 00-.795-.83 2.248 2.248 0 00-1.159-.308 3.18 3.18 0 00-.96.144c-.327.096-.597.22-.81.373l-1.153-.14.617-5.01h5.29v1.093h-4.256l-.358 3.003h.06c.208-.166.47-.303.785-.413.315-.11.643-.164.984-.164.623 0 1.179.15 1.666.448.49.295.875.699 1.153 1.213.282.513.423 1.1.423 1.76 0 .65-.146 1.23-.438 1.74a3.199 3.199 0 01-1.193 1.203c-.507.291-1.084.437-1.73.437zM5.857 179.508v10.182H4.624v-8.89h-.06l-2.485 1.651v-1.253l2.545-1.69h1.233zm6.25 10.321c-.75 0-1.388-.204-1.915-.612-.527-.411-.93-1.006-1.208-1.785-.278-.782-.417-1.726-.417-2.833 0-1.101.139-2.04.417-2.819.282-.782.686-1.379 1.213-1.79.53-.414 1.167-.621 1.91-.621.742 0 1.377.207 1.904.621.53.411.934 1.008 1.213 1.79.281.779.422 1.718.422 2.819 0 1.107-.139 2.051-.417 2.833-.279.779-.681 1.374-1.208 1.785-.528.408-1.166.612-1.915.612zm0-1.094c.742 0 1.319-.358 1.73-1.074.41-.716.616-1.737.616-3.062 0-.882-.094-1.633-.283-2.252-.186-.62-.454-1.093-.806-1.417a1.778 1.778 0 00-1.258-.488c-.735 0-1.31.363-1.725 1.089-.414.723-.621 1.745-.621 3.068 0 .881.093 1.63.278 2.247.186.616.453 1.085.8 1.407.352.321.775.482 1.268.482zm8.75 1.094c-.75 0-1.388-.204-1.915-.612-.527-.411-.93-1.006-1.208-1.785-.278-.782-.417-1.726-.417-2.833 0-1.101.139-2.04.417-2.819.282-.782.686-1.379 1.213-1.79.53-.414 1.167-.621 1.91-.621.742 0 1.377.207 1.904.621.53.411.934 1.008 1.213 1.79.281.779.422 1.718.422 2.819 0 1.107-.139 2.051-.417 2.833-.279.779-.681 1.374-1.209 1.785-.526.408-1.165.612-1.914.612zm0-1.094c.742 0 1.319-.358 1.73-1.074.41-.716.616-1.737.616-3.062 0-.882-.094-1.633-.283-2.252-.186-.62-.454-1.093-.806-1.417a1.778 1.778 0 00-1.258-.488c-.735 0-1.31.363-1.725 1.089-.414.723-.621 1.745-.621 3.068 0 .881.093 1.63.278 2.247.186.616.453 1.085.8 1.407.352.321.775.482 1.268.482zm-15-68.971v10.182H4.624v-8.889h-.06l-2.485 1.65v-1.253l2.545-1.69h1.233zm6.11 10.321a3.496 3.496 0 01-1.576-.348 2.929 2.929 0 01-1.123-.954 2.602 2.602 0 01-.463-1.383h1.193c.047.461.256.842.627 1.144.374.298.822.447 1.342.447.418 0 .79-.097 1.114-.293.328-.195.585-.464.77-.805a2.38 2.38 0 00.284-1.169c0-.444-.098-.84-.293-1.188a2.153 2.153 0 00-.796-.83 2.246 2.246 0 00-1.158-.308 3.142 3.142 0 00-.96.144 2.65 2.65 0 00-.81.373l-1.154-.14.617-5.011h5.29v1.094h-4.256l-.358 3.003h.06a2.64 2.64 0 01.785-.413 2.99 2.99 0 01.985-.164c.623 0 1.178.149 1.665.447.49.295.875.7 1.153 1.214.282.513.423 1.1.423 1.759 0 .65-.146 1.23-.438 1.741a3.198 3.198 0 01-1.193 1.203c-.507.291-1.083.437-1.73.437zm8.657 0c-.749 0-1.387-.204-1.914-.611-.527-.411-.93-1.006-1.208-1.785-.278-.782-.418-1.727-.418-2.834 0-1.1.14-2.04.418-2.819.282-.782.686-1.379 1.213-1.79.53-.414 1.167-.621 1.909-.621s1.377.207 1.904.621c.53.411.935 1.008 1.213 1.79.282.779.423 1.719.423 2.819 0 1.107-.14 2.052-.418 2.834-.278.779-.68 1.374-1.208 1.785-.527.407-1.165.611-1.914.611zm0-1.094c.742 0 1.32-.358 1.73-1.073.411-.716.617-1.737.617-3.063 0-.882-.095-1.632-.284-2.252-.185-.62-.454-1.092-.805-1.417a1.777 1.777 0 00-1.258-.487c-.736 0-1.31.363-1.725 1.089-.414.722-.622 1.745-.622 3.067 0 .882.093 1.631.279 2.247.185.617.452 1.086.8 1.407a1.81 1.81 0 001.268.482zm-15.45 120.65a3.496 3.496 0 01-1.576-.348 2.929 2.929 0 01-1.123-.954 2.602 2.602 0 01-.463-1.382h1.194c.046.46.255.842.626 1.143.374.299.822.448 1.342.448.418 0 .79-.098 1.114-.294.328-.195.585-.464.77-.805a2.39 2.39 0 00.284-1.168 2.39 2.39 0 00-.293-1.189 2.153 2.153 0 00-.796-.83 2.246 2.246 0 00-1.158-.308 3.205 3.205 0 00-.96.144 2.65 2.65 0 00-.81.373l-1.154-.139.617-5.012h5.29v1.094H3.822l-.358 3.003h.06c.209-.166.47-.303.785-.413a2.99 2.99 0 01.985-.164c.623 0 1.178.149 1.665.448.49.295.875.699 1.153 1.213.282.514.423 1.1.423 1.76 0 .649-.146 1.229-.437 1.74a3.199 3.199 0 01-1.194 1.203c-.507.292-1.083.437-1.73.437zm.08 32c-.683 0-1.286-.121-1.81-.363-.52-.245-.926-.581-1.218-1.009a2.534 2.534 0 01-.432-1.471 2.71 2.71 0 01.253-1.194c.172-.367.408-.674.706-.919a2.167 2.167 0 011.01-.473v-.059a1.967 1.967 0 01-1.164-.821 2.483 2.483 0 01-.428-1.446 2.46 2.46 0 01.393-1.387c.265-.408.63-.73 1.094-.965.467-.235 1-.353 1.596-.353.59 0 1.117.118 1.58.353.465.235.83.557 1.095.965.268.407.404.87.407 1.387a2.519 2.519 0 01-.442 1.446 1.964 1.964 0 01-1.149.821v.059c.368.067.7.224.995.473a2.767 2.767 0 01.974 2.113 2.57 2.57 0 01-.447 1.471c-.292.428-.698.764-1.218 1.009-.517.242-1.116.363-1.795.363zm0-1.093c.46 0 .858-.075 1.193-.224a1.78 1.78 0 00.776-.631c.182-.272.275-.59.278-.955a1.832 1.832 0 00-.298-1.019 2.023 2.023 0 00-.8-.696 2.514 2.514 0 00-1.15-.254c-.433 0-.821.085-1.163.254a2.023 2.023 0 00-.8.696 1.796 1.796 0 00-.283 1.019c-.004.365.084.683.263.955.182.271.443.482.78.631.339.149.74.224 1.204.224zm0-4.833c.364 0 .688-.073.97-.218.284-.146.508-.35.67-.612a1.74 1.74 0 00.249-.92 1.702 1.702 0 00-.244-.9 1.581 1.581 0 00-.66-.596 2.147 2.147 0 00-.985-.214c-.381 0-.714.071-1 .214a1.542 1.542 0 00-.66.596 1.665 1.665 0 00-.23.9c-.003.352.075.658.234.92.163.262.386.466.671.612.285.145.614.218.985.218zm.059 33.56c-.749 0-1.387-.203-1.914-.611-.527-.411-.93-1.006-1.208-1.785-.278-.782-.417-1.727-.417-2.834 0-1.1.139-2.04.417-2.819.282-.782.686-1.378 1.213-1.789.53-.415 1.167-.622 1.91-.622.742 0 1.377.207 1.904.622.53.411.934 1.007 1.213 1.789.281.779.422 1.719.422 2.819 0 1.107-.139 2.052-.417 2.834-.279.779-.681 1.374-1.208 1.785-.527.408-1.165.611-1.915.611zm0-1.093c.743 0 1.32-.358 1.73-1.074.412-.716.617-1.737.617-3.063 0-.881-.094-1.632-.283-2.252-.186-.62-.454-1.092-.806-1.417a1.777 1.777 0 00-1.258-.487c-.735 0-1.31.363-1.725 1.089-.414.722-.621 1.745-.621 3.067 0 .882.093 1.631.278 2.247.186.617.453 1.086.8 1.407a1.81 1.81 0 001.268.483zm20.99 15.995h1.233v7.278c0 .65-.119 1.201-.358 1.656a2.436 2.436 0 01-1.009 1.034c-.434.235-.946.353-1.536.353-.557 0-1.052-.101-1.486-.304a2.446 2.446 0 01-1.025-.875c-.248-.378-.372-.827-.372-1.347h1.213c0 .288.07.54.213.756.146.212.345.378.597.497s.539.179.86.179c.355 0 .656-.075.905-.224.248-.149.437-.368.567-.656.132-.292.198-.648.198-1.069v-7.278zm8.358 7.059v-4.514h1.173v7.636h-1.173v-1.292h-.08a2.504 2.504 0 01-.835.989c-.378.269-.855.403-1.432.403a2.56 2.56 0 01-1.273-.313 2.199 2.199 0 01-.875-.955c-.212-.427-.318-.966-.318-1.616v-4.852h1.174v4.773c0 .557.155 1.001.467 1.332.315.332.716.497 1.203.497.292 0 .588-.074.89-.223.305-.15.56-.378.766-.686.208-.309.313-.701.313-1.179zm4.495-7.059v10.181h-1.173v-10.181h1.173zm2.905 13.045a2.58 2.58 0 01-.532-.05 1.41 1.41 0 01-.323-.089l.298-1.034c.285.073.537.099.756.079a.904.904 0 00.582-.293c.172-.172.33-.452.472-.84l.219-.597-2.824-7.676h1.272l2.108 6.085h.08l2.108-6.085h1.273l-3.242 8.75a3.304 3.304 0 01-.542.979 2.03 2.03 0 01-.75.582c-.282.126-.6.189-.955.189zm11.412-7.776v1.094H49.02v-1.094h4.454zm1.566 4.912v-.894l3.361-3.679c.395-.431.72-.806.975-1.124.255-.322.444-.623.566-.905a2.19 2.19 0 00.19-.895c0-.358-.087-.668-.26-.929a1.68 1.68 0 00-.695-.607 2.25 2.25 0 00-.995-.214c-.39 0-.732.081-1.024.244a1.679 1.679 0 00-.67.671 2.1 2.1 0 00-.235 1.014H55.08c0-.596.138-1.12.413-1.571a2.87 2.87 0 011.123-1.054 3.386 3.386 0 011.606-.378c.597 0 1.125.126 1.586.378.46.252.822.592 1.084 1.019.262.428.393.904.393 1.427 0 .375-.068.741-.204 1.099-.133.355-.365.751-.696 1.188-.328.434-.784.965-1.367 1.591l-2.287 2.446v.08h4.733v1.093H55.04zm11.917.14c-.656 0-1.241-.113-1.755-.338a3.012 3.012 0 01-1.218-.94 2.524 2.524 0 01-.487-1.407h1.253c.026.328.14.611.338.85.199.235.459.418.78.547a2.85 2.85 0 001.07.194c.437 0 .825-.076 1.163-.229.338-.152.603-.364.795-.636.192-.272.288-.587.288-.945 0-.374-.092-.704-.278-.989a1.836 1.836 0 00-.815-.676c-.358-.163-.796-.244-1.313-.244h-.815v-1.094h.815c.405 0 .76-.073 1.064-.218a1.651 1.651 0 00.985-1.552 1.72 1.72 0 00-.23-.899 1.563 1.563 0 00-.645-.597 2.086 2.086 0 00-.975-.214c-.351 0-.683.065-.994.194-.308.126-.56.31-.756.552a1.438 1.438 0 00-.318.865h-1.193c.02-.534.18-1.001.482-1.402a3.045 3.045 0 011.183-.945 3.83 3.83 0 011.616-.338c.63 0 1.17.128 1.62.383.451.252.798.585 1.04.999.242.415.363.862.363 1.343 0 .573-.151 1.062-.453 1.466a2.292 2.292 0 01-1.218.841v.079c.643.106 1.145.38 1.507.82.36.438.542.98.542 1.626a2.58 2.58 0 01-.453 1.492 3.078 3.078 0 01-1.223 1.034c-.517.252-1.105.378-1.765.378zm57.175-10.321h1.233v7.278c0 .65-.12 1.201-.358 1.656a2.435 2.435 0 01-1.01 1.034c-.434.235-.946.353-1.536.353-.557 0-1.052-.101-1.486-.304a2.443 2.443 0 01-1.024-.875c-.249-.378-.373-.827-.373-1.347h1.213c0 .288.071.54.214.756.145.212.344.378.596.497s.539.179.86.179c.355 0 .656-.075.905-.224.249-.149.438-.368.567-.656.132-.292.199-.648.199-1.069v-7.278zm8.357 7.059v-4.514h1.173v7.636h-1.173v-1.292h-.08a2.503 2.503 0 01-.835.989c-.378.269-.855.403-1.432.403-.477 0-.901-.105-1.272-.313a2.194 2.194 0 01-.875-.955c-.213-.427-.319-.966-.319-1.616v-4.852h1.174v4.773c0 .557.155 1.001.467 1.332.315.332.716.497 1.203.497.292 0 .588-.074.89-.223.305-.15.56-.378.766-.686.209-.309.313-.701.313-1.179zm4.495-7.059v10.181h-1.173v-10.181h1.173zm2.905 13.045a2.58 2.58 0 01-.532-.05 1.41 1.41 0 01-.323-.089l.298-1.034c.285.073.537.099.756.079a.904.904 0 00.582-.293c.172-.172.329-.452.472-.84l.219-.597-2.824-7.676h1.273l2.108 6.085h.079l2.108-6.085h1.273l-3.242 8.75a3.297 3.297 0 01-.542.979 2.025 2.025 0 01-.75.582c-.282.126-.6.189-.955.189zm11.412-7.776v1.094h-4.454v-1.094h4.454zm1.566 4.912v-.894l3.361-3.679c.395-.431.719-.806.975-1.124.255-.322.444-.623.566-.905.126-.285.189-.583.189-.895a1.65 1.65 0 00-.258-.929 1.68 1.68 0 00-.696-.607 2.251 2.251 0 00-.994-.214c-.392 0-.733.081-1.025.244a1.68 1.68 0 00-.671.671 2.097 2.097 0 00-.233 1.014h-1.174c0-.596.138-1.12.413-1.571a2.87 2.87 0 011.123-1.054 3.39 3.39 0 011.606-.378c.597 0 1.126.126 1.586.378.461.252.822.592 1.084 1.019.262.428.393.904.393 1.427 0 .375-.068.741-.204 1.099-.133.355-.365.751-.696 1.188-.328.434-.784.965-1.367 1.591l-2.287 2.446v.08h4.733v1.093h-6.424zm8.02-2.088v-1.014l4.474-7.079h.736v1.571h-.497l-3.381 5.349v.08h6.026v1.093h-7.358zm4.792 2.088v-10.181h1.174v10.181h-1.174zm56.453-10.181h1.233v7.278c0 .65-.12 1.201-.358 1.656a2.435 2.435 0 01-1.01 1.034c-.434.235-.946.353-1.536.353-.557 0-1.052-.101-1.486-.304a2.443 2.443 0 01-1.024-.875c-.249-.378-.373-.827-.373-1.347h1.213c0 .288.071.54.214.756.145.212.344.378.596.497s.539.179.86.179c.355 0 .656-.075.905-.224.249-.149.438-.368.567-.656.132-.292.199-.648.199-1.069v-7.278zm8.357 7.059v-4.514h1.173v7.636h-1.173v-1.292h-.08a2.503 2.503 0 01-.835.989c-.378.269-.855.403-1.432.403-.477 0-.901-.105-1.272-.313a2.194 2.194 0 01-.875-.955c-.213-.427-.319-.966-.319-1.616v-4.852h1.174v4.773c0 .557.155 1.001.467 1.332.315.332.716.497 1.203.497.292 0 .588-.074.89-.223.305-.15.56-.378.766-.686.209-.309.313-.701.313-1.179zm4.495-7.059v10.181h-1.173v-10.181h1.173zm2.905 13.045a2.58 2.58 0 01-.532-.05 1.41 1.41 0 01-.323-.089l.298-1.034c.285.073.537.099.756.079a.904.904 0 00.582-.293c.172-.172.329-.452.472-.84l.219-.597-2.824-7.676h1.273l2.108 6.085h.079l2.108-6.085h1.273l-3.242 8.75a3.297 3.297 0 01-.542.979 2.025 2.025 0 01-.75.582c-.282.126-.6.189-.955.189zm11.412-7.776v1.094h-4.454v-1.094h4.454zm1.566 4.912v-.894l3.361-3.679c.395-.431.719-.806.975-1.124.255-.322.444-.623.566-.905.126-.285.189-.583.189-.895a1.65 1.65 0 00-.258-.929 1.68 1.68 0 00-.696-.607 2.251 2.251 0 00-.994-.214c-.392 0-.733.081-1.025.244a1.68 1.68 0 00-.671.671 2.097 2.097 0 00-.233 1.014h-1.174c0-.596.138-1.12.413-1.571a2.87 2.87 0 011.123-1.054 3.39 3.39 0 011.606-.378c.597 0 1.126.126 1.586.378.461.252.822.592 1.084 1.019.262.428.393.904.393 1.427 0 .375-.068.741-.204 1.099-.133.355-.365.751-.696 1.188-.328.434-.784.965-1.367 1.591l-2.287 2.446v.08h4.733v1.093h-6.424zm11.659.14a3.496 3.496 0 01-1.576-.348 2.937 2.937 0 01-1.124-.955 2.6 2.6 0 01-.462-1.382h1.193c.047.461.255.842.627 1.143.374.299.821.448 1.342.448.417 0 .789-.098 1.113-.293.329-.196.585-.464.771-.806a2.39 2.39 0 00.283-1.168c0-.444-.097-.84-.293-1.188a2.154 2.154 0 00-.795-.831 2.249 2.249 0 00-1.159-.308 3.204 3.204 0 00-.959.144 2.691 2.691 0 00-.811.373l-1.153-.139.616-5.011h5.29v1.093h-4.255l-.358 3.003h.059c.209-.166.471-.303.786-.412.315-.11.643-.165.984-.165a3.132 3.132 0 012.819 1.661c.282.514.423 1.1.423 1.76 0 .65-.146 1.23-.438 1.74a3.197 3.197 0 01-1.193 1.203c-.507.292-1.084.438-1.73.438zm56.606-10.321h1.233v7.278c0 .65-.12 1.201-.358 1.656a2.435 2.435 0 01-1.01 1.034c-.434.235-.946.353-1.536.353-.557 0-1.052-.101-1.486-.304a2.443 2.443 0 01-1.024-.875c-.249-.378-.373-.827-.373-1.347h1.213c0 .288.071.54.214.756.145.212.344.378.596.497s.539.179.86.179c.355 0 .656-.075.905-.224.249-.149.438-.368.567-.656.132-.292.199-.648.199-1.069v-7.278zm8.357 7.059v-4.514h1.173v7.636h-1.173v-1.292h-.08a2.503 2.503 0 01-.835.989c-.378.269-.855.403-1.432.403-.477 0-.901-.105-1.272-.313a2.194 2.194 0 01-.875-.955c-.213-.427-.319-.966-.319-1.616v-4.852h1.174v4.773c0 .557.155 1.001.467 1.332.315.332.716.497 1.203.497.292 0 .588-.074.89-.223.305-.15.56-.378.766-.686.209-.309.313-.701.313-1.179zm4.495-7.059v10.181h-1.173v-10.181h1.173zm2.905 13.045a2.58 2.58 0 01-.532-.05 1.41 1.41 0 01-.323-.089l.298-1.034c.285.073.537.099.756.079a.904.904 0 00.582-.293c.172-.172.329-.452.472-.84l.219-.597-2.824-7.676h1.273l2.108 6.085h.079l2.108-6.085h1.273l-3.242 8.75a3.297 3.297 0 01-.542.979 2.025 2.025 0 01-.75.582c-.282.126-.6.189-.955.189zm11.412-7.776v1.094h-4.454v-1.094h4.454zm1.566 4.912v-.894l3.361-3.679c.395-.431.719-.806.975-1.124.255-.322.444-.623.566-.905.126-.285.189-.583.189-.895a1.65 1.65 0 00-.258-.929 1.68 1.68 0 00-.696-.607 2.251 2.251 0 00-.994-.214c-.392 0-.733.081-1.025.244a1.68 1.68 0 00-.671.671 2.097 2.097 0 00-.233 1.014h-1.174c0-.596.138-1.12.413-1.571a2.87 2.87 0 011.123-1.054 3.39 3.39 0 011.606-.378c.597 0 1.126.126 1.586.378.461.252.822.592 1.084 1.019.262.428.393.904.393 1.427 0 .375-.068.741-.204 1.099-.133.355-.365.751-.696 1.188-.328.434-.784.965-1.367 1.591l-2.287 2.446v.08h4.733v1.093h-6.424zm11.858.14a3.829 3.829 0 01-1.253-.239 2.989 2.989 0 01-1.144-.771c-.344-.364-.621-.856-.83-1.476-.209-.623-.313-1.405-.313-2.347 0-.901.084-1.7.254-2.396.169-.699.414-1.288.735-1.765.322-.481.71-.845 1.164-1.094a3.188 3.188 0 011.546-.373c.57 0 1.077.115 1.521.343a2.91 2.91 0 011.094.945c.282.404.464.87.547 1.397h-1.213a2.249 2.249 0 00-.657-1.138c-.324-.302-.755-.453-1.292-.453-.789 0-1.41.343-1.865 1.029-.45.686-.677 1.649-.681 2.889h.08a3.002 3.002 0 011.516-1.188c.312-.11.642-.165.99-.165.583 0 1.117.146 1.6.438.484.288.872.688 1.164 1.198.291.507.437 1.089.437 1.745 0 .63-.141 1.207-.422 1.73a3.212 3.212 0 01-1.189 1.243c-.507.305-1.103.454-1.789.448zm0-1.094c.417 0 .792-.105 1.123-.313.335-.209.599-.489.791-.841.195-.351.293-.742.293-1.173 0-.421-.094-.804-.283-1.148a2.172 2.172 0 00-.771-.831 2.043 2.043 0 00-1.114-.308c-.314 0-.608.063-.879.189a2.276 2.276 0 00-.716.507 2.449 2.449 0 00-.478.741 2.216 2.216 0 00-.174.87 2.34 2.34 0 001.069 1.984c.335.215.714.323 1.139.323zm57.407-9.227h1.233v7.278c0 .65-.12 1.201-.358 1.656a2.435 2.435 0 01-1.01 1.034c-.434.235-.946.353-1.536.353-.557 0-1.052-.101-1.486-.304a2.443 2.443 0 01-1.024-.875c-.249-.378-.373-.827-.373-1.347h1.213c0 .288.071.54.214.756.145.212.344.378.596.497s.539.179.86.179c.355 0 .656-.075.905-.224.249-.149.438-.368.567-.656.132-.292.199-.648.199-1.069v-7.278zm8.357 7.059v-4.514h1.173v7.636h-1.173v-1.292h-.08a2.503 2.503 0 01-.835.989c-.378.269-.855.403-1.432.403-.477 0-.901-.105-1.272-.313a2.194 2.194 0 01-.875-.955c-.213-.427-.319-.966-.319-1.616v-4.852h1.174v4.773c0 .557.155 1.001.467 1.332.315.332.716.497 1.203.497.292 0 .588-.074.89-.223.305-.15.56-.378.766-.686.209-.309.313-.701.313-1.179zm4.495-7.059v10.181h-1.173v-10.181h1.173zm2.905 13.045a2.58 2.58 0 01-.532-.05 1.41 1.41 0 01-.323-.089l.298-1.034c.285.073.537.099.756.079a.904.904 0 00.582-.293c.172-.172.329-.452.472-.84l.219-.597-2.824-7.676h1.273l2.108 6.085h.079l2.108-6.085h1.273l-3.242 8.75a3.297 3.297 0 01-.542.979 2.025 2.025 0 01-.75.582c-.282.126-.6.189-.955.189zm11.412-7.776v1.094h-4.454v-1.094h4.454zm1.566 4.912v-.894l3.361-3.679c.395-.431.719-.806.975-1.124.255-.322.444-.623.566-.905.126-.285.189-.583.189-.895a1.65 1.65 0 00-.258-.929 1.68 1.68 0 00-.696-.607 2.251 2.251 0 00-.994-.214c-.392 0-.733.081-1.025.244a1.68 1.68 0 00-.671.671 2.097 2.097 0 00-.233 1.014h-1.174c0-.596.138-1.12.413-1.571a2.87 2.87 0 011.123-1.054 3.39 3.39 0 011.606-.378c.597 0 1.126.126 1.586.378.461.252.822.592 1.084 1.019.262.428.393.904.393 1.427 0 .375-.068.741-.204 1.099-.133.355-.365.751-.696 1.188-.328.434-.784.965-1.367 1.591l-2.287 2.446v.08h4.733v1.093h-6.424zm8.795 0l4.554-9.008v-.08h-5.25v-1.093h6.523v1.153l-4.534 9.028h-1.293z" fill="#7B91B0"/><defs><linearGradient id="paint0_linear_122_496" x1="34.038" y1="21.985" x2="34.038" y2="438.267" gradientUnits="userSpaceOnUse"><stop stop-color="#6441A5"/><stop offset="1" stop-color="#fff" stop-opacity=".01"/></linearGradient><linearGradient id="paint1_linear_122_496" x1="34.053" y1="138.291" x2="34.053" y2="363.892" gradientUnits="userSpaceOnUse"><stop stop-color="#FA0060"/><stop offset="1" stop-color="#fff" stop-opacity=".01"/></linearGradient><linearGradient id="paint2_linear_122_496" x1="34.053" y1="217.901" x2="34.053" y2="321.366" gradientUnits="userSpaceOnUse"><stop stop-color="#00D3A2"/><stop offset="1" stop-color="#fff" stop-opacity=".01"/></linearGradient></defs></svg>