<svg width="477" height="360" viewBox="0 0 477 360" fill="none" xmlns="http://www.w3.org/2000/svg"><circle cx="77" cy="350.5" fill="#5A3795" r="6"/><path d="M96.41 356v-11.636h1.408v10.386h5.409V356h-6.818zm8.657 0v-8.727h1.341V356h-1.341zm.682-10.182a.953.953 0 01-.676-.267.856.856 0 01-.278-.642c0-.25.092-.464.278-.642a.953.953 0 01.676-.267c.261 0 .485.089.671.267a.851.851 0 01.284.642c0 .25-.095.464-.284.642a.936.936 0 01-.671.267zm4.205 7l-.023-1.659h.273l3.818-3.886h1.659l-4.068 4.113h-.113l-1.546 1.432zm-1.25 3.182v-11.636h1.341V356h-1.341zm5.546 0l-3.409-4.318.954-.932 4.159 5.25h-1.704zm6.297.182c-.841 0-1.566-.186-2.176-.557a3.744 3.744 0 01-1.404-1.568c-.325-.674-.488-1.459-.488-2.352 0-.894.163-1.682.488-2.364.33-.686.788-1.22 1.375-1.602.591-.387 1.281-.58 2.069-.58.454 0 .903.076 1.346.227.443.152.847.398 1.21.739.364.337.654.784.87 1.341.216.557.324 1.242.324 2.057v.568h-6.728v-1.159h5.364c0-.493-.098-.932-.295-1.318a2.226 2.226 0 00-.83-.915c-.356-.224-.777-.335-1.261-.335-.534 0-.997.132-1.387.397a2.633 2.633 0 00-.892 1.023 3.01 3.01 0 00-.312 1.352v.773c0 .659.113 1.218.341 1.676.231.455.551.801.96 1.04.409.235.884.352 1.426.352.352 0 .67-.049.955-.147.287-.103.536-.254.744-.455.208-.205.369-.458.483-.761l1.295.363a2.86 2.86 0 01-.687 1.159c-.322.33-.72.587-1.193.773a4.425 4.425 0 01-1.597.273zm11.675-6.955l-1.204.341a2.229 2.229 0 00-.336-.585 1.617 1.617 0 00-.59-.477c-.25-.125-.571-.188-.961-.188-.534 0-.979.123-1.335.37-.352.242-.528.551-.528.926 0 .333.121.596.363.789.243.194.622.355 1.137.483l1.295.319c.78.189 1.362.479 1.744.869.383.386.574.884.574 1.494 0 .5-.144.947-.432 1.341-.284.394-.681.705-1.193.932-.511.227-1.106.341-1.784.341-.89 0-1.627-.193-2.21-.58-.583-.386-.953-.95-1.108-1.693l1.273-.318c.121.47.35.822.687 1.057.341.235.786.352 1.335.352.625 0 1.122-.133 1.489-.398.371-.269.557-.591.557-.966 0-.303-.106-.556-.318-.761-.212-.208-.538-.364-.978-.466l-1.454-.341c-.799-.189-1.386-.483-1.761-.88-.372-.402-.557-.904-.557-1.506 0-.493.138-.928.415-1.307a2.82 2.82 0 011.142-.892c.484-.216 1.034-.324 1.647-.324.864 0 1.542.189 2.034.568.497.379.849.879 1.057 1.5z" fill="#2C2C2C"/><circle cx="180" cy="350.5" fill="#FA0060" r="6"/><path d="M208.773 348h-1.409a2.95 2.95 0 00-1.188-1.841 3.185 3.185 0 00-.971-.477 3.891 3.891 0 00-1.114-.159 3.55 3.55 0 00-1.915.534c-.568.356-1.021.881-1.358 1.574-.333.693-.5 1.543-.5 2.551 0 1.007.167 1.858.5 2.551.337.693.79 1.218 1.358 1.574a3.55 3.55 0 001.915.534c.386 0 .757-.053 1.114-.159.356-.106.679-.263.971-.472a2.97 2.97 0 001.188-1.846h1.409a4.696 4.696 0 01-.58 1.596c-.28.47-.629.87-1.045 1.199a4.569 4.569 0 01-1.404.744 5.213 5.213 0 01-1.653.256c-.993 0-1.875-.242-2.648-.727-.773-.485-1.38-1.174-1.824-2.068-.443-.894-.664-1.955-.664-3.182 0-1.227.221-2.288.664-3.182.444-.894 1.051-1.583 1.824-2.068.773-.485 1.655-.727 2.648-.727.587 0 1.138.085 1.653.255.519.171.987.421 1.404.75.416.326.765.724 1.045 1.193.28.466.474.999.58 1.597zm5.48 8.182c-.788 0-1.479-.188-2.074-.563-.59-.375-1.053-.899-1.386-1.574-.329-.674-.494-1.462-.494-2.363 0-.909.165-1.703.494-2.381.333-.678.796-1.204 1.386-1.579.595-.375 1.286-.563 2.074-.563.788 0 1.478.188 2.069.563.594.375 1.056.901 1.386 1.579.333.678.5 1.472.5 2.381 0 .901-.167 1.689-.5 2.363a3.772 3.772 0 01-1.386 1.574c-.591.375-1.281.563-2.069.563zm0-1.205c.599 0 1.091-.153 1.478-.46a2.72 2.72 0 00.858-1.21c.185-.5.278-1.042.278-1.625 0-.584-.093-1.127-.278-1.631a2.748 2.748 0 00-.858-1.221c-.387-.311-.879-.466-1.478-.466-.598 0-1.091.155-1.477.466-.386.31-.672.717-.858 1.221a4.695 4.695 0 00-.278 1.631c0 .583.093 1.125.278 1.625.186.5.472.903.858 1.21.386.307.879.46 1.477.46zm5.842 1.023v-8.727h1.295v1.363h.114c.182-.466.475-.827.881-1.085.405-.261.892-.392 1.46-.392.576 0 1.055.131 1.437.392.387.258.688.619.904 1.085h.091c.223-.45.558-.808 1.005-1.074.447-.268.983-.403 1.608-.403.781 0 1.419.244 1.915.733.496.485.744 1.241.744 2.267V356h-1.341v-5.841c0-.644-.176-1.104-.528-1.381a1.957 1.957 0 00-1.244-.414c-.614 0-1.089.185-1.426.556-.338.368-.506.834-.506 1.398V356h-1.364v-5.977c0-.496-.161-.896-.483-1.199-.322-.307-.736-.46-1.244-.46-.349 0-.674.092-.977.278-.3.186-.542.443-.728.773a2.288 2.288 0 00-.272 1.13V356h-1.341zm13.746 0v-8.727h1.295v1.363h.114c.182-.466.475-.827.881-1.085.405-.261.892-.392 1.46-.392.576 0 1.055.131 1.438.392.386.258.687.619.903 1.085h.091a2.55 2.55 0 011.006-1.074c.446-.268.982-.403 1.607-.403.781 0 1.419.244 1.915.733.496.485.745 1.241.745 2.267V356h-1.341v-5.841c0-.644-.176-1.104-.529-1.381a1.957 1.957 0 00-1.244-.414c-.614 0-1.089.185-1.426.556-.337.368-.506.834-.506 1.398V356h-1.364v-5.977c0-.496-.161-.896-.482-1.199-.322-.307-.737-.46-1.245-.46-.348 0-.674.092-.977.278a2.1 2.1 0 00-.727.773 2.277 2.277 0 00-.273 1.13V356h-1.341zm17.405.182c-.841 0-1.566-.186-2.176-.557a3.736 3.736 0 01-1.403-1.568c-.326-.674-.489-1.459-.489-2.352 0-.894.163-1.682.489-2.364.329-.686.788-1.22 1.375-1.602.591-.387 1.28-.58 2.068-.58.455 0 .903.076 1.347.227.443.152.846.398 1.21.739.363.337.653.784.869 1.341.216.557.324 1.242.324 2.057v.568h-6.727v-1.159h5.363c0-.493-.098-.932-.295-1.318a2.219 2.219 0 00-.83-.915c-.356-.224-.776-.335-1.261-.335-.534 0-.996.132-1.386.397a2.617 2.617 0 00-.892 1.023 2.997 2.997 0 00-.313 1.352v.773c0 .659.114 1.218.341 1.676.231.455.551.801.96 1.04.409.235.885.352 1.426.352.353 0 .671-.049.955-.147.288-.103.536-.254.744-.455.209-.205.37-.458.483-.761l1.296.363c-.137.44-.366.826-.688 1.159-.322.33-.72.587-1.193.773a4.425 4.425 0 01-1.597.273zm6.835-5.432V356h-1.341v-8.727h1.295v1.363h.114c.204-.443.515-.799.932-1.068.416-.273.954-.409 1.613-.409.591 0 1.108.121 1.551.364.444.238.788.602 1.035 1.091.246.484.369 1.098.369 1.841V356h-1.341v-5.455c0-.685-.178-1.219-.534-1.602-.356-.386-.845-.579-1.466-.579-.428 0-.811.092-1.148.278a1.998 1.998 0 00-.79.813c-.193.356-.289.787-.289 1.295zm11.654-3.477v1.136h-4.523v-1.136h4.523zm-3.205-2.091h1.341v8.318c0 .379.055.663.165.852a.845.845 0 00.432.375c.178.061.365.091.562.091.148 0 .269-.007.364-.023l.227-.045.273 1.205a2.74 2.74 0 01-.381.102 2.792 2.792 0 01-.619.057 2.7 2.7 0 01-1.114-.245 2.217 2.217 0 01-.898-.744c-.235-.333-.352-.754-.352-1.261v-8.682zm11.087 4.045l-1.204.341a2.229 2.229 0 00-.336-.585 1.617 1.617 0 00-.59-.477c-.25-.125-.571-.188-.961-.188-.534 0-.979.123-1.335.37-.352.242-.528.551-.528.926 0 .333.121.596.363.789.243.194.622.355 1.137.483l1.295.319c.78.189 1.362.479 1.744.869.383.386.574.884.574 1.494 0 .5-.144.947-.432 1.341-.284.394-.681.705-1.193.932-.511.227-1.106.341-1.784.341-.89 0-1.627-.193-2.21-.58-.583-.386-.953-.95-1.108-1.693l1.273-.318c.121.47.35.822.687 1.057.341.235.786.352 1.335.352.625 0 1.122-.133 1.489-.398.371-.269.557-.591.557-.966 0-.303-.106-.556-.318-.761-.212-.208-.538-.364-.978-.466l-1.454-.341c-.799-.189-1.386-.483-1.761-.88-.372-.402-.557-.904-.557-1.506 0-.493.138-.928.415-1.307a2.82 2.82 0 011.142-.892c.484-.216 1.034-.324 1.647-.324.864 0 1.542.189 2.034.568.497.379.849.879 1.057 1.5z" fill="#2C2C2C"/><circle cx="325" cy="350.5" fill="#00D3A2" r="6"/><path d="M350.773 347.273a1.783 1.783 0 00-.83-1.341c-.485-.318-1.079-.477-1.784-.477-.515 0-.966.083-1.352.25a2.15 2.15 0 00-.898.687 1.649 1.649 0 00-.318.994c0 .311.074.578.221.802.152.219.345.403.58.551.235.144.481.263.739.358.257.09.494.164.71.221l1.182.318c.303.08.64.19 1.011.33.375.14.733.331 1.074.574.345.238.629.545.852.92.224.375.335.835.335 1.381 0 .629-.164 1.197-.494 1.704-.326.508-.803.911-1.432 1.211-.625.299-1.384.449-2.278.449-.833 0-1.555-.135-2.165-.404-.606-.269-1.083-.644-1.432-1.125a3.22 3.22 0 01-.585-1.676h1.455c.038.439.185.803.443 1.091.261.284.591.496.988.636.402.137.834.205 1.296.205.538 0 1.021-.087 1.449-.262.428-.178.767-.424 1.017-.738.25-.318.375-.69.375-1.114 0-.386-.108-.701-.324-.943a2.39 2.39 0 00-.852-.591 9.14 9.14 0 00-1.142-.398l-1.432-.409c-.909-.261-1.629-.634-2.159-1.119-.531-.485-.796-1.119-.796-1.903 0-.652.176-1.22.529-1.705a3.503 3.503 0 011.432-1.136c.602-.273 1.274-.409 2.017-.409.75 0 1.416.134 2 .403.583.265 1.045.629 1.386 1.091.345.462.526.987.545 1.574h-1.363zm4.838 3.477V356h-1.341v-11.636h1.341v4.272h.114c.204-.45.511-.808.92-1.074.413-.268.963-.403 1.648-.403.595 0 1.116.119 1.563.358.447.235.793.597 1.039 1.085.25.485.375 1.103.375 1.853V356h-1.341v-5.455c0-.693-.179-1.229-.539-1.607-.356-.383-.851-.574-1.483-.574-.44 0-.834.092-1.182.278a2.032 2.032 0 00-.818.813c-.197.356-.296.787-.296 1.295zm10.521 5.455a3.554 3.554 0 01-1.506-.313 2.58 2.58 0 01-1.074-.915c-.265-.401-.398-.886-.398-1.454 0-.5.099-.906.296-1.216.197-.315.46-.561.79-.739.329-.178.693-.31 1.091-.398.401-.09.804-.162 1.21-.215.53-.069.96-.12 1.29-.154.333-.038.575-.1.727-.187.155-.087.233-.239.233-.455v-.045c0-.561-.154-.997-.46-1.307-.303-.311-.764-.466-1.381-.466-.64 0-1.142.14-1.506.42-.363.281-.619.58-.767.898l-1.273-.454c.228-.531.531-.944.91-1.239a3.398 3.398 0 011.25-.625 5.192 5.192 0 011.34-.182c.281 0 .603.034.966.102.368.065.722.199 1.063.404.345.204.631.513.858.926.227.413.341.966.341 1.659V356h-1.341v-1.182h-.068a2.36 2.36 0 01-.455.608c-.212.216-.494.4-.847.551-.352.152-.782.228-1.289.228zm.204-1.205c.531 0 .978-.104 1.341-.312.368-.209.644-.478.83-.807.189-.33.284-.676.284-1.04v-1.227c-.057.068-.182.13-.375.187-.19.053-.409.101-.659.142-.247.038-.487.072-.722.102-.231.027-.418.05-.562.069a5.107 5.107 0 00-.978.221 1.69 1.69 0 00-.727.449c-.182.197-.273.466-.273.807 0 .466.173.818.517 1.057.349.235.79.352 1.324.352zm6.083 1v-8.727h1.296v1.318h.091c.159-.432.446-.782.863-1.051a2.544 2.544 0 011.409-.404c.099 0 .222.002.37.006.147.004.259.01.335.017v1.364a3.462 3.462 0 00-.313-.051 3.014 3.014 0 00-.505-.04c-.425 0-.803.089-1.137.267a2.019 2.019 0 00-.784.727 1.963 1.963 0 00-.284 1.051V356h-1.341zm9.187.182c-.841 0-1.567-.186-2.176-.557a3.744 3.744 0 01-1.404-1.568c-.326-.674-.488-1.459-.488-2.352 0-.894.162-1.682.488-2.364.33-.686.788-1.22 1.375-1.602.591-.387 1.28-.58 2.068-.58.455 0 .904.076 1.347.227.443.152.847.398 1.21.739.364.337.654.784.87 1.341.215.557.323 1.242.323 2.057v.568h-6.727v-1.159h5.364c0-.493-.099-.932-.296-1.318a2.217 2.217 0 00-.829-.915c-.356-.224-.777-.335-1.262-.335-.534 0-.996.132-1.386.397a2.625 2.625 0 00-.892 1.023 3.01 3.01 0 00-.313 1.352v.773c0 .659.114 1.218.341 1.676.231.455.552.801.961 1.04.409.235.884.352 1.426.352.352 0 .67-.049.954-.147.288-.103.536-.254.745-.455.208-.205.369-.458.483-.761l1.295.363c-.136.44-.366.826-.687 1.159a3.35 3.35 0 01-1.194.773 4.416 4.416 0 01-1.596.273zm11.675-6.955l-1.205.341a2.197 2.197 0 00-.335-.585 1.63 1.63 0 00-.591-.477c-.25-.125-.57-.188-.96-.188-.534 0-.979.123-1.335.37-.352.242-.529.551-.529.926 0 .333.122.596.364.789.242.194.621.355 1.136.483l1.296.319c.78.189 1.362.479 1.744.869.383.386.574.884.574 1.494 0 .5-.144.947-.432 1.341-.284.394-.682.705-1.193.932-.511.227-1.106.341-1.784.341-.89 0-1.627-.193-2.21-.58-.584-.386-.953-.95-1.108-1.693l1.273-.318c.121.47.35.822.687 1.057.341.235.786.352 1.335.352.625 0 1.121-.133 1.489-.398.371-.269.557-.591.557-.966 0-.303-.106-.556-.318-.761-.213-.208-.538-.364-.978-.466l-1.454-.341c-.8-.189-1.387-.483-1.762-.88-.371-.402-.556-.904-.556-1.506 0-.493.138-.928.414-1.307a2.827 2.827 0 011.142-.892c.485-.216 1.034-.324 1.648-.324.864 0 1.542.189 2.034.568.496.379.849.879 1.057 1.5z" fill="#2C2C2C"/><path fill-rule="evenodd" clip-rule="evenodd" d="M34 144C75 85.5 86.5 44 116.032 24.098 133.5 27 156 14.5 178.415 9.008c20.4 0 42.353 77.213 70.629 77.213 28.275 0 40.14-82.243 68.534-82.243 28.394 0 64.57 63.213 95.922 56.522 32.148-9.31 61.236 15 61.236 15v183.808H33.255S33.81 152.456 34 144z" fill="url(#paint0_linear_166_674)"/><path d="M34.606 146.354c19.495-34.429 65.6-121.592 81.426-121.592 31.762 0 41.984-15.09 62.384-15.09 20.399 0 41.115 75.961 69.39 75.961 28.276 0 41.378-80.991 69.772-80.991 27.581 0 56.233 53.213 93.636 56.258 2.203.18 4.415-.164 6.578-.623 37.155-7.888 53.425 15.966 53.425 15.966" stroke="#5A3795" stroke-width="2.66" stroke-linecap="round"/><ellipse cx="33.978" cy="145.31" rx="4.322" ry="4.315" fill="#6441A5"/><path d="M418.728 61.258a4.32 4.32 0 01-4.323 4.315 4.318 4.318 0 01-4.322-4.315 4.318 4.318 0 014.322-4.315 4.32 4.32 0 014.323 4.315z" fill="#6441A5"/><ellipse cx="318.302" cy="5.262" rx="4.322" ry="4.315" fill="#6441A5"/><ellipse cx="248.726" cy="84.589" rx="4.322" ry="4.315" fill="#6441A5"/><ellipse cx="179.14" cy="10.315" rx="4.322" ry="4.315" fill="#6441A5"/><ellipse cx="116.756" cy="23.383" rx="4.322" ry="4.315" fill="#6441A5"/><path fill-rule="evenodd" clip-rule="evenodd" d="M33.5 198.5c13-13 37.157-25.415 69-30.5 31.76 0 40.602 63 61 63 49.5-18.5 52-70.5 83-70.5 30 5 44.893-92.826 73.285-92.826 28.392 0 47.68 137.078 74.808 137.078 0 0 6.279-6.246 13.407-15.252 9.5-15 21.534-28.689 25-31 6-4 8.092-5.308 14-6 12.415-1.455 27.721 16 27.721 16v91.681l-441.45-1.659s.04-55.439.229-60.022z" fill="url(#paint1_linear_166_674)"/><ellipse cx="313.468" cy="114.805" rx="4.322" ry="4.315" fill="#FA0060"/><path d="M33.187 200.437c14.285-20.18 39.932-25.176 59.229-30.696 7.858-2.249 16.606-2.072 23.157 2.817 27.712 20.68 30.993 48.851 43.399 56.031 3.884 2.248 8.644.616 12.48-1.714 49.986-30.358 46.257-66.598 75.852-66.598 33.248 0 42.74-92.603 71.151-92.603 23.881 0 43.873 99.662 65.763 131.445 5.74 8.334 15.467 3.731 20.454-5.073 44.725-78.959 70.049-22.153 70.049-22.153" stroke="#FA0060" stroke-width="2.66" stroke-linecap="round"/><path d="M397.585 203.076a4.318 4.318 0 01-4.322 4.314 4.319 4.319 0 01-4.323-4.314 4.32 4.32 0 014.323-4.315 4.319 4.319 0 014.322 4.315z" fill="#FA0060"/><ellipse cx="246.971" cy="161.272" rx="4.322" ry="4.315" fill="#FA0060"/><ellipse cx="163.186" cy="230.309" rx="4.322" ry="4.315" fill="#FA0060"/><ellipse cx="318.457" cy="68.674" rx="4.322" ry="4.315" fill="#FA0060"/><ellipse cx="34.184" cy="200.437" rx="4.322" ry="4.315" fill="#FA0060"/><path fill-rule="evenodd" clip-rule="evenodd" d="M33.5 228c23.5-2.5 37.083-11.589 68.843-11.589 31.76 0 42.109 29.074 62.506 29.074 20.398 0 55.922-31.908 84.196-31.908 28.273 0 42.348-42.68 70.74-42.68 28.392 0 47.68 62.867 74.809 62.867L431.5 212l22-2 11.5 2.5 9.721 7v39.685l-441.45-.761s.04-28.322.229-30.424z" fill="url(#paint2_linear_166_674)"/><path d="M33.187 231.589c15.937-10.292 46.015-11.944 65.64-14.929 3.861-.587 7.847-.545 11.596.554 35.017 10.272 35.686 25.995 51.793 27.85 2.175.251 4.411-.092 6.528-.654 52.837-14.021 48.441-31.18 78.56-31.18 33.248 0 42.74-42.333 71.151-42.333 24.88 0 45.54 49.453 68.522 61.745 5.904 3.158 12.628.103 17.845-4.095 44.632-35.917 69.899-10.006 69.899-10.006" stroke="#00D3A2" stroke-width="2.66" stroke-linecap="round"/><path d="M398.25 234.292a4.319 4.319 0 01-4.322 4.315 4.32 4.32 0 01-4.323-4.315 4.32 4.32 0 014.323-4.315 4.319 4.319 0 014.322 4.315z" fill="#00D3A2"/><ellipse cx="257.61" cy="212.058" rx="4.322" ry="4.315" fill="#00D3A2"/><ellipse cx="163.186" cy="244.913" rx="4.322" ry="4.315" fill="#00D3A2"/><ellipse cx="34.184" cy="230.309" rx="4.322" ry="4.315" fill="#00D3A2"/><ellipse cx="318.122" cy="171.566" rx="4.322" ry="4.315" fill="#00D3A2"/><ellipse cx="104.004" cy="216.705" rx="4.322" ry="4.315" fill="#00D3A2"/><path d="M1.054 36.866v-.895l3.36-3.679c.395-.43.72-.805.975-1.123a4.16 4.16 0 00.567-.905 2.19 2.19 0 00.189-.895c0-.358-.086-.668-.259-.93a1.677 1.677 0 00-.696-.606 2.257 2.257 0 00-.994-.214c-.391 0-.732.081-1.024.244a1.677 1.677 0 00-.671.67 2.102 2.102 0 00-.234 1.015H1.094c0-.597.137-1.12.412-1.571.275-.45.65-.802 1.124-1.054a3.387 3.387 0 011.606-.378c.596 0 1.125.126 1.586.378.46.252.822.592 1.084 1.02.261.427.392.902.392 1.426 0 .375-.068.74-.204 1.099-.132.354-.364.75-.696 1.188-.328.434-.783.964-1.367 1.59l-2.287 2.447v.08h4.733v1.093H1.054zm11.798.14c-.75 0-1.388-.205-1.915-.612-.526-.411-.93-1.006-1.208-1.785-.278-.782-.417-1.727-.417-2.834 0-1.1.139-2.04.417-2.819.282-.782.687-1.378 1.214-1.79.53-.414 1.166-.62 1.909-.62.742 0 1.377.206 1.904.62.53.412.934 1.008 1.213 1.79.281.78.422 1.719.422 2.82 0 1.106-.139 2.05-.417 2.833-.279.779-.681 1.374-1.208 1.785-.527.407-1.165.611-1.914.611zm0-1.095c.742 0 1.319-.357 1.73-1.073.41-.716.616-1.737.616-3.063 0-.881-.094-1.632-.283-2.252-.186-.62-.454-1.092-.806-1.417a1.778 1.778 0 00-1.257-.487c-.736 0-1.311.363-1.726 1.089-.414.722-.621 1.745-.621 3.067 0 .882.093 1.63.278 2.247.186.617.453 1.086.8 1.407.352.322.775.482 1.269.482zm8.61 1.094a3.496 3.496 0 01-1.576-.348 2.926 2.926 0 01-1.123-.954 2.6 2.6 0 01-.463-1.382h1.194c.046.46.255.842.626 1.143.375.298.822.447 1.342.447.418 0 .79-.097 1.114-.293a2.07 2.07 0 00.77-.805 2.39 2.39 0 00.284-1.169c0-.444-.098-.84-.293-1.188a2.153 2.153 0 00-.796-.83 2.248 2.248 0 00-1.158-.308 3.18 3.18 0 00-.96.144 2.65 2.65 0 00-.81.373l-1.154-.14.617-5.01h5.29v1.093H20.11l-.358 3.003h.06c.209-.166.47-.303.785-.413.315-.11.643-.164.985-.164.623 0 1.178.15 1.665.448.49.295.875.699 1.154 1.213.281.513.422 1.1.422 1.76 0 .65-.146 1.23-.437 1.74a3.199 3.199 0 01-1.194 1.203c-.507.291-1.083.437-1.73.437zM5.634 145.508v10.182H4.4v-8.89h-.06l-2.486 1.651v-1.253l2.546-1.69h1.233zm6.249 10.321c-.75 0-1.387-.204-1.914-.612-.527-.411-.93-1.006-1.208-1.785-.279-.782-.418-1.726-.418-2.833 0-1.101.14-2.04.418-2.819.281-.782.686-1.379 1.213-1.79.53-.414 1.166-.621 1.909-.621.742 0 1.377.207 1.904.621.53.411.935 1.008 1.213 1.79.282.779.423 1.718.423 2.819 0 1.107-.14 2.051-.418 2.833-.278.779-.681 1.374-1.208 1.785-.527.408-1.165.612-1.914.612zm0-1.094c.742 0 1.319-.358 1.73-1.074.41-.716.616-1.737.616-3.062 0-.882-.094-1.633-.283-2.252-.186-.62-.454-1.093-.805-1.417a1.778 1.778 0 00-1.258-.488c-.736 0-1.311.363-1.725 1.089-.415.723-.622 1.745-.622 3.068 0 .881.093 1.63.279 2.247.185.616.452 1.085.8 1.407.351.321.774.482 1.268.482zm8.75 1.094c-.75 0-1.387-.204-1.914-.612-.527-.411-.93-1.006-1.208-1.785-.279-.782-.418-1.726-.418-2.833 0-1.101.14-2.04.418-2.819.281-.782.686-1.379 1.213-1.79.53-.414 1.166-.621 1.909-.621.742 0 1.377.207 1.904.621.53.411.935 1.008 1.213 1.79.282.779.423 1.718.423 2.819 0 1.107-.14 2.051-.418 2.833-.278.779-.681 1.374-1.208 1.785-.527.408-1.165.612-1.914.612zm0-1.094c.742 0 1.319-.358 1.73-1.074.41-.716.616-1.737.616-3.062 0-.882-.094-1.633-.283-2.252-.186-.62-.454-1.093-.805-1.417a1.778 1.778 0 00-1.258-.488c-.736 0-1.311.363-1.725 1.089-.415.723-.622 1.745-.622 3.068 0 .881.093 1.63.279 2.247.185.616.452 1.085.8 1.407.351.321.774.482 1.268.482zM6.634 85.764v10.182H5.4v-8.89h-.06l-2.486 1.651v-1.253l2.546-1.69h1.233zm6.11 10.321a3.496 3.496 0 01-1.576-.348 2.928 2.928 0 01-1.124-.954 2.6 2.6 0 01-.462-1.383h1.193c.046.461.255.842.626 1.144.375.298.822.447 1.343.447.417 0 .788-.097 1.113-.293a2.07 2.07 0 00.77-.805 2.39 2.39 0 00.284-1.169c0-.444-.098-.84-.293-1.188a2.152 2.152 0 00-.796-.83 2.247 2.247 0 00-1.158-.308 3.184 3.184 0 00-.96.144 2.65 2.65 0 00-.81.373l-1.153-.14.616-5.01h5.29v1.093h-4.256l-.358 3.003h.06c.209-.166.47-.304.786-.413.314-.11.643-.164.984-.164a3.134 3.134 0 012.819 1.661c.281.513.422 1.1.422 1.76 0 .65-.145 1.23-.437 1.74a3.198 3.198 0 01-1.193 1.203c-.507.291-1.084.437-1.73.437zm8.656 0c-.749 0-1.387-.204-1.914-.611-.527-.411-.93-1.006-1.208-1.785-.278-.782-.417-1.727-.417-2.834 0-1.1.139-2.04.417-2.819.282-.782.686-1.379 1.213-1.79.53-.414 1.167-.621 1.91-.621.742 0 1.377.207 1.904.621.53.411.934 1.008 1.213 1.79.281.779.422 1.719.422 2.819 0 1.107-.139 2.052-.418 2.834-.278.779-.68 1.374-1.207 1.785-.527.407-1.166.611-1.915.611zm0-1.094c.743 0 1.32-.358 1.73-1.073.412-.716.617-1.737.617-3.063 0-.882-.095-1.632-.283-2.252-.186-.62-.454-1.092-.806-1.417a1.778 1.778 0 00-1.258-.487c-.735 0-1.31.363-1.725 1.088-.414.723-.621 1.746-.621 3.068 0 .882.093 1.63.278 2.247.186.617.453 1.086.8 1.407.352.322.774.482 1.268.482zm-9.164 120.65a3.496 3.496 0 01-1.576-.348 2.93 2.93 0 01-1.124-.954 2.602 2.602 0 01-.462-1.382h1.193c.046.46.255.842.627 1.143.374.299.821.448 1.342.448a2.11 2.11 0 001.113-.294c.329-.195.585-.464.771-.805a2.39 2.39 0 00.283-1.168 2.38 2.38 0 00-.293-1.189 2.153 2.153 0 00-.795-.83 2.246 2.246 0 00-1.159-.308 3.206 3.206 0 00-.96.144 2.66 2.66 0 00-.81.373l-1.153-.139.616-5.012h5.29v1.094h-4.255l-.358 3.003h.06c.208-.166.47-.303.785-.413.315-.109.643-.164.984-.164.623 0 1.178.149 1.666.448.49.295.875.699 1.153 1.213.282.514.423 1.1.423 1.76 0 .649-.146 1.229-.438 1.74a3.2 3.2 0 01-1.193 1.203c-.507.292-1.084.437-1.73.437zm8.597 0c-.683 0-1.286-.121-1.81-.363-.52-.245-.926-.581-1.218-1.009a2.535 2.535 0 01-.432-1.471 2.712 2.712 0 01.253-1.194c.173-.367.408-.674.706-.919a2.167 2.167 0 011.01-.473v-.059a1.966 1.966 0 01-1.164-.821 2.483 2.483 0 01-.428-1.446 2.46 2.46 0 01.393-1.387c.265-.408.63-.73 1.094-.965.467-.235 1-.353 1.596-.353.59 0 1.117.118 1.58.353.465.235.83.557 1.095.965.268.407.404.87.407 1.387a2.519 2.519 0 01-.442 1.446 1.964 1.964 0 01-1.149.821v.059c.368.067.7.224.995.473a2.768 2.768 0 01.974 2.113 2.57 2.57 0 01-.447 1.471c-.292.428-.698.764-1.218 1.009-.517.242-1.116.363-1.795.363zm0-1.093c.46 0 .858-.075 1.193-.224a1.78 1.78 0 00.776-.631c.182-.272.275-.59.278-.955a1.832 1.832 0 00-.298-1.019 2.024 2.024 0 00-.8-.696 2.514 2.514 0 00-1.15-.254c-.433 0-.821.085-1.162.254a2.024 2.024 0 00-.8.696 1.795 1.795 0 00-.284 1.019c-.004.365.084.683.263.955.183.271.443.482.78.631.339.149.74.224 1.204.224zm0-4.833c.365 0 .688-.073.97-.218.284-.146.508-.35.67-.612a1.74 1.74 0 00.25-.92 1.702 1.702 0 00-.244-.9 1.581 1.581 0 00-.662-.596 2.147 2.147 0 00-.984-.214c-.381 0-.714.071-1 .214a1.543 1.543 0 00-.66.596 1.665 1.665 0 00-.23.9c-.003.352.075.658.234.92.163.262.387.466.672.612.285.145.613.218.984.218zm.542 65.56c-.75 0-1.387-.203-1.914-.611-.527-.411-.93-1.006-1.208-1.785-.279-.782-.418-1.727-.418-2.834 0-1.1.14-2.04.418-2.819.282-.782.686-1.378 1.213-1.789.53-.415 1.167-.622 1.909-.622s1.377.207 1.904.622c.53.411.935 1.007 1.213 1.789.282.779.423 1.719.423 2.819 0 1.107-.14 2.052-.418 2.834-.278.779-.68 1.374-1.208 1.785-.527.408-1.165.611-1.914.611zm0-1.093c.742 0 1.32-.358 1.73-1.074.411-.716.617-1.737.617-3.063 0-.881-.095-1.632-.284-2.252-.185-.62-.454-1.092-.805-1.417a1.777 1.777 0 00-1.258-.487c-.736 0-1.31.363-1.725 1.089-.414.722-.622 1.745-.622 3.067 0 .882.093 1.631.279 2.247.185.617.452 1.086.8 1.407a1.81 1.81 0 001.268.483zm34.755 15.636h1.234v7.279c0 .649-.12 1.201-.358 1.655a2.43 2.43 0 01-1.01 1.034c-.434.236-.946.353-1.536.353-.557 0-1.052-.101-1.486-.303a2.453 2.453 0 01-1.024-.875c-.249-.378-.373-.827-.373-1.347h1.213c0 .288.071.54.214.755.145.212.344.378.596.497.252.12.539.179.86.179.355 0 .657-.074.905-.223a1.41 1.41 0 00.567-.657c.132-.291.199-.647.199-1.068v-7.279zm8.358 7.06v-4.514h1.173V300h-1.173v-1.293h-.08a2.508 2.508 0 01-.835.99c-.378.268-.855.402-1.432.402-.477 0-.901-.104-1.272-.313a2.191 2.191 0 01-.875-.954c-.212-.428-.319-.966-.319-1.616v-4.852h1.174v4.772c0 .557.156 1.001.467 1.333.315.331.716.497 1.203.497a2 2 0 00.89-.224 1.94 1.94 0 00.766-.686c.209-.308.313-.701.313-1.178zm4.496-7.06V300H67.81v-10.182h1.174zm2.904 13.046a2.58 2.58 0 01-.532-.05 1.398 1.398 0 01-.323-.09l.298-1.034c.285.073.537.1.756.08a.909.909 0 00.582-.293c.172-.173.33-.453.472-.841l.219-.596-2.824-7.676h1.273l2.108 6.085h.08l2.107-6.085h1.273l-3.242 8.75a3.306 3.306 0 01-.542.979 2.03 2.03 0 01-.75.582c-.282.126-.6.189-.955.189zm11.412-7.776v1.094h-4.454v-1.094H83.3zM84.867 300v-.895l3.36-3.679c.395-.431.72-.805.975-1.123.255-.322.444-.624.567-.905.125-.285.188-.584.188-.895 0-.358-.086-.668-.258-.93a1.672 1.672 0 00-.696-.606 2.25 2.25 0 00-.995-.214c-.39 0-.732.081-1.024.243a1.68 1.68 0 00-.67.672 2.1 2.1 0 00-.234 1.014h-1.174c0-.597.138-1.12.413-1.571a2.87 2.87 0 011.123-1.054 3.385 3.385 0 011.606-.378c.597 0 1.126.126 1.586.378.46.252.822.591 1.084 1.019.262.428.393.903.393 1.427 0 .374-.068.741-.204 1.099-.133.354-.365.75-.696 1.188-.328.434-.784.964-1.367 1.591l-2.287 2.446v.079h4.733V300h-6.424zm11.916.139c-.656 0-1.24-.112-1.755-.338a3.002 3.002 0 01-1.218-.939 2.53 2.53 0 01-.487-1.407h1.253c.027.328.14.611.338.85.199.235.46.417.78.547a2.85 2.85 0 001.07.193 2.81 2.81 0 001.163-.228c.338-.153.603-.365.795-.637a1.59 1.59 0 00.289-.944 1.77 1.77 0 00-.279-.99 1.849 1.849 0 00-.815-.676c-.358-.162-.796-.243-1.313-.243h-.815v-1.094h.815c.405 0 .76-.073 1.064-.219a1.651 1.651 0 00.985-1.551 1.72 1.72 0 00-.229-.9 1.561 1.561 0 00-.646-.596 2.086 2.086 0 00-.975-.214c-.351 0-.682.064-.994.194-.308.126-.56.31-.756.552a1.435 1.435 0 00-.318.865h-1.193c.02-.534.18-1.001.482-1.402.302-.405.696-.72 1.183-.945a3.83 3.83 0 011.616-.338c.63 0 1.17.128 1.62.383a2.69 2.69 0 011.04.999c.242.414.363.862.363 1.342 0 .574-.15 1.063-.453 1.467a2.296 2.296 0 01-1.218.84v.08c.643.106 1.145.379 1.507.82.361.438.542.979.542 1.626a2.58 2.58 0 01-.453 1.491 3.07 3.07 0 01-1.223 1.034c-.517.252-1.105.378-1.765.378zm50.348-10.321h1.233v7.279c0 .649-.12 1.201-.358 1.655a2.43 2.43 0 01-1.01 1.034c-.434.236-.946.353-1.536.353-.557 0-1.052-.101-1.486-.303a2.45 2.45 0 01-1.024-.875c-.249-.378-.373-.827-.373-1.347h1.213c0 .288.071.54.214.755.145.212.344.378.596.497.252.12.539.179.86.179.355 0 .656-.074.905-.223a1.41 1.41 0 00.567-.657c.132-.291.199-.647.199-1.068v-7.279zm8.357 7.06v-4.514h1.173V300h-1.173v-1.293h-.08a2.505 2.505 0 01-.835.99c-.378.268-.855.402-1.432.402-.477 0-.901-.104-1.272-.313-.372-.212-.663-.53-.875-.954-.213-.428-.319-.966-.319-1.616v-4.852h1.174v4.772c0 .557.155 1.001.467 1.333.315.331.716.497 1.203.497a2 2 0 00.89-.224c.305-.149.56-.378.766-.686.209-.308.313-.701.313-1.178zm4.495-7.06V300h-1.173v-10.182h1.173zm2.905 13.046a2.58 2.58 0 01-.532-.05 1.397 1.397 0 01-.323-.09l.298-1.034c.285.073.537.1.756.08a.909.909 0 00.582-.293c.172-.173.329-.453.472-.841l.219-.596-2.824-7.676h1.273l2.108 6.085h.079l2.108-6.085h1.273l-3.242 8.75a3.297 3.297 0 01-.542.979 2.025 2.025 0 01-.75.582c-.282.126-.6.189-.955.189zm11.412-7.776v1.094h-4.454v-1.094h4.454zm1.566 4.912v-.895l3.361-3.679c.395-.431.719-.805.975-1.123.255-.322.444-.624.566-.905.126-.285.189-.584.189-.895 0-.358-.086-.668-.258-.93a1.67 1.67 0 00-.696-.606 2.251 2.251 0 00-.994-.214c-.392 0-.733.081-1.025.243-.288.16-.512.383-.671.672a2.097 2.097 0 00-.233 1.014h-1.174c0-.597.138-1.12.413-1.571a2.87 2.87 0 011.123-1.054 3.39 3.39 0 011.606-.378c.597 0 1.126.126 1.586.378.461.252.822.591 1.084 1.019.262.428.393.903.393 1.427 0 .374-.068.741-.204 1.099-.133.354-.365.75-.696 1.188-.328.434-.784.964-1.367 1.591l-2.287 2.446v.079h4.733V300h-6.424zm8.02-2.088v-1.014l4.474-7.08h.736v1.571h-.497l-3.381 5.35v.079h6.026v1.094h-7.358zm4.792 2.088v-10.182h1.174V300h-1.174zm49.453-10.182h1.233v7.279c0 .649-.12 1.201-.358 1.655a2.43 2.43 0 01-1.01 1.034c-.434.236-.946.353-1.536.353-.557 0-1.052-.101-1.486-.303a2.45 2.45 0 01-1.024-.875c-.249-.378-.373-.827-.373-1.347h1.213c0 .288.071.54.214.755.145.212.344.378.596.497.252.12.539.179.86.179.355 0 .656-.074.905-.223a1.41 1.41 0 00.567-.657c.132-.291.199-.647.199-1.068v-7.279zm8.357 7.06v-4.514h1.173V300h-1.173v-1.293h-.08a2.505 2.505 0 01-.835.99c-.378.268-.855.402-1.432.402-.477 0-.901-.104-1.272-.313-.372-.212-.663-.53-.875-.954-.213-.428-.319-.966-.319-1.616v-4.852h1.174v4.772c0 .557.155 1.001.467 1.333.315.331.716.497 1.203.497a2 2 0 00.89-.224c.305-.149.56-.378.766-.686.209-.308.313-.701.313-1.178zm4.495-7.06V300h-1.173v-10.182h1.173zm2.905 13.046a2.58 2.58 0 01-.532-.05 1.397 1.397 0 01-.323-.09l.298-1.034c.285.073.537.1.756.08a.909.909 0 00.582-.293c.172-.173.329-.453.472-.841l.219-.596-2.824-7.676h1.273l2.108 6.085h.079l2.108-6.085h1.273l-3.242 8.75a3.297 3.297 0 01-.542.979 2.025 2.025 0 01-.75.582c-.282.126-.6.189-.955.189zm11.412-7.776v1.094h-4.454v-1.094h4.454zm1.566 4.912v-.895l3.361-3.679c.395-.431.719-.805.975-1.123.255-.322.444-.624.566-.905.126-.285.189-.584.189-.895 0-.358-.086-.668-.258-.93a1.67 1.67 0 00-.696-.606 2.251 2.251 0 00-.994-.214c-.392 0-.733.081-1.025.243-.288.16-.512.383-.671.672a2.097 2.097 0 00-.233 1.014h-1.174c0-.597.138-1.12.413-1.571a2.87 2.87 0 011.123-1.054 3.39 3.39 0 011.606-.378c.597 0 1.126.126 1.586.378.461.252.822.591 1.084 1.019.262.428.393.903.393 1.427 0 .374-.068.741-.204 1.099-.133.354-.365.75-.696 1.188-.328.434-.784.964-1.367 1.591l-2.287 2.446v.079h4.733V300h-6.424zm11.659.139a3.496 3.496 0 01-1.576-.348 2.935 2.935 0 01-1.124-.954 2.604 2.604 0 01-.462-1.382h1.193c.047.46.255.841.627 1.143.374.298.821.447 1.342.447a2.11 2.11 0 001.113-.293c.329-.195.585-.464.771-.805a2.39 2.39 0 00.283-1.169c0-.444-.097-.84-.293-1.188a2.15 2.15 0 00-.795-.83 2.249 2.249 0 00-1.159-.308 3.142 3.142 0 00-.959.144c-.328.096-.598.22-.811.373l-1.153-.139.616-5.012h5.29v1.094h-4.255l-.358 3.003h.059c.209-.166.471-.303.786-.413.315-.109.643-.164.984-.164.623 0 1.178.149 1.666.448.49.294.875.699 1.153 1.213.282.513.423 1.1.423 1.76 0 .649-.146 1.229-.438 1.74a3.197 3.197 0 01-1.193 1.203c-.507.291-1.084.437-1.73.437zm49.606-10.321h1.233v7.279c0 .649-.12 1.201-.358 1.655a2.43 2.43 0 01-1.01 1.034c-.434.236-.946.353-1.536.353-.557 0-1.052-.101-1.486-.303a2.45 2.45 0 01-1.024-.875c-.249-.378-.373-.827-.373-1.347h1.213c0 .288.071.54.214.755.145.212.344.378.596.497.252.12.539.179.86.179.355 0 .656-.074.905-.223a1.41 1.41 0 00.567-.657c.132-.291.199-.647.199-1.068v-7.279zm8.357 7.06v-4.514h1.173V300h-1.173v-1.293h-.08a2.505 2.505 0 01-.835.99c-.378.268-.855.402-1.432.402-.477 0-.901-.104-1.272-.313-.372-.212-.663-.53-.875-.954-.213-.428-.319-.966-.319-1.616v-4.852h1.174v4.772c0 .557.155 1.001.467 1.333.315.331.716.497 1.203.497a2 2 0 00.89-.224c.305-.149.56-.378.766-.686.209-.308.313-.701.313-1.178zm4.495-7.06V300h-1.173v-10.182h1.173zm2.905 13.046a2.58 2.58 0 01-.532-.05 1.397 1.397 0 01-.323-.09l.298-1.034c.285.073.537.1.756.08a.909.909 0 00.582-.293c.172-.173.329-.453.472-.841l.219-.596-2.824-7.676h1.273l2.108 6.085h.079l2.108-6.085h1.273l-3.242 8.75a3.297 3.297 0 01-.542.979 2.025 2.025 0 01-.75.582c-.282.126-.6.189-.955.189zm11.412-7.776v1.094h-4.454v-1.094h4.454zm1.566 4.912v-.895l3.361-3.679c.395-.431.719-.805.975-1.123.255-.322.444-.624.566-.905.126-.285.189-.584.189-.895 0-.358-.086-.668-.258-.93a1.67 1.67 0 00-.696-.606 2.251 2.251 0 00-.994-.214c-.392 0-.733.081-1.025.243-.288.16-.512.383-.671.672a2.097 2.097 0 00-.233 1.014h-1.174c0-.597.138-1.12.413-1.571a2.87 2.87 0 011.123-1.054 3.39 3.39 0 011.606-.378c.597 0 1.126.126 1.586.378.461.252.822.591 1.084 1.019.262.428.393.903.393 1.427 0 .374-.068.741-.204 1.099-.133.354-.365.75-.696 1.188-.328.434-.784.964-1.367 1.591l-2.287 2.446v.079h4.733V300h-6.424zm11.858.139a3.801 3.801 0 01-1.253-.238 3.012 3.012 0 01-1.144-.771c-.344-.365-.621-.857-.83-1.477-.209-.623-.313-1.405-.313-2.346 0-.902.084-1.7.254-2.396.169-.7.414-1.288.735-1.765.322-.481.71-.846 1.164-1.094a3.177 3.177 0 011.546-.373c.57 0 1.077.114 1.521.343.448.225.812.54 1.094.945.282.404.464.87.547 1.397h-1.213a2.252 2.252 0 00-.657-1.139c-.324-.301-.755-.452-1.292-.452-.789 0-1.41.343-1.865 1.029-.45.686-.677 1.649-.681 2.888h.08a3.02 3.02 0 01.661-.721 2.98 2.98 0 011.845-.631c.583 0 1.117.146 1.6.438.484.288.872.687 1.164 1.198.291.507.437 1.088.437 1.745 0 .629-.141 1.206-.422 1.73a3.22 3.22 0 01-1.189 1.243c-.507.305-1.103.454-1.789.447zm0-1.094a2.06 2.06 0 001.123-.313 2.24 2.24 0 00.791-.84c.195-.351.293-.742.293-1.173 0-.421-.094-.804-.283-1.149a2.17 2.17 0 00-.771-.83 2.043 2.043 0 00-1.114-.308c-.314 0-.608.063-.879.189a2.244 2.244 0 00-.716.507 2.424 2.424 0 00-.478.741 2.355 2.355 0 00.895 2.853c.335.216.714.323 1.139.323zm50.407-9.227h1.233v7.279c0 .649-.12 1.201-.358 1.655a2.43 2.43 0 01-1.01 1.034c-.434.236-.946.353-1.536.353-.557 0-1.052-.101-1.486-.303a2.45 2.45 0 01-1.024-.875c-.249-.378-.373-.827-.373-1.347h1.213c0 .288.071.54.214.755.145.212.344.378.596.497.252.12.539.179.86.179.355 0 .656-.074.905-.223a1.41 1.41 0 00.567-.657c.132-.291.199-.647.199-1.068v-7.279zm8.357 7.06v-4.514h1.173V300h-1.173v-1.293h-.08a2.505 2.505 0 01-.835.99c-.378.268-.855.402-1.432.402-.477 0-.901-.104-1.272-.313-.372-.212-.663-.53-.875-.954-.213-.428-.319-.966-.319-1.616v-4.852h1.174v4.772c0 .557.155 1.001.467 1.333.315.331.716.497 1.203.497a2 2 0 00.89-.224c.305-.149.56-.378.766-.686.209-.308.313-.701.313-1.178zm4.495-7.06V300h-1.173v-10.182h1.173zm2.905 13.046a2.58 2.58 0 01-.532-.05 1.397 1.397 0 01-.323-.09l.298-1.034c.285.073.537.1.756.08a.909.909 0 00.582-.293c.172-.173.329-.453.472-.841l.219-.596-2.824-7.676h1.273l2.108 6.085h.079l2.108-6.085h1.273l-3.242 8.75a3.297 3.297 0 01-.542.979 2.025 2.025 0 01-.75.582c-.282.126-.6.189-.955.189zm11.412-7.776v1.094h-4.454v-1.094h4.454zm1.566 4.912v-.895l3.361-3.679c.395-.431.719-.805.975-1.123.255-.322.444-.624.566-.905.126-.285.189-.584.189-.895 0-.358-.086-.668-.258-.93a1.67 1.67 0 00-.696-.606 2.251 2.251 0 00-.994-.214c-.392 0-.733.081-1.025.243-.288.16-.512.383-.671.672a2.097 2.097 0 00-.233 1.014h-1.174c0-.597.138-1.12.413-1.571a2.87 2.87 0 011.123-1.054 3.39 3.39 0 011.606-.378c.597 0 1.126.126 1.586.378.461.252.822.591 1.084 1.019.262.428.393.903.393 1.427 0 .374-.068.741-.204 1.099-.133.354-.365.75-.696 1.188-.328.434-.784.964-1.367 1.591l-2.287 2.446v.079h4.733V300h-6.424zm8.795 0l4.554-9.009v-.079h-5.25v-1.094h6.523v1.154L457.954 300h-1.293z" fill="#7B91B0"/><defs><linearGradient id="paint0_linear_166_674" x1="33.039" y1="-5.015" x2="33.039" y2="411.267" gradientUnits="userSpaceOnUse"><stop stop-color="#6441A5"/><stop offset="1" stop-color="#fff" stop-opacity=".01"/></linearGradient><linearGradient id="paint1_linear_166_674" x1="33" y1="68" x2="33" y2="337.5" gradientUnits="userSpaceOnUse"><stop stop-color="#FA0060"/><stop offset="1" stop-color="#fff" stop-opacity=".01"/></linearGradient><linearGradient id="paint2_linear_166_674" x1="33.053" y1="191.5" x2="33.053" y2="319" gradientUnits="userSpaceOnUse"><stop stop-color="#00D3A2"/><stop offset="1" stop-color="#fff" stop-opacity=".01"/></linearGradient></defs></svg>