<svg width="485" height="377" viewBox="0 0 485 377" fill="none" xmlns="http://www.w3.org/2000/svg"><path d="M39.607 172.444c19.495-34.43 65.6-121.592 81.426-121.592 31.762 0 41.984-15.09 62.384-15.09 20.399 0 41.115 75.961 69.39 75.961 28.276 0 41.378-80.992 69.772-80.992 27.306 0 66.678 52.157 93.785 56.153 2.103.31 4.224-.037 6.308-.454 35.167-7.026 53.546 15.903 53.546 15.903" stroke="#6441A5" stroke-width="2.66" stroke-linecap="round"/><path fill-rule="evenodd" clip-rule="evenodd" d="M38.257 150.809c28.196 7.802 51.015-100.621 82.777-100.621s41.984-15.09 62.383-15.09 42.353 77.213 70.628 77.213c28.276 0 40.14-82.243 68.534-82.243 28.394 0 67.644 55.33 94.775 55.33C444.484 85.399 479.737 0 479.737 0v285.398H38.257s-.189-126.133 0-134.589z" fill="url(#paint0_linear_166_675)"/><ellipse cx="476.52" cy="101.915" rx="4.322" ry="4.315" fill="#6441A5"/><path d="M423.729 85.347a4.318 4.318 0 01-4.322 4.315 4.318 4.318 0 01-4.322-4.315 4.318 4.318 0 014.322-4.314 4.318 4.318 0 014.322 4.314z" fill="#6441A5"/><ellipse cx="323.303" cy="29.352" rx="4.322" ry="4.315" fill="#6441A5"/><ellipse cx="253.727" cy="110.679" rx="4.322" ry="4.315" fill="#6441A5"/><ellipse cx="184.141" cy="34.382" rx="4.322" ry="4.315" fill="#6441A5"/><ellipse cx="121.757" cy="49.473" rx="4.322" ry="4.315" fill="#6441A5"/><ellipse cx="38.98" cy="171.4" rx="4.322" ry="4.315" fill="#6441A5"/><path d="M38.188 226.527c17.621-24.893 53.861-61.533 72.813-69.701 10.787-4.649 15.288-3.862 29.996-3.597 4.487.08 8.895-1.172 12.984-3.022 51.283-23.199 66.639 36.159 98.324 36.159 28.293 0 42.075-45.14 70.486-45.14s61.958 30.536 89.105 30.536c53.529-4.979 67.826 26.221 67.826 26.221" stroke="#FA0060" stroke-width="2.66" stroke-linecap="round"/><path fill-rule="evenodd" clip-rule="evenodd" d="M38.271 207.689c28.194 4.228 51.012-54.531 82.772-54.531 31.76 0 41.981-8.178 62.379-8.178 20.397 0 42.35 41.845 70.623 41.845 28.274 0 40.138-44.571 68.53-44.571 28.392 0 67.639 29.986 94.768 29.986 27.128 0 62.379-46.281 62.379-46.281v160.312l-441.45-1.66s-.189-72.34 0-76.922z" fill="url(#paint1_linear_166_675)"/><ellipse cx="478.06" cy="195.991" rx="4.322" ry="4.315" fill="#FA0060"/><path d="M415.221 171.43a4.319 4.319 0 01-4.323 4.315 4.319 4.319 0 01-4.322-4.315 4.319 4.319 0 014.322-4.315 4.319 4.319 0 014.323 4.315z" fill="#FA0060"/><ellipse cx="318.469" cy="140.895" rx="4.322" ry="4.315" fill="#FA0060"/><ellipse cx="251.973" cy="187.362" rx="4.322" ry="4.315" fill="#FA0060"/><ellipse cx="144.914" cy="153.507" rx="4.322" ry="4.315" fill="#FA0060"/><ellipse cx="112.996" cy="153.507" rx="4.322" ry="4.315" fill="#FA0060"/><ellipse cx="39.185" cy="226.527" rx="4.322" ry="4.315" fill="#FA0060"/><path d="M1.34 56.318v-.895l3.36-3.68c.394-.43.72-.805.974-1.123a4.16 4.16 0 00.567-.905c.126-.285.189-.583.189-.895 0-.358-.086-.667-.258-.93a1.677 1.677 0 00-.696-.606 2.257 2.257 0 00-.995-.213c-.39 0-.732.08-1.024.243-.288.16-.512.383-.671.671A2.103 2.103 0 002.552 49H1.38c0-.596.137-1.12.413-1.57.275-.451.65-.803 1.123-1.055a3.388 3.388 0 011.606-.377c.597 0 1.125.126 1.586.377.46.252.822.592 1.084 1.02.262.427.392.903.392 1.427 0 .374-.067.74-.203 1.098-.133.355-.365.75-.696 1.188-.329.435-.784.965-1.368 1.591L3.03 55.144v.08h4.733v1.094H1.34zm11.797.139c-.75 0-1.387-.204-1.914-.612-.527-.41-.93-1.006-1.208-1.785-.279-.782-.418-1.726-.418-2.833 0-1.1.14-2.04.418-2.82.281-.781.686-1.378 1.213-1.789.53-.414 1.166-.621 1.909-.621.742 0 1.377.207 1.904.621.53.411.934 1.008 1.213 1.79.282.779.422 1.718.422 2.819 0 1.107-.139 2.051-.417 2.834-.279.778-.681 1.373-1.208 1.784-.527.408-1.165.612-1.914.612zm0-1.094c.742 0 1.319-.358 1.73-1.074.41-.716.616-1.736.616-3.062 0-.882-.094-1.633-.283-2.252-.186-.62-.454-1.093-.805-1.417a1.778 1.778 0 00-1.258-.487c-.736 0-1.311.362-1.725 1.088-.415.723-.622 1.745-.622 3.068 0 .881.093 1.63.279 2.247.185.616.452 1.085.8 1.407.351.321.774.482 1.268.482zm8.61 1.094a3.496 3.496 0 01-1.575-.348 2.928 2.928 0 01-1.124-.955 2.6 2.6 0 01-.462-1.382h1.193c.046.46.255.842.626 1.144.375.298.822.447 1.342.447.418 0 .79-.098 1.114-.293.328-.196.585-.464.77-.806a2.39 2.39 0 00.284-1.168c0-.444-.098-.84-.293-1.188a2.152 2.152 0 00-.796-.83 2.247 2.247 0 00-1.158-.309 3.183 3.183 0 00-.96.145c-.328.096-.598.22-.81.372l-1.153-.139.616-5.011h5.29v1.094h-4.256l-.358 3.002h.06a2.66 2.66 0 01.785-.412c.315-.11.643-.164.985-.164a3.14 3.14 0 012.819 1.66c.281.514.422 1.1.422 1.76 0 .65-.146 1.23-.437 1.74a3.197 3.197 0 01-1.193 1.203c-.508.292-1.084.438-1.73.438zM4.919 164.959v10.182H3.686v-8.889h-.06l-2.486 1.65v-1.252l2.546-1.691h1.233zm6.249 10.321c-.75 0-1.387-.204-1.914-.611-.527-.411-.93-1.006-1.208-1.785-.279-.782-.418-1.727-.418-2.834 0-1.1.14-2.04.418-2.819.282-.782.686-1.379 1.213-1.79.53-.414 1.166-.621 1.909-.621.742 0 1.377.207 1.904.621.53.411.935 1.008 1.213 1.79.282.779.423 1.719.423 2.819 0 1.107-.14 2.052-.418 2.834-.278.779-.681 1.374-1.208 1.785-.527.407-1.165.611-1.914.611zm0-1.094c.742 0 1.32-.358 1.73-1.073.411-.716.617-1.737.617-3.063 0-.882-.095-1.632-.284-2.252-.185-.62-.454-1.092-.805-1.417a1.777 1.777 0 00-1.258-.487c-.736 0-1.31.363-1.725 1.089-.414.722-.622 1.745-.622 3.067 0 .882.093 1.631.279 2.247.185.617.452 1.086.8 1.407a1.81 1.81 0 001.268.482zm8.75 1.094c-.75 0-1.387-.204-1.914-.611-.527-.411-.93-1.006-1.208-1.785-.279-.782-.418-1.727-.418-2.834 0-1.1.14-2.04.418-2.819.282-.782.686-1.379 1.213-1.79.53-.414 1.166-.621 1.909-.621.742 0 1.377.207 1.904.621.53.411.935 1.008 1.213 1.79.282.779.423 1.719.423 2.819 0 1.107-.14 2.052-.418 2.834-.278.779-.681 1.374-1.208 1.785-.527.407-1.165.611-1.914.611zm0-1.094c.742 0 1.32-.358 1.73-1.073.411-.716.617-1.737.617-3.063 0-.882-.095-1.632-.284-2.252-.185-.62-.454-1.092-.805-1.417a1.777 1.777 0 00-1.258-.487c-.736 0-1.31.363-1.725 1.089-.415.722-.622 1.745-.622 3.067 0 .882.093 1.631.279 2.247.185.617.452 1.086.8 1.407a1.81 1.81 0 001.268.482zm-14.999-68.97v10.181H3.686v-8.889h-.06l-2.486 1.651v-1.253l2.546-1.69h1.233zm6.11 10.321a3.496 3.496 0 01-1.576-.348 2.931 2.931 0 01-1.124-.955 2.6 2.6 0 01-.462-1.382H9.06c.046.461.255.842.626 1.143.375.299.822.448 1.343.448.417 0 .789-.098 1.113-.293.329-.196.585-.464.771-.806a2.39 2.39 0 00.283-1.168c0-.444-.097-.84-.293-1.188a2.156 2.156 0 00-.795-.831 2.246 2.246 0 00-1.159-.308 3.205 3.205 0 00-.96.144 2.676 2.676 0 00-.81.373l-1.153-.139.616-5.011h5.29v1.093H9.676l-.357 3.003h.06c.208-.165.47-.303.785-.412.315-.11.643-.164.984-.164.623 0 1.178.149 1.666.447.49.295.875.699 1.153 1.213.282.514.423 1.1.423 1.76 0 .65-.146 1.23-.438 1.74a3.2 3.2 0 01-1.193 1.203c-.507.292-1.084.438-1.73.438zm8.657 0c-.75 0-1.387-.204-1.915-.612-.527-.411-.93-1.006-1.208-1.785-.278-.782-.417-1.726-.417-2.833 0-1.101.139-2.04.417-2.819.282-.783.687-1.379 1.213-1.79.53-.414 1.167-.622 1.91-.622.742 0 1.377.208 1.904.622.53.411.934 1.007 1.213 1.79.281.779.422 1.718.422 2.819 0 1.107-.139 2.051-.417 2.833-.279.779-.681 1.374-1.208 1.785-.527.408-1.165.612-1.915.612zm0-1.094c.742 0 1.319-.358 1.73-1.074.41-.716.616-1.737.616-3.062 0-.882-.094-1.633-.283-2.253-.186-.619-.454-1.092-.806-1.416a1.778 1.778 0 00-1.258-.488c-.735 0-1.31.363-1.725 1.089-.414.723-.621 1.745-.621 3.068 0 .881.093 1.63.278 2.247.186.616.453 1.085.8 1.407.352.321.775.482 1.268.482zM4.587 235.095a3.496 3.496 0 01-1.576-.348 2.929 2.929 0 01-1.123-.954 2.602 2.602 0 01-.463-1.382H2.62c.046.46.255.841.626 1.143.375.298.822.448 1.342.448.418 0 .79-.098 1.114-.294.328-.195.585-.464.77-.805a2.38 2.38 0 00.284-1.169c0-.444-.098-.84-.293-1.188a2.153 2.153 0 00-.796-.83 2.246 2.246 0 00-1.158-.308 3.174 3.174 0 00-.96.144 2.65 2.65 0 00-.81.373l-1.153-.139.616-5.012h5.29v1.094H3.235l-.358 3.003h.06c.209-.166.47-.303.785-.413a2.99 2.99 0 01.985-.164c.623 0 1.178.149 1.665.448.49.295.875.699 1.154 1.213.281.513.422 1.1.422 1.76 0 .649-.146 1.229-.437 1.74a3.199 3.199 0 01-1.194 1.203c-.507.291-1.083.437-1.73.437zm8.598 0c-.683 0-1.287-.121-1.81-.363-.52-.245-.927-.581-1.218-1.009a2.534 2.534 0 01-.433-1.471 2.71 2.71 0 01.254-1.194c.172-.368.408-.674.706-.919a2.167 2.167 0 011.009-.473v-.059a1.966 1.966 0 01-1.163-.821 2.483 2.483 0 01-.428-1.446 2.46 2.46 0 01.393-1.387c.265-.408.63-.73 1.094-.965.467-.235.999-.353 1.595-.353.59 0 1.117.118 1.581.353.464.235.829.557 1.094.965.269.407.405.87.408 1.387a2.519 2.519 0 01-.443 1.446 1.965 1.965 0 01-1.148.821v.059c.368.067.7.224.994.473a2.766 2.766 0 01.974 2.113 2.571 2.571 0 01-.447 1.471c-.291.428-.697.764-1.218 1.009-.517.242-1.115.363-1.794.363zm0-1.093c.46 0 .858-.075 1.193-.224.334-.149.593-.36.775-.632a1.7 1.7 0 00.279-.954 1.83 1.83 0 00-.299-1.019 2.023 2.023 0 00-.8-.696 2.514 2.514 0 00-1.149-.254c-.434 0-.821.085-1.163.254a2.024 2.024 0 00-.8.696 1.794 1.794 0 00-.284 1.019c-.003.364.085.683.264.954.182.272.442.483.78.632.338.149.74.224 1.204.224zm0-4.833c.364 0 .687-.073.969-.219.285-.145.509-.349.671-.611.163-.262.245-.569.249-.92a1.697 1.697 0 00-.244-.9 1.581 1.581 0 00-.661-.596 2.148 2.148 0 00-.985-.214c-.38 0-.714.071-.999.214a1.542 1.542 0 00-.661.596 1.66 1.66 0 00-.229.9 1.71 1.71 0 00.234.92c.162.262.386.466.671.611.285.146.613.219.985.219zm-8.81 65.558c-.749 0-1.387-.204-1.914-.612-.527-.411-.93-1.005-1.208-1.784-.279-.783-.418-1.727-.418-2.834 0-1.101.14-2.04.418-2.819.282-.782.686-1.379 1.213-1.79.53-.414 1.167-.621 1.909-.621s1.377.207 1.904.621c.53.411.935 1.008 1.213 1.79.282.779.423 1.718.423 2.819 0 1.107-.14 2.051-.418 2.834-.278.779-.681 1.373-1.208 1.784-.527.408-1.165.612-1.914.612zm0-1.094c.742 0 1.32-.358 1.73-1.074.411-.716.617-1.736.617-3.062 0-.882-.095-1.632-.284-2.252-.185-.62-.454-1.092-.805-1.417a1.777 1.777 0 00-1.258-.487c-.736 0-1.31.363-1.725 1.088-.414.723-.622 1.745-.622 3.068 0 .881.093 1.631.279 2.247.185.616.452 1.085.8 1.407.352.321.774.482 1.268.482zm17.03 33.177v-.895l3.361-3.679c.395-.431.72-.805.975-1.124a4.16 4.16 0 00.567-.904c.125-.285.188-.584.188-.895 0-.358-.086-.668-.258-.93a1.67 1.67 0 00-.696-.606 2.25 2.25 0 00-.994-.214 2.08 2.08 0 00-1.025.243 1.675 1.675 0 00-.67.672 2.1 2.1 0 00-.234 1.014h-1.174c0-.597.138-1.121.413-1.571a2.87 2.87 0 011.123-1.054 3.386 3.386 0 011.606-.378c.597 0 1.126.126 1.586.378.461.252.822.591 1.084 1.019.262.427.393.903.393 1.427 0 .374-.068.741-.204 1.098-.133.355-.365.751-.696 1.189-.328.434-.784.964-1.367 1.591l-2.287 2.446v.079h4.733v1.094h-6.424zm11.798.139c-.749 0-1.387-.204-1.914-.611-.527-.411-.93-1.006-1.208-1.785-.278-.782-.418-1.727-.418-2.834 0-1.1.14-2.04.418-2.819.282-.782.686-1.379 1.213-1.79.53-.414 1.167-.621 1.91-.621.742 0 1.376.207 1.903.621.53.411.935 1.008 1.213 1.79.282.779.423 1.719.423 2.819 0 1.107-.14 2.052-.418 2.834-.278.779-.68 1.374-1.208 1.785-.527.407-1.165.611-1.914.611zm0-1.094c.742 0 1.32-.358 1.73-1.073.411-.716.617-1.737.617-3.063 0-.882-.095-1.632-.284-2.252-.185-.62-.454-1.092-.805-1.417a1.777 1.777 0 00-1.258-.487c-.736 0-1.31.363-1.725 1.089-.414.722-.622 1.745-.622 3.067 0 .882.093 1.631.279 2.247.185.617.452 1.086.8 1.407a1.81 1.81 0 001.268.482zm5.43.955v-.895l3.36-3.679c.394-.431.72-.805.974-1.124a4.16 4.16 0 00.567-.904c.126-.285.189-.584.189-.895 0-.358-.086-.668-.258-.93a1.671 1.671 0 00-.697-.606 2.25 2.25 0 00-.994-.214c-.391 0-.732.081-1.024.243a1.674 1.674 0 00-.671.672 2.1 2.1 0 00-.234 1.014h-1.173c0-.597.137-1.121.413-1.571a2.87 2.87 0 011.123-1.054 3.386 3.386 0 011.606-.378c.596 0 1.125.126 1.586.378.46.252.822.591 1.084 1.019.261.427.392.903.392 1.427 0 .374-.067.741-.203 1.098-.133.355-.365.751-.696 1.189-.329.434-.784.964-1.368 1.591l-2.287 2.446v.079h4.733v1.094h-6.423zm11.916.139c-.656 0-1.241-.113-1.755-.338a3.004 3.004 0 01-1.218-.94 2.524 2.524 0 01-.487-1.407h1.253c.026.329.139.612.338.851.199.235.459.417.78.546.322.13.678.194 1.07.194a2.81 2.81 0 001.163-.228c.338-.153.603-.365.795-.637a1.59 1.59 0 00.288-.944c0-.375-.093-.705-.278-.99a1.85 1.85 0 00-.816-.676c-.357-.162-.795-.243-1.312-.243h-.815v-1.094h.815a2.44 2.44 0 001.064-.219 1.651 1.651 0 00.984-1.551 1.72 1.72 0 00-.228-.9 1.56 1.56 0 00-.647-.596 2.086 2.086 0 00-.974-.214c-.351 0-.683.064-.994.194-.309.126-.56.31-.756.552a1.435 1.435 0 00-.318.865h-1.194c.02-.534.181-1.001.483-1.402.301-.405.696-.72 1.183-.945a3.83 3.83 0 011.616-.338c.63 0 1.17.128 1.62.383.451.252.798.585 1.04.999.241.414.362.862.362 1.342 0 .574-.15 1.063-.452 1.467a2.296 2.296 0 01-1.218.84v.08c.643.106 1.145.379 1.506.82.362.438.542.979.542 1.626 0 .553-.15 1.05-.452 1.491a3.07 3.07 0 01-1.223 1.034c-.517.252-1.105.378-1.765.378zm9.869-5.777v1.094h-4.455v-1.094h4.455zm5.365 5.777c-.749 0-1.387-.204-1.914-.611-.527-.411-.93-1.006-1.208-1.785-.278-.782-.418-1.727-.418-2.834 0-1.1.14-2.04.418-2.819.282-.782.686-1.379 1.213-1.79.53-.414 1.167-.621 1.91-.621.742 0 1.376.207 1.903.621.53.411.935 1.008 1.213 1.79.282.779.423 1.719.423 2.819 0 1.107-.14 2.052-.418 2.834-.278.779-.68 1.374-1.208 1.785-.527.407-1.165.611-1.914.611zm0-1.094c.743 0 1.32-.358 1.73-1.073.411-.716.617-1.737.617-3.063 0-.882-.095-1.632-.284-2.252-.185-.62-.454-1.092-.805-1.417a1.777 1.777 0 00-1.258-.487c-.736 0-1.31.363-1.725 1.089-.414.722-.621 1.745-.621 3.067 0 .882.092 1.631.278 2.247.186.617.452 1.086.8 1.407a1.81 1.81 0 001.268.482zm8.69 1.094c-.682 0-1.285-.121-1.81-.363-.52-.245-.925-.581-1.217-1.009a2.536 2.536 0 01-.433-1.472 2.705 2.705 0 01.96-2.113 2.166 2.166 0 011.01-.472v-.059a1.967 1.967 0 01-1.164-.821 2.483 2.483 0 01-.428-1.447 2.458 2.458 0 01.393-1.387c.265-.407.63-.729 1.094-.964.467-.235.999-.353 1.596-.353.59 0 1.117.118 1.58.353.465.235.83.557 1.094.964.269.408.405.87.408 1.387a2.52 2.52 0 01-.442 1.447 1.964 1.964 0 01-1.149.821v.059c.368.066.7.224.994.472a2.771 2.771 0 01.975 2.113 2.571 2.571 0 01-.448 1.472c-.291.428-.697.764-1.218 1.009-.517.242-1.115.363-1.794.363zm0-1.094c.461 0 .859-.074 1.194-.223.334-.149.593-.36.775-.632.183-.272.275-.59.279-.954a1.83 1.83 0 00-.299-1.019 2.023 2.023 0 00-.8-.696 2.502 2.502 0 00-1.148-.254c-.435 0-.822.084-1.164.254a2.023 2.023 0 00-.8.696 1.793 1.793 0 00-.284 1.019 1.67 1.67 0 00.264.954c.182.272.442.483.78.632.339.149.74.223 1.204.223zm0-4.832c.365 0 .688-.073.97-.219a1.66 1.66 0 00.671-.611c.163-.262.245-.569.249-.92a1.697 1.697 0 00-.244-.9 1.581 1.581 0 00-.661-.596 2.147 2.147 0 00-.984-.214c-.382 0-.715.071-1 .214a1.542 1.542 0 00-.661.596 1.661 1.661 0 00-.229.9 1.71 1.71 0 00.234.92c.162.262.386.465.671.611.285.146.613.219.984.219zm9.761.149v1.094H79.78v-1.094h4.454zm1.566 5.638v-.895l3.36-3.679c.395-.431.72-.805.975-1.124.255-.321.444-.623.567-.904.126-.285.189-.584.189-.895 0-.358-.086-.668-.259-.93a1.672 1.672 0 00-.696-.606 2.25 2.25 0 00-.994-.214c-.391 0-.732.081-1.024.243a1.674 1.674 0 00-.671.672 2.1 2.1 0 00-.234 1.014H85.84c0-.597.137-1.121.412-1.571.276-.451.65-.802 1.124-1.054a3.385 3.385 0 011.606-.378c.597 0 1.125.126 1.586.378.46.252.822.591 1.084 1.019.261.427.392.903.392 1.427 0 .374-.068.741-.203 1.098-.133.355-.365.751-.697 1.189-.328.434-.783.964-1.367 1.591l-2.287 2.446v.079h4.733v1.094H85.8zm11.659.139a3.496 3.496 0 01-1.577-.348 2.928 2.928 0 01-1.123-.954 2.603 2.603 0 01-.463-1.383h1.194c.046.461.255.842.626 1.144.375.298.822.447 1.343.447.417 0 .788-.097 1.113-.293.328-.195.585-.464.77-.805a2.38 2.38 0 00.284-1.169c0-.444-.098-.84-.293-1.188a2.153 2.153 0 00-.796-.83 2.246 2.246 0 00-1.158-.308 3.143 3.143 0 00-.96.144 2.65 2.65 0 00-.81.373l-1.153-.14.616-5.011h5.29v1.094h-4.256l-.358 3.003h.06a2.64 2.64 0 01.785-.413 2.99 2.99 0 01.985-.164 3.13 3.13 0 012.82 1.661c.28.513.421 1.1.421 1.759 0 .65-.146 1.23-.437 1.741a3.204 3.204 0 01-1.193 1.203c-.507.291-1.084.437-1.73.437zm12.947-.139v-.895l3.36-3.679c.395-.431.72-.805.975-1.124.255-.321.444-.623.567-.904.125-.285.188-.584.188-.895 0-.358-.086-.668-.258-.93a1.67 1.67 0 00-.696-.606 2.251 2.251 0 00-.994-.214c-.392 0-.733.081-1.025.243a1.676 1.676 0 00-.671.672 2.097 2.097 0 00-.233 1.014h-1.174c0-.597.138-1.121.413-1.571.275-.451.65-.802 1.124-1.054a3.382 3.382 0 011.605-.378c.597 0 1.126.126 1.586.378.461.252.822.591 1.084 1.019.262.427.393.903.393 1.427 0 .374-.068.741-.204 1.098-.133.355-.365.751-.696 1.189-.328.434-.784.964-1.367 1.591l-2.287 2.446v.079h4.733v1.094h-6.423zm11.797.139c-.749 0-1.387-.204-1.914-.611-.527-.411-.93-1.006-1.208-1.785-.278-.782-.418-1.727-.418-2.834 0-1.1.14-2.04.418-2.819.282-.782.686-1.379 1.213-1.79.53-.414 1.167-.621 1.909-.621.743 0 1.377.207 1.904.621.531.411.935 1.008 1.213 1.79.282.779.423 1.719.423 2.819 0 1.107-.139 2.052-.418 2.834-.278.779-.681 1.374-1.208 1.785-.527.407-1.165.611-1.914.611zm0-1.094c.743 0 1.319-.358 1.73-1.073.411-.716.617-1.737.617-3.063 0-.882-.095-1.632-.284-2.252-.185-.62-.454-1.092-.805-1.417a1.776 1.776 0 00-1.258-.487c-.736 0-1.311.363-1.725 1.089-.414.722-.621 1.745-.621 3.067 0 .882.092 1.631.278 2.247.186.617.452 1.086.8 1.407.352.322.774.482 1.268.482zm5.429.955v-.895l3.361-3.679c.394-.431.719-.805.974-1.124.256-.321.444-.623.567-.904.126-.285.189-.584.189-.895 0-.358-.086-.668-.259-.93a1.67 1.67 0 00-.696-.606 2.248 2.248 0 00-.994-.214c-.391 0-.732.081-1.024.243a1.676 1.676 0 00-.671.672 2.097 2.097 0 00-.234 1.014h-1.173c0-.597.137-1.121.413-1.571a2.864 2.864 0 011.123-1.054 3.386 3.386 0 011.606-.378c.597 0 1.125.126 1.586.378.461.252.822.591 1.084 1.019.262.427.392.903.392 1.427 0 .374-.068.741-.203 1.098-.133.355-.365.751-.696 1.189-.329.434-.784.964-1.368 1.591l-2.287 2.446v.079h4.733v1.094h-6.423zm11.917.139c-.656 0-1.241-.113-1.755-.338a3.01 3.01 0 01-1.218-.94 2.522 2.522 0 01-.487-1.407h1.253c.026.329.139.612.338.851.199.235.459.417.78.546.322.13.678.194 1.069.194.438 0 .825-.076 1.163-.228.339-.153.604-.365.796-.637.192-.271.288-.586.288-.944 0-.375-.093-.705-.278-.99a1.856 1.856 0 00-.815-.676c-.358-.162-.796-.243-1.313-.243h-.815v-1.094h.815a2.44 2.44 0 001.064-.219c.308-.146.548-.351.721-.616.175-.265.263-.577.263-.935 0-.345-.076-.645-.228-.9a1.562 1.562 0 00-.647-.596 2.085 2.085 0 00-.974-.214c-.351 0-.683.064-.994.194-.309.126-.561.31-.756.552a1.429 1.429 0 00-.318.865h-1.193c.019-.534.18-1.001.482-1.402.301-.405.696-.72 1.183-.945a3.83 3.83 0 011.616-.338c.63 0 1.17.128 1.621.383.45.252.797.585 1.039.999.242.414.363.862.363 1.342 0 .574-.151 1.063-.453 1.467a2.294 2.294 0 01-1.218.84v.08c.643.106 1.145.379 1.506.82.362.438.542.979.542 1.626 0 .553-.15 1.05-.452 1.491a3.068 3.068 0 01-1.223 1.034c-.517.252-1.105.378-1.765.378zm9.869-5.777v1.094h-4.455v-1.094h4.455zm5.365 5.777c-.749 0-1.387-.204-1.914-.611-.527-.411-.93-1.006-1.208-1.785-.278-.782-.418-1.727-.418-2.834 0-1.1.14-2.04.418-2.819.282-.782.686-1.379 1.213-1.79.53-.414 1.167-.621 1.909-.621.743 0 1.377.207 1.904.621.531.411.935 1.008 1.213 1.79.282.779.423 1.719.423 2.819 0 1.107-.139 2.052-.418 2.834-.278.779-.681 1.374-1.208 1.785-.527.407-1.165.611-1.914.611zm0-1.094c.743 0 1.319-.358 1.73-1.073.411-.716.617-1.737.617-3.063 0-.882-.095-1.632-.284-2.252-.185-.62-.454-1.092-.805-1.417a1.776 1.776 0 00-1.258-.487c-.736 0-1.311.363-1.725 1.089-.414.722-.621 1.745-.621 3.067 0 .882.092 1.631.278 2.247.186.617.452 1.086.8 1.407.352.322.774.482 1.268.482zm8.691 1.094c-.683 0-1.286-.121-1.81-.363-.52-.245-.926-.581-1.218-1.009a2.535 2.535 0 01-.433-1.472c-.003-.43.082-.828.254-1.193.172-.368.408-.674.706-.92a2.163 2.163 0 011.009-.472v-.059a1.966 1.966 0 01-1.163-.821 2.482 2.482 0 01-.428-1.447 2.462 2.462 0 01.393-1.387c.265-.407.63-.729 1.094-.964.467-.235.999-.353 1.596-.353.59 0 1.116.118 1.581.353.464.235.828.557 1.093.964.269.408.405.87.408 1.387a2.516 2.516 0 01-.443 1.447 1.963 1.963 0 01-1.148.821v.059c.368.066.699.224.994.472.295.246.531.552.706.92.176.365.265.763.269 1.193a2.577 2.577 0 01-.448 1.472c-.291.428-.697.764-1.218 1.009-.517.242-1.115.363-1.794.363zm0-1.094c.46 0 .858-.074 1.193-.223.334-.149.593-.36.775-.632.183-.272.275-.59.279-.954a1.832 1.832 0 00-.299-1.019 2.019 2.019 0 00-.8-.696 2.503 2.503 0 00-1.148-.254c-.435 0-.822.084-1.164.254a2.019 2.019 0 00-.8.696 1.798 1.798 0 00-.284 1.019 1.67 1.67 0 00.264.954c.182.272.442.483.78.632.338.149.74.223 1.204.223zm0-4.832c.364 0 .687-.073.969-.219a1.66 1.66 0 00.671-.611c.163-.262.245-.569.249-.92a1.704 1.704 0 00-.244-.9 1.578 1.578 0 00-.661-.596 2.148 2.148 0 00-.984-.214c-.382 0-.715.071-1 .214a1.543 1.543 0 00-.661.596 1.661 1.661 0 00-.229.9 1.71 1.71 0 00.234.92c.162.262.386.465.671.611.285.146.613.219.985.219zm9.76.149v1.094h-4.455v-1.094h4.455zm1.566 5.638v-.895l3.361-3.679c.394-.431.719-.805.974-1.124.256-.321.444-.623.567-.904.126-.285.189-.584.189-.895 0-.358-.086-.668-.259-.93a1.67 1.67 0 00-.696-.606 2.248 2.248 0 00-.994-.214c-.391 0-.732.081-1.024.243a1.676 1.676 0 00-.671.672 2.097 2.097 0 00-.234 1.014h-1.173c0-.597.137-1.121.412-1.571.276-.451.65-.802 1.124-1.054a3.386 3.386 0 011.606-.378c.596 0 1.125.126 1.586.378.461.252.822.591 1.084 1.019.261.427.392.903.392 1.427 0 .374-.068.741-.203 1.098-.133.355-.365.751-.696 1.189-.329.434-.784.964-1.368 1.591l-2.287 2.446v.079h4.733v1.094H174.8zm11.857.139a3.811 3.811 0 01-1.253-.238 3.016 3.016 0 01-1.143-.771c-.345-.365-.621-.857-.83-1.477-.209-.623-.313-1.405-.313-2.346 0-.902.084-1.701.253-2.397.169-.699.414-1.287.736-1.764a3.304 3.304 0 011.163-1.094 3.182 3.182 0 011.546-.373c.57 0 1.078.114 1.522.343.447.225.812.54 1.093.945.282.404.464.87.547 1.397h-1.213a2.243 2.243 0 00-.656-1.139c-.325-.302-.756-.452-1.293-.452-.788 0-1.41.343-1.864 1.029-.451.686-.678 1.649-.681 2.888h.079c.186-.281.407-.522.662-.721a2.963 2.963 0 011.844-.631c.584 0 1.117.146 1.601.438.484.288.872.687 1.163 1.198.292.507.438 1.088.438 1.745 0 .629-.141 1.206-.423 1.73-.281.52-.677.934-1.188 1.243-.507.305-1.104.454-1.79.447zm0-1.094c.418 0 .792-.104 1.124-.313.335-.209.598-.489.79-.84.196-.351.294-.742.294-1.173 0-.421-.095-.804-.284-1.149a2.152 2.152 0 00-.77-.83 2.043 2.043 0 00-1.114-.308c-.315 0-.608.063-.88.189-.272.122-.51.291-.716.507a2.44 2.44 0 00-.477.741 2.354 2.354 0 00.109 2.003c.193.351.454.635.786.85.335.216.714.323 1.138.323zm29.749.955v-.895l3.36-3.679c.395-.431.72-.805.975-1.124.255-.321.444-.623.567-.904.125-.285.188-.584.188-.895 0-.358-.086-.668-.258-.93a1.67 1.67 0 00-.696-.606 2.251 2.251 0 00-.994-.214c-.392 0-.733.081-1.025.243a1.676 1.676 0 00-.671.672 2.097 2.097 0 00-.233 1.014h-1.174c0-.597.138-1.121.413-1.571.275-.451.65-.802 1.124-1.054a3.382 3.382 0 011.605-.378c.597 0 1.126.126 1.586.378.461.252.822.591 1.084 1.019.262.427.393.903.393 1.427 0 .374-.068.741-.204 1.098-.133.355-.365.751-.696 1.189-.328.434-.784.964-1.367 1.591l-2.287 2.446v.079h4.733v1.094h-6.423zm11.797.139c-.749 0-1.387-.204-1.914-.611-.527-.411-.93-1.006-1.208-1.785-.278-.782-.418-1.727-.418-2.834 0-1.1.14-2.04.418-2.819.282-.782.686-1.379 1.213-1.79.53-.414 1.167-.621 1.909-.621.743 0 1.377.207 1.904.621.531.411.935 1.008 1.213 1.79.282.779.423 1.719.423 2.819 0 1.107-.139 2.052-.418 2.834-.278.779-.681 1.374-1.208 1.785-.527.407-1.165.611-1.914.611zm0-1.094c.743 0 1.319-.358 1.73-1.073.411-.716.617-1.737.617-3.063 0-.882-.095-1.632-.284-2.252-.185-.62-.454-1.092-.805-1.417a1.776 1.776 0 00-1.258-.487c-.736 0-1.311.363-1.725 1.089-.414.722-.621 1.745-.621 3.067 0 .882.092 1.631.278 2.247.186.617.452 1.086.8 1.407.352.322.774.482 1.268.482zm5.429.955v-.895l3.361-3.679c.394-.431.719-.805.974-1.124.256-.321.444-.623.567-.904.126-.285.189-.584.189-.895 0-.358-.086-.668-.259-.93a1.67 1.67 0 00-.696-.606 2.248 2.248 0 00-.994-.214c-.391 0-.732.081-1.024.243a1.676 1.676 0 00-.671.672 2.097 2.097 0 00-.234 1.014h-1.173c0-.597.137-1.121.413-1.571a2.864 2.864 0 011.123-1.054 3.386 3.386 0 011.606-.378c.597 0 1.125.126 1.586.378.461.252.822.591 1.084 1.019.262.427.392.903.392 1.427 0 .374-.068.741-.203 1.098-.133.355-.365.751-.696 1.189-.329.434-.784.964-1.368 1.591l-2.287 2.446v.079h4.733v1.094h-6.423zm11.917.139c-.656 0-1.241-.113-1.755-.338a3.01 3.01 0 01-1.218-.94 2.522 2.522 0 01-.487-1.407h1.253c.026.329.139.612.338.851.199.235.459.417.78.546.322.13.678.194 1.069.194.438 0 .825-.076 1.163-.228.339-.153.604-.365.796-.637.192-.271.288-.586.288-.944 0-.375-.093-.705-.278-.99a1.856 1.856 0 00-.815-.676c-.358-.162-.796-.243-1.313-.243h-.815v-1.094h.815a2.44 2.44 0 001.064-.219c.308-.146.548-.351.721-.616.175-.265.263-.577.263-.935 0-.345-.076-.645-.228-.9a1.562 1.562 0 00-.647-.596 2.085 2.085 0 00-.974-.214c-.351 0-.683.064-.994.194-.309.126-.561.31-.756.552a1.429 1.429 0 00-.318.865h-1.193c.019-.534.18-1.001.482-1.402.301-.405.696-.72 1.183-.945a3.83 3.83 0 011.616-.338c.63 0 1.17.128 1.621.383.45.252.797.585 1.039.999.242.414.363.862.363 1.342 0 .574-.151 1.063-.453 1.467a2.294 2.294 0 01-1.218.84v.08c.643.106 1.145.379 1.506.82.362.438.542.979.542 1.626 0 .553-.15 1.05-.452 1.491a3.068 3.068 0 01-1.223 1.034c-.517.252-1.105.378-1.765.378zm9.869-5.777v1.094h-4.455v-1.094h4.455zm5.365 5.777c-.749 0-1.387-.204-1.914-.611-.527-.411-.93-1.006-1.208-1.785-.278-.782-.418-1.727-.418-2.834 0-1.1.14-2.04.418-2.819.282-.782.686-1.379 1.213-1.79.53-.414 1.167-.621 1.909-.621.743 0 1.377.207 1.904.621.531.411.935 1.008 1.213 1.79.282.779.423 1.719.423 2.819 0 1.107-.139 2.052-.418 2.834-.278.779-.681 1.374-1.208 1.785-.527.407-1.165.611-1.914.611zm0-1.094c.743 0 1.319-.358 1.73-1.073.411-.716.617-1.737.617-3.063 0-.882-.095-1.632-.284-2.252-.185-.62-.454-1.092-.805-1.417a1.776 1.776 0 00-1.258-.487c-.736 0-1.311.363-1.725 1.089-.414.722-.621 1.745-.621 3.067 0 .882.092 1.631.278 2.247.186.617.452 1.086.8 1.407.352.322.774.482 1.268.482zm8.691 1.094c-.683 0-1.286-.121-1.81-.363-.52-.245-.926-.581-1.218-1.009a2.535 2.535 0 01-.433-1.472c-.003-.43.082-.828.254-1.193.172-.368.408-.674.706-.92a2.163 2.163 0 011.009-.472v-.059a1.966 1.966 0 01-1.163-.821 2.482 2.482 0 01-.428-1.447 2.462 2.462 0 01.393-1.387c.265-.407.63-.729 1.094-.964.467-.235.999-.353 1.596-.353.59 0 1.116.118 1.581.353.464.235.828.557 1.093.964.269.408.405.87.408 1.387a2.516 2.516 0 01-.443 1.447 1.963 1.963 0 01-1.148.821v.059c.368.066.699.224.994.472.295.246.531.552.706.92.176.365.265.763.269 1.193a2.577 2.577 0 01-.448 1.472c-.291.428-.697.764-1.218 1.009-.517.242-1.115.363-1.794.363zm0-1.094c.46 0 .858-.074 1.193-.223.334-.149.593-.36.775-.632.183-.272.275-.59.279-.954a1.832 1.832 0 00-.299-1.019 2.019 2.019 0 00-.8-.696 2.503 2.503 0 00-1.148-.254c-.435 0-.822.084-1.164.254a2.019 2.019 0 00-.8.696 1.798 1.798 0 00-.284 1.019 1.67 1.67 0 00.264.954c.182.272.442.483.78.632.338.149.74.223 1.204.223zm0-4.832c.364 0 .687-.073.969-.219a1.66 1.66 0 00.671-.611c.163-.262.245-.569.249-.92a1.704 1.704 0 00-.244-.9 1.578 1.578 0 00-.661-.596 2.148 2.148 0 00-.984-.214c-.382 0-.715.071-1 .214a1.543 1.543 0 00-.661.596 1.661 1.661 0 00-.229.9 1.71 1.71 0 00.234.92c.162.262.386.465.671.611.285.146.613.219.985.219zm9.76.149v1.094h-4.455v-1.094h4.455zm1.566 5.638v-.895l3.361-3.679c.394-.431.719-.805.974-1.124.256-.321.444-.623.567-.904.126-.285.189-.584.189-.895 0-.358-.086-.668-.259-.93a1.67 1.67 0 00-.696-.606 2.248 2.248 0 00-.994-.214c-.391 0-.732.081-1.024.243a1.676 1.676 0 00-.671.672 2.097 2.097 0 00-.234 1.014h-1.173c0-.597.137-1.121.412-1.571.276-.451.65-.802 1.124-1.054a3.386 3.386 0 011.606-.378c.596 0 1.125.126 1.586.378.461.252.822.591 1.084 1.019.261.427.392.903.392 1.427 0 .374-.068.741-.203 1.098-.133.355-.365.751-.696 1.189-.329.434-.784.964-1.368 1.591l-2.287 2.446v.079h4.733v1.094H280.8zm8.795 0l4.554-9.009v-.079h-5.25v-1.094h6.523v1.154l-4.535 9.028h-1.292zm17.811 0v-.895l3.36-3.679c.395-.431.72-.805.975-1.124.255-.321.444-.623.567-.904.125-.285.188-.584.188-.895 0-.358-.086-.668-.258-.93a1.67 1.67 0 00-.696-.606 2.251 2.251 0 00-.994-.214c-.392 0-.733.081-1.025.243a1.676 1.676 0 00-.671.672 2.097 2.097 0 00-.233 1.014h-1.174c0-.597.138-1.121.413-1.571.275-.451.65-.802 1.124-1.054a3.382 3.382 0 011.605-.378c.597 0 1.126.126 1.586.378.461.252.822.591 1.084 1.019.262.427.393.903.393 1.427 0 .374-.068.741-.204 1.098-.133.355-.365.751-.696 1.189-.328.434-.784.964-1.367 1.591l-2.287 2.446v.079h4.733v1.094h-6.423zm11.797.139c-.749 0-1.387-.204-1.914-.611-.527-.411-.93-1.006-1.208-1.785-.278-.782-.418-1.727-.418-2.834 0-1.1.14-2.04.418-2.819.282-.782.686-1.379 1.213-1.79.53-.414 1.167-.621 1.909-.621.743 0 1.377.207 1.904.621.531.411.935 1.008 1.213 1.79.282.779.423 1.719.423 2.819 0 1.107-.139 2.052-.418 2.834-.278.779-.681 1.374-1.208 1.785-.527.407-1.165.611-1.914.611zm0-1.094c.743 0 1.319-.358 1.73-1.073.411-.716.617-1.737.617-3.063 0-.882-.095-1.632-.284-2.252-.185-.62-.454-1.092-.805-1.417a1.776 1.776 0 00-1.258-.487c-.736 0-1.311.363-1.725 1.089-.414.722-.621 1.745-.621 3.067 0 .882.092 1.631.278 2.247.186.617.452 1.086.8 1.407.352.322.774.482 1.268.482zm5.429.955v-.895l3.361-3.679c.394-.431.719-.805.974-1.124.256-.321.444-.623.567-.904.126-.285.189-.584.189-.895 0-.358-.086-.668-.259-.93a1.67 1.67 0 00-.696-.606 2.248 2.248 0 00-.994-.214c-.391 0-.732.081-1.024.243a1.676 1.676 0 00-.671.672 2.097 2.097 0 00-.234 1.014h-1.173c0-.597.137-1.121.413-1.571a2.864 2.864 0 011.123-1.054 3.386 3.386 0 011.606-.378c.597 0 1.125.126 1.586.378.461.252.822.591 1.084 1.019.262.427.392.903.392 1.427 0 .374-.068.741-.203 1.098-.133.355-.365.751-.696 1.189-.329.434-.784.964-1.368 1.591l-2.287 2.446v.079h4.733v1.094h-6.423zm11.917.139c-.656 0-1.241-.113-1.755-.338a3.01 3.01 0 01-1.218-.94 2.522 2.522 0 01-.487-1.407h1.253c.026.329.139.612.338.851.199.235.459.417.78.546.322.13.678.194 1.069.194.438 0 .825-.076 1.163-.228.339-.153.604-.365.796-.637.192-.271.288-.586.288-.944 0-.375-.093-.705-.278-.99a1.856 1.856 0 00-.815-.676c-.358-.162-.796-.243-1.313-.243h-.815v-1.094h.815a2.44 2.44 0 001.064-.219c.308-.146.548-.351.721-.616.175-.265.263-.577.263-.935 0-.345-.076-.645-.228-.9a1.562 1.562 0 00-.647-.596 2.085 2.085 0 00-.974-.214c-.351 0-.683.064-.994.194-.309.126-.561.31-.756.552a1.429 1.429 0 00-.318.865h-1.193c.019-.534.18-1.001.482-1.402.301-.405.696-.72 1.183-.945a3.83 3.83 0 011.616-.338c.63 0 1.17.128 1.621.383.45.252.797.585 1.039.999.242.414.363.862.363 1.342 0 .574-.151 1.063-.453 1.467a2.294 2.294 0 01-1.218.84v.08c.643.106 1.145.379 1.506.82.362.438.542.979.542 1.626 0 .553-.15 1.05-.452 1.491a3.068 3.068 0 01-1.223 1.034c-.517.252-1.105.378-1.765.378zm9.869-5.777v1.094h-4.455v-1.094h4.455zm5.365 5.777c-.749 0-1.387-.204-1.914-.611-.527-.411-.93-1.006-1.208-1.785-.278-.782-.418-1.727-.418-2.834 0-1.1.14-2.04.418-2.819.282-.782.686-1.379 1.213-1.79.53-.414 1.167-.621 1.909-.621.743 0 1.377.207 1.904.621.531.411.935 1.008 1.213 1.79.282.779.423 1.719.423 2.819 0 1.107-.139 2.052-.418 2.834-.278.779-.681 1.374-1.208 1.785-.527.407-1.165.611-1.914.611zm0-1.094c.743 0 1.319-.358 1.73-1.073.411-.716.617-1.737.617-3.063 0-.882-.095-1.632-.284-2.252-.185-.62-.454-1.092-.805-1.417a1.776 1.776 0 00-1.258-.487c-.736 0-1.311.363-1.725 1.089-.414.722-.621 1.745-.621 3.067 0 .882.092 1.631.278 2.247.186.617.452 1.086.8 1.407.352.322.774.482 1.268.482zm8.691 1.094c-.683 0-1.286-.121-1.81-.363-.52-.245-.926-.581-1.218-1.009a2.535 2.535 0 01-.433-1.472c-.003-.43.082-.828.254-1.193.172-.368.408-.674.706-.92a2.163 2.163 0 011.009-.472v-.059a1.966 1.966 0 01-1.163-.821 2.482 2.482 0 01-.428-1.447 2.462 2.462 0 01.393-1.387c.265-.407.63-.729 1.094-.964.467-.235.999-.353 1.596-.353.59 0 1.116.118 1.581.353.464.235.828.557 1.093.964.269.408.405.87.408 1.387a2.516 2.516 0 01-.443 1.447 1.963 1.963 0 01-1.148.821v.059c.368.066.699.224.994.472.295.246.531.552.706.92.176.365.265.763.269 1.193a2.577 2.577 0 01-.448 1.472c-.291.428-.697.764-1.218 1.009-.517.242-1.115.363-1.794.363zm0-1.094c.46 0 .858-.074 1.193-.223.334-.149.593-.36.775-.632.183-.272.275-.59.279-.954a1.832 1.832 0 00-.299-1.019 2.019 2.019 0 00-.8-.696 2.503 2.503 0 00-1.148-.254c-.435 0-.822.084-1.164.254a2.019 2.019 0 00-.8.696 1.798 1.798 0 00-.284 1.019 1.67 1.67 0 00.264.954c.182.272.442.483.78.632.338.149.74.223 1.204.223zm0-4.832c.364 0 .687-.073.969-.219a1.66 1.66 0 00.671-.611c.163-.262.245-.569.249-.92a1.704 1.704 0 00-.244-.9 1.578 1.578 0 00-.661-.596 2.148 2.148 0 00-.984-.214c-.382 0-.715.071-1 .214a1.543 1.543 0 00-.661.596 1.661 1.661 0 00-.229.9 1.71 1.71 0 00.234.92c.162.262.386.465.671.611.285.146.613.219.985.219zm9.76.149v1.094h-4.455v-1.094h4.455zm1.566 5.638v-.895l3.361-3.679c.394-.431.719-.805.974-1.124.256-.321.444-.623.567-.904.126-.285.189-.584.189-.895 0-.358-.086-.668-.259-.93a1.67 1.67 0 00-.696-.606 2.248 2.248 0 00-.994-.214c-.391 0-.732.081-1.024.243a1.676 1.676 0 00-.671.672 2.097 2.097 0 00-.234 1.014h-1.173c0-.597.137-1.121.412-1.571.276-.451.65-.802 1.124-1.054a3.386 3.386 0 011.606-.378c.596 0 1.125.126 1.586.378.461.252.822.591 1.084 1.019.261.427.392.903.392 1.427 0 .374-.068.741-.203 1.098-.133.355-.365.751-.696 1.189-.329.434-.784.964-1.368 1.591l-2.287 2.446v.079h4.733v1.094H371.8zm11.738.139c-.683 0-1.286-.121-1.81-.363-.52-.245-.926-.581-1.218-1.009a2.535 2.535 0 01-.432-1.472 2.704 2.704 0 01.959-2.113 2.166 2.166 0 011.01-.472v-.059a1.968 1.968 0 01-1.164-.821 2.48 2.48 0 01-.427-1.447 2.454 2.454 0 01.392-1.387c.266-.407.63-.729 1.094-.964.467-.235.999-.353 1.596-.353.59 0 1.117.118 1.581.353.464.235.829.557 1.094.964.268.408.404.87.407 1.387a2.515 2.515 0 01-.442 1.447 1.962 1.962 0 01-1.149.821v.059c.368.066.7.224.995.472a2.77 2.77 0 01.974 2.113 2.569 2.569 0 01-.447 1.472c-.292.428-.698.764-1.218 1.009-.517.242-1.116.363-1.795.363zm0-1.094c.461 0 .858-.074 1.193-.223a1.78 1.78 0 00.776-.632c.182-.272.275-.59.278-.954a1.831 1.831 0 00-.298-1.019 2.022 2.022 0 00-.801-.696 2.497 2.497 0 00-1.148-.254c-.434 0-.822.084-1.163.254a2.029 2.029 0 00-.801.696 1.798 1.798 0 00-.283 1.019c-.003.364.084.682.263.954.183.272.443.483.781.632.338.149.739.223 1.203.223zm0-4.832c.365 0 .688-.073.969-.219.285-.146.509-.349.672-.611.162-.262.245-.569.248-.92a1.695 1.695 0 00-.243-.9 1.581 1.581 0 00-.662-.596 2.142 2.142 0 00-.984-.214 2.2 2.2 0 00-.999.214 1.546 1.546 0 00-.662.596 1.661 1.661 0 00-.228.9 1.7 1.7 0 00.233.92c.163.262.387.465.672.611.285.146.613.219.984.219zm19.868 5.787v-.895l3.36-3.679c.395-.431.72-.805.975-1.124.255-.321.444-.623.567-.904.125-.285.188-.584.188-.895 0-.358-.086-.668-.258-.93a1.67 1.67 0 00-.696-.606 2.251 2.251 0 00-.994-.214c-.392 0-.733.081-1.025.243a1.676 1.676 0 00-.671.672 2.097 2.097 0 00-.233 1.014h-1.174c0-.597.138-1.121.413-1.571.275-.451.65-.802 1.124-1.054a3.382 3.382 0 011.605-.378c.597 0 1.126.126 1.586.378.461.252.822.591 1.084 1.019.262.427.393.903.393 1.427 0 .374-.068.741-.204 1.098-.133.355-.365.751-.696 1.189-.328.434-.784.964-1.367 1.591l-2.287 2.446v.079h4.733v1.094h-6.423zm11.797.139c-.749 0-1.387-.204-1.914-.611-.527-.411-.93-1.006-1.208-1.785-.278-.782-.418-1.727-.418-2.834 0-1.1.14-2.04.418-2.819.282-.782.686-1.379 1.213-1.79.53-.414 1.167-.621 1.909-.621.743 0 1.377.207 1.904.621.531.411.935 1.008 1.213 1.79.282.779.423 1.719.423 2.819 0 1.107-.139 2.052-.418 2.834-.278.779-.681 1.374-1.208 1.785-.527.407-1.165.611-1.914.611zm0-1.094c.743 0 1.319-.358 1.73-1.073.411-.716.617-1.737.617-3.063 0-.882-.095-1.632-.284-2.252-.185-.62-.454-1.092-.805-1.417a1.776 1.776 0 00-1.258-.487c-.736 0-1.311.363-1.725 1.089-.414.722-.621 1.745-.621 3.067 0 .882.092 1.631.278 2.247.186.617.452 1.086.8 1.407.352.322.774.482 1.268.482zm5.429.955v-.895l3.361-3.679c.394-.431.719-.805.974-1.124.256-.321.444-.623.567-.904.126-.285.189-.584.189-.895 0-.358-.086-.668-.259-.93a1.67 1.67 0 00-.696-.606 2.248 2.248 0 00-.994-.214c-.391 0-.732.081-1.024.243a1.676 1.676 0 00-.671.672 2.097 2.097 0 00-.234 1.014h-1.173c0-.597.137-1.121.413-1.571a2.864 2.864 0 011.123-1.054 3.386 3.386 0 011.606-.378c.597 0 1.125.126 1.586.378.461.252.822.591 1.084 1.019.262.427.392.903.392 1.427 0 .374-.068.741-.203 1.098-.133.355-.365.751-.696 1.189-.329.434-.784.964-1.368 1.591l-2.287 2.446v.079h4.733v1.094h-6.423zm11.917.139c-.656 0-1.241-.113-1.755-.338a3.01 3.01 0 01-1.218-.94 2.522 2.522 0 01-.487-1.407h1.253c.026.329.139.612.338.851.199.235.459.417.78.546.322.13.678.194 1.069.194.438 0 .825-.076 1.163-.228.339-.153.604-.365.796-.637.192-.271.288-.586.288-.944 0-.375-.093-.705-.278-.99a1.856 1.856 0 00-.815-.676c-.358-.162-.796-.243-1.313-.243h-.815v-1.094h.815a2.44 2.44 0 001.064-.219c.308-.146.548-.351.721-.616.175-.265.263-.577.263-.935 0-.345-.076-.645-.228-.9a1.562 1.562 0 00-.647-.596 2.085 2.085 0 00-.974-.214c-.351 0-.683.064-.994.194-.309.126-.561.31-.756.552a1.429 1.429 0 00-.318.865h-1.193c.019-.534.18-1.001.482-1.402.301-.405.696-.72 1.183-.945a3.83 3.83 0 011.616-.338c.63 0 1.17.128 1.621.383.45.252.797.585 1.039.999.242.414.363.862.363 1.342 0 .574-.151 1.063-.453 1.467a2.294 2.294 0 01-1.218.84v.08c.643.106 1.145.379 1.506.82.362.438.542.979.542 1.626 0 .553-.15 1.05-.452 1.491a3.068 3.068 0 01-1.223 1.034c-.517.252-1.105.378-1.765.378zm9.869-5.777v1.094h-4.455v-1.094h4.455zm5.365 5.777c-.749 0-1.387-.204-1.914-.611-.527-.411-.93-1.006-1.208-1.785-.278-.782-.418-1.727-.418-2.834 0-1.1.14-2.04.418-2.819.282-.782.686-1.379 1.213-1.79.53-.414 1.167-.621 1.909-.621.743 0 1.377.207 1.904.621.531.411.935 1.008 1.213 1.79.282.779.423 1.719.423 2.819 0 1.107-.139 2.052-.418 2.834-.278.779-.681 1.374-1.208 1.785-.527.407-1.165.611-1.914.611zm0-1.094c.743 0 1.319-.358 1.73-1.073.411-.716.617-1.737.617-3.063 0-.882-.095-1.632-.284-2.252-.185-.62-.454-1.092-.805-1.417a1.776 1.776 0 00-1.258-.487c-.736 0-1.311.363-1.725 1.089-.414.722-.621 1.745-.621 3.067 0 .882.092 1.631.278 2.247.186.617.452 1.086.8 1.407.352.322.774.482 1.268.482zm8.691 1.094c-.683 0-1.286-.121-1.81-.363-.52-.245-.926-.581-1.218-1.009a2.535 2.535 0 01-.433-1.472c-.003-.43.082-.828.254-1.193.172-.368.408-.674.706-.92a2.163 2.163 0 011.009-.472v-.059a1.966 1.966 0 01-1.163-.821 2.482 2.482 0 01-.428-1.447 2.462 2.462 0 01.393-1.387c.265-.407.63-.729 1.094-.964.467-.235.999-.353 1.596-.353.59 0 1.116.118 1.581.353.464.235.828.557 1.093.964.269.408.405.87.408 1.387a2.516 2.516 0 01-.443 1.447 1.963 1.963 0 01-1.148.821v.059c.368.066.699.224.994.472.295.246.531.552.706.92.176.365.265.763.269 1.193a2.577 2.577 0 01-.448 1.472c-.291.428-.697.764-1.218 1.009-.517.242-1.115.363-1.794.363zm0-1.094c.46 0 .858-.074 1.193-.223.334-.149.593-.36.775-.632.183-.272.275-.59.279-.954a1.832 1.832 0 00-.299-1.019 2.019 2.019 0 00-.8-.696 2.503 2.503 0 00-1.148-.254c-.435 0-.822.084-1.164.254a2.019 2.019 0 00-.8.696 1.798 1.798 0 00-.284 1.019 1.67 1.67 0 00.264.954c.182.272.442.483.78.632.338.149.74.223 1.204.223zm0-4.832c.364 0 .687-.073.969-.219a1.66 1.66 0 00.671-.611c.163-.262.245-.569.249-.92a1.704 1.704 0 00-.244-.9 1.578 1.578 0 00-.661-.596 2.148 2.148 0 00-.984-.214c-.382 0-.715.071-1 .214a1.543 1.543 0 00-.661.596 1.661 1.661 0 00-.229.9 1.71 1.71 0 00.234.92c.162.262.386.465.671.611.285.146.613.219.985.219zm9.76.149v1.094h-4.455v-1.094h4.455zm1.566 5.638v-.895l3.361-3.679c.394-.431.719-.805.974-1.124.256-.321.444-.623.567-.904.126-.285.189-.584.189-.895 0-.358-.086-.668-.259-.93a1.67 1.67 0 00-.696-.606 2.248 2.248 0 00-.994-.214c-.391 0-.732.081-1.024.243a1.676 1.676 0 00-.671.672 2.097 2.097 0 00-.234 1.014h-1.173c0-.597.137-1.121.412-1.571.276-.451.65-.802 1.124-1.054a3.386 3.386 0 011.606-.378c.596 0 1.125.126 1.586.378.461.252.822.591 1.084 1.019.261.427.392.903.392 1.427 0 .374-.068.741-.203 1.098-.133.355-.365.751-.696 1.189-.329.434-.784.964-1.368 1.591l-2.287 2.446v.079h4.733v1.094H467.8zm11.718-10.321c.418.003.835.083 1.253.239.418.155.799.414 1.143.775.345.358.622.847.831 1.467.208.62.313 1.397.313 2.331 0 .905-.086 1.709-.259 2.412-.169.699-.414 1.289-.735 1.77-.319.48-.706.845-1.164 1.093a3.152 3.152 0 01-1.541.373c-.57 0-1.079-.113-1.526-.338a2.995 2.995 0 01-1.094-.95 3.301 3.301 0 01-.542-1.416h1.213c.11.467.327.853.651 1.158.329.302.761.452 1.298.452.786 0 1.405-.343 1.859-1.029.458-.686.686-1.655.686-2.908h-.079a3.139 3.139 0 01-.661.721 2.923 2.923 0 01-1.845.631 3.101 3.101 0 01-1.606-.432 3.289 3.289 0 01-1.163-1.199c-.288-.51-.432-1.093-.432-1.75 0-.623.139-1.193.417-1.71a3.24 3.24 0 011.183-1.243c.511-.308 1.111-.457 1.8-.447zm0 1.094c-.418 0-.794.104-1.128.313a2.252 2.252 0 00-.791.835 2.357 2.357 0 00-.288 1.158c0 .425.093.811.278 1.159.189.345.446.62.771.825a2.09 2.09 0 001.118.303c.315 0 .609-.061.88-.184.272-.125.509-.296.711-.512a2.46 2.46 0 00.482-.74 2.28 2.28 0 00-.114-1.989 2.29 2.29 0 00-.785-.845 2.032 2.032 0 00-1.134-.323z" fill="#7B91B0"/><circle cx="162.535" cy="367.142" fill="#6441A5" r="6.65"/><path d="M183.893 372.642v-11.636h1.41v10.386h5.409v1.25h-6.819zm8.659 0v-8.727h1.341v8.727h-1.341zm.681-10.181a.955.955 0 01-.676-.267.86.86 0 01-.278-.642.86.86 0 01.278-.642.951.951 0 01.676-.268c.262 0 .485.089.671.268a.851.851 0 01.284.642c0 .25-.095.464-.284.642a.935.935 0 01-.671.267zm4.206 7l-.023-1.659h.273l3.818-3.887h1.659l-4.068 4.114h-.114l-1.545 1.432zm-1.25 3.181v-11.636h1.34v11.636h-1.34zm5.545 0l-3.409-4.318.954-.932 4.16 5.25h-1.705zm6.297.182c-.841 0-1.566-.185-2.176-.557a3.73 3.73 0 01-1.403-1.568c-.326-.674-.489-1.458-.489-2.352 0-.894.163-1.682.489-2.364.329-.685.788-1.219 1.375-1.602.591-.386 1.28-.579 2.068-.579.455 0 .903.075 1.347.227.443.151.846.398 1.21.738.363.338.653.785.869 1.341.216.557.324 1.243.324 2.057v.568h-6.727v-1.159h5.363a2.86 2.86 0 00-.295-1.318 2.231 2.231 0 00-.83-.915c-.356-.223-.776-.335-1.261-.335-.534 0-.996.133-1.386.398a2.603 2.603 0 00-.892 1.023c-.209.42-.313.871-.313 1.352v.773c0 .659.114 1.217.341 1.676.231.454.551.801.96 1.039.409.235.885.353 1.426.353.353 0 .671-.05.955-.148.288-.102.536-.254.744-.455.209-.204.37-.458.483-.761l1.296.364a2.887 2.887 0 01-.688 1.159c-.322.329-.72.587-1.193.773a4.447 4.447 0 01-1.597.272zm11.676-6.954l-1.205.341a2.245 2.245 0 00-.335-.586 1.63 1.63 0 00-.591-.477c-.25-.125-.57-.187-.96-.187-.534 0-.979.123-1.336.369-.352.242-.528.551-.528.926 0 .333.121.597.364.79.242.193.621.354 1.136.483l1.296.318c.78.189 1.361.479 1.744.869.382.387.574.885.574 1.495 0 .5-.144.947-.432 1.341-.284.393-.682.704-1.193.931-.512.228-1.106.341-1.784.341-.891 0-1.627-.193-2.211-.579-.583-.387-.952-.951-1.108-1.693l1.273-.319c.121.47.351.822.688 1.057.341.235.786.352 1.335.352.625 0 1.121-.132 1.489-.397.371-.269.556-.591.556-.966 0-.303-.106-.557-.318-.762-.212-.208-.538-.363-.977-.465l-1.455-.341c-.799-.19-1.386-.483-1.761-.881-.371-.402-.557-.903-.557-1.506 0-.492.138-.928.415-1.307.28-.378.661-.676 1.142-.892.485-.215 1.034-.323 1.648-.323.863 0 1.541.189 2.034.568a3.07 3.07 0 011.057 1.5z" fill="#2C2C2C"/><circle cx="264.042" cy="367.142" fill="#FA0060" r="6.65"/><path d="M290.718 369.074v-5.159h1.341v8.727h-1.341v-1.477h-.09c-.205.443-.523.82-.955 1.131-.432.307-.977.46-1.636.46-.546 0-1.031-.119-1.455-.358-.424-.242-.757-.606-1-1.091-.242-.488-.364-1.104-.364-1.846v-5.546h1.341v5.455c0 .636.178 1.144.534 1.522.36.379.819.569 1.375.569.334 0 .673-.086 1.018-.256.348-.17.64-.432.875-.784.238-.352.357-.801.357-1.347zm4.978-1.682v5.25h-1.341v-8.727h1.296v1.364h.113c.205-.443.516-.799.932-1.068.417-.273.955-.409 1.614-.409.591 0 1.108.121 1.551.363a2.45 2.45 0 011.034 1.091c.246.485.369 1.099.369 1.841v5.545h-1.34v-5.454c0-.686-.178-1.22-.535-1.602-.356-.387-.844-.58-1.465-.58-.428 0-.811.093-1.148.279a1.983 1.983 0 00-.79.812c-.193.356-.29.788-.29 1.295zm9.2-6.386v11.636h-1.341v-11.636h1.341zm2.296 11.636v-8.727h1.341v8.727h-1.341zm.681-10.181a.955.955 0 01-.676-.267.86.86 0 01-.278-.642.86.86 0 01.278-.642.951.951 0 01.676-.268c.262 0 .485.089.671.268a.851.851 0 01.284.642c0 .25-.095.464-.284.642a.935.935 0 01-.671.267zm4.205 7l-.022-1.659h.272l3.819-3.887h1.659l-4.068 4.114h-.114l-1.546 1.432zm-1.25 3.181v-11.636h1.341v11.636h-1.341zm5.546 0l-3.409-4.318.954-.932 4.159 5.25h-1.704zm6.297.182c-.841 0-1.566-.185-2.176-.557a3.73 3.73 0 01-1.403-1.568c-.326-.674-.489-1.458-.489-2.352 0-.894.163-1.682.489-2.364.329-.685.788-1.219 1.375-1.602.591-.386 1.28-.579 2.068-.579.455 0 .903.075 1.347.227.443.151.846.398 1.21.738.363.338.653.785.869 1.341.216.557.324 1.243.324 2.057v.568h-6.727v-1.159h5.363a2.86 2.86 0 00-.295-1.318 2.231 2.231 0 00-.83-.915c-.356-.223-.776-.335-1.261-.335-.534 0-.996.133-1.386.398a2.603 2.603 0 00-.892 1.023c-.209.42-.313.871-.313 1.352v.773c0 .659.114 1.217.341 1.676.231.454.551.801.96 1.039.409.235.885.353 1.426.353.353 0 .671-.05.955-.148.288-.102.536-.254.744-.455.209-.204.37-.458.483-.761l1.296.364a2.887 2.887 0 01-.688 1.159c-.322.329-.72.587-1.193.773a4.447 4.447 0 01-1.597.272zm11.676-6.954l-1.205.341a2.245 2.245 0 00-.335-.586 1.63 1.63 0 00-.591-.477c-.25-.125-.57-.187-.96-.187-.534 0-.98.123-1.336.369-.352.242-.528.551-.528.926 0 .333.121.597.364.79.242.193.621.354 1.136.483l1.295.318c.781.189 1.362.479 1.745.869.382.387.574.885.574 1.495 0 .5-.144.947-.432 1.341-.284.393-.682.704-1.193.931-.512.228-1.106.341-1.784.341-.891 0-1.627-.193-2.211-.579-.583-.387-.952-.951-1.108-1.693l1.273-.319c.121.47.35.822.688 1.057.341.235.786.352 1.335.352.625 0 1.121-.132 1.488-.397.372-.269.557-.591.557-.966 0-.303-.106-.557-.318-.762-.212-.208-.538-.363-.977-.465l-1.455-.341c-.799-.19-1.386-.483-1.761-.881-.371-.402-.557-.903-.557-1.506 0-.492.138-.928.415-1.307.28-.378.661-.676 1.142-.892.485-.215 1.034-.323 1.648-.323.863 0 1.541.189 2.034.568a3.07 3.07 0 011.057 1.5z" fill="#2C2C2C"/><defs><linearGradient id="paint0_linear_166_675" x1="38.039" y1="21.075" x2="38.039" y2="437.357" gradientUnits="userSpaceOnUse"><stop stop-color="#6441A5"/><stop offset="1" stop-color="#fff" stop-opacity=".01"/></linearGradient><linearGradient id="paint1_linear_166_675" x1="38.054" y1="137.38" x2="38.054" y2="362.981" gradientUnits="userSpaceOnUse"><stop stop-color="#FA0060"/><stop offset="1" stop-color="#fff" stop-opacity=".01"/></linearGradient></defs></svg>