<svg width="26" height="23" viewBox="0 0 26 23" fill="none" xmlns="http://www.w3.org/2000/svg"><mask id="a" style="mask-type:alpha" maskUnits="userSpaceOnUse" x="2" y="7" width="13" height="15"><path fill-rule="evenodd" clip-rule="evenodd" d="M3.036 16.63a3.4 3.4 0 012.404-.995h5.44a3.4 3.4 0 013.4 3.4v1.36a.68.68 0 01-1.36 0v-1.36a2.04 2.04 0 00-2.04-2.04H5.44a2.04 2.04 0 00-2.04 2.04v1.36a.68.68 0 01-1.36 0v-1.36a3.4 3.4 0 01.996-2.404zM8.16 8.836a2.04 2.04 0 100 4.08 2.04 2.04 0 000-4.08zm-3.4 2.04a3.4 3.4 0 116.8 0 3.4 3.4 0 01-6.8 0z" fill="#061938"/></mask><g mask="url(#a)"><path fill="#fff" d="M0 6.115h16.319v16.319H0z"/></g><mask id="b" style="mask-type:alpha" maskUnits="userSpaceOnUse" x="13" y="4" width="9" height="10"><path fill-rule="evenodd" clip-rule="evenodd" d="M20.887 13.298a.68.68 0 00.04-1.36l-5.107-.148 5.75-5.474a.68.68 0 00-.933-.99l-5.802 5.523.151-5.205a.68.68 0 10-1.359-.04l-.197 6.797a.68.68 0 00.66.7l6.797.197z" fill="#061938"/></mask><g mask="url(#b)"><path fill="#fff" d="M25.527 17.513l-23.99-.696.696-23.99 23.99.697z"/></g></svg>