<svg width="441" height="297" viewBox="0 0 441 297" fill="none" xmlns="http://www.w3.org/2000/svg"><circle cx="141" cy="287.5" fill="#FA0060" r="6"/><path d="M160.409 293v-11.636h3.932c.909 0 1.655.155 2.239.466.583.306 1.015.729 1.295 1.267.28.537.42 1.149.42 1.835 0 .685-.14 1.293-.42 1.824-.28.53-.71.947-1.29 1.25-.579.299-1.32.449-2.221.449h-3.182v-1.273h3.136c.621 0 1.121-.091 1.5-.273.383-.182.659-.439.83-.773.174-.337.261-.738.261-1.204 0-.466-.087-.873-.261-1.222a1.79 1.79 0 00-.836-.807c-.382-.193-.888-.289-1.517-.289h-2.477V293h-1.409zm5.477-5.227L168.75 293h-1.636l-2.819-5.227h1.591zm7.981 5.409c-.841 0-1.566-.186-2.176-.557a3.744 3.744 0 01-1.404-1.568c-.325-.674-.488-1.459-.488-2.352 0-.894.163-1.682.488-2.364.33-.686.788-1.22 1.375-1.602.591-.387 1.281-.58 2.069-.58.454 0 .903.076 1.346.227.443.152.847.398 1.21.739.364.337.654.784.87 1.341.216.557.324 1.242.324 2.057v.568h-6.728v-1.159h5.364c0-.493-.098-.932-.295-1.318a2.226 2.226 0 00-.83-.915c-.356-.224-.777-.335-1.261-.335-.534 0-.997.132-1.387.397a2.633 2.633 0 00-.892 1.023 3.01 3.01 0 00-.312 1.352v.773c0 .659.113 1.218.341 1.676.231.455.551.801.96 1.04.409.235.884.352 1.426.352.352 0 .67-.049.955-.147.287-.103.536-.254.744-.455.208-.205.369-.458.483-.761l1.295.363a2.86 2.86 0 01-.687 1.159c-.322.33-.72.587-1.193.773a4.425 4.425 0 01-1.597.273zm8.062.023a3.554 3.554 0 01-1.506-.313 2.58 2.58 0 01-1.074-.915c-.265-.401-.398-.886-.398-1.454 0-.5.099-.906.296-1.216.197-.315.46-.561.79-.739a4.18 4.18 0 011.09-.398c.402-.09.805-.162 1.211-.215.53-.069.96-.12 1.289-.154.334-.038.576-.1.728-.187.155-.087.233-.239.233-.455v-.045c0-.561-.154-.997-.461-1.307-.303-.311-.763-.466-1.38-.466-.64 0-1.142.14-1.506.42-.364.281-.619.58-.767.898l-1.273-.454c.228-.531.531-.944.909-1.239.383-.299.8-.508 1.25-.625a5.205 5.205 0 011.341-.182c.281 0 .603.034.966.102.368.065.722.199 1.063.404.344.204.63.513.858.926.227.413.341.966.341 1.659V293h-1.341v-1.182h-.069a2.33 2.33 0 01-.454.608c-.212.216-.494.4-.847.551-.352.152-.782.228-1.289.228zm.204-1.205c.53 0 .977-.104 1.341-.312.367-.209.644-.478.83-.807.189-.33.284-.676.284-1.04v-1.227c-.057.068-.182.13-.375.187-.19.053-.409.101-.659.142-.247.038-.487.072-.722.102-.231.027-.419.05-.563.069a5.114 5.114 0 00-.977.221 1.69 1.69 0 00-.727.449c-.182.197-.273.466-.273.807 0 .466.173.818.517 1.057.349.235.79.352 1.324.352zm9.628 1.182c-.818 0-1.522-.193-2.113-.58a3.772 3.772 0 01-1.364-1.596c-.318-.678-.477-1.453-.477-2.324 0-.887.163-1.669.489-2.347.329-.682.787-1.214 1.375-1.596.59-.387 1.28-.58 2.068-.58.613 0 1.166.114 1.659.341.492.227.896.545 1.21.955.314.409.51.886.585 1.431h-1.341c-.102-.397-.329-.75-.681-1.056-.349-.311-.819-.466-1.41-.466-.522 0-.981.136-1.375.409-.39.269-.695.649-.914 1.142-.216.488-.324 1.062-.324 1.721 0 .675.106 1.262.318 1.762.216.5.519.888.909 1.164.394.277.856.415 1.386.415.349 0 .665-.06.949-.182.284-.121.525-.295.722-.522.197-.228.337-.5.42-.818h1.341a3.1 3.1 0 01-.562 1.392 3.158 3.158 0 01-1.176.977c-.485.238-1.05.358-1.694.358zm6.573-5.432V293h-1.34v-11.636h1.34v4.272h.114c.205-.45.511-.808.921-1.074.412-.268.962-.403 1.647-.403.595 0 1.116.119 1.563.358.447.235.793.597 1.04 1.085.25.485.375 1.103.375 1.853V293h-1.341v-5.455c0-.693-.18-1.229-.54-1.607-.356-.383-.851-.574-1.483-.574-.44 0-.833.092-1.182.278a2.032 2.032 0 00-.818.813c-.197.356-.296.787-.296 1.295zm12.77-.568c0-1.432.186-2.748.557-3.949a12.312 12.312 0 011.602-3.324h1.182a7.273 7.273 0 00-.767 1.386 13.499 13.499 0 00-.62 1.802 16.985 16.985 0 00-.42 2.022 14.81 14.81 0 00-.148 2.063c0 .901.087 1.816.262 2.744.174.928.409 1.79.704 2.585.296.796.625 1.444.989 1.944h-1.182a12.353 12.353 0 01-1.602-3.319c-.371-1.204-.557-2.522-.557-3.954zm12.978-5.818h1.409v7.704c0 .796-.188 1.506-.563 2.131a3.932 3.932 0 01-1.574 1.471c-.678.357-1.473.535-2.386.535s-1.708-.178-2.386-.535a3.975 3.975 0 01-1.58-1.471c-.371-.625-.557-1.335-.557-2.131v-7.704h1.409v7.591c0 .568.125 1.073.375 1.517.25.439.606.786 1.069 1.039.466.25 1.022.375 1.67.375.648 0 1.205-.125 1.671-.375.465-.253.821-.6 1.068-1.039.25-.444.375-.949.375-1.517v-7.591zm5.222 6.386V293h-1.341v-8.727h1.295v1.363h.114c.205-.443.515-.799.932-1.068.416-.273.954-.409 1.613-.409.591 0 1.108.121 1.552.364.443.238.787.602 1.034 1.091.246.484.369 1.098.369 1.841V293h-1.341v-5.455c0-.685-.178-1.219-.534-1.602-.356-.386-.845-.579-1.466-.579-.428 0-.811.092-1.148.278a1.99 1.99 0 00-.789.813c-.194.356-.29.787-.29 1.295zm7.858 5.25v-8.727h1.341V293h-1.341zm.682-10.182a.953.953 0 01-.676-.267.856.856 0 01-.278-.642c0-.25.092-.464.278-.642a.953.953 0 01.676-.267c.261 0 .485.089.671.267a.851.851 0 01.284.642c0 .25-.095.464-.284.642a.936.936 0 01-.671.267zm8.91 13.455v-4.614h-.114a8.61 8.61 0 01-.42.602c-.182.239-.442.453-.779.642-.337.186-.786.279-1.346.279-.728 0-1.37-.184-1.927-.551-.556-.372-.992-.894-1.306-1.569-.315-.678-.472-1.479-.472-2.403 0-.917.157-1.712.472-2.386.314-.675.752-1.195 1.312-1.563.561-.367 1.208-.551 1.943-.551.569 0 1.017.095 1.347.284.333.186.587.398.761.637.178.234.317.428.415.579h.159v-1.386h1.296v12h-1.341zm-2.478-4.296c.538 0 .993-.14 1.364-.42.371-.284.653-.676.847-1.176.193-.504.289-1.086.289-1.745 0-.651-.094-1.221-.284-1.71-.189-.492-.469-.875-.841-1.148-.371-.276-.829-.414-1.375-.414-.568 0-1.041.145-1.42.437-.375.288-.657.68-.847 1.176a4.694 4.694 0 00-.278 1.659c0 .622.095 1.186.284 1.694.193.503.477.905.852 1.204.379.296.849.443 1.409.443zm11.613-2.545v-5.159h1.341V293h-1.341v-1.477h-.091c-.204.443-.522.82-.954 1.13-.432.307-.978.461-1.637.461a2.92 2.92 0 01-1.454-.358c-.424-.243-.758-.606-1-1.091-.243-.489-.364-1.104-.364-1.847v-5.545h1.341v5.454c0 .637.178 1.144.534 1.523.36.379.818.568 1.375.568.333 0 .672-.085 1.017-.256.349-.17.64-.431.875-.784.239-.352.358-.801.358-1.346zm7.296 3.75c-.841 0-1.566-.186-2.176-.557a3.736 3.736 0 01-1.403-1.568c-.326-.674-.489-1.459-.489-2.352 0-.894.163-1.682.489-2.364.329-.686.787-1.22 1.375-1.602.59-.387 1.28-.58 2.068-.58.454 0 .903.076 1.346.227.444.152.847.398 1.211.739.363.337.653.784.869 1.341.216.557.324 1.242.324 2.057v.568h-6.728v-1.159h5.364c0-.493-.098-.932-.295-1.318a2.226 2.226 0 00-.83-.915c-.356-.224-.776-.335-1.261-.335-.534 0-.996.132-1.387.397a2.633 2.633 0 00-.892 1.023 3.01 3.01 0 00-.312 1.352v.773c0 .659.113 1.218.341 1.676.231.455.551.801.96 1.04.409.235.884.352 1.426.352.352 0 .671-.049.955-.147.288-.103.536-.254.744-.455.208-.205.369-.458.483-.761l1.295.363a2.86 2.86 0 01-.687 1.159c-.322.33-.72.587-1.193.773a4.425 4.425 0 01-1.597.273zm11.424-11.818V293H273.2v-11.636h1.409zM277.093 293v-8.727h1.295v1.363h.114c.182-.466.475-.827.881-1.085.405-.261.892-.392 1.46-.392.576 0 1.055.131 1.437.392.387.258.688.619.904 1.085h.091c.223-.45.558-.808 1.005-1.074.447-.268.983-.403 1.608-.403.781 0 1.419.244 1.915.733.496.485.744 1.241.744 2.267V293h-1.34v-5.841c0-.644-.177-1.104-.529-1.381a1.957 1.957 0 00-1.244-.414c-.614 0-1.089.185-1.426.556-.337.368-.506.834-.506 1.398V293h-1.364v-5.977c0-.496-.161-.896-.483-1.199-.322-.307-.736-.46-1.244-.46-.348 0-.674.092-.977.278a2.1 2.1 0 00-.727.773 2.277 2.277 0 00-.273 1.13V293h-1.341zm13.746 3.273v-12h1.296v1.386h.159c.098-.151.235-.345.409-.579.178-.239.432-.451.761-.637.333-.189.784-.284 1.352-.284.735 0 1.383.184 1.944.551.56.368.998.888 1.312 1.563.314.674.472 1.469.472 2.386 0 .924-.158 1.725-.472 2.403-.314.675-.75 1.197-1.307 1.569-.557.367-1.199.551-1.926.551-.56 0-1.009-.093-1.346-.279-.338-.189-.597-.403-.779-.642a8.279 8.279 0 01-.42-.602h-.114v4.614h-1.341zm1.318-7.637c0 .659.097 1.241.29 1.745.193.5.475.892.847 1.176.371.28.825.42 1.363.42.561 0 1.029-.147 1.404-.443.379-.299.663-.701.852-1.204.193-.508.29-1.072.29-1.694 0-.613-.095-1.166-.284-1.659-.186-.496-.468-.888-.847-1.176-.375-.292-.846-.437-1.415-.437-.545 0-1.003.138-1.375.414-.371.273-.651.656-.841 1.148-.189.489-.284 1.059-.284 1.71zm8.272 4.364v-8.727h1.296v1.318h.091c.159-.432.446-.782.863-1.051a2.544 2.544 0 011.409-.404c.099 0 .222.002.37.006.147.004.259.01.335.017v1.364a3.462 3.462 0 00-.313-.051 3.014 3.014 0 00-.505-.04c-.425 0-.803.089-1.137.267a2.019 2.019 0 00-.784.727 1.963 1.963 0 00-.284 1.051V293h-1.341zm9.187.182c-.841 0-1.567-.186-2.176-.557a3.744 3.744 0 01-1.404-1.568c-.326-.674-.488-1.459-.488-2.352 0-.894.162-1.682.488-2.364.33-.686.788-1.22 1.375-1.602.591-.387 1.28-.58 2.068-.58.455 0 .904.076 1.347.227.443.152.847.398 1.21.739.364.337.654.784.87 1.341.215.557.323 1.242.323 2.057v.568h-6.727v-1.159h5.364c0-.493-.099-.932-.296-1.318a2.217 2.217 0 00-.829-.915c-.356-.224-.777-.335-1.262-.335-.534 0-.996.132-1.386.397a2.625 2.625 0 00-.892 1.023 3.01 3.01 0 00-.313 1.352v.773c0 .659.114 1.218.341 1.676.231.455.552.801.961 1.04.409.235.884.352 1.426.352.352 0 .67-.049.954-.147.288-.103.536-.254.745-.455.208-.205.369-.458.483-.761l1.295.363c-.136.44-.366.826-.687 1.159a3.35 3.35 0 01-1.194.773 4.416 4.416 0 01-1.596.273zm11.675-6.955l-1.205.341a2.197 2.197 0 00-.335-.585 1.63 1.63 0 00-.591-.477c-.25-.125-.57-.188-.96-.188-.534 0-.979.123-1.335.37-.352.242-.529.551-.529.926 0 .333.122.596.364.789.242.194.621.355 1.136.483l1.296.319c.78.189 1.362.479 1.744.869.383.386.574.884.574 1.494 0 .5-.144.947-.432 1.341-.284.394-.682.705-1.193.932-.511.227-1.106.341-1.784.341-.89 0-1.627-.193-2.21-.58-.584-.386-.953-.95-1.108-1.693l1.273-.318c.121.47.35.822.687 1.057.341.235.786.352 1.335.352.625 0 1.121-.133 1.489-.398.371-.269.557-.591.557-.966 0-.303-.106-.556-.318-.761-.213-.208-.538-.364-.978-.466l-1.454-.341c-.8-.189-1.387-.483-1.762-.88-.371-.402-.556-.904-.556-1.506 0-.493.138-.928.414-1.307a2.827 2.827 0 011.142-.892c.485-.216 1.034-.324 1.648-.324.864 0 1.542.189 2.034.568.496.379.849.879 1.057 1.5zm8.199 0l-1.204.341a2.253 2.253 0 00-.335-.585 1.63 1.63 0 00-.591-.477c-.25-.125-.57-.188-.961-.188-.534 0-.979.123-1.335.37-.352.242-.528.551-.528.926 0 .333.121.596.363.789.243.194.622.355 1.137.483l1.295.319c.781.189 1.362.479 1.745.869.382.386.573.884.573 1.494 0 .5-.144.947-.431 1.341-.284.394-.682.705-1.194.932-.511.227-1.106.341-1.784.341-.89 0-1.627-.193-2.21-.58-.583-.386-.953-.95-1.108-1.693l1.273-.318c.121.47.35.822.687 1.057.341.235.786.352 1.336.352.625 0 1.121-.133 1.488-.398.371-.269.557-.591.557-.966 0-.303-.106-.556-.318-.761-.212-.208-.538-.364-.977-.466l-1.455-.341c-.799-.189-1.386-.483-1.761-.88-.372-.402-.557-.904-.557-1.506 0-.493.138-.928.415-1.307a2.82 2.82 0 011.142-.892c.485-.216 1.034-.324 1.647-.324.864 0 1.542.189 2.035.568.496.379.848.879 1.056 1.5zm2.018 6.773v-8.727h1.341V293h-1.341zm.682-10.182a.951.951 0 01-.676-.267.857.857 0 01-.279-.642c0-.25.093-.464.279-.642a.951.951 0 01.676-.267c.261 0 .485.089.67.267.19.178.284.392.284.642s-.094.464-.284.642a.932.932 0 01-.67.267zm6.5 10.364c-.788 0-1.479-.188-2.074-.563-.591-.375-1.053-.899-1.386-1.574-.33-.674-.494-1.462-.494-2.363 0-.909.164-1.703.494-2.381.333-.678.795-1.204 1.386-1.579.595-.375 1.286-.563 2.074-.563.788 0 1.477.188 2.068.563.595.375 1.057.901 1.387 1.579.333.678.5 1.472.5 2.381 0 .901-.167 1.689-.5 2.363-.33.675-.792 1.199-1.387 1.574-.591.375-1.28.563-2.068.563zm0-1.205c.599 0 1.091-.153 1.477-.46.387-.307.673-.71.858-1.21.186-.5.279-1.042.279-1.625 0-.584-.093-1.127-.279-1.631a2.732 2.732 0 00-.858-1.221c-.386-.311-.878-.466-1.477-.466-.598 0-1.091.155-1.477.466-.386.31-.672.717-.858 1.221a4.671 4.671 0 00-.278 1.631c0 .583.092 1.125.278 1.625.186.5.472.903.858 1.21.386.307.879.46 1.477.46zm7.183-4.227V293h-1.341v-8.727h1.295v1.363h.114c.204-.443.515-.799.932-1.068.416-.273.954-.409 1.613-.409.591 0 1.108.121 1.551.364.444.238.788.602 1.034 1.091.247.484.37 1.098.37 1.841V293H350.1v-5.455c0-.685-.178-1.219-.534-1.602-.356-.386-.845-.579-1.466-.579-.428 0-.811.092-1.148.278a1.998 1.998 0 00-.79.813c-.193.356-.289.787-.289 1.295zm14.04-1.523l-1.205.341a2.197 2.197 0 00-.335-.585 1.63 1.63 0 00-.591-.477c-.25-.125-.57-.188-.96-.188-.534 0-.979.123-1.335.37-.353.242-.529.551-.529.926 0 .333.122.596.364.789.242.194.621.355 1.136.483l1.296.319c.78.189 1.361.479 1.744.869.383.386.574.884.574 1.494 0 .5-.144.947-.432 1.341-.284.394-.682.705-1.193.932-.511.227-1.106.341-1.784.341-.89 0-1.627-.193-2.21-.58-.584-.386-.953-.95-1.108-1.693l1.272-.318c.122.47.351.822.688 1.057.341.235.786.352 1.335.352.625 0 1.121-.133 1.489-.398.371-.269.557-.591.557-.966 0-.303-.106-.556-.319-.761-.212-.208-.537-.364-.977-.466l-1.454-.341c-.8-.189-1.387-.483-1.762-.88-.371-.402-.557-.904-.557-1.506 0-.493.139-.928.415-1.307a2.82 2.82 0 011.142-.892c.485-.216 1.034-.324 1.648-.324.864 0 1.542.189 2.034.568.496.379.849.879 1.057 1.5zm4.881 1.864c0 1.432-.187 2.75-.562 3.954a12.251 12.251 0 01-1.597 3.319h-1.182c.273-.375.527-.837.761-1.387.239-.545.447-1.144.625-1.795.179-.655.317-1.332.415-2.029a14.159 14.159 0 00-.108-4.806 15.83 15.83 0 00-.704-2.586c-.296-.795-.625-1.443-.989-1.943h1.182a12.225 12.225 0 011.597 3.324c.375 1.201.562 2.517.562 3.949z" fill="#2C2C2C"/><path d="M77.976 231.829l7.2 7.2-.872.872-6.286-6.286-.042.042-.59 2.925-.886-.886.604-2.995.872-.872zm9.27 5.129l-.632-.633-.225-4.978a23.38 23.38 0 00-.106-1.483 4.163 4.163 0 00-.239-1.041 2.192 2.192 0 00-.499-.766 1.66 1.66 0 00-.84-.475 1.681 1.681 0 00-.921.064 2.24 2.24 0 00-.855.552c-.276.276-.46.575-.551.896a1.677 1.677 0 000 .949c.093.314.277.608.552.883l-.83.829c-.422-.422-.695-.889-.82-1.402a2.868 2.868 0 01.05-1.54 3.4 3.4 0 01.868-1.403c.422-.422.885-.706 1.389-.854a2.84 2.84 0 011.487-.046c.487.117.916.361 1.287.731.264.265.475.572.632.921.157.345.273.789.348 1.333.075.539.128 1.236.159 2.091l.112 3.347.056.056 3.347-3.346.773.773-4.541 4.542zm4.462-18.86l.871-.872 5.147 5.146c.46.46.765.934.918 1.424.152.49.158.972.017 1.445-.14.474-.42.919-.837 1.336-.393.394-.815.673-1.265.837-.452.161-.9.197-1.343.105-.443-.091-.848-.321-1.216-.689l.857-.858c.204.204.433.332.686.383.253.047.51.024.773-.07s.508-.254.735-.481c.25-.251.411-.517.482-.798.07-.282.049-.57-.064-.865-.112-.3-.317-.599-.615-.897l-5.146-5.146zm10.901-.918l-3.192-3.192.83-.829 5.399 5.399-.829.83-.914-.914-.057.056c.148.401.184.831.109 1.29-.077.457-.32.89-.727 1.297a2.554 2.554 0 01-1.122.679 2.194 2.194 0 01-1.293-.056c-.453-.153-.909-.458-1.368-.918l-3.431-3.431.83-.83 3.374 3.375c.394.394.818.598 1.273.612.457.012.858-.155 1.202-.499.207-.206.364-.469.471-.788.111-.321.129-.663.057-1.026-.071-.366-.275-.717-.612-1.055zm2.138-4.219l3.249 3.248-.83.83-5.4-5.4.802-.802.843.844.071-.07a2.183 2.183 0 01-.085-1.238c.089-.426.338-.843.746-1.251.365-.366.76-.611 1.184-.735.422-.126.86-.115 1.315.035.452.148.908.451 1.368.911l3.431 3.431-.83.83-3.375-3.375c-.424-.424-.865-.645-1.322-.661-.459-.019-.881.164-1.265.548a2.048 2.048 0 00-.538.883c-.091.321-.087.651.014.991.101.34.308.667.622.981zm29.656 19.575l7.2 7.2-.872.872-6.286-6.286-.042.042-.591 2.925-.885-.886.604-2.995.872-.872zm4.264-4.461a3.642 3.642 0 011.055-.717 3.05 3.05 0 011.357-.26c.497.009 1.038.159 1.624.45.586.29 1.209.766 1.87 1.427.64.64 1.147 1.269 1.522 1.888.375.614.619 1.204.732 1.772a3.268 3.268 0 01-.05 1.596c-.145.496-.42.948-.826 1.353-.403.403-.842.683-1.318.84a2.98 2.98 0 01-1.445.102 3.302 3.302 0 01-1.385-.619l.858-.857a2.25 2.25 0 001.279.358c.446-.018.858-.218 1.238-.597.555-.556.751-1.237.587-2.043-.162-.808-.686-1.656-1.571-2.542l-.057.057c.066.328.08.654.042.977a2.906 2.906 0 01-.857 1.751 3.094 3.094 0 01-1.442.829 3.281 3.281 0 01-1.669-.024c-.565-.157-1.08-.468-1.544-.932a3.555 3.555 0 01-.914-1.504 3.225 3.225 0 01-.042-1.716c.143-.579.462-1.109.956-1.589zm.774.773a2.09 2.09 0 00-.577 1.02c-.089.38-.078.763.032 1.149.11.382.315.723.615 1.023.3.3.639.508 1.016.623.377.11.753.123 1.128.038.375-.089.71-.281 1.006-.576a2.14 2.14 0 00.492-.752c.103-.282.15-.57.141-.865-.01-.3-.071-.589-.183-.865a2.242 2.242 0 00-.492-.738 2.273 2.273 0 00-.995-.587 2.287 2.287 0 00-1.153-.043c-.387.082-.73.273-1.03.573zm8.877-10.227l.872-.872 5.146 5.147c.46.459.766.934.918 1.424.152.489.158.971.018 1.445-.141.473-.42.918-.837 1.335-.394.394-.816.673-1.266.837-.452.162-.9.197-1.343.106-.443-.092-.848-.322-1.216-.69l.858-.857c.204.204.432.331.685.383.253.047.511.023.774-.07.262-.094.507-.255.735-.482.25-.251.411-.517.481-.798s.049-.57-.063-.865c-.113-.3-.318-.599-.615-.896l-5.147-5.147zm10.901-.917l-3.192-3.192.83-.83 5.4 5.4-.83.829-.914-.914-.056.057c.148.4.184.83.109 1.29-.077.457-.32.889-.728 1.297a2.543 2.543 0 01-1.121.678 2.189 2.189 0 01-1.294-.056c-.452-.152-.908-.458-1.367-.917l-3.432-3.431.83-.83 3.375 3.375c.394.393.818.597 1.273.611.457.012.857-.154 1.202-.499.206-.206.363-.469.471-.787a1.94 1.94 0 00.056-1.027c-.07-.365-.274-.717-.612-1.054zm2.139-4.22l3.248 3.248-.83.83-5.399-5.4.801-.801.844.844.07-.071a2.171 2.171 0 01-.084-1.237c.089-.427.337-.844.745-1.252.366-.365.761-.61 1.185-.734a2.14 2.14 0 011.315.035c.452.147.908.451 1.367.91l3.431 3.431-.83.83-3.374-3.375c-.425-.424-.865-.644-1.322-.661-.46-.019-.881.164-1.266.549a2.045 2.045 0 00-.538.882c-.091.321-.086.652.014.991.101.34.309.667.623.981zm34.846 30.197l-.632-.633-.225-4.978a23.109 23.109 0 00-.106-1.483 4.145 4.145 0 00-.239-1.041 2.189 2.189 0 00-.499-.766 1.658 1.658 0 00-.84-.475 1.68 1.68 0 00-.921.064c-.31.108-.594.292-.855.552-.276.276-.46.575-.552.896a1.684 1.684 0 000 .949c.094.314.278.608.552.883l-.829.829c-.422-.422-.695-.889-.819-1.402a2.86 2.86 0 01.049-1.54 3.39 3.39 0 01.868-1.403c.422-.422.885-.706 1.389-.854a2.84 2.84 0 011.487-.046c.487.117.916.361 1.286.731.265.265.476.572.633.921.157.345.273.789.348 1.333.075.539.128 1.236.158 2.092l.113 3.346.056.056 3.347-3.346.773.773-4.542 4.542zm8.483-8.286c-.3.291-.651.53-1.055.717a2.988 2.988 0 01-1.353.264c-.502-.014-1.045-.166-1.631-.457-.588-.293-1.215-.772-1.881-1.438-.637-.637-1.142-1.262-1.515-1.874-.375-.614-.618-1.203-.728-1.768a3.327 3.327 0 01.049-1.596c.148-.499.425-.951.83-1.357.403-.403.843-.681 1.318-.833a2.901 2.901 0 011.442-.105c.485.086.943.287 1.374.601l-.857.858a2.247 2.247 0 00-1.27-.341c-.443.016-.854.214-1.233.594-.558.557-.755 1.239-.591 2.046.166.803.687 1.645 1.561 2.524l.056-.057a2.985 2.985 0 01.816-2.728 3.044 3.044 0 011.441-.822 3.242 3.242 0 011.67.024c.565.153 1.079.461 1.543.925.445.445.754.953.925 1.522.168.567.181 1.14.038 1.719-.143.574-.459 1.102-.949 1.582zm-.773-.773c.295-.295.486-.634.573-1.016a2.245 2.245 0 00-.035-1.153 2.372 2.372 0 00-.623-1.037 2.342 2.342 0 00-1.012-.612 2.157 2.157 0 00-1.132-.042c-.375.084-.71.274-1.005.569a2.068 2.068 0 00-.489.756 2.262 2.262 0 00-.148.865c.01.295.072.582.187.861.112.277.276.523.492.739a2.336 2.336 0 002.158.646 2.056 2.056 0 001.034-.576zm2.929-15.979l.872-.872 5.146 5.147c.46.459.766.934.918 1.424.152.49.158.971.018 1.445-.141.473-.42.918-.837 1.336-.394.393-.816.672-1.266.836-.452.162-.9.197-1.343.106-.443-.092-.848-.321-1.216-.689l.858-.858c.204.204.432.331.685.383.253.047.511.023.774-.07.262-.094.507-.255.734-.482.251-.251.412-.517.482-.798s.049-.569-.063-.865c-.113-.3-.318-.598-.615-.896l-5.147-5.147zm10.901-.917l-3.192-3.192.83-.83 5.4 5.4-.83.829-.914-.914-.056.057c.147.4.184.83.109 1.29-.078.457-.32.889-.728 1.297a2.546 2.546 0 01-1.121.679 2.197 2.197 0 01-1.294-.057c-.452-.152-.908-.458-1.368-.917l-3.431-3.431.83-.83 3.375 3.375c.394.394.818.597 1.272.612.457.011.858-.155 1.203-.5.206-.206.363-.468.471-.787.11-.321.129-.663.056-1.027-.07-.365-.274-.717-.612-1.054zm2.139-4.22l3.248 3.249-.83.829-5.399-5.399.801-.802.844.844.07-.071a2.17 2.17 0 01-.084-1.237c.089-.427.337-.844.745-1.252.366-.365.76-.61 1.185-.734.422-.127.86-.115 1.314.035.453.148.909.451 1.368.91l3.431 3.431-.83.83-3.374-3.375c-.425-.424-.865-.644-1.322-.661-.46-.018-.881.164-1.266.549a2.05 2.05 0 00-.538.882c-.091.321-.086.652.014.991.101.34.309.667.623.981zm37.4 17.941c-.464.464-.957.798-1.48 1.002a3.003 3.003 0 01-1.525.197 2.53 2.53 0 01-1.34-.65l.886-.886c.251.213.531.334.84.362.307.026.62-.029.939-.165.319-.136.616-.342.893-.619a2.8 2.8 0 00.661-.984c.131-.347.168-.685.112-1.013a1.597 1.597 0 00-.464-.872 1.773 1.773 0 00-.896-.502 1.844 1.844 0 00-1.055.098c-.368.138-.735.39-1.1.756l-.577.577-.773-.774.576-.576a2.44 2.44 0 00.598-.907c.115-.321.139-.637.074-.946a1.65 1.65 0 00-.475-.847 1.716 1.716 0 00-.798-.475 1.571 1.571 0 00-.879.035 2.096 2.096 0 00-.84.538 2.59 2.59 0 00-.566.84 1.85 1.85 0 00-.144.925c.031.307.159.586.387.837l-.844.843a2.421 2.421 0 01-.65-1.332 3.035 3.035 0 01.168-1.505 3.83 3.83 0 01.904-1.381c.445-.446.917-.737 1.417-.876.497-.14.977-.15 1.441-.028.464.122.866.353 1.206.693.405.405.644.858.717 1.357.075.497-.014.982-.267 1.455l.056.056c.53-.379 1.078-.541 1.645-.485.565.054 1.076.31 1.533.767.391.391.636.849.735 1.374a3.071 3.071 0 01-.134 1.596c-.187.544-.514 1.049-.981 1.515zm2.24-16.835l.871-.872 5.147 5.147c.459.459.765.934.918 1.423.152.49.158.972.017 1.445-.14.474-.419.919-.836 1.336-.394.394-.816.673-1.266.837-.452.162-.9.197-1.343.105-.443-.091-.848-.321-1.216-.689l.857-.857c.204.203.433.331.686.383.253.047.511.023.773-.071.263-.093.508-.254.735-.481.251-.251.411-.517.482-.798.07-.281.049-.57-.064-.865-.112-.3-.317-.599-.615-.896l-5.146-5.147zm10.901-.918l-3.192-3.192.83-.829 5.399 5.399-.829.83-.914-.914-.057.056c.148.401.184.831.109 1.291-.077.457-.319.889-.727 1.297a2.561 2.561 0 01-1.122.678c-.412.113-.843.094-1.293-.056-.453-.152-.909-.458-1.368-.918l-3.431-3.431.83-.829 3.375 3.375c.393.393.817.597 1.272.611.457.012.858-.154 1.202-.499a1.98 1.98 0 00.471-.787 1.94 1.94 0 00.057-1.027c-.071-.366-.274-.717-.612-1.055zm-1.813-8.17l7.2 7.199-.83.83-7.2-7.2.83-.829zm30.121 23.477l7.2 7.199-.872.872-6.286-6.286-.042.043-.59 2.924-.886-.885.604-2.996.872-.871zm11.717 2.879c-.53.529-1.125.836-1.786.921-.663.082-1.368-.054-2.116-.408-.75-.356-1.516-.926-2.299-1.708-.778-.779-1.344-1.541-1.698-2.289-.354-.752-.49-1.46-.408-2.123.082-.668.386-1.265.911-1.79.525-.525 1.12-.827 1.785-.907.666-.084 1.374.052 2.124.408.75.352 1.514.916 2.292 1.695.783.782 1.352 1.549 1.708 2.299.354.747.49 1.453.408 2.116-.084.661-.391 1.256-.921 1.786zm-.773-.774c.525-.525.679-1.186.464-1.982-.216-.797-.792-1.664-1.73-2.602-.623-.623-1.221-1.087-1.793-1.392-.569-.307-1.093-.451-1.571-.432a1.776 1.776 0 00-1.234.545c-.52.52-.67 1.183-.45 1.989.218.804.794 1.674 1.73 2.609.623.623 1.218 1.087 1.785 1.392.568.305 1.088.448 1.561.429a1.811 1.811 0 001.238-.556zm2.981-16.03l.872-.872 5.146 5.147c.46.459.765.934.918 1.423.152.49.158.972.017 1.445-.14.474-.419.919-.836 1.336-.394.394-.816.673-1.266.837-.452.162-.9.197-1.343.105-.443-.091-.848-.321-1.216-.689l.858-.857c.204.203.432.331.685.383.253.047.511.023.774-.071.262-.093.507-.254.734-.481.251-.251.412-.517.482-.798s.049-.57-.063-.865c-.113-.3-.318-.599-.616-.896l-5.146-5.147zm10.901-.918l-3.192-3.192.83-.829 5.4 5.399-.83.83-.914-.914-.056.056c.147.401.184.831.109 1.291-.078.457-.32.889-.728 1.297a2.556 2.556 0 01-1.122.678c-.412.113-.843.094-1.293-.056-.453-.152-.908-.458-1.368-.918l-3.431-3.431.83-.829 3.375 3.375c.393.393.818.597 1.272.611.457.012.858-.154 1.203-.499.206-.206.363-.469.471-.787a1.94 1.94 0 00.056-1.027c-.07-.366-.274-.717-.612-1.055zm-1.813-8.17l7.2 7.199-.83.83-7.2-7.2.83-.829zm30.585 22.306l7.199 7.199-.871.872-6.286-6.286-.042.043-.591 2.924-.886-.885.605-2.996.872-.871zm9.495 4.904l-3.15-9.591-.056-.056-3.712 3.712-.774-.773 4.612-4.612.816.815 3.178 9.591-.914.914zm3.898-18.297l.872-.872 5.146 5.146c.46.46.765.934.918 1.424.152.49.158.972.017 1.445-.14.473-.419.919-.836 1.336-.394.394-.816.672-1.266.836-.452.162-.9.197-1.343.106-.443-.091-.848-.321-1.216-.689l.858-.858c.203.204.432.332.685.383.253.047.511.024.773-.07.263-.094.508-.254.735-.482.251-.25.412-.516.482-.798.07-.281.049-.569-.063-.864-.113-.3-.318-.599-.616-.897l-5.146-5.146zm10.901-.918l-3.192-3.192.83-.83 5.399 5.4-.829.83-.914-.914-.056.056c.147.401.184.831.109 1.29-.078.457-.32.89-.728 1.297a2.549 2.549 0 01-1.122.679 2.194 2.194 0 01-1.293-.056c-.453-.153-.908-.459-1.368-.918l-3.431-3.431.83-.83 3.375 3.375c.393.394.818.598 1.272.612.457.012.858-.155 1.203-.499.206-.207.363-.469.471-.788.11-.321.128-.663.056-1.026-.07-.366-.274-.717-.612-1.055zm-1.813-8.171l7.2 7.2-.83.83-7.2-7.2.83-.83zm35.079 34.334l-.633-.633-.225-4.978a23.99 23.99 0 00-.105-1.484 4.192 4.192 0 00-.239-1.04 2.182 2.182 0 00-.5-.766 1.644 1.644 0 00-1.761-.412 2.261 2.261 0 00-.854.552 2.062 2.062 0 00-.552.897 1.684 1.684 0 000 .949c.094.314.278.608.552.882l-.83.83c-.422-.422-.695-.89-.819-1.403a2.87 2.87 0 01.049-1.54c.16-.515.449-.983.869-1.402.422-.422.884-.707 1.388-.855a2.85 2.85 0 011.487-.045c.488.117.917.361 1.287.731.265.265.476.572.633.921.157.344.273.789.348 1.332.075.539.128 1.237.158 2.092l.112 3.347.057.056 3.346-3.347.774.774-4.542 4.542zm4.194-7.147l-.717-.717-1.842-8.17.52-.521 1.111 1.111-.352.352 1.392 6.173.057.056 4.26-4.261.774.774-5.203 5.203zm4.865-1.913l-1.694-1.694-.334-.334-5.171-5.171.829-.83 7.2 7.2-.83.829zm1.599-15.998l.872-.871 5.146 5.146c.46.46.765.934.918 1.424.152.49.158.971.017 1.445-.14.473-.419.918-.836 1.336-.394.393-.816.672-1.266.836-.452.162-.9.197-1.343.106-.443-.092-.848-.321-1.216-.689l.858-.858c.204.204.432.332.685.383.253.047.511.024.774-.07a1.98 1.98 0 00.734-.482c.251-.251.412-.517.482-.798s.049-.569-.063-.865c-.113-.3-.318-.598-.616-.896l-5.146-5.147zm10.901-.917l-3.192-3.192.83-.83 5.4 5.4-.83.83-.914-.914-.056.056c.147.401.184.831.109 1.29-.078.457-.32.889-.728 1.297a2.551 2.551 0 01-1.121.679 2.197 2.197 0 01-1.294-.057c-.452-.152-.908-.458-1.368-.917l-3.431-3.431.83-.83 3.375 3.375c.393.394.818.598 1.272.612.457.011.858-.155 1.203-.5.206-.206.363-.468.471-.787.11-.321.129-.663.056-1.027-.07-.365-.274-.717-.612-1.054zM429.636 206l7.2 7.2-.83.829-7.2-7.199.83-.83zM1.263 67.912v-1.014l4.474-7.08h.736v1.571h-.497l-3.381 5.35v.08h6.026v1.093H1.263zM6.055 70V59.818H7.23V70H6.055zm7.75.14c-.75 0-1.387-.205-1.914-.612-.527-.411-.93-1.006-1.209-1.785-.278-.782-.417-1.727-.417-2.834 0-1.1.14-2.04.417-2.819.282-.782.687-1.379 1.214-1.79.53-.414 1.166-.621 1.909-.621.742 0 1.377.207 1.904.621.53.411.934 1.008 1.213 1.79.282.78.422 1.719.422 2.82 0 1.106-.139 2.05-.417 2.833-.279.779-.681 1.374-1.208 1.785-.527.407-1.165.611-1.914.611zm0-1.094c.742 0 1.319-.359 1.73-1.074.41-.716.616-1.737.616-3.063 0-.882-.094-1.632-.283-2.252-.186-.62-.454-1.092-.806-1.417a1.778 1.778 0 00-1.257-.487c-.736 0-1.311.363-1.726 1.089-.414.722-.62 1.745-.62 3.067 0 .882.092 1.63.277 2.247.186.617.453 1.086.8 1.407.352.322.775.483 1.269.483zm8.75 1.093c-.75 0-1.387-.204-1.914-.611-.527-.411-.93-1.006-1.208-1.785-.279-.782-.418-1.727-.418-2.834 0-1.1.14-2.04.418-2.819.281-.782.686-1.379 1.213-1.79.53-.414 1.166-.621 1.909-.621.742 0 1.377.207 1.904.621.53.411.934 1.008 1.213 1.79.282.78.422 1.719.422 2.82 0 1.106-.139 2.05-.417 2.833-.279.779-.681 1.374-1.208 1.785-.527.407-1.165.611-1.914.611zm0-1.093c.742 0 1.319-.359 1.73-1.074.41-.716.616-1.737.616-3.063 0-.882-.094-1.632-.283-2.252-.186-.62-.454-1.092-.805-1.417a1.778 1.778 0 00-1.258-.487c-.736 0-1.311.363-1.726 1.089-.414.722-.62 1.745-.62 3.067 0 .882.092 1.63.277 2.247.186.617.453 1.086.8 1.407.352.322.775.483 1.269.483zM32.1 70V59.818h1.233v5.051h.12l4.573-5.05h1.611l-4.276 4.593L39.638 70h-1.491l-3.54-4.733-1.273 1.432V70H32.1zM5.118 14.14c-.683 0-1.286-.122-1.81-.364-.52-.245-.926-.581-1.218-1.009a2.535 2.535 0 01-.432-1.471 2.706 2.706 0 01.96-2.113 2.163 2.163 0 011.009-.473v-.06a1.966 1.966 0 01-1.164-.82 2.485 2.485 0 01-.427-1.446c-.004-.518.127-.98.392-1.388.266-.407.63-.729 1.094-.964.468-.235 1-.353 1.596-.353.59 0 1.117.118 1.581.353.464.235.829.557 1.094.964.268.408.404.87.407 1.388a2.521 2.521 0 01-.442 1.446 1.957 1.957 0 01-1.148.82v.06c.367.067.699.224.994.473.295.245.53.551.706.92.175.364.265.762.268 1.193a2.571 2.571 0 01-.447 1.471c-.292.428-.698.764-1.218 1.01-.517.241-1.115.362-1.795.362zm0-1.095c.46 0 .858-.074 1.193-.223.335-.15.594-.36.776-.632a1.7 1.7 0 00.278-.954 1.832 1.832 0 00-.298-1.02 2.024 2.024 0 00-.8-.695 2.513 2.513 0 00-1.149-.254c-.434 0-.822.085-1.163.254a2.024 2.024 0 00-.8.696 1.795 1.795 0 00-.284 1.019c-.003.364.084.683.263.954.183.272.443.483.781.632.338.149.74.224 1.203.224zm0-4.832c.365 0 .688-.073.97-.219.285-.146.508-.35.67-.611.163-.262.246-.569.25-.92a1.698 1.698 0 00-.244-.9 1.58 1.58 0 00-.662-.596 2.153 2.153 0 00-.984-.214c-.381 0-.714.071-1 .214a1.54 1.54 0 00-.66.596 1.661 1.661 0 00-.23.9 1.71 1.71 0 00.235.92c.162.262.386.465.67.611.286.146.614.22.985.22zm8.687 5.926c-.75 0-1.387-.204-1.914-.611-.527-.411-.93-1.006-1.209-1.785-.278-.782-.417-1.727-.417-2.834 0-1.1.14-2.04.417-2.819.282-.782.687-1.379 1.214-1.79.53-.414 1.166-.621 1.909-.621.742 0 1.377.207 1.904.621.53.411.934 1.008 1.213 1.79.282.78.422 1.719.422 2.82 0 1.106-.139 2.05-.417 2.833-.279.779-.681 1.374-1.208 1.785-.527.407-1.165.611-1.914.611zm0-1.093c.742 0 1.319-.358 1.73-1.074.41-.716.616-1.737.616-3.063 0-.882-.094-1.632-.283-2.252-.186-.62-.454-1.092-.806-1.417a1.778 1.778 0 00-1.257-.487c-.736 0-1.311.363-1.726 1.089-.414.722-.62 1.745-.62 3.067 0 .882.092 1.63.277 2.247.186.617.453 1.086.8 1.407.352.322.775.482 1.269.482zm8.75 1.093c-.75 0-1.387-.204-1.914-.611-.527-.411-.93-1.006-1.208-1.785-.279-.782-.418-1.727-.418-2.834 0-1.1.14-2.04.418-2.819.281-.782.686-1.379 1.213-1.79.53-.414 1.166-.621 1.909-.621.742 0 1.377.207 1.904.621.53.411.934 1.008 1.213 1.79.282.78.422 1.719.422 2.82 0 1.106-.139 2.05-.417 2.833-.279.779-.681 1.374-1.208 1.785-.527.407-1.165.611-1.914.611zm0-1.093c.742 0 1.319-.358 1.73-1.074.41-.716.616-1.737.616-3.063 0-.882-.094-1.632-.283-2.252-.186-.62-.454-1.092-.805-1.417a1.778 1.778 0 00-1.258-.487c-.736 0-1.311.363-1.726 1.089-.414.722-.62 1.745-.62 3.067 0 .882.092 1.63.277 2.247.186.617.453 1.086.8 1.407.352.322.775.482 1.269.482zM32.1 14V3.818h1.233V8.87h.12l4.573-5.05h1.611l-4.276 4.593L39.638 14h-1.491l-3.54-4.733-1.273 1.432V14H32.1zM7.555 115.818V126H6.322v-8.889h-.06l-2.485 1.65v-1.252l2.545-1.691h1.233zm6.25 10.321c-.75 0-1.387-.204-1.914-.611-.527-.411-.93-1.006-1.209-1.785-.278-.782-.417-1.727-.417-2.834 0-1.1.14-2.04.417-2.819.282-.782.687-1.379 1.214-1.79.53-.414 1.166-.621 1.909-.621.742 0 1.377.207 1.904.621.53.411.934 1.008 1.213 1.79.282.779.422 1.719.422 2.819 0 1.107-.139 2.052-.417 2.834-.279.779-.681 1.374-1.208 1.785-.527.407-1.165.611-1.914.611zm0-1.094c.742 0 1.319-.358 1.73-1.073.41-.716.616-1.737.616-3.063 0-.882-.094-1.632-.283-2.252-.186-.62-.454-1.092-.806-1.417a1.777 1.777 0 00-1.257-.487c-.736 0-1.311.363-1.726 1.089-.414.722-.62 1.745-.62 3.067 0 .882.092 1.631.277 2.247.186.617.453 1.086.8 1.407a1.81 1.81 0 001.269.482zm8.75 1.094c-.75 0-1.387-.204-1.914-.611-.527-.411-.93-1.006-1.208-1.785-.279-.782-.418-1.727-.418-2.834 0-1.1.14-2.04.418-2.819.281-.782.686-1.379 1.213-1.79.53-.414 1.166-.621 1.909-.621.742 0 1.377.207 1.904.621.53.411.934 1.008 1.213 1.79.282.779.422 1.719.422 2.819 0 1.107-.139 2.052-.417 2.834-.279.779-.681 1.374-1.208 1.785-.527.407-1.165.611-1.914.611zm0-1.094c.742 0 1.319-.358 1.73-1.073.41-.716.616-1.737.616-3.063 0-.882-.094-1.632-.283-2.252-.186-.62-.454-1.092-.805-1.417a1.777 1.777 0 00-1.258-.487c-.736 0-1.311.363-1.726 1.089-.414.722-.62 1.745-.62 3.067 0 .882.092 1.631.277 2.247.186.617.453 1.086.8 1.407a1.81 1.81 0 001.269.482zM32.1 126v-10.182h1.233v5.051h.12l4.573-5.051h1.611l-4.276 4.594L39.638 126h-1.491l-3.54-4.733-1.273 1.432V126H32.1zm3.525 56.139c-.75 0-1.387-.204-1.914-.611-.527-.411-.93-1.006-1.208-1.785-.279-.782-.418-1.727-.418-2.834 0-1.1.14-2.04.418-2.819.282-.782.686-1.379 1.213-1.79.53-.414 1.167-.621 1.909-.621s1.377.207 1.904.621c.53.411.935 1.008 1.213 1.79.282.779.423 1.719.423 2.819 0 1.107-.14 2.052-.418 2.834-.278.779-.68 1.374-1.208 1.785-.527.407-1.165.611-1.914.611zm0-1.094c.742 0 1.32-.358 1.73-1.073.411-.716.617-1.737.617-3.063 0-.882-.095-1.632-.284-2.252-.185-.62-.454-1.092-.805-1.417a1.777 1.777 0 00-1.258-.487c-.736 0-1.31.363-1.725 1.089-.414.722-.622 1.745-.622 3.067 0 .882.093 1.631.279 2.247.185.617.452 1.086.8 1.407a1.81 1.81 0 001.268.482z" fill="#7B91B0"/><path d="M84 179l63-44.5 58.5 44.5 47-111.5 47.5 67 60 44.5 58-44.5" stroke="#FA0060" stroke-width="2" stroke-linecap="round"/><ellipse cx="84" cy="178.995" rx="3" ry="2.995" fill="#FA0060"/><ellipse cx="205" cy="178.995" rx="3" ry="2.995" fill="#FA0060"/><ellipse cx="253" cy="66.995" rx="3" ry="2.995" fill="#FA0060"/><ellipse cx="418" cy="134.995" rx="3" ry="2.995" fill="#FA0060"/><ellipse cx="360" cy="178.995" rx="3" ry="2.995" fill="#FA0060"/><ellipse cx="300" cy="133.995" rx="3" ry="2.995" fill="#FA0060"/><ellipse cx="147" cy="133.995" rx="3" ry="2.995" fill="#FA0060"/></svg>