<svg width="442" height="298" viewBox="0 0 442 298" fill="none" xmlns="http://www.w3.org/2000/svg"><path d="M79.376 231.829l7.2 7.2-.872.872-6.286-6.286-.042.042-.59 2.925-.887-.886.605-2.995.872-.872zm9.27 5.129l-.633-.633-.225-4.978a23.306 23.306 0 00-.105-1.483 4.163 4.163 0 00-.24-1.041 2.192 2.192 0 00-.499-.766 1.659 1.659 0 00-.84-.475 1.681 1.681 0 00-.92.064c-.31.107-.595.291-.855.552-.277.276-.46.575-.552.896a1.677 1.677 0 000 .949c.094.314.278.608.552.883l-.83.829c-.422-.422-.695-.889-.819-1.402a2.868 2.868 0 01.05-1.54c.159-.516.448-.983.868-1.403.422-.422.884-.706 1.388-.854a2.84 2.84 0 011.487-.046c.488.117.917.361 1.287.731.265.265.476.572.633.921.157.345.273.789.348 1.333a21.4 21.4 0 01.158 2.091l.112 3.347.057.056 3.347-3.346.773.773-4.542 4.542zm4.461-18.86l.872-.872 5.146 5.147c.46.459.766.933.918 1.423.152.49.158.972.018 1.445-.141.474-.42.919-.837 1.336-.394.394-.816.673-1.266.837-.452.161-.9.197-1.343.105-.442-.091-.848-.321-1.216-.689l.858-.858c.204.204.432.332.685.384.254.046.511.023.774-.071.262-.094.507-.254.735-.481.25-.251.41-.517.481-.798.07-.282.05-.57-.063-.865-.113-.3-.318-.599-.615-.897l-5.147-5.146zm10.901-.918l-3.192-3.192.83-.829 5.4 5.399-.83.83-.914-.914-.056.056c.147.401.184.831.109 1.29-.078.457-.32.89-.728 1.297a2.546 2.546 0 01-1.121.679 2.197 2.197 0 01-1.294-.056c-.452-.153-.908-.458-1.368-.918l-3.43-3.431.83-.83 3.374 3.375c.394.394.818.598 1.272.612.457.012.858-.155 1.203-.499a2 2 0 00.471-.788c.11-.321.129-.663.056-1.026-.07-.366-.274-.717-.612-1.055zm2.139-4.219l3.248 3.248-.83.83-5.399-5.4.801-.802.844.844.07-.07a2.174 2.174 0 01-.084-1.238c.089-.426.337-.843.745-1.251.366-.366.761-.611 1.185-.735.422-.126.86-.115 1.314.035.453.148.909.451 1.368.911l3.431 3.431-.83.83-3.374-3.375c-.425-.424-.865-.645-1.322-.661-.46-.019-.881.164-1.266.548a2.048 2.048 0 00-.538.883c-.091.321-.086.651.014.991.101.34.309.667.623.981zm29.655 19.575l7.2 7.2-.872.872-6.285-6.286-.043.042-.59 2.925-.886-.886.605-2.995.871-.872zm4.265-4.461a3.637 3.637 0 011.054-.717 3.053 3.053 0 011.357-.26c.497.009 1.038.159 1.624.45.586.29 1.21.766 1.871 1.427.639.64 1.147 1.269 1.522 1.888.375.614.619 1.204.731 1.772a3.268 3.268 0 01-.049 1.596 3.168 3.168 0 01-.826 1.353c-.403.403-.843.683-1.319.84a2.976 2.976 0 01-1.444.102 3.3 3.3 0 01-1.386-.619l.858-.857c.408.253.835.372 1.28.358.445-.018.858-.218 1.237-.597.556-.556.751-1.237.587-2.043-.161-.808-.685-1.656-1.571-2.541l-.056.056c.065.328.079.654.042.977a2.933 2.933 0 01-.858 1.751 3.091 3.091 0 01-1.441.829 3.285 3.285 0 01-1.67-.024c-.565-.157-1.079-.468-1.543-.932a3.535 3.535 0 01-.914-1.504 3.235 3.235 0 01-.043-1.716c.143-.579.462-1.108.957-1.589zm.773.773a2.096 2.096 0 00-.576 1.02c-.09.38-.079.763.031 1.149.11.383.315.724.615 1.023.3.3.639.508 1.016.623.378.11.754.123 1.129.038.375-.089.71-.281 1.005-.576.223-.223.387-.474.492-.752.103-.282.15-.57.141-.865-.009-.3-.07-.588-.183-.865a2.242 2.242 0 00-.492-.738 2.268 2.268 0 00-.995-.587 2.287 2.287 0 00-1.153-.043c-.387.082-.73.273-1.03.573zm8.877-10.227l.872-.872 5.147 5.147c.459.459.765.934.917 1.424.153.49.159.971.018 1.445-.141.473-.42.918-.837 1.335-.393.394-.815.673-1.265.837-.453.162-.9.197-1.343.106-.443-.092-.849-.322-1.216-.689l.857-.858c.204.204.433.331.686.383.253.047.511.023.773-.07.263-.094.508-.255.735-.482.251-.251.411-.517.482-.798.07-.281.049-.569-.064-.865-.112-.3-.317-.599-.615-.896l-5.147-5.147zm10.902-.917l-3.192-3.192.829-.83 5.4 5.4-.829.829-.914-.914-.057.057c.148.4.184.83.109 1.29-.077.457-.32.889-.727 1.297a2.552 2.552 0 01-1.122.678c-.412.113-.844.094-1.294-.056-.452-.152-.908-.458-1.367-.917l-3.431-3.431.83-.83 3.374 3.375c.394.393.818.597 1.273.611.457.012.858-.154 1.202-.499.206-.206.363-.468.471-.787.11-.321.129-.663.057-1.027-.071-.365-.275-.717-.612-1.054zm2.138-4.22l3.248 3.248-.829.83-5.4-5.4.802-.801.843.844.071-.071a2.18 2.18 0 01-.085-1.237c.089-.427.338-.844.745-1.252.366-.365.761-.61 1.185-.734a2.14 2.14 0 011.315.035c.452.147.908.451 1.367.91l3.432 3.431-.83.83-3.375-3.375c-.424-.424-.865-.644-1.322-.661-.459-.018-.881.164-1.265.549a2.045 2.045 0 00-.538.882c-.092.321-.087.652.014.991.101.34.308.667.622.981zm34.847 30.197l-.633-.633-.225-4.978a23.95 23.95 0 00-.105-1.483 4.143 4.143 0 00-.24-1.041 2.175 2.175 0 00-.499-.766 1.658 1.658 0 00-.84-.475 1.68 1.68 0 00-.921.064 2.261 2.261 0 00-.854.552 2.06 2.06 0 00-.552.896 1.666 1.666 0 000 .949c.094.314.278.608.552.883l-.83.829c-.422-.422-.695-.889-.819-1.402a2.87 2.87 0 01.049-1.54c.16-.516.449-.983.869-1.403.421-.422.884-.706 1.388-.854a2.84 2.84 0 011.487-.046c.488.117.917.361 1.287.731.265.265.476.572.633.921.157.345.273.789.348 1.333.075.539.127 1.236.158 2.092l.112 3.346.057.056 3.346-3.346.774.773-4.542 4.542zm8.483-8.286c-.3.291-.652.53-1.055.717a2.99 2.99 0 01-1.354.264c-.501-.014-1.045-.166-1.631-.457-.588-.293-1.215-.772-1.88-1.438-.638-.637-1.143-1.262-1.516-1.874-.375-.614-.617-1.203-.727-1.768a3.314 3.314 0 01.049-1.596c.148-.499.424-.951.83-1.357.403-.403.842-.681 1.318-.833a2.897 2.897 0 011.441-.105c.485.086.943.287 1.375.601l-.858.858a2.242 2.242 0 00-1.269-.341c-.443.016-.854.214-1.234.594-.558.557-.755 1.239-.591 2.046.167.803.687 1.645 1.561 2.524l.056-.057a2.985 2.985 0 01.816-2.728 3.044 3.044 0 011.441-.822 3.242 3.242 0 011.67.024c.565.153 1.079.461 1.543.925.446.445.754.953.925 1.522.169.567.182 1.14.039 1.719-.143.574-.46 1.102-.949 1.582zm-.774-.773c.295-.295.486-.634.573-1.016a2.245 2.245 0 00-.035-1.153 2.37 2.37 0 00-.622-1.037 2.345 2.345 0 00-1.013-.612 2.156 2.156 0 00-1.132-.042c-.375.084-.71.274-1.005.569a2.068 2.068 0 00-.489.756 2.28 2.28 0 00-.147.865c.009.295.071.582.186.861.112.277.276.523.492.739a2.34 2.34 0 002.159.646 2.053 2.053 0 001.033-.576zm2.929-15.979l.872-.872 5.147 5.147c.459.459.765.934.917 1.424.153.49.159.971.018 1.445-.141.473-.42.918-.837 1.336-.393.393-.815.672-1.265.836-.453.162-.9.197-1.343.106-.443-.092-.849-.321-1.217-.689l.858-.858c.204.204.433.331.686.383.253.047.511.023.773-.07.263-.094.508-.255.735-.482.251-.251.411-.517.481-.798.071-.281.05-.569-.063-.865-.112-.3-.317-.598-.615-.896l-5.147-5.147zm10.902-.917l-3.192-3.192.829-.83 5.4 5.4-.83.829-.914-.914-.056.057c.148.4.184.83.109 1.29-.077.457-.32.889-.728 1.297a2.546 2.546 0 01-1.121.679 2.197 2.197 0 01-1.294-.057c-.452-.152-.908-.458-1.367-.917l-3.431-3.431.829-.83 3.375 3.375c.394.394.818.597 1.273.612.457.011.858-.155 1.202-.5.206-.206.363-.468.471-.787.11-.321.129-.663.056-1.027-.07-.365-.274-.717-.611-1.054zm2.138-4.22l3.248 3.249-.829.829-5.4-5.399.801-.802.844.844.07-.071a2.188 2.188 0 01-.084-1.237c.089-.427.338-.844.745-1.252.366-.365.761-.61 1.185-.734a2.14 2.14 0 011.315.035c.452.148.908.451 1.367.91l3.431 3.431-.829.83-3.375-3.375c-.424-.424-.865-.644-1.322-.661-.459-.018-.881.164-1.265.549a2.041 2.041 0 00-.538.882c-.092.321-.087.652.014.991.101.34.308.667.622.981zm37.401 17.941c-.464.464-.958.798-1.48 1.002a3.007 3.007 0 01-1.526.197 2.528 2.528 0 01-1.339-.65l.886-.886c.25.213.53.334.84.362.307.026.62-.029.938-.165.319-.136.617-.342.893-.619.31-.309.53-.637.661-.984s.169-.685.113-1.013a1.604 1.604 0 00-.464-.872 1.776 1.776 0 00-.897-.502c-.335-.073-.686-.04-1.054.098s-.735.39-1.101.756l-.576.577-.774-.774.577-.576c.286-.286.485-.589.597-.907a1.649 1.649 0 00-.4-1.793 1.726 1.726 0 00-.798-.475 1.562 1.562 0 00-.879.035 2.089 2.089 0 00-.84.538 2.574 2.574 0 00-.566.84 1.85 1.85 0 00-.144.925c.03.307.159.586.386.837l-.844.843a2.421 2.421 0 01-.65-1.332 3.036 3.036 0 01.169-1.505c.187-.506.489-.966.903-1.381.446-.446.918-.737 1.417-.876.497-.14.977-.15 1.441-.028.464.122.866.353 1.206.693.406.405.645.858.717 1.357.075.497-.014.982-.267 1.455l.056.056c.53-.379 1.079-.541 1.646-.485.564.054 1.075.31 1.532.767.392.391.637.849.735 1.374.099.52.054 1.052-.133 1.596-.188.544-.515 1.049-.981 1.515zm2.239-16.835l.872-.872 5.147 5.147c.459.459.765.934.917 1.423.152.49.158.972.018 1.445-.141.474-.42.919-.837 1.336-.394.394-.816.673-1.266.837-.452.162-.9.197-1.343.105-.442-.091-.848-.321-1.216-.689l.858-.857c.204.203.432.331.685.383.254.047.511.023.774-.071.262-.093.507-.254.735-.481.25-.251.411-.517.481-.798s.049-.57-.063-.865c-.113-.3-.318-.599-.615-.896l-5.147-5.147zm10.901-.918l-3.192-3.192.83-.829 5.4 5.399-.83.83-.914-.914-.056.056c.148.401.184.831.109 1.29-.077.457-.32.89-.728 1.298a2.553 2.553 0 01-1.121.678 2.189 2.189 0 01-1.294-.056c-.452-.152-.908-.458-1.367-.918l-3.432-3.431.83-.829 3.375 3.374c.394.394.818.598 1.273.612.457.012.857-.155 1.202-.499.206-.206.363-.469.471-.787a1.94 1.94 0 00.056-1.027c-.07-.366-.274-.717-.612-1.055zm-1.813-8.17l7.2 7.199-.83.83-7.199-7.2.829-.829zm30.122 23.477l7.199 7.199-.872.872-6.285-6.286-.042.043-.591 2.925-.886-.886.605-2.996.872-.871zm11.717 2.879c-.53.529-1.125.836-1.786.921-.664.082-1.369-.054-2.117-.408-.75-.356-1.516-.926-2.299-1.708-.778-.779-1.344-1.541-1.698-2.289-.354-.752-.49-1.46-.407-2.123.082-.668.385-1.265.91-1.79.525-.525 1.12-.827 1.786-.907.665-.084 1.373.052 2.123.408.75.352 1.514.916 2.292 1.695.783.782 1.353 1.549 1.709 2.299.354.747.49 1.453.408 2.116-.085.661-.392 1.256-.921 1.786zm-.774-.774c.525-.525.68-1.185.464-1.982-.215-.797-.792-1.664-1.729-2.602-.624-.623-1.221-1.087-1.793-1.392-.57-.307-1.094-.451-1.572-.432a1.777 1.777 0 00-1.234.545c-.52.52-.67 1.183-.45 1.989.218.804.795 1.674 1.73 2.609.623.623 1.219 1.087 1.786 1.392.567.305 1.087.448 1.561.429a1.809 1.809 0 001.237-.556zm2.981-16.03l.872-.872 5.147 5.147c.459.459.765.934.917 1.423.153.49.158.972.018 1.445-.141.474-.42.919-.837 1.336-.394.394-.815.673-1.265.837-.453.162-.9.197-1.343.105-.443-.091-.849-.321-1.217-.689l.858-.857c.204.203.432.331.686.383.253.047.51.023.773-.071.262-.093.507-.254.735-.481.25-.251.411-.517.481-.798.071-.281.05-.57-.063-.865-.112-.3-.318-.599-.615-.896l-5.147-5.147zm10.902-.918l-3.192-3.192.829-.829 5.4 5.399-.83.83-.914-.914-.056.056c.148.401.184.831.109 1.291-.077.457-.32.889-.728 1.297a2.553 2.553 0 01-1.121.678 2.189 2.189 0 01-1.294-.056c-.452-.152-.908-.458-1.367-.918l-3.431-3.431.829-.829 3.375 3.375c.394.393.818.597 1.273.611.457.012.857-.154 1.202-.499.206-.206.363-.469.471-.787a1.94 1.94 0 00.056-1.027c-.07-.366-.274-.717-.611-1.055zm-1.813-8.17l7.199 7.199-.829.83-7.2-7.2.83-.829zm30.584 22.306l7.2 7.199-.872.872-6.286-6.286-.042.043-.59 2.924-.886-.885.604-2.996.872-.871zm9.495 4.904l-3.149-9.591-.057-.056-3.712 3.712-.773-.773 4.612-4.612.815.815 3.178 9.591-.914.914zm3.898-18.297l.872-.872 5.147 5.146c.459.46.765.934.917 1.424.152.49.158.972.018 1.445-.141.473-.42.919-.837 1.336-.394.394-.816.672-1.266.836a2.448 2.448 0 01-1.342.106c-.443-.091-.849-.321-1.217-.689l.858-.858c.204.204.432.332.686.383.253.047.51.024.773-.07.262-.094.507-.254.735-.482.25-.25.411-.516.481-.798a1.412 1.412 0 00-.063-.864c-.113-.3-.318-.599-.615-.897l-5.147-5.146zm10.902-.918l-3.192-3.192.829-.83 5.4 5.4-.83.83-.914-.914-.056.056c.148.401.184.831.109 1.29-.077.457-.32.89-.728 1.297a2.546 2.546 0 01-1.121.679 2.197 2.197 0 01-1.294-.056c-.452-.153-.908-.459-1.367-.918l-3.431-3.431.829-.83 3.375 3.375c.394.394.818.598 1.273.612.457.012.857-.155 1.202-.499.206-.207.363-.469.471-.788.11-.321.129-.663.056-1.026-.07-.366-.274-.717-.611-1.055zm-1.814-8.171l7.2 7.2-.83.83-7.199-7.2.829-.83zm35.079 34.334l-.632-.633-.225-4.978a23.146 23.146 0 00-.106-1.484 4.147 4.147 0 00-.239-1.04 2.193 2.193 0 00-.499-.767 1.649 1.649 0 00-.84-.474 1.671 1.671 0 00-.921.063c-.31.108-.595.292-.855.552-.276.277-.46.575-.552.897a1.684 1.684 0 000 .949c.094.314.278.608.552.882l-.829.83c-.422-.422-.695-.89-.819-1.403a2.86 2.86 0 01.049-1.54c.159-.515.449-.983.868-1.402.422-.422.885-.707 1.389-.855a2.85 2.85 0 011.487-.045c.487.117.916.361 1.286.731.265.265.476.572.633.921.157.344.273.789.348 1.332.075.539.128 1.237.158 2.092l.113 3.347.056.056 3.347-3.347.773.774-4.542 4.542zm4.194-7.147l-.717-.717-1.842-8.17.52-.521 1.111 1.111-.351.352 1.392 6.173.056.056 4.261-4.261.773.774-5.203 5.203zm4.866-1.913l-1.695-1.694-.334-.334-5.171-5.171.83-.83 7.199 7.2-.829.829zm1.598-15.998l.872-.871 5.147 5.146c.459.46.765.934.917 1.424.153.49.158.971.018 1.445-.141.473-.42.918-.837 1.336-.394.393-.815.672-1.265.836-.453.162-.9.197-1.343.106-.443-.092-.849-.321-1.217-.689l.858-.858c.204.204.432.332.686.383.253.047.511.024.773-.07s.507-.254.735-.482c.25-.251.411-.517.481-.798.071-.281.05-.569-.063-.865-.112-.3-.317-.598-.615-.896l-5.147-5.147zm10.902-.917l-3.192-3.192.829-.83 5.4 5.4-.83.83-.914-.914-.056.056c.148.401.184.831.109 1.29-.077.457-.32.889-.728 1.297a2.546 2.546 0 01-1.121.679 2.197 2.197 0 01-1.294-.057c-.452-.152-.908-.458-1.367-.917l-3.431-3.431.829-.83 3.375 3.375c.394.394.818.598 1.273.612.457.011.858-.155 1.202-.5.206-.206.363-.468.471-.787.11-.321.129-.663.056-1.027-.07-.365-.274-.717-.611-1.054zM431.036 206l7.199 7.2-.829.829-7.2-7.199.83-.83zM1.522 67.912v-1.014l4.475-7.08h.736v1.571h-.498l-3.38 5.35v.08H8.88v1.093H1.522zM6.315 70V59.818h1.173V70H6.315zm7.75.14c-.75 0-1.388-.205-1.915-.612-.527-.411-.93-1.006-1.208-1.785-.278-.782-.417-1.727-.417-2.834 0-1.1.139-2.04.417-2.819.282-.782.686-1.379 1.213-1.79.53-.414 1.167-.621 1.91-.621.742 0 1.377.207 1.904.621.53.411.934 1.008 1.213 1.79.281.78.422 1.719.422 2.82 0 1.106-.139 2.05-.417 2.833-.279.779-.681 1.374-1.209 1.785-.527.407-1.165.611-1.913.611zm0-1.094c.742 0 1.319-.359 1.73-1.074.41-.716.616-1.737.616-3.063 0-.882-.094-1.632-.283-2.252-.186-.62-.454-1.092-.806-1.417a1.778 1.778 0 00-1.257-.487c-.736 0-1.311.363-1.726 1.089-.414.722-.621 1.745-.621 3.067 0 .882.093 1.63.278 2.247.186.617.453 1.086.8 1.407.352.322.775.483 1.269.483zm8.75 1.093c-.75 0-1.388-.204-1.915-.611-.527-.411-.93-1.006-1.208-1.785-.278-.782-.417-1.727-.417-2.834 0-1.1.139-2.04.417-2.819.282-.782.686-1.379 1.213-1.79.53-.414 1.167-.621 1.91-.621.742 0 1.377.207 1.904.621.53.411.934 1.008 1.213 1.79.281.78.422 1.719.422 2.82 0 1.106-.139 2.05-.417 2.833-.279.779-.681 1.374-1.209 1.785-.527.407-1.165.611-1.914.611zm0-1.093c.742 0 1.319-.359 1.73-1.074.41-.716.616-1.737.616-3.063 0-.882-.094-1.632-.283-2.252-.186-.62-.454-1.092-.806-1.417a1.778 1.778 0 00-1.258-.487c-.735 0-1.31.363-1.725 1.089-.414.722-.621 1.745-.621 3.067 0 .882.093 1.63.278 2.247.186.617.453 1.086.8 1.407.352.322.775.483 1.268.483zM32.36 70V59.818h1.233v5.051h.12l4.573-5.05h1.61l-4.275 4.593L39.897 70h-1.492l-3.54-4.733-1.272 1.432V70H32.36zM5.178 14.14c-.683 0-1.286-.122-1.81-.364-.52-.245-.926-.581-1.218-1.009a2.535 2.535 0 01-.433-1.471 2.706 2.706 0 01.96-2.113 2.163 2.163 0 011.01-.473v-.06a1.966 1.966 0 01-1.164-.82 2.485 2.485 0 01-.428-1.446c-.003-.518.128-.98.393-1.388.265-.407.63-.729 1.094-.964.467-.235 1-.353 1.596-.353.59 0 1.117.118 1.58.353.465.235.83.557 1.094.964.269.408.405.87.408 1.388a2.521 2.521 0 01-.442 1.446 1.962 1.962 0 01-1.149.82v.06c.368.067.7.224.994.473.295.245.53.551.706.92.176.364.266.762.269 1.193a2.571 2.571 0 01-.448 1.471c-.291.428-.697.764-1.218 1.01-.517.241-1.115.362-1.794.362zm0-1.095c.46 0 .858-.074 1.193-.223.335-.15.593-.36.775-.632a1.7 1.7 0 00.279-.954 1.832 1.832 0 00-.298-1.02 2.024 2.024 0 00-.8-.695 2.513 2.513 0 00-1.15-.254c-.434 0-.821.085-1.163.254a2.024 2.024 0 00-.8.696 1.795 1.795 0 00-.284 1.019c-.003.364.085.683.264.954.182.272.442.483.78.632.339.149.74.224 1.204.224zm0-4.832c.364 0 .687-.073.97-.219a1.67 1.67 0 00.67-.611c.163-.262.246-.569.249-.92a1.698 1.698 0 00-.244-.9 1.58 1.58 0 00-.661-.596 2.153 2.153 0 00-.984-.214c-.382 0-.715.071-1 .214a1.535 1.535 0 00-.66.596 1.661 1.661 0 00-.23.9 1.71 1.71 0 00.234.92c.163.262.386.465.671.611.285.146.613.22.985.22zm8.686 5.926c-.749 0-1.387-.204-1.914-.611-.527-.411-.93-1.006-1.208-1.785-.278-.782-.418-1.727-.418-2.834 0-1.1.14-2.04.418-2.819.282-.782.686-1.379 1.213-1.79.53-.414 1.167-.621 1.91-.621.742 0 1.376.207 1.903.621.53.411.935 1.008 1.213 1.79.282.78.423 1.719.423 2.82 0 1.106-.14 2.05-.418 2.833-.278.779-.68 1.374-1.208 1.785-.527.407-1.165.611-1.914.611zm0-1.093c.743 0 1.32-.358 1.73-1.074.411-.716.617-1.737.617-3.063 0-.882-.095-1.632-.283-2.252-.186-.62-.455-1.092-.806-1.417a1.778 1.778 0 00-1.258-.487c-.736 0-1.31.363-1.725 1.089-.414.722-.621 1.745-.621 3.067 0 .882.092 1.63.278 2.247.186.617.453 1.086.8 1.407.352.322.774.482 1.268.482zm8.75 1.093c-.749 0-1.387-.204-1.914-.611-.527-.411-.93-1.006-1.208-1.785-.278-.782-.418-1.727-.418-2.834 0-1.1.14-2.04.418-2.819.282-.782.686-1.379 1.213-1.79.53-.414 1.167-.621 1.91-.621.742 0 1.376.207 1.903.621.53.411.935 1.008 1.213 1.79.282.78.423 1.719.423 2.82 0 1.106-.14 2.05-.418 2.833-.278.779-.68 1.374-1.208 1.785-.527.407-1.165.611-1.914.611zm0-1.093c.743 0 1.32-.358 1.73-1.074.411-.716.617-1.737.617-3.063 0-.882-.095-1.632-.284-2.252-.185-.62-.454-1.092-.805-1.417a1.778 1.778 0 00-1.258-.487c-.736 0-1.31.363-1.725 1.089-.414.722-.621 1.745-.621 3.067 0 .882.092 1.63.278 2.247.186.617.453 1.086.8 1.407.352.322.774.482 1.268.482zM32.16 14V3.818h1.233V8.87h.119l4.574-5.05h1.61l-4.275 4.593L39.697 14h-1.492l-3.54-4.733-1.272 1.432V14H32.16zM8.315 115.818V126H7.082v-8.889h-.06l-2.485 1.65v-1.252l2.545-1.691h1.233zm6.25 10.321c-.75 0-1.387-.204-1.914-.611-.527-.411-.93-1.006-1.208-1.785-.279-.782-.418-1.727-.418-2.834 0-1.1.14-2.04.418-2.819.281-.782.686-1.379 1.213-1.79.53-.414 1.166-.621 1.909-.621.742 0 1.377.207 1.904.621.53.411.934 1.008 1.213 1.79.282.779.423 1.719.423 2.819 0 1.107-.14 2.052-.418 2.834-.279.779-.681 1.374-1.208 1.785-.527.407-1.165.611-1.914.611zm0-1.094c.742 0 1.319-.358 1.73-1.073.41-.716.616-1.737.616-3.063 0-.882-.094-1.632-.283-2.252-.186-.62-.454-1.092-.806-1.417a1.777 1.777 0 00-1.257-.487c-.736 0-1.311.363-1.726 1.089-.414.722-.62 1.745-.62 3.067 0 .882.092 1.631.277 2.247.186.617.453 1.086.8 1.407a1.81 1.81 0 001.269.482zm8.75 1.094c-.75 0-1.387-.204-1.914-.611-.527-.411-.93-1.006-1.209-1.785-.278-.782-.417-1.727-.417-2.834 0-1.1.14-2.04.418-2.819.281-.782.686-1.379 1.213-1.79.53-.414 1.166-.621 1.909-.621.742 0 1.377.207 1.904.621.53.411.934 1.008 1.213 1.79.282.779.423 1.719.423 2.819 0 1.107-.14 2.052-.418 2.834-.279.779-.681 1.374-1.208 1.785-.527.407-1.165.611-1.914.611zm0-1.094c.742 0 1.319-.358 1.73-1.073.41-.716.616-1.737.616-3.063 0-.882-.094-1.632-.283-2.252-.186-.62-.454-1.092-.805-1.417a1.777 1.777 0 00-1.258-.487c-.736 0-1.311.363-1.726 1.089-.414.722-.62 1.745-.62 3.067 0 .882.092 1.631.277 2.247.186.617.453 1.086.8 1.407a1.81 1.81 0 001.269.482zm9.545.955v-10.182h1.233v5.051h.12l4.573-5.051h1.611l-4.276 4.594L40.397 126h-1.491l-3.54-4.733-1.273 1.432V126H32.86zm3.524 56.139c-.749 0-1.387-.204-1.914-.611-.527-.411-.93-1.006-1.208-1.785-.279-.782-.418-1.727-.418-2.834 0-1.1.14-2.04.418-2.819.282-.782.686-1.379 1.213-1.79.53-.414 1.167-.621 1.91-.621.742 0 1.376.207 1.903.621.53.411.935 1.008 1.213 1.79.282.779.423 1.719.423 2.819 0 1.107-.14 2.052-.418 2.834-.278.779-.68 1.374-1.208 1.785-.527.407-1.165.611-1.914.611zm0-1.094c.742 0 1.32-.358 1.73-1.073.411-.716.617-1.737.617-3.063 0-.882-.095-1.632-.284-2.252-.185-.62-.454-1.092-.805-1.417a1.777 1.777 0 00-1.258-.487c-.736 0-1.31.363-1.725 1.089-.414.722-.621 1.745-.621 3.067 0 .882.092 1.631.278 2.247.185.617.452 1.086.8 1.407a1.81 1.81 0 001.268.482z" fill="#7B91B0"/><ellipse cx="178.46" cy="288.5" rx="6.12" ry="6" fill="#FA0060"/><path d="M198.228 294v-11.636h1.41v10.386h5.409V294h-6.819zm8.659 0v-8.727h1.341V294h-1.341zm.681-10.182a.955.955 0 01-.676-.267.86.86 0 01-.278-.642.86.86 0 01.278-.642.955.955 0 01.676-.267c.262 0 .485.089.671.267a.851.851 0 01.284.642c0 .25-.095.464-.284.642a.935.935 0 01-.671.267zm4.296 4.932V294h-1.341v-8.727h1.296v1.363h.114c.204-.443.515-.799.931-1.068.417-.273.955-.409 1.614-.409.591 0 1.108.121 1.551.364.443.238.788.602 1.034 1.091.246.484.37 1.098.37 1.841V294h-1.341v-5.455c0-.685-.178-1.219-.534-1.602-.356-.386-.845-.579-1.466-.579-.428 0-.811.092-1.148.278a1.992 1.992 0 00-.79.813c-.193.356-.29.787-.29 1.295zm9.109 2.068l-.023-1.659h.273l3.818-3.886h1.659l-4.068 4.113h-.114l-1.545 1.432zm-1.25 3.182v-11.636h1.341V294h-1.341zm5.545 0l-3.409-4.318.955-.932 4.159 5.25h-1.705zm16.883-8h-1.409a2.931 2.931 0 00-1.187-1.841 3.19 3.19 0 00-.972-.477 3.88 3.88 0 00-1.113-.159 3.55 3.55 0 00-1.915.534c-.568.356-1.021.881-1.358 1.574-.333.693-.5 1.543-.5 2.551 0 1.007.167 1.858.5 2.551.337.693.79 1.218 1.358 1.574a3.55 3.55 0 001.915.534 3.88 3.88 0 001.113-.159 3.25 3.25 0 00.972-.472c.295-.212.545-.471.75-.778a2.99 2.99 0 00.437-1.068h1.409a4.695 4.695 0 01-.579 1.596c-.28.47-.629.87-1.046 1.199a4.552 4.552 0 01-1.403.744 5.213 5.213 0 01-1.653.256c-.993 0-1.875-.242-2.648-.727-.773-.485-1.381-1.174-1.824-2.068-.443-.894-.665-1.955-.665-3.182 0-1.227.222-2.288.665-3.182.443-.894 1.051-1.583 1.824-2.068.773-.485 1.655-.727 2.648-.727.587 0 1.138.085 1.653.255.519.171.987.421 1.403.75a4.29 4.29 0 011.046 1.193c.28.466.473.999.579 1.597zm3.277-3.636V294h-1.341v-11.636h1.341zM247.723 294v-8.727h1.341V294h-1.341zm.682-10.182a.955.955 0 01-.676-.267.86.86 0 01-.278-.642.86.86 0 01.278-.642.955.955 0 01.676-.267c.262 0 .485.089.671.267a.851.851 0 01.284.642c0 .25-.095.464-.284.642a.935.935 0 01-.671.267zm6.501 10.364c-.818 0-1.523-.193-2.114-.58a3.77 3.77 0 01-1.363-1.596c-.319-.678-.478-1.453-.478-2.324 0-.887.163-1.669.489-2.347.329-.682.788-1.214 1.375-1.596.591-.387 1.28-.58 2.068-.58.614 0 1.167.114 1.659.341.493.227.896.545 1.21.955.315.409.51.886.586 1.431h-1.341c-.103-.397-.33-.75-.682-1.056-.349-.311-.818-.466-1.409-.466-.523 0-.981.136-1.375.409-.39.269-.695.649-.915 1.142-.216.488-.324 1.062-.324 1.721 0 .675.106 1.262.318 1.762.216.5.519.888.909 1.164.394.277.857.415 1.387.415.348 0 .665-.06.949-.182.284-.121.524-.295.721-.522.197-.228.337-.5.421-.818h1.341a3.114 3.114 0 01-.563 1.392 3.142 3.142 0 01-1.176.977c-.485.238-1.049.358-1.693.358zm6.482-3.364l-.023-1.659h.273l3.818-3.886h1.659l-4.068 4.113h-.114l-1.545 1.432zm-1.25 3.182v-11.636h1.341V294h-1.341zm5.545 0l-3.409-4.318.955-.932 4.159 5.25h-1.705zm9.18-6.773l-1.205.341a2.197 2.197 0 00-.335-.585 1.63 1.63 0 00-.591-.477c-.25-.125-.57-.188-.96-.188-.534 0-.979.123-1.335.37-.353.242-.529.551-.529.926 0 .333.121.596.364.789.242.194.621.355 1.136.483l1.296.319c.78.189 1.361.479 1.744.869.383.386.574.884.574 1.494 0 .5-.144.947-.432 1.341-.284.394-.682.705-1.193.932-.511.227-1.106.341-1.784.341-.89 0-1.627-.193-2.21-.58-.584-.386-.953-.95-1.108-1.693l1.272-.318c.122.47.351.822.688 1.057.341.235.786.352 1.335.352.625 0 1.121-.133 1.489-.398.371-.269.557-.591.557-.966 0-.303-.107-.556-.319-.761-.212-.208-.538-.364-.977-.466l-1.454-.341c-.8-.189-1.387-.483-1.762-.88-.371-.402-.557-.904-.557-1.506 0-.493.139-.928.415-1.307a2.82 2.82 0 011.142-.892c.485-.216 1.034-.324 1.648-.324.864 0 1.542.189 2.034.568a3.07 3.07 0 011.057 1.5z" fill="#2C2C2C"/><path d="M85.64 179l64.26-44.5 59.67 44.5 47.94-111.5 48.45 67 61.2 44.5 59.16-44.5" stroke="#1877F2" stroke-width="2" stroke-linecap="round"/><ellipse cx="85.639" cy="178.995" rx="3.06" ry="2.995" fill="#1877F2"/><ellipse cx="209.06" cy="178.995" rx="3.06" ry="2.995" fill="#1877F2"/><ellipse cx="258.02" cy="66.995" rx="3.06" ry="2.995" fill="#1877F2"/><ellipse cx="426.32" cy="134.995" rx="3.06" ry="2.995" fill="#1877F2"/><ellipse cx="367.16" cy="178.995" rx="3.06" ry="2.995" fill="#1877F2"/><ellipse cx="305.959" cy="133.995" rx="3.06" ry="2.995" fill="#1877F2"/><ellipse cx="149.9" cy="133.995" rx="3.06" ry="2.995" fill="#1877F2"/></svg>