<svg width="439" height="298" viewBox="0 0 439 298" fill="none" xmlns="http://www.w3.org/2000/svg"><path d="M75.976 231.829l7.2 7.2-.872.872-6.286-6.286-.042.042-.59 2.925-.886-.886.604-2.995.872-.872zm9.27 5.129l-.632-.633-.225-4.978a23.38 23.38 0 00-.106-1.483 4.163 4.163 0 00-.239-1.041 2.192 2.192 0 00-.499-.766 1.66 1.66 0 00-.84-.475 1.681 1.681 0 00-.921.064 2.24 2.24 0 00-.855.552c-.276.276-.46.575-.551.896a1.677 1.677 0 000 .949c.093.314.277.608.552.883l-.83.829c-.422-.422-.695-.889-.82-1.402a2.868 2.868 0 01.05-1.54 3.4 3.4 0 01.868-1.403c.422-.422.885-.706 1.389-.854a2.84 2.84 0 011.487-.046c.487.117.916.361 1.287.731.264.265.475.572.632.921.157.345.273.789.348 1.333.075.539.128 1.236.159 2.091l.112 3.347.056.056 3.347-3.346.773.773-4.541 4.542zm4.462-18.86l.871-.872 5.147 5.146c.46.46.765.934.918 1.424.152.49.158.972.017 1.445-.14.474-.42.919-.837 1.336-.393.394-.815.673-1.265.837-.452.161-.9.197-1.343.105-.443-.091-.848-.321-1.216-.689l.857-.858c.204.204.433.332.686.383.253.047.51.024.773-.07s.508-.254.735-.481c.25-.251.411-.517.482-.798.07-.282.049-.57-.064-.865-.112-.3-.317-.599-.615-.897l-5.146-5.146zm10.901-.918l-3.192-3.192.83-.829 5.399 5.399-.829.83-.914-.914-.057.056c.148.401.184.831.109 1.29-.077.457-.32.89-.727 1.297a2.554 2.554 0 01-1.122.679 2.195 2.195 0 01-1.293-.056c-.453-.153-.909-.458-1.368-.918l-3.431-3.431.83-.83 3.375 3.375c.393.394.817.598 1.272.612.457.012.858-.155 1.202-.499.207-.206.364-.469.471-.788.111-.321.129-.663.057-1.026-.071-.366-.275-.717-.612-1.055zm2.138-4.219l3.249 3.248-.83.83-5.4-5.4.802-.802.843.844.071-.07a2.183 2.183 0 01-.085-1.238c.089-.426.338-.843.746-1.251.365-.366.76-.611 1.184-.735.422-.126.86-.115 1.315.035.452.148.908.451 1.368.911l3.431 3.431-.83.83-3.375-3.375c-.424-.424-.865-.645-1.322-.661-.459-.019-.881.164-1.265.548a2.048 2.048 0 00-.538.883c-.091.321-.087.651.014.991.101.34.308.667.622.981zm29.656 19.575l7.2 7.2-.872.872-6.286-6.286-.042.042-.591 2.925-.885-.886.604-2.995.872-.872zm4.264-4.461a3.642 3.642 0 011.055-.717 3.05 3.05 0 011.357-.26c.497.009 1.038.159 1.624.45.586.29 1.209.766 1.87 1.427.64.64 1.147 1.269 1.522 1.888.375.614.619 1.204.732 1.772a3.268 3.268 0 01-.05 1.596c-.145.496-.42.948-.826 1.353-.403.403-.842.683-1.318.84a2.98 2.98 0 01-1.445.102 3.302 3.302 0 01-1.385-.619l.858-.857a2.25 2.25 0 001.279.358c.446-.018.858-.218 1.238-.597.555-.556.751-1.237.587-2.043-.162-.808-.686-1.656-1.571-2.541l-.057.056c.066.328.08.654.042.977a2.906 2.906 0 01-.857 1.751 3.094 3.094 0 01-1.442.829 3.281 3.281 0 01-1.669-.024c-.565-.157-1.08-.468-1.544-.932a3.555 3.555 0 01-.914-1.504 3.225 3.225 0 01-.042-1.716c.143-.579.462-1.108.956-1.589zm.774.773a2.09 2.09 0 00-.577 1.02c-.089.38-.078.763.032 1.149.11.383.315.724.615 1.023.3.3.639.508 1.016.623.377.11.753.123 1.128.038.375-.089.71-.281 1.006-.576a2.14 2.14 0 00.492-.752c.103-.282.15-.57.141-.865-.01-.3-.071-.588-.183-.865a2.242 2.242 0 00-.492-.738 2.273 2.273 0 00-.995-.587 2.287 2.287 0 00-1.153-.043c-.387.082-.73.273-1.03.573zm8.877-10.227l.872-.872 5.146 5.147c.46.459.766.934.918 1.424.152.49.158.971.018 1.445-.141.473-.42.918-.837 1.335-.394.394-.816.673-1.266.837-.452.162-.9.197-1.343.106-.443-.092-.848-.322-1.216-.689l.858-.858c.204.204.432.331.685.383.253.047.511.023.774-.07.262-.094.507-.255.735-.482.25-.251.411-.517.481-.798s.049-.569-.063-.865c-.113-.3-.318-.599-.615-.896l-5.147-5.147zm10.901-.917l-3.192-3.192.83-.83 5.4 5.4-.83.829-.914-.914-.056.057c.148.4.184.83.109 1.29-.077.457-.32.889-.728 1.297a2.543 2.543 0 01-1.121.678 2.189 2.189 0 01-1.294-.056c-.452-.152-.908-.458-1.367-.917l-3.432-3.431.83-.83 3.375 3.375c.394.393.818.597 1.273.611.457.012.857-.154 1.202-.499.206-.206.363-.468.471-.787.11-.321.129-.663.056-1.027-.07-.365-.274-.717-.612-1.054zm2.139-4.22l3.248 3.248-.83.83-5.399-5.4.801-.801.844.844.07-.071a2.17 2.17 0 01-.084-1.237c.089-.427.337-.844.745-1.252.366-.365.761-.61 1.185-.734a2.14 2.14 0 011.315.035c.452.147.908.451 1.367.91l3.431 3.431-.83.83-3.374-3.375c-.425-.424-.865-.644-1.322-.661-.46-.018-.881.164-1.266.549a2.045 2.045 0 00-.538.882c-.091.321-.086.652.014.991.101.34.309.667.623.981zm34.846 30.197l-.632-.633-.225-4.978a23.109 23.109 0 00-.106-1.483 4.145 4.145 0 00-.239-1.041 2.189 2.189 0 00-.499-.766 1.658 1.658 0 00-.84-.475 1.68 1.68 0 00-.921.064c-.31.108-.594.292-.855.552-.276.276-.46.575-.552.896a1.684 1.684 0 000 .949c.094.314.278.608.552.883l-.829.829c-.422-.422-.695-.889-.819-1.402a2.86 2.86 0 01.049-1.54 3.39 3.39 0 01.868-1.403c.422-.422.885-.706 1.389-.854a2.84 2.84 0 011.487-.046c.487.117.916.361 1.286.731.265.265.476.572.633.921.157.345.273.789.348 1.333.075.539.128 1.236.158 2.092l.113 3.346.056.056 3.347-3.346.773.773-4.542 4.542zm8.483-8.286c-.3.291-.651.53-1.055.717a2.988 2.988 0 01-1.353.264c-.502-.014-1.045-.166-1.631-.457-.588-.293-1.215-.772-1.881-1.438-.637-.637-1.142-1.262-1.515-1.874-.375-.614-.618-1.203-.728-1.768a3.327 3.327 0 01.049-1.596c.148-.499.425-.951.83-1.357.403-.403.843-.681 1.318-.833a2.901 2.901 0 011.442-.105c.485.086.943.287 1.374.601l-.857.858a2.247 2.247 0 00-1.27-.341c-.443.016-.854.214-1.233.594-.558.557-.755 1.239-.591 2.046.166.803.687 1.645 1.561 2.524l.056-.057a2.985 2.985 0 01.816-2.728 3.044 3.044 0 011.441-.822 3.242 3.242 0 011.67.024c.565.153 1.079.461 1.543.925.445.445.754.953.925 1.522.168.567.181 1.14.038 1.719-.143.574-.459 1.102-.949 1.582zm-.773-.773c.295-.295.486-.634.573-1.016a2.245 2.245 0 00-.035-1.153 2.372 2.372 0 00-.623-1.037 2.342 2.342 0 00-1.012-.612 2.157 2.157 0 00-1.132-.042c-.375.084-.71.274-1.005.569a2.068 2.068 0 00-.489.756 2.262 2.262 0 00-.148.865c.01.295.072.582.187.861.112.277.276.523.492.739a2.336 2.336 0 002.158.646 2.056 2.056 0 001.034-.576zm2.929-15.979l.872-.872 5.146 5.147c.46.459.766.934.918 1.424.152.49.158.971.018 1.445-.141.473-.42.918-.837 1.336-.394.393-.816.672-1.266.836-.452.162-.9.197-1.343.106-.443-.092-.848-.321-1.216-.689l.858-.858c.204.204.432.331.685.383.253.047.511.023.774-.07.262-.094.507-.255.734-.482.251-.251.412-.517.482-.798s.049-.569-.063-.865c-.113-.3-.318-.598-.615-.896l-5.147-5.147zm10.901-.917l-3.192-3.192.83-.83 5.4 5.4-.83.829-.914-.914-.056.057c.147.4.184.83.109 1.29-.078.457-.32.889-.728 1.297a2.546 2.546 0 01-1.121.679 2.197 2.197 0 01-1.294-.057c-.452-.152-.908-.458-1.368-.917l-3.431-3.431.83-.83 3.375 3.375c.394.394.818.597 1.272.612.457.011.858-.155 1.203-.5.206-.206.363-.468.471-.787.11-.321.129-.663.056-1.027-.07-.365-.274-.717-.612-1.054zm2.139-4.22l3.248 3.249-.83.829-5.399-5.399.801-.802.844.844.07-.071a2.17 2.17 0 01-.084-1.237c.089-.427.337-.844.745-1.252.366-.365.76-.61 1.185-.734.422-.127.86-.115 1.314.035.453.148.909.451 1.368.91l3.431 3.431-.83.83-3.374-3.375c-.425-.424-.865-.644-1.322-.661-.46-.018-.881.164-1.266.549a2.05 2.05 0 00-.538.882c-.091.321-.086.652.014.991.101.34.309.667.623.981zm37.4 17.941c-.464.464-.957.798-1.48 1.002a3.003 3.003 0 01-1.525.197 2.53 2.53 0 01-1.34-.65l.886-.886c.251.213.531.334.84.362.307.026.62-.029.939-.165.319-.136.616-.342.893-.619a2.8 2.8 0 00.661-.984c.131-.347.168-.685.112-1.013a1.597 1.597 0 00-.464-.872 1.773 1.773 0 00-.896-.502 1.844 1.844 0 00-1.055.098c-.368.138-.735.39-1.1.756l-.577.577-.773-.774.576-.576a2.44 2.44 0 00.598-.907c.115-.321.139-.637.074-.946a1.65 1.65 0 00-.475-.847 1.716 1.716 0 00-.798-.475 1.562 1.562 0 00-.879.035 2.096 2.096 0 00-.84.538 2.59 2.59 0 00-.566.84 1.85 1.85 0 00-.144.925c.031.307.159.586.387.837l-.844.843a2.421 2.421 0 01-.65-1.332 3.035 3.035 0 01.168-1.505 3.83 3.83 0 01.904-1.381c.445-.446.917-.737 1.417-.876.497-.14.977-.15 1.441-.028.464.122.866.353 1.206.693.405.405.644.858.717 1.357.075.497-.014.982-.267 1.455l.056.056c.53-.379 1.078-.541 1.645-.485.565.054 1.076.31 1.533.767.391.391.636.849.735 1.374.098.52.054 1.052-.134 1.596-.187.544-.514 1.049-.981 1.515zm2.24-16.835l.871-.872 5.147 5.147c.459.459.765.934.918 1.423.152.49.158.972.017 1.445-.14.474-.419.919-.836 1.336-.394.394-.816.673-1.266.837-.452.162-.9.197-1.343.105-.443-.091-.848-.321-1.216-.689l.857-.857c.204.203.433.331.686.383.253.047.511.023.773-.071.263-.093.508-.254.735-.481.251-.251.411-.517.482-.798.07-.281.049-.57-.064-.865-.112-.3-.317-.599-.615-.896l-5.146-5.147zm10.901-.918l-3.192-3.192.83-.829 5.399 5.399-.829.83-.914-.914-.057.056c.148.401.184.831.109 1.29-.077.457-.319.89-.727 1.298a2.561 2.561 0 01-1.122.678c-.412.113-.843.094-1.293-.056-.453-.152-.909-.458-1.368-.918l-3.431-3.431.83-.829 3.375 3.374c.393.394.817.598 1.272.612.457.012.858-.155 1.202-.499a1.98 1.98 0 00.471-.787 1.94 1.94 0 00.057-1.027c-.071-.366-.274-.717-.612-1.055zm-1.813-8.17l7.2 7.199-.83.83-7.2-7.2.83-.829zm30.121 23.477l7.2 7.199-.872.872-6.286-6.286-.042.043-.59 2.925-.886-.886.604-2.996.872-.871zm11.717 2.879c-.53.529-1.125.836-1.786.921-.663.082-1.368-.054-2.116-.408-.75-.356-1.516-.926-2.299-1.708-.778-.779-1.344-1.541-1.698-2.289-.354-.752-.49-1.46-.408-2.123.082-.668.386-1.265.911-1.79.525-.525 1.12-.827 1.785-.907.666-.084 1.374.052 2.124.408.75.352 1.514.916 2.292 1.695.783.782 1.352 1.549 1.708 2.299.354.747.49 1.453.408 2.116-.084.661-.391 1.256-.921 1.786zm-.773-.774c.525-.525.679-1.185.464-1.982-.216-.797-.792-1.664-1.73-2.602-.623-.623-1.221-1.087-1.793-1.392-.569-.307-1.093-.451-1.571-.432a1.776 1.776 0 00-1.234.545c-.52.52-.67 1.183-.45 1.989.218.804.794 1.674 1.73 2.609.623.623 1.218 1.087 1.785 1.392.568.305 1.088.448 1.561.429a1.811 1.811 0 001.238-.556zm2.981-16.03l.872-.872 5.146 5.147c.46.459.765.934.918 1.424.152.489.158.971.017 1.444-.14.474-.419.919-.836 1.336-.394.394-.816.673-1.266.837-.452.162-.9.197-1.343.105-.443-.091-.848-.321-1.216-.689l.858-.857c.204.203.432.331.685.383.253.047.511.023.774-.071.262-.093.507-.254.734-.481.251-.251.412-.517.482-.798s.049-.57-.063-.865c-.113-.3-.318-.599-.616-.896l-5.146-5.147zm10.901-.918l-3.192-3.192.83-.829 5.4 5.399-.83.83-.914-.914-.056.056c.147.401.184.831.109 1.291-.078.457-.32.889-.728 1.297a2.556 2.556 0 01-1.122.678c-.412.113-.843.094-1.293-.056-.453-.152-.908-.458-1.368-.918l-3.431-3.431.83-.829 3.375 3.375c.393.393.818.597 1.272.611.457.012.858-.154 1.203-.499.206-.206.363-.469.471-.787a1.94 1.94 0 00.056-1.027c-.07-.366-.274-.717-.612-1.055zm-1.813-8.17l7.2 7.199-.83.83-7.2-7.2.83-.829zm30.585 22.306l7.199 7.199-.871.872-6.286-6.286-.042.043-.591 2.924-.886-.885.605-2.996.872-.871zm9.495 4.904l-3.15-9.591-.056-.056-3.712 3.712-.774-.773 4.612-4.612.816.815 3.178 9.591-.914.914zm3.898-18.297l.872-.872 5.146 5.146c.46.46.765.934.918 1.424.152.49.158.972.017 1.445-.14.473-.419.919-.836 1.336-.394.394-.816.672-1.266.836-.452.162-.9.197-1.343.106-.443-.091-.848-.321-1.216-.689l.858-.858c.203.204.432.332.685.383.253.047.511.024.773-.07.263-.094.508-.254.735-.482.251-.25.412-.516.482-.798.07-.281.049-.569-.063-.864-.113-.3-.318-.599-.616-.897l-5.146-5.146zm10.901-.918l-3.192-3.192.83-.83 5.399 5.4-.829.83-.914-.914-.056.056c.147.401.184.831.109 1.29-.078.457-.32.89-.728 1.297a2.549 2.549 0 01-1.122.679 2.194 2.194 0 01-1.293-.056c-.453-.153-.908-.459-1.368-.918l-3.431-3.431.83-.83 3.375 3.375c.393.394.818.598 1.272.612.457.012.858-.155 1.203-.499.206-.207.363-.469.471-.788.11-.321.128-.663.056-1.026-.07-.366-.274-.717-.612-1.055zm-1.813-8.171l7.2 7.2-.83.83-7.2-7.2.83-.83zm35.079 34.334l-.633-.633-.225-4.978a23.99 23.99 0 00-.105-1.484 4.192 4.192 0 00-.239-1.04 2.195 2.195 0 00-.5-.767 1.649 1.649 0 00-.84-.474 1.672 1.672 0 00-.921.063 2.261 2.261 0 00-.854.552 2.062 2.062 0 00-.552.897 1.684 1.684 0 000 .949c.094.314.278.608.552.882l-.83.83c-.422-.422-.695-.89-.819-1.403a2.87 2.87 0 01.049-1.54c.16-.515.449-.983.869-1.402.422-.422.884-.707 1.388-.855a2.84 2.84 0 011.487-.045c.488.117.917.361 1.287.731.265.265.476.572.633.921.157.344.273.789.348 1.332.075.539.128 1.237.158 2.092l.112 3.347.057.056 3.346-3.347.774.774-4.542 4.542zm4.194-7.147l-.717-.717-1.842-8.17.52-.521 1.111 1.111-.352.352 1.392 6.173.057.056 4.26-4.261.774.774-5.203 5.203zm4.865-1.913l-1.694-1.694-.334-.334-5.171-5.171.829-.83 7.2 7.2-.83.829zm1.599-15.998l.872-.871 5.146 5.146c.46.459.765.934.918 1.424.152.49.158.971.017 1.445-.14.473-.419.918-.836 1.336-.394.393-.816.672-1.266.836-.452.162-.9.197-1.343.106-.443-.092-.848-.321-1.216-.689l.858-.858c.204.204.432.332.685.383.253.047.511.024.774-.07a1.98 1.98 0 00.734-.482c.251-.251.412-.517.482-.798s.049-.569-.063-.865c-.113-.3-.318-.598-.616-.896l-5.146-5.147zm10.901-.917l-3.192-3.192.83-.83 5.4 5.4-.83.83-.914-.914-.056.056c.147.401.184.831.109 1.29-.078.457-.32.889-.728 1.297a2.551 2.551 0 01-1.121.679 2.197 2.197 0 01-1.294-.057c-.452-.152-.908-.458-1.368-.917l-3.431-3.431.83-.83 3.375 3.375c.393.394.818.598 1.272.612.457.011.858-.155 1.203-.5.206-.206.363-.468.471-.787.11-.321.129-.663.056-1.027-.07-.365-.274-.717-.612-1.054zM427.636 206l7.2 7.2-.83.829-7.2-7.199.83-.83zM17.326 70.14a3.496 3.496 0 01-1.576-.349 2.927 2.927 0 01-1.124-.954 2.6 2.6 0 01-.462-1.383h1.193c.046.461.255.842.626 1.144.375.298.822.448 1.343.448.417 0 .788-.098 1.113-.294a2.07 2.07 0 00.77-.805 2.39 2.39 0 00.284-1.169c0-.444-.098-.84-.293-1.188a2.153 2.153 0 00-.796-.83 2.248 2.248 0 00-1.158-.308 3.18 3.18 0 00-.96.144 2.65 2.65 0 00-.81.373l-1.153-.14.616-5.01h5.29v1.093h-4.256l-.358 3.003h.06c.209-.166.47-.303.786-.413a2.98 2.98 0 01.984-.164 3.134 3.134 0 012.819 1.661c.282.513.422 1.1.422 1.76 0 .65-.145 1.23-.437 1.74a3.198 3.198 0 01-1.193 1.203c-.507.291-1.084.437-1.73.437zm9.452-10.322h1.472l3.46 8.452h.119l3.46-8.452h1.472V70h-1.154v-7.736h-.099L32.326 70h-1.114l-3.181-7.736h-.1V70h-1.153V59.818zM4.564 14l4.554-9.009v-.08h-5.25V3.819h6.522v1.154L5.856 14H4.564zm6.804.08a.862.862 0 01-.631-.264.862.862 0 01-.264-.631c0-.246.088-.456.264-.632a.861.861 0 01.631-.263c.246 0 .456.088.632.263a.861.861 0 01.263.632.927.927 0 01-.447.776.852.852 0 01-.448.118zm5.958.06a3.496 3.496 0 01-1.576-.349 2.927 2.927 0 01-1.124-.954 2.6 2.6 0 01-.462-1.383h1.193c.046.461.255.842.626 1.144.375.298.822.447 1.343.447.417 0 .788-.097 1.113-.293a2.07 2.07 0 00.77-.805 2.39 2.39 0 00.284-1.169c0-.444-.098-.84-.293-1.188a2.153 2.153 0 00-.796-.83 2.248 2.248 0 00-1.158-.308 3.182 3.182 0 00-.96.144 2.65 2.65 0 00-.81.373l-1.153-.14.616-5.01h5.29v1.093h-4.256l-.358 3.003h.06c.209-.166.47-.303.786-.413.314-.11.643-.164.984-.164.623 0 1.178.15 1.665.448.491.294.875.699 1.154 1.213.282.513.422 1.1.422 1.76 0 .65-.145 1.23-.437 1.74a3.198 3.198 0 01-1.193 1.203c-.507.291-1.084.437-1.73.437zm9.452-10.322h1.472l3.46 8.452h.119l3.46-8.452h1.472V14h-1.154V6.264h-.099L32.326 14h-1.114l-3.181-7.736h-.1V14h-1.153V3.818zM2.017 126v-.895l3.36-3.679c.395-.431.72-.805.975-1.123a4.19 4.19 0 00.567-.905c.126-.285.189-.584.189-.895 0-.358-.086-.668-.259-.93a1.671 1.671 0 00-.696-.606 2.25 2.25 0 00-.994-.214c-.391 0-.733.081-1.024.243a1.68 1.68 0 00-.671.672 2.1 2.1 0 00-.234 1.014H2.057c0-.597.137-1.12.412-1.571.275-.451.65-.802 1.124-1.054a3.386 3.386 0 011.606-.378c.596 0 1.125.126 1.586.378.46.252.822.591 1.083 1.019.262.428.393.903.393 1.427 0 .374-.068.741-.204 1.099-.132.354-.364.75-.696 1.188-.328.434-.784.964-1.367 1.591l-2.287 2.446v.079H8.44V126H2.017zm9.351.08a.86.86 0 01-.631-.264.862.862 0 01-.264-.631c0-.246.088-.456.264-.632a.864.864 0 01.631-.263c.246 0 .456.088.632.263a.862.862 0 01.263.632.928.928 0 01-.447.775.85.85 0 01-.448.12zm5.958.059a3.496 3.496 0 01-1.576-.348 2.929 2.929 0 01-1.124-.954 2.601 2.601 0 01-.462-1.382h1.193c.046.46.255.841.626 1.143.375.298.822.447 1.343.447.417 0 .788-.097 1.113-.293.328-.195.585-.464.77-.805a2.38 2.38 0 00.284-1.169c0-.444-.098-.84-.293-1.188a2.153 2.153 0 00-.796-.83 2.246 2.246 0 00-1.158-.308 3.142 3.142 0 00-.96.144 2.65 2.65 0 00-.81.373l-1.153-.139.616-5.012h5.29v1.094h-4.256l-.358 3.003h.06c.209-.166.47-.303.786-.413.314-.109.643-.164.984-.164.623 0 1.178.149 1.665.448.491.294.875.699 1.154 1.213.282.513.422 1.1.422 1.76 0 .649-.145 1.229-.437 1.74a3.198 3.198 0 01-1.193 1.203c-.507.291-1.084.437-1.73.437zm9.452-10.321h1.472l3.46 8.452h.119l3.46-8.452h1.472V126h-1.154v-7.736h-.099L32.326 126h-1.114l-3.181-7.736h-.1V126h-1.153v-10.182zm6.847 66.321c-.75 0-1.387-.204-1.914-.611-.527-.411-.93-1.006-1.208-1.785-.279-.782-.418-1.727-.418-2.834 0-1.1.14-2.04.418-2.819.282-.782.686-1.379 1.213-1.79.53-.414 1.167-.621 1.909-.621s1.377.207 1.904.621c.53.411.935 1.008 1.213 1.79.282.779.423 1.719.423 2.819 0 1.107-.14 2.052-.418 2.834-.278.779-.68 1.374-1.208 1.785-.527.407-1.165.611-1.914.611zm0-1.094c.742 0 1.32-.358 1.73-1.073.411-.716.617-1.737.617-3.063 0-.882-.095-1.632-.284-2.252-.185-.62-.454-1.092-.805-1.417a1.777 1.777 0 00-1.258-.487c-.736 0-1.31.363-1.725 1.089-.414.722-.622 1.745-.622 3.067 0 .882.093 1.631.279 2.247.185.617.452 1.086.8 1.407a1.81 1.81 0 001.268.482z" fill="#7B91B0"/><circle cx="173" cy="288.5" fill="#FA0060" r="6"/><path d="M191.773 283.614v-1.25h8.727v1.25h-3.659V294h-1.409v-10.386h-3.659zm12.84 10.568c-.788 0-1.479-.188-2.074-.563-.591-.375-1.053-.899-1.386-1.574-.33-.674-.495-1.462-.495-2.363 0-.909.165-1.703.495-2.381.333-.678.795-1.204 1.386-1.579.595-.375 1.286-.563 2.074-.563.788 0 1.477.188 2.068.563.595.375 1.057.901 1.386 1.579.334.678.5 1.472.5 2.381 0 .901-.166 1.689-.5 2.363a3.758 3.758 0 01-1.386 1.574c-.591.375-1.28.563-2.068.563zm0-1.205c.598 0 1.091-.153 1.477-.46a2.72 2.72 0 00.858-1.21c.186-.5.278-1.042.278-1.625 0-.584-.092-1.127-.278-1.631a2.748 2.748 0 00-.858-1.221c-.386-.311-.879-.466-1.477-.466-.599 0-1.091.155-1.478.466-.386.31-.672.717-.857 1.221a4.672 4.672 0 00-.279 1.631c0 .583.093 1.125.279 1.625.185.5.471.903.857 1.21.387.307.879.46 1.478.46zm9.637-7.704v1.136h-4.523v-1.136h4.523zm-3.205-2.091h1.341v8.318c0 .379.055.663.165.852a.845.845 0 00.432.375c.178.061.365.091.562.091.148 0 .269-.007.364-.023l.227-.045.273 1.205a2.74 2.74 0 01-.381.102 2.792 2.792 0 01-.619.057 2.7 2.7 0 01-1.114-.245 2.217 2.217 0 01-.898-.744c-.235-.333-.352-.754-.352-1.261v-8.682zm7.63 11.023a3.554 3.554 0 01-1.506-.313 2.58 2.58 0 01-1.074-.915c-.265-.401-.397-.886-.397-1.454 0-.5.098-.906.295-1.216.197-.315.46-.561.79-.739.329-.178.693-.31 1.091-.398.401-.09.805-.162 1.21-.215.53-.069.96-.12 1.29-.154.333-.038.575-.1.727-.187.155-.087.233-.239.233-.455v-.045c0-.561-.153-.997-.46-1.307-.303-.311-.764-.466-1.381-.466-.64 0-1.142.14-1.506.42-.363.281-.619.58-.767.898l-1.272-.454c.227-.531.53-.944.909-1.239a3.398 3.398 0 011.25-.625 5.193 5.193 0 011.341-.182c.28 0 .602.034.965.102.368.065.722.199 1.063.404.345.204.631.513.858.926.227.413.341.966.341 1.659V294h-1.341v-1.182h-.068a2.36 2.36 0 01-.455.608c-.212.216-.494.4-.846.551-.353.152-.783.228-1.29.228zm.204-1.205c.531 0 .978-.104 1.341-.312.368-.209.644-.478.83-.807.189-.33.284-.676.284-1.04v-1.227c-.057.068-.182.13-.375.187a6.143 6.143 0 01-.659.142c-.246.038-.487.072-.722.102-.231.027-.418.05-.562.069a5.107 5.107 0 00-.978.221 1.69 1.69 0 00-.727.449c-.182.197-.273.466-.273.807 0 .466.173.818.518 1.057.348.235.789.352 1.323.352zm7.424-10.636V294h-1.341v-11.636h1.341zM233.121 294v-11.636h7.023v1.25h-5.614v3.931h5.25v1.25h-5.25v3.955h5.705V294h-7.114zm10.562-5.25V294h-1.341v-8.727h1.295v1.363h.114c.204-.443.515-.799.932-1.068.416-.273.954-.409 1.613-.409.591 0 1.108.121 1.551.364.444.238.788.602 1.034 1.091.247.484.37 1.098.37 1.841V294h-1.341v-5.455c0-.685-.178-1.219-.534-1.602-.356-.386-.845-.579-1.466-.579-.428 0-.811.092-1.148.278a1.998 1.998 0 00-.79.813c-.193.356-.289.787-.289 1.295zm11.381 8.705c-.648 0-1.205-.084-1.671-.25a3.535 3.535 0 01-1.164-.648 3.518 3.518 0 01-.733-.852l1.068-.75c.121.159.274.34.46.545.186.208.439.388.761.54.326.155.752.233 1.279.233.704 0 1.286-.171 1.744-.512.458-.341.688-.875.688-1.602v-1.773h-.114a7.374 7.374 0 01-.421.591c-.178.231-.435.438-.772.62-.334.178-.784.267-1.353.267-.704 0-1.337-.167-1.897-.5-.557-.334-.998-.819-1.324-1.455-.322-.636-.483-1.409-.483-2.318 0-.894.157-1.672.472-2.335.314-.667.751-1.182 1.312-1.546.561-.367 1.208-.551 1.943-.551.568 0 1.019.095 1.352.284.338.186.595.398.773.637.182.234.322.428.421.579h.136v-1.386h1.295v8.977c0 .75-.17 1.36-.511 1.83a2.91 2.91 0 01-1.364 1.039 5.13 5.13 0 01-1.897.336zm-.046-4.796c.538 0 .993-.123 1.364-.369.371-.246.653-.601.847-1.063.193-.462.289-1.015.289-1.659 0-.629-.094-1.184-.284-1.665-.189-.481-.469-.858-.841-1.13-.371-.273-.829-.409-1.375-.409-.568 0-1.041.144-1.42.431a2.637 2.637 0 00-.847 1.16 4.487 4.487 0 00-.278 1.613c0 .606.095 1.142.284 1.608.193.462.477.826.852 1.091.379.261.849.392 1.409.392zm8.681 1.546a3.546 3.546 0 01-1.505-.313 2.58 2.58 0 01-1.074-.915c-.265-.401-.398-.886-.398-1.454 0-.5.098-.906.295-1.216.197-.315.461-.561.79-.739.33-.178.693-.31 1.091-.398.402-.09.805-.162 1.21-.215.531-.069.961-.12 1.29-.154.333-.038.576-.1.727-.187.156-.087.233-.239.233-.455v-.045c0-.561-.153-.997-.46-1.307-.303-.311-.763-.466-1.381-.466-.64 0-1.142.14-1.505.42-.364.281-.62.58-.767.898l-1.273-.454c.227-.531.53-.944.909-1.239a3.406 3.406 0 011.25-.625 5.205 5.205 0 011.341-.182c.28 0 .602.034.966.102.367.065.721.199 1.062.404.345.204.631.513.858.926.228.413.341.966.341 1.659V294h-1.341v-1.182h-.068c-.091.19-.242.392-.454.608-.213.216-.495.4-.847.551-.352.152-.782.228-1.29.228zm.205-1.205c.53 0 .977-.104 1.341-.312a2.133 2.133 0 001.113-1.847v-1.227c-.057.068-.182.13-.375.187a6.143 6.143 0 01-.659.142 28.32 28.32 0 01-1.284.171 5.114 5.114 0 00-.977.221 1.684 1.684 0 00-.727.449c-.182.197-.273.466-.273.807 0 .466.172.818.517 1.057.348.235.79.352 1.324.352zm9.605 4.455c-.647 0-1.204-.084-1.67-.25a3.55 3.55 0 01-1.165-.648 3.54 3.54 0 01-.733-.852l1.068-.75c.122.159.275.34.461.545.185.208.439.388.761.54.326.155.752.233 1.278.233.705 0 1.286-.171 1.745-.512.458-.341.687-.875.687-1.602v-1.773h-.113a7.374 7.374 0 01-.421.591c-.178.231-.436.438-.773.62-.333.178-.784.267-1.352.267a3.648 3.648 0 01-1.898-.5c-.556-.334-.998-.819-1.323-1.455-.322-.636-.483-1.409-.483-2.318 0-.894.157-1.672.471-2.335.315-.667.752-1.182 1.313-1.546.56-.367 1.208-.551 1.943-.551.568 0 1.019.095 1.352.284.337.186.595.398.773.637.182.234.322.428.42.579h.137v-1.386h1.295v8.977c0 .75-.17 1.36-.511 1.83a2.91 2.91 0 01-1.364 1.039 5.135 5.135 0 01-1.898.336zm-.045-4.796c.538 0 .992-.123 1.364-.369.371-.246.653-.601.846-1.063.193-.462.29-1.015.29-1.659 0-.629-.095-1.184-.284-1.665-.19-.481-.47-.858-.841-1.13-.371-.273-.83-.409-1.375-.409-.568 0-1.042.144-1.421.431a2.628 2.628 0 00-.846 1.16 4.465 4.465 0 00-.279 1.613c0 .606.095 1.142.285 1.608.193.462.477.826.852 1.091.379.261.848.392 1.409.392zm9.772 1.523c-.841 0-1.567-.186-2.176-.557a3.744 3.744 0 01-1.404-1.568c-.326-.674-.488-1.459-.488-2.352 0-.894.162-1.682.488-2.364.33-.686.788-1.22 1.375-1.602.591-.387 1.28-.58 2.068-.58.455 0 .904.076 1.347.227.443.152.847.398 1.21.739.364.337.654.784.87 1.341.215.557.323 1.242.323 2.057v.568h-6.727v-1.159h5.364c0-.493-.099-.932-.296-1.318a2.217 2.217 0 00-.829-.915c-.356-.224-.777-.335-1.262-.335-.534 0-.996.132-1.386.397a2.625 2.625 0 00-.892 1.023 3.01 3.01 0 00-.313 1.352v.773c0 .659.114 1.218.341 1.676.231.455.552.801.961 1.04.409.235.884.352 1.426.352.352 0 .67-.049.954-.147.288-.103.536-.254.745-.455.208-.205.369-.458.483-.761l1.295.363c-.136.44-.366.826-.687 1.159a3.35 3.35 0 01-1.194.773 4.416 4.416 0 01-1.596.273zm5.493-.182v-8.727h1.296v1.363h.113c.182-.466.476-.827.881-1.085.405-.261.892-.392 1.46-.392.576 0 1.055.131 1.438.392.386.258.687.619.903 1.085h.091a2.55 2.55 0 011.006-1.074c.447-.268.983-.403 1.608-.403.78 0 1.418.244 1.914.733.497.485.745 1.241.745 2.267V294h-1.341v-5.841c0-.644-.176-1.104-.529-1.381a1.957 1.957 0 00-1.244-.414c-.614 0-1.089.185-1.426.556-.337.368-.506.834-.506 1.398V294h-1.363v-5.977c0-.496-.161-.896-.483-1.199-.322-.307-.737-.46-1.245-.46-.348 0-.674.092-.977.278a2.1 2.1 0 00-.727.773 2.277 2.277 0 00-.273 1.13V294h-1.341zm17.405.182c-.84 0-1.566-.186-2.176-.557a3.736 3.736 0 01-1.403-1.568c-.326-.674-.489-1.459-.489-2.352 0-.894.163-1.682.489-2.364.329-.686.788-1.22 1.375-1.602.591-.387 1.28-.58 2.068-.58.455 0 .904.076 1.347.227.443.152.846.398 1.21.739.364.337.653.784.869 1.341.216.557.324 1.242.324 2.057v.568h-6.727v-1.159h5.363c0-.493-.098-.932-.295-1.318a2.219 2.219 0 00-.83-.915c-.356-.224-.776-.335-1.261-.335-.534 0-.996.132-1.386.397a2.617 2.617 0 00-.892 1.023 2.997 2.997 0 00-.313 1.352v.773c0 .659.114 1.218.341 1.676.231.455.551.801.96 1.04.409.235.885.352 1.426.352.353 0 .671-.049.955-.147.288-.103.536-.254.744-.455.209-.205.37-.458.483-.761l1.296.363c-.137.44-.366.826-.688 1.159-.322.33-.719.587-1.193.773a4.421 4.421 0 01-1.597.273zm6.835-5.432V294h-1.341v-8.727h1.295v1.363h.114c.205-.443.515-.799.932-1.068.416-.273.954-.409 1.613-.409.591 0 1.108.121 1.552.364.443.238.787.602 1.034 1.091.246.484.369 1.098.369 1.841V294h-1.341v-5.455c0-.685-.178-1.219-.534-1.602-.356-.386-.845-.579-1.466-.579-.428 0-.811.092-1.148.278a1.99 1.99 0 00-.789.813c-.194.356-.29.787-.29 1.295zm11.654-3.477v1.136H320.1v-1.136h4.523zm-3.205-2.091h1.341v8.318c0 .379.055.663.165.852a.849.849 0 00.432.375c.178.061.365.091.562.091.148 0 .269-.007.364-.023l.227-.045.273 1.205a2.74 2.74 0 01-.381.102 2.792 2.792 0 01-.619.057 2.7 2.7 0 01-1.114-.245 2.217 2.217 0 01-.898-.744c-.234-.333-.352-.754-.352-1.261v-8.682zm11.087 4.045l-1.204.341a2.253 2.253 0 00-.335-.585 1.63 1.63 0 00-.591-.477c-.25-.125-.57-.188-.961-.188-.534 0-.979.123-1.335.37-.352.242-.528.551-.528.926 0 .333.121.596.363.789.243.194.622.355 1.137.483l1.295.319c.781.189 1.362.479 1.745.869.382.386.573.884.573 1.494 0 .5-.144.947-.431 1.341-.284.394-.682.705-1.194.932-.511.227-1.106.341-1.784.341-.89 0-1.627-.193-2.21-.58-.583-.386-.953-.95-1.108-1.693l1.273-.318c.121.47.35.822.687 1.057.341.235.786.352 1.336.352.625 0 1.121-.133 1.488-.398.371-.269.557-.591.557-.966 0-.303-.106-.556-.318-.761-.212-.208-.538-.364-.977-.466l-1.455-.341c-.799-.189-1.386-.483-1.761-.88-.372-.402-.557-.904-.557-1.506 0-.493.138-.928.415-1.307a2.82 2.82 0 011.142-.892c.485-.216 1.034-.324 1.647-.324.864 0 1.542.189 2.035.568.496.379.848.879 1.056 1.5z" fill="#2C2C2C"/><path d="M82 179l63-44.5 58.5 44.5 47-111.5 47.5 67 60 44.5 58-44.5" stroke="#FA0060" stroke-width="2" stroke-linecap="round"/><ellipse cx="82" cy="178.995" rx="3" ry="2.995" fill="#FA0060"/><ellipse cx="203" cy="178.995" rx="3" ry="2.995" fill="#FA0060"/><ellipse cx="251" cy="66.995" rx="3" ry="2.995" fill="#FA0060"/><ellipse cx="416" cy="134.995" rx="3" ry="2.995" fill="#FA0060"/><ellipse cx="358" cy="178.995" rx="3" ry="2.995" fill="#FA0060"/><ellipse cx="298" cy="133.995" rx="3" ry="2.995" fill="#FA0060"/><ellipse cx="145" cy="133.995" rx="3" ry="2.995" fill="#FA0060"/></svg>