<svg width="435" height="297" viewBox="0 0 435 297" fill="none" xmlns="http://www.w3.org/2000/svg"><path d="M71.976 231.829l7.2 7.2-.872.871-6.286-6.285-.042.042-.59 2.925-.886-.886.604-2.995.872-.872zm9.27 5.129l-.632-.633-.225-4.978a23.38 23.38 0 00-.106-1.483 4.163 4.163 0 00-.239-1.041 2.192 2.192 0 00-.499-.766 1.66 1.66 0 00-.84-.475 1.681 1.681 0 00-.921.064 2.24 2.24 0 00-.855.552c-.276.276-.46.575-.551.896a1.677 1.677 0 000 .949c.093.314.277.608.552.883l-.83.829c-.422-.422-.695-.889-.82-1.403a2.865 2.865 0 01.05-1.539 3.4 3.4 0 01.868-1.403c.422-.422.885-.707 1.389-.854a2.84 2.84 0 011.487-.046c.487.117.916.361 1.287.731.264.265.475.572.632.921.157.345.273.789.348 1.333.075.539.128 1.236.159 2.091l.112 3.347.056.056 3.347-3.346.773.773-4.541 4.542zm4.462-18.86l.871-.872 5.147 5.146c.46.46.765.934.918 1.424.152.49.158.972.017 1.445-.14.473-.42.919-.837 1.336-.393.394-.815.673-1.265.837a2.46 2.46 0 01-1.343.105c-.443-.091-.848-.321-1.216-.689l.857-.858c.204.204.433.332.686.383.253.047.51.024.773-.07s.508-.254.735-.481c.25-.251.411-.517.482-.798.07-.282.049-.57-.064-.865-.112-.3-.317-.599-.615-.897l-5.146-5.146zm10.901-.918l-3.192-3.192.83-.83 5.4 5.4-.83.83-.914-.914-.057.056c.148.401.184.831.11 1.29-.078.457-.32.89-.728 1.297a2.55 2.55 0 01-1.122.679 2.196 2.196 0 01-1.293-.056c-.453-.153-.909-.459-1.368-.918l-3.431-3.431.83-.83 3.375 3.375c.393.394.817.598 1.272.612.457.012.858-.155 1.202-.499.207-.207.364-.469.471-.788.11-.321.13-.663.057-1.026-.07-.366-.275-.717-.612-1.055zm2.138-4.219l3.249 3.248-.83.83-5.4-5.4.802-.802.843.844.07-.07a2.182 2.182 0 01-.084-1.238c.09-.426.338-.843.746-1.251.365-.366.76-.611 1.184-.735.422-.126.86-.115 1.315.035.452.148.908.451 1.368.911l3.431 3.431-.83.829-3.375-3.374c-.424-.425-.865-.645-1.322-.661-.459-.019-.88.164-1.265.548a2.047 2.047 0 00-.538.883c-.091.321-.087.651.014.991.1.34.308.667.622.981zm29.655 19.575l7.2 7.2-.872.872-6.286-6.286-.042.042-.591 2.925-.885-.886.604-2.995.872-.872zm4.264-4.461a3.642 3.642 0 011.055-.717 3.05 3.05 0 011.357-.26c.497.009 1.038.159 1.624.45.586.29 1.209.766 1.87 1.427.64.64 1.147 1.269 1.522 1.888.375.614.619 1.205.732 1.772a3.267 3.267 0 01-.05 1.596c-.145.497-.42.948-.826 1.353-.403.403-.842.683-1.318.84a2.98 2.98 0 01-1.445.102 3.312 3.312 0 01-1.385-.618l.858-.858a2.25 2.25 0 001.279.358c.446-.018.858-.218 1.238-.597.555-.556.751-1.237.587-2.043-.162-.808-.686-1.655-1.571-2.541l-.057.056c.066.328.08.654.042.977a2.898 2.898 0 01-.27.932c-.143.297-.339.57-.587.819a3.094 3.094 0 01-1.442.829 3.281 3.281 0 01-1.669-.024c-.565-.157-1.08-.468-1.544-.932a3.555 3.555 0 01-.914-1.504 3.235 3.235 0 01-.042-1.716c.143-.579.462-1.108.956-1.589zm.774.774a2.082 2.082 0 00-.577 1.019c-.089.38-.078.763.032 1.15.11.382.315.723.615 1.023.3.3.639.507 1.016.622.377.11.753.123 1.128.038a2.09 2.09 0 001.006-.576c.222-.223.387-.473.492-.752.103-.282.15-.57.141-.865-.01-.3-.071-.588-.183-.865a2.283 2.283 0 00-1.487-1.325 2.276 2.276 0 00-1.153-.042c-.387.082-.73.273-1.03.573zm8.877-10.228l.872-.872 5.146 5.147c.46.459.766.934.918 1.424.152.49.158.971.018 1.445-.141.473-.42.918-.837 1.336-.394.393-.816.672-1.266.836-.452.162-.9.197-1.343.106-.442-.092-.848-.321-1.216-.689l.858-.858c.204.204.432.331.685.383.254.047.511.023.774-.07.262-.094.507-.255.735-.482.25-.251.411-.517.481-.798s.049-.569-.063-.865c-.113-.3-.318-.598-.615-.896l-5.147-5.147zm10.901-.917l-3.192-3.192.83-.83 5.4 5.4-.83.829-.914-.914-.056.057c.148.4.184.83.109 1.29-.077.457-.32.889-.728 1.297a2.543 2.543 0 01-1.121.678 2.189 2.189 0 01-1.294-.056c-.452-.152-.908-.458-1.367-.917l-3.432-3.431.83-.83 3.375 3.375c.394.394.818.597 1.273.612.457.011.857-.155 1.202-.5.206-.206.363-.468.471-.787.11-.321.129-.663.056-1.027-.07-.365-.274-.717-.612-1.054zm2.139-4.22l3.248 3.249-.83.829-5.399-5.4.801-.801.844.844.07-.071a2.18 2.18 0 01-.084-1.237c.089-.427.337-.844.745-1.252.366-.365.761-.61 1.185-.734a2.14 2.14 0 011.315.035c.452.148.908.451 1.367.91l3.431 3.431-.83.83-3.374-3.375c-.425-.424-.865-.644-1.322-.661-.46-.018-.881.164-1.266.549a2.05 2.05 0 00-.538.882c-.091.321-.086.652.014.991.101.34.309.667.623.981zm34.846 30.197l-.632-.633-.225-4.978a23.109 23.109 0 00-.106-1.483 4.145 4.145 0 00-.239-1.041 2.189 2.189 0 00-.499-.766 1.658 1.658 0 00-.84-.475 1.68 1.68 0 00-.921.064 2.24 2.24 0 00-.855.552c-.276.276-.46.575-.552.896a1.684 1.684 0 000 .949c.094.314.278.608.552.883l-.829.829c-.422-.422-.695-.889-.819-1.402a2.86 2.86 0 01.049-1.54 3.39 3.39 0 01.868-1.403c.422-.422.885-.706 1.389-.854a2.84 2.84 0 011.487-.046c.487.117.916.361 1.286.731.265.265.476.572.633.921.157.345.273.789.348 1.333.075.539.128 1.236.158 2.091l.113 3.347.056.056 3.347-3.346.773.773-4.542 4.542zm8.483-8.286c-.3.291-.651.53-1.055.717a2.988 2.988 0 01-1.353.264c-.501-.014-1.045-.166-1.631-.457-.588-.293-1.215-.772-1.881-1.438-.637-.637-1.142-1.262-1.515-1.874-.375-.614-.618-1.203-.728-1.768a3.327 3.327 0 01.049-1.596c.148-.499.425-.951.83-1.357.403-.403.843-.681 1.318-.833a2.901 2.901 0 011.442-.105c.485.086.943.287 1.374.601l-.857.857a2.263 2.263 0 00-1.27-.341c-.442.017-.854.215-1.233.595-.558.557-.755 1.239-.591 2.046.166.803.687 1.645 1.561 2.524l.056-.057a2.985 2.985 0 01.816-2.728 3.044 3.044 0 011.441-.822 3.242 3.242 0 011.67.024c.565.153 1.079.461 1.543.925.445.445.754.953.925 1.522.168.567.181 1.14.038 1.719-.143.574-.459 1.102-.949 1.582zm-.773-.773c.295-.296.486-.634.573-1.016a2.245 2.245 0 00-.035-1.153 2.372 2.372 0 00-.623-1.037 2.342 2.342 0 00-1.012-.612 2.157 2.157 0 00-1.132-.042c-.375.084-.71.274-1.005.569a2.068 2.068 0 00-.489.756 2.262 2.262 0 00-.148.865c.01.295.072.582.187.861a2.36 2.36 0 001.494 1.34c.384.112.769.127 1.156.045a2.056 2.056 0 001.034-.576zm2.929-15.979l.872-.872 5.146 5.147c.46.459.766.934.918 1.424.152.49.158.971.018 1.445-.141.473-.42.918-.837 1.335-.394.394-.816.673-1.266.837-.452.162-.9.197-1.343.106-.443-.092-.848-.321-1.216-.689l.858-.858c.204.204.432.331.685.383.253.047.511.023.774-.07.262-.094.507-.255.734-.482.251-.251.412-.517.482-.798s.049-.569-.063-.865c-.113-.3-.318-.599-.615-.896l-5.147-5.147zm10.901-.917l-3.192-3.192.83-.83 5.4 5.4-.83.829-.914-.914-.056.057c.147.4.184.83.109 1.29-.078.457-.32.889-.728 1.297a2.543 2.543 0 01-1.121.678 2.189 2.189 0 01-1.294-.056c-.452-.152-.908-.458-1.368-.917l-3.431-3.431.83-.83 3.375 3.375c.394.394.818.597 1.272.611.457.012.858-.154 1.203-.499.206-.206.363-.468.471-.787.11-.321.129-.663.056-1.027-.07-.365-.274-.717-.612-1.054zm2.139-4.22l3.248 3.249-.83.829-5.399-5.4.801-.801.844.844.07-.071a2.17 2.17 0 01-.084-1.237c.089-.427.337-.844.745-1.252.366-.365.76-.61 1.185-.734.422-.127.86-.115 1.314.035.453.147.909.451 1.368.91l3.431 3.431-.83.83-3.374-3.375c-.425-.424-.865-.644-1.322-.661-.46-.018-.881.164-1.266.549a2.05 2.05 0 00-.538.882c-.091.321-.086.652.014.991.101.34.309.667.623.981zm37.401 17.941c-.464.464-.957.798-1.48 1.002a3.003 3.003 0 01-1.525.197 2.53 2.53 0 01-1.34-.65l.886-.886c.251.213.531.334.84.362.307.026.62-.029.939-.165.319-.136.616-.342.893-.619a2.8 2.8 0 00.661-.984c.131-.347.168-.685.112-1.013a1.597 1.597 0 00-.464-.872 1.773 1.773 0 00-.896-.502 1.844 1.844 0 00-1.055.098c-.368.138-.735.39-1.1.756l-.577.577-.773-.774.576-.576a2.44 2.44 0 00.598-.907c.115-.321.139-.637.074-.946a1.65 1.65 0 00-.475-.847 1.716 1.716 0 00-.798-.475 1.571 1.571 0 00-.879.035 2.096 2.096 0 00-.84.538 2.59 2.59 0 00-.566.84 1.85 1.85 0 00-.144.925c.031.307.159.586.387.837l-.844.843a2.421 2.421 0 01-.65-1.332 3.035 3.035 0 01.168-1.505 3.83 3.83 0 01.904-1.381c.445-.446.917-.737 1.417-.876.497-.14.977-.15 1.441-.028.464.122.866.353 1.206.693.405.405.644.858.717 1.357.075.497-.014.982-.267 1.455l.056.056c.53-.379 1.078-.541 1.645-.485.565.054 1.076.31 1.533.767.391.391.636.849.735 1.374a3.071 3.071 0 01-.134 1.596c-.187.544-.514 1.049-.981 1.515zm2.24-16.835l.871-.872 5.147 5.147c.459.459.765.934.918 1.423.152.49.158.972.017 1.445-.14.474-.419.919-.836 1.336-.394.394-.816.673-1.266.837-.452.162-.9.197-1.343.105-.443-.091-.848-.321-1.216-.689l.857-.857c.204.203.433.331.686.383.253.047.511.023.773-.071.263-.093.508-.254.735-.481.251-.251.411-.517.482-.798.07-.281.049-.57-.064-.865-.112-.3-.317-.599-.615-.896l-5.146-5.147zm10.901-.918l-3.192-3.192.83-.829 5.399 5.399-.829.83-.914-.914-.057.056c.148.401.184.831.109 1.291-.077.457-.319.889-.727 1.297a2.561 2.561 0 01-1.122.678c-.412.113-.843.094-1.293-.056-.453-.152-.909-.458-1.368-.918l-3.431-3.431.83-.829 3.375 3.375c.393.393.817.597 1.272.611.457.012.858-.154 1.202-.499a1.98 1.98 0 00.471-.787 1.94 1.94 0 00.057-1.027c-.071-.366-.274-.717-.612-1.055zm-1.813-8.17l7.2 7.199-.83.83-7.2-7.2.83-.829zm30.121 23.477l7.2 7.199-.872.872-6.286-6.286-.042.043-.59 2.924-.886-.885.604-2.996.872-.871zm11.717 2.879c-.53.529-1.125.836-1.786.921-.663.082-1.368-.054-2.116-.408-.75-.356-1.516-.926-2.299-1.708-.778-.779-1.344-1.541-1.698-2.289-.354-.752-.49-1.46-.408-2.123.082-.668.386-1.265.911-1.79.525-.525 1.12-.827 1.785-.907.666-.084 1.374.052 2.124.408.75.352 1.514.916 2.292 1.695.783.782 1.352 1.549 1.708 2.299.354.747.49 1.453.408 2.116-.084.661-.391 1.256-.921 1.786zm-.773-.774c.525-.525.679-1.186.464-1.982-.216-.797-.792-1.664-1.73-2.602-.623-.623-1.221-1.087-1.793-1.392-.569-.307-1.093-.451-1.571-.432a1.776 1.776 0 00-1.234.545c-.52.52-.67 1.183-.45 1.989.218.804.794 1.674 1.73 2.609.623.623 1.218 1.087 1.785 1.392.568.305 1.088.448 1.561.429a1.811 1.811 0 001.238-.556zm2.981-16.03l.872-.872 5.146 5.147c.46.459.765.934.918 1.423.152.49.158.972.017 1.445-.14.474-.419.919-.836 1.336-.394.394-.816.673-1.266.837-.452.162-.9.197-1.343.105-.443-.091-.848-.321-1.216-.689l.858-.857c.204.203.432.331.685.383.253.047.511.023.774-.071.262-.093.507-.254.734-.481.251-.251.412-.517.482-.798s.049-.57-.063-.865c-.113-.3-.318-.599-.616-.896l-5.146-5.147zm10.901-.918l-3.192-3.192.83-.829 5.4 5.399-.83.83-.914-.914-.056.056c.147.401.184.831.109 1.291-.078.457-.32.889-.728 1.297a2.556 2.556 0 01-1.122.678c-.412.113-.843.094-1.293-.056-.453-.152-.908-.458-1.368-.918l-3.431-3.431.83-.829 3.375 3.375c.393.393.818.597 1.272.611.457.012.858-.154 1.203-.499.206-.206.363-.469.471-.787a1.94 1.94 0 00.056-1.027c-.07-.366-.274-.717-.612-1.055zm-1.813-8.17l7.2 7.199-.83.83-7.2-7.2.83-.829zm30.585 22.306l7.199 7.199-.871.872-6.286-6.286-.042.043-.591 2.924-.886-.885.605-2.996.872-.871zm9.495 4.904l-3.15-9.591-.056-.056-3.712 3.713-.774-.774 4.612-4.612.816.815 3.178 9.591-.914.914zm3.898-18.297l.872-.872 5.146 5.146c.46.46.765.934.918 1.424.152.49.158.972.017 1.445-.14.473-.419.919-.836 1.336-.394.394-.816.672-1.266.837a2.46 2.46 0 01-1.343.105c-.443-.091-.848-.321-1.216-.689l.858-.858c.203.204.432.332.685.383.253.047.511.024.773-.07.263-.094.508-.254.735-.482.251-.25.412-.516.482-.798.07-.281.049-.569-.063-.864-.113-.3-.318-.599-.616-.897l-5.146-5.146zm10.901-.918l-3.192-3.192.83-.83 5.399 5.4-.829.83-.914-.914-.056.056c.147.401.184.831.109 1.29-.078.457-.32.89-.728 1.297a2.549 2.549 0 01-1.122.679 2.194 2.194 0 01-1.293-.056c-.453-.153-.908-.459-1.368-.918l-3.431-3.431.83-.83 3.375 3.375c.393.394.818.598 1.272.612.457.012.858-.155 1.203-.499.206-.207.363-.469.471-.788.11-.321.128-.663.056-1.026-.07-.366-.274-.717-.612-1.055zm-1.813-8.171l7.2 7.2-.83.83-7.2-7.2.83-.83zm35.08 34.334l-.633-.633-.225-4.978a23.893 23.893 0 00-.105-1.483 4.19 4.19 0 00-.239-1.041 2.182 2.182 0 00-.5-.766 1.644 1.644 0 00-1.761-.412 2.261 2.261 0 00-.854.552 2.068 2.068 0 00-.552.897 1.684 1.684 0 000 .949c.094.314.278.608.552.882l-.83.83c-.422-.422-.695-.89-.819-1.403a2.87 2.87 0 01.049-1.54c.16-.515.449-.983.869-1.402.422-.422.884-.707 1.388-.855a2.85 2.85 0 011.487-.045c.488.117.917.361 1.287.731.265.265.476.572.633.921.157.345.273.789.348 1.332.075.539.128 1.237.158 2.092l.112 3.347.057.056 3.346-3.347.774.774-4.542 4.542zm4.194-7.147l-.717-.717-1.842-8.17.52-.521 1.111 1.111-.352.352 1.392 6.173.057.056 4.26-4.26.774.773-5.203 5.203zm4.865-1.913l-1.694-1.694-.334-.334-5.171-5.171.829-.83 7.2 7.2-.83.829zm1.599-15.998l.872-.871 5.146 5.146c.46.46.765.934.918 1.424.152.49.158.971.017 1.445-.14.473-.419.919-.836 1.336-.394.393-.816.672-1.266.836-.452.162-.9.197-1.343.106-.443-.092-.848-.321-1.216-.689l.858-.858c.204.204.432.332.685.383.253.047.511.024.774-.07a1.98 1.98 0 00.734-.482c.251-.25.412-.516.482-.798.07-.281.049-.569-.063-.864-.113-.3-.318-.599-.616-.897l-5.146-5.147zm10.901-.917l-3.192-3.192.83-.83 5.4 5.4-.83.83-.914-.914-.056.056c.147.401.184.831.109 1.29-.078.457-.32.889-.728 1.297a2.551 2.551 0 01-1.121.679 2.197 2.197 0 01-1.294-.057c-.453-.152-.908-.458-1.368-.917l-3.431-3.431.83-.83 3.375 3.375c.393.394.818.598 1.272.612.457.011.858-.155 1.203-.499.206-.207.363-.469.471-.788.11-.321.129-.663.056-1.026-.07-.366-.274-.718-.612-1.055zM423.637 206l7.2 7.2-.83.829-7.2-7.199.83-.83zM16.648 70.14a3.496 3.496 0 01-1.576-.349 2.928 2.928 0 01-1.124-.954 2.6 2.6 0 01-.462-1.383h1.193c.047.461.255.842.627 1.144.374.298.822.448 1.342.448.418 0 .789-.098 1.114-.294a2.07 2.07 0 00.77-.805 2.39 2.39 0 00.284-1.169c0-.444-.098-.84-.294-1.188a2.153 2.153 0 00-.795-.83 2.248 2.248 0 00-1.159-.308 3.181 3.181 0 00-.96.144c-.327.096-.597.22-.81.373l-1.153-.14.617-5.01h5.29v1.093h-4.256l-.358 3.003h.06c.208-.166.47-.303.785-.413a2.98 2.98 0 01.984-.164 3.14 3.14 0 012.819 1.661c.282.513.423 1.1.423 1.76 0 .65-.146 1.23-.438 1.74a3.199 3.199 0 01-1.193 1.203c-.507.291-1.084.437-1.73.437zM26.1 70V59.818h1.233v5.051h.12l4.573-5.05h1.611l-4.276 4.593L33.638 70h-1.491l-3.54-4.733-1.273 1.432V70H26.1zM3.886 14L8.44 4.991v-.08H3.19V3.819h6.523v1.154L5.178 14H3.886zm6.805.08a.861.861 0 01-.632-.264.862.862 0 01-.263-.631c0-.246.088-.456.263-.632a.861.861 0 01.632-.263c.245 0 .455.088.631.263a.861.861 0 01.264.632.928.928 0 01-.447.776.852.852 0 01-.448.118zm5.957.06a3.496 3.496 0 01-1.576-.349 2.928 2.928 0 01-1.124-.954 2.6 2.6 0 01-.462-1.383h1.193c.047.461.255.842.627 1.144.374.298.822.447 1.342.447.418 0 .789-.097 1.114-.293a2.07 2.07 0 00.77-.805 2.39 2.39 0 00.284-1.169c0-.444-.098-.84-.294-1.188a2.152 2.152 0 00-.795-.83 2.247 2.247 0 00-1.159-.308 3.183 3.183 0 00-.96.144c-.327.096-.597.22-.81.373l-1.153-.14.617-5.01h5.29v1.093h-4.256l-.358 3.003h.06c.208-.166.47-.303.785-.413.315-.11.643-.164.984-.164a3.132 3.132 0 012.819 1.661c.282.513.423 1.1.423 1.76 0 .65-.146 1.23-.438 1.74a3.199 3.199 0 01-1.193 1.203c-.507.291-1.084.437-1.73.437zM26.1 14V3.818h1.233V8.87h.12l4.573-5.05h1.611l-4.276 4.593L33.638 14h-1.491l-3.54-4.733-1.273 1.432V14H26.1zM1.34 126v-.895l3.36-3.679c.394-.431.72-.805.974-1.123a4.19 4.19 0 00.567-.905c.126-.285.189-.584.189-.895 0-.358-.086-.668-.258-.93a1.671 1.671 0 00-.696-.606 2.25 2.25 0 00-.995-.214c-.39 0-.732.081-1.024.243a1.68 1.68 0 00-.671.672 2.1 2.1 0 00-.234 1.014H1.38c0-.597.137-1.12.413-1.571a2.87 2.87 0 011.123-1.054 3.386 3.386 0 011.606-.378c.597 0 1.125.126 1.586.378.46.252.822.591 1.084 1.019.262.428.392.903.392 1.427 0 .374-.067.741-.203 1.099-.133.354-.365.75-.696 1.188-.329.434-.784.964-1.368 1.591l-2.287 2.446v.079h4.733V126H1.34zm9.35.08a.86.86 0 01-.63-.264.861.861 0 01-.264-.631c0-.246.088-.456.263-.632a.863.863 0 01.632-.263c.245 0 .455.088.631.263a.862.862 0 01.264.632.929.929 0 01-.447.775.849.849 0 01-.448.12zm5.958.059a3.496 3.496 0 01-1.576-.348 2.93 2.93 0 01-1.124-.954 2.602 2.602 0 01-.462-1.382h1.193c.047.46.255.841.627 1.143.374.298.822.447 1.342.447.418 0 .789-.097 1.114-.293a2.07 2.07 0 00.77-.805 2.39 2.39 0 00.284-1.169c0-.444-.098-.84-.294-1.188a2.153 2.153 0 00-.795-.83 2.246 2.246 0 00-1.159-.308 3.143 3.143 0 00-.96.144c-.327.096-.597.22-.81.373l-1.153-.139.617-5.012h5.29v1.094h-4.256l-.358 3.003h.06c.208-.166.47-.303.785-.413.315-.109.643-.164.984-.164.623 0 1.178.149 1.666.448.49.294.875.699 1.153 1.213.282.513.423 1.1.423 1.76 0 .649-.146 1.229-.438 1.74a3.2 3.2 0 01-1.193 1.203c-.507.291-1.084.437-1.73.437zM26.1 126v-10.182h1.233v5.051h.12l4.573-5.051h1.611l-4.276 4.594L33.638 126h-1.491l-3.54-4.733-1.273 1.432V126H26.1zm3.525 56.139c-.75 0-1.387-.204-1.914-.611-.527-.411-.93-1.006-1.208-1.785-.279-.782-.418-1.727-.418-2.834 0-1.1.14-2.04.418-2.819.282-.782.686-1.379 1.213-1.79.53-.414 1.167-.621 1.909-.621s1.377.207 1.904.621c.53.411.935 1.008 1.213 1.79.282.779.423 1.719.423 2.819 0 1.107-.14 2.052-.418 2.834-.278.779-.68 1.374-1.208 1.785-.527.407-1.165.611-1.914.611zm0-1.094c.742 0 1.32-.358 1.73-1.073.411-.716.617-1.737.617-3.063 0-.882-.095-1.632-.284-2.252-.185-.62-.454-1.092-.805-1.417a1.777 1.777 0 00-1.258-.487c-.736 0-1.31.363-1.725 1.089-.414.722-.622 1.745-.622 3.067 0 .882.093 1.631.279 2.247.185.617.452 1.086.8 1.407a1.81 1.81 0 001.268.482z" fill="#7B91B0"/><path d="M78 179l63-44.5 58.5 44.5 47-111.5 47.5 67 60 44.5 58-44.5" stroke="#5A3795" stroke-width="2" stroke-linecap="round"/><ellipse cx="78" cy="178.995" rx="3" ry="2.995" fill="#5A3795"/><ellipse cx="199" cy="178.995" rx="3" ry="2.995" fill="#5A3795"/><ellipse cx="247" cy="66.995" rx="3" ry="2.995" fill="#5A3795"/><ellipse cx="412" cy="134.995" rx="3" ry="2.995" fill="#5A3795"/><ellipse cx="354" cy="178.995" rx="3" ry="2.995" fill="#5A3795"/><ellipse cx="294" cy="133.995" rx="3" ry="2.995" fill="#5A3795"/><ellipse cx="141" cy="133.995" rx="3" ry="2.995" fill="#5A3795"/><circle cx="143.65" cy="287.65" fill="#5A3795" r="6.65"/><path d="M164.227 296.273v-12h1.296v1.386h.159c.098-.151.235-.345.409-.579.178-.239.432-.451.761-.637.334-.189.784-.284 1.353-.284.734 0 1.382.184 1.943.551.56.368.998.888 1.312 1.563.315.674.472 1.469.472 2.386 0 .924-.157 1.725-.472 2.403-.314.675-.75 1.197-1.307 1.569-.556.367-1.198.551-1.926.551-.56 0-1.009-.093-1.346-.279-.337-.189-.597-.403-.779-.642a8.279 8.279 0 01-.42-.602h-.114v4.614h-1.341zm1.318-7.637c0 .659.097 1.241.29 1.745.193.5.476.892.847 1.176.371.28.826.42 1.363.42.561 0 1.029-.147 1.404-.443.379-.299.663-.701.852-1.204.193-.508.29-1.072.29-1.694 0-.613-.095-1.166-.284-1.659-.186-.496-.468-.888-.847-1.176-.375-.292-.846-.437-1.415-.437-.545 0-1.003.138-1.375.414-.371.273-.651.656-.84 1.148-.19.489-.285 1.059-.285 1.71zm10.84 4.569a3.55 3.55 0 01-1.505-.313 2.58 2.58 0 01-1.074-.915c-.265-.401-.398-.886-.398-1.454 0-.5.099-.906.296-1.216.197-.315.46-.561.789-.739a4.2 4.2 0 011.091-.398c.402-.09.805-.162 1.211-.215.53-.069.96-.12 1.289-.154.334-.038.576-.1.728-.187.155-.087.233-.239.233-.455v-.045c0-.561-.154-.997-.461-1.307-.303-.311-.763-.466-1.38-.466-.641 0-1.142.14-1.506.42-.364.281-.619.58-.767.898l-1.273-.454c.227-.531.53-.944.909-1.239.383-.299.8-.508 1.25-.625a5.205 5.205 0 011.341-.182c.28 0 .602.034.966.102.368.065.722.199 1.063.404.344.204.63.513.858.926.227.413.34.966.34 1.659V293h-1.34v-1.182h-.069c-.091.19-.242.392-.454.608-.212.216-.494.4-.847.551-.352.152-.782.228-1.29.228zm.205-1.205c.53 0 .977-.104 1.341-.312a2.133 2.133 0 001.114-1.847v-1.227c-.057.068-.182.13-.375.187-.19.053-.41.101-.66.142a27.7 27.7 0 01-.721.102c-.231.027-.419.05-.563.069a5.114 5.114 0 00-.977.221 1.684 1.684 0 00-.727.449c-.182.197-.273.466-.273.807 0 .466.172.818.517 1.057.349.235.79.352 1.324.352zm9.606 4.455c-.648 0-1.205-.084-1.671-.25a3.55 3.55 0 01-1.165-.648 3.563 3.563 0 01-.733-.852l1.069-.75c.121.159.274.34.46.545.185.208.439.388.761.54.326.155.752.233 1.279.233.704 0 1.286-.171 1.744-.512.458-.341.687-.875.687-1.602v-1.773h-.113a7.374 7.374 0 01-.421.591c-.178.231-.435.438-.772.62-.334.178-.784.267-1.353.267-.704 0-1.337-.167-1.897-.5-.557-.334-.998-.819-1.324-1.455-.322-.636-.483-1.409-.483-2.318 0-.894.157-1.672.471-2.335.315-.667.752-1.182 1.313-1.546.561-.367 1.208-.551 1.943-.551.568 0 1.019.095 1.352.284.337.186.595.398.773.637.182.234.322.428.421.579h.136v-1.386h1.295v8.977c0 .75-.17 1.36-.511 1.83a2.91 2.91 0 01-1.364 1.039 5.13 5.13 0 01-1.897.336zm-.046-4.796c.538 0 .993-.123 1.364-.369.371-.246.653-.601.846-1.063.194-.462.29-1.015.29-1.659 0-.629-.095-1.184-.284-1.665-.189-.481-.47-.858-.841-1.13-.371-.273-.829-.409-1.375-.409-.568 0-1.041.144-1.42.431a2.637 2.637 0 00-.847 1.16 4.487 4.487 0 00-.278 1.613c0 .606.094 1.142.284 1.608.193.462.477.826.852 1.091.379.261.849.392 1.409.392zm9.772 1.523c-.841 0-1.566-.186-2.176-.557a3.744 3.744 0 01-1.404-1.568c-.325-.674-.488-1.459-.488-2.352 0-.894.163-1.682.488-2.364.33-.686.788-1.22 1.375-1.602.591-.387 1.281-.58 2.069-.58.454 0 .903.076 1.346.227.443.152.847.398 1.21.739.364.337.654.784.87 1.341.216.557.324 1.242.324 2.057v.568h-6.728v-1.159h5.364c0-.493-.098-.932-.295-1.318a2.226 2.226 0 00-.83-.915c-.356-.224-.777-.335-1.261-.335-.534 0-.997.132-1.387.397a2.633 2.633 0 00-.892 1.023 3.01 3.01 0 00-.312 1.352v.773c0 .659.113 1.218.341 1.676.231.455.551.801.96 1.04.409.235.884.352 1.426.352.352 0 .67-.049.955-.147.287-.103.536-.254.744-.455.208-.205.369-.458.483-.761l1.295.363a2.86 2.86 0 01-.687 1.159c-.322.33-.72.587-1.193.773a4.425 4.425 0 01-1.597.273zm11.424-11.818V293h-1.409v-11.636h1.409zM209.83 293v-8.727h1.295v1.363h.114c.182-.466.475-.827.881-1.085.405-.261.892-.392 1.46-.392.576 0 1.055.131 1.437.392.387.258.688.619.904 1.085h.091c.223-.45.558-.808 1.005-1.074.447-.268.983-.403 1.608-.403.781 0 1.419.244 1.915.733.496.485.744 1.241.744 2.267V293h-1.341v-5.841c0-.644-.176-1.104-.528-1.381a1.957 1.957 0 00-1.244-.414c-.614 0-1.089.185-1.426.556-.338.368-.506.834-.506 1.398V293h-1.364v-5.977c0-.496-.161-.896-.483-1.199-.322-.307-.736-.46-1.244-.46-.349 0-.674.092-.977.278-.3.186-.542.443-.728.773a2.288 2.288 0 00-.272 1.13V293h-1.341zm13.746 3.273v-12h1.295v1.386h.16c.098-.151.234-.345.409-.579.178-.239.431-.451.761-.637.333-.189.784-.284 1.352-.284.735 0 1.383.184 1.943.551.561.368.999.888 1.313 1.563.314.674.472 1.469.472 2.386 0 .924-.158 1.725-.472 2.403-.314.675-.75 1.197-1.307 1.569-.557.367-1.199.551-1.926.551-.561 0-1.009-.093-1.347-.279-.337-.189-.596-.403-.778-.642a8.279 8.279 0 01-.42-.602h-.114v4.614h-1.341zm1.318-7.637c0 .659.097 1.241.29 1.745.193.5.475.892.847 1.176.371.28.825.42 1.363.42.561 0 1.029-.147 1.404-.443.378-.299.662-.701.852-1.204.193-.508.29-1.072.29-1.694 0-.613-.095-1.166-.284-1.659-.186-.496-.468-.888-.847-1.176-.375-.292-.847-.437-1.415-.437-.545 0-1.004.138-1.375.414-.371.273-.651.656-.841 1.148-.189.489-.284 1.059-.284 1.71zm8.272 4.364v-8.727h1.295v1.318h.091c.159-.432.447-.782.864-1.051a2.542 2.542 0 011.409-.404c.099 0 .222.002.369.006.148.004.26.01.336.017v1.364a3.462 3.462 0 00-.313-.051 3.017 3.017 0 00-.506-.04c-.424 0-.803.089-1.136.267a2.019 2.019 0 00-.784.727 1.963 1.963 0 00-.284 1.051V293h-1.341zm9.187.182c-.841 0-1.567-.186-2.177-.557a3.742 3.742 0 01-1.403-1.568c-.326-.674-.489-1.459-.489-2.352 0-.894.163-1.682.489-2.364.33-.686.788-1.22 1.375-1.602.591-.387 1.28-.58 2.068-.58.455 0 .904.076 1.347.227.443.152.846.398 1.21.739.364.337.653.784.869 1.341.216.557.324 1.242.324 2.057v.568h-6.727v-1.159h5.364c0-.493-.099-.932-.296-1.318a2.223 2.223 0 00-.829-.915c-.356-.224-.777-.335-1.262-.335-.534 0-.996.132-1.386.397a2.625 2.625 0 00-.892 1.023 3.01 3.01 0 00-.313 1.352v.773c0 .659.114 1.218.341 1.676.231.455.551.801.96 1.04.41.235.885.352 1.427.352.352 0 .67-.049.954-.147.288-.103.536-.254.744-.455.209-.205.37-.458.483-.761l1.296.363c-.136.44-.366.826-.688 1.159-.322.33-.719.587-1.193.773a4.416 4.416 0 01-1.596.273zm11.675-6.955l-1.205.341a2.197 2.197 0 00-.335-.585 1.63 1.63 0 00-.591-.477c-.25-.125-.57-.188-.96-.188-.534 0-.979.123-1.335.37-.353.242-.529.551-.529.926 0 .333.122.596.364.789.242.194.621.355 1.136.483l1.296.319c.78.189 1.361.479 1.744.869.383.386.574.884.574 1.494 0 .5-.144.947-.432 1.341-.284.394-.682.705-1.193.932-.511.227-1.106.341-1.784.341-.89 0-1.627-.193-2.21-.58-.584-.386-.953-.95-1.108-1.693l1.272-.318c.122.47.351.822.688 1.057.341.235.786.352 1.335.352.625 0 1.121-.133 1.489-.398.371-.269.557-.591.557-.966 0-.303-.106-.556-.319-.761-.212-.208-.537-.364-.977-.466l-1.454-.341c-.8-.189-1.387-.483-1.762-.88-.371-.402-.557-.904-.557-1.506 0-.493.139-.928.415-1.307a2.82 2.82 0 011.142-.892c.485-.216 1.034-.324 1.648-.324.864 0 1.542.189 2.034.568.496.379.849.879 1.057 1.5zm8.199 0l-1.204.341a2.229 2.229 0 00-.336-.585 1.617 1.617 0 00-.59-.477c-.25-.125-.571-.188-.961-.188-.534 0-.979.123-1.335.37-.352.242-.528.551-.528.926 0 .333.121.596.363.789.243.194.622.355 1.137.483l1.295.319c.78.189 1.362.479 1.744.869.383.386.574.884.574 1.494 0 .5-.144.947-.432 1.341-.284.394-.681.705-1.193.932-.511.227-1.106.341-1.784.341-.89 0-1.627-.193-2.21-.58-.583-.386-.953-.95-1.108-1.693l1.273-.318c.121.47.35.822.687 1.057.341.235.786.352 1.335.352.625 0 1.122-.133 1.489-.398.371-.269.557-.591.557-.966 0-.303-.106-.556-.318-.761-.212-.208-.538-.364-.978-.466l-1.454-.341c-.799-.189-1.386-.483-1.761-.88-.372-.402-.557-.904-.557-1.506 0-.493.138-.928.415-1.307a2.82 2.82 0 011.142-.892c.484-.216 1.034-.324 1.647-.324.864 0 1.542.189 2.034.568.497.379.849.879 1.057 1.5zm2.018 6.773v-8.727h1.341V293h-1.341zm.682-10.182a.955.955 0 01-.677-.267.86.86 0 01-.278-.642.86.86 0 01.278-.642.955.955 0 01.677-.267c.261 0 .484.089.67.267a.851.851 0 01.284.642c0 .25-.095.464-.284.642a.934.934 0 01-.67.267zm6.5 10.364c-.788 0-1.479-.188-2.074-.563-.591-.375-1.053-.899-1.386-1.574-.33-.674-.494-1.462-.494-2.363 0-.909.164-1.703.494-2.381.333-.678.795-1.204 1.386-1.579.595-.375 1.286-.563 2.074-.563.788 0 1.477.188 2.068.563.595.375 1.057.901 1.387 1.579.333.678.5 1.472.5 2.381 0 .901-.167 1.689-.5 2.363-.33.675-.792 1.199-1.387 1.574-.591.375-1.28.563-2.068.563zm0-1.205c.599 0 1.091-.153 1.477-.46.387-.307.673-.71.858-1.21.186-.5.279-1.042.279-1.625 0-.584-.093-1.127-.279-1.631a2.732 2.732 0 00-.858-1.221c-.386-.311-.878-.466-1.477-.466-.598 0-1.091.155-1.477.466-.387.31-.673.717-.858 1.221a4.672 4.672 0 00-.279 1.631c0 .583.093 1.125.279 1.625.185.5.471.903.858 1.21.386.307.879.46 1.477.46zm7.182-4.227V293h-1.34v-8.727h1.295v1.363h.114c.204-.443.515-.799.931-1.068.417-.273.955-.409 1.614-.409.591 0 1.108.121 1.551.364.443.238.788.602 1.034 1.091.247.484.37 1.098.37 1.841V293h-1.341v-5.455c0-.685-.178-1.219-.534-1.602-.356-.386-.845-.579-1.466-.579-.428 0-.811.092-1.148.278a1.992 1.992 0 00-.79.813c-.193.356-.29.787-.29 1.295zm15.494 5.409c-.765 0-1.424-.14-1.977-.42a3.104 3.104 0 01-1.278-1.154c-.3-.488-.449-1.047-.449-1.676 0-.485.102-.915.307-1.29.208-.378.494-.729.858-1.051a12.58 12.58 0 011.267-.977l1.681-1.25c.33-.216.593-.447.79-.693.201-.246.301-.568.301-.966 0-.296-.13-.582-.392-.858-.257-.277-.596-.415-1.017-.415-.295 0-.557.076-.784.227a1.617 1.617 0 00-.528.569 1.443 1.443 0 00-.188.704c0 .273.074.549.222.83.151.276.343.56.574.852.235.288.477.583.727.886l5.341 6.523h-1.614l-4.409-5.318-1.113-1.341a6.337 6.337 0 01-.796-1.188 2.769 2.769 0 01-.295-1.267c0-.522.115-.981.346-1.375.235-.397.563-.706.983-.926.424-.223.921-.335 1.489-.335.583 0 1.085.114 1.505.341.421.223.745.521.972.892.227.367.341.767.341 1.199 0 .557-.138 1.04-.415 1.449-.276.409-.653.789-1.13 1.142L293.103 288c-.522.386-.877.761-1.062 1.125-.186.364-.279.625-.279.784 0 .364.095.703.285 1.017.189.315.456.568.801.762.344.193.748.289 1.21.289.439 0 .867-.093 1.284-.278.417-.19.794-.462 1.131-.818.341-.356.61-.784.806-1.284.201-.5.302-1.063.302-1.688h1.295c0 .773-.089 1.403-.267 1.892-.178.489-.379.871-.602 1.148a8.555 8.555 0 01-.54.619 2.647 2.647 0 00-.125.171 2.94 2.94 0 01-.125.17 3.434 3.434 0 01-1.42.943 4.999 4.999 0 01-1.694.307zm11.301-.159v-11.636h3.932c.909 0 1.655.155 2.239.466.583.306 1.015.729 1.295 1.267.28.537.42 1.149.42 1.835 0 .685-.14 1.293-.42 1.824-.28.53-.71.947-1.29 1.25-.579.299-1.32.449-2.221.449h-3.182v-1.273h3.136c.621 0 1.121-.091 1.5-.273.383-.182.659-.439.83-.773.174-.337.261-.738.261-1.204 0-.466-.087-.873-.261-1.222a1.79 1.79 0 00-.836-.807c-.382-.193-.888-.289-1.517-.289h-2.477V293h-1.409zm5.477-5.227l2.864 5.227h-1.636l-2.819-5.227h1.591zm7.981 5.409c-.841 0-1.566-.186-2.176-.557a3.744 3.744 0 01-1.404-1.568c-.325-.674-.488-1.459-.488-2.352 0-.894.163-1.682.488-2.364.33-.686.788-1.22 1.375-1.602.591-.387 1.281-.58 2.069-.58.454 0 .903.076 1.346.227.443.152.847.398 1.21.739.364.337.654.784.87 1.341.216.557.324 1.242.324 2.057v.568h-6.728v-1.159h5.364c0-.493-.098-.932-.295-1.318a2.226 2.226 0 00-.83-.915c-.356-.224-.777-.335-1.261-.335-.534 0-.997.132-1.387.397a2.633 2.633 0 00-.892 1.023 3.01 3.01 0 00-.312 1.352v.773c0 .659.113 1.218.341 1.676.231.455.551.801.96 1.04.409.235.884.352 1.426.352.352 0 .67-.049.955-.147.287-.103.536-.254.744-.455.208-.205.369-.458.483-.761l1.295.363a2.86 2.86 0 01-.687 1.159c-.322.33-.72.587-1.193.773a4.425 4.425 0 01-1.597.273zm8.062.023a3.554 3.554 0 01-1.506-.313 2.58 2.58 0 01-1.074-.915c-.265-.401-.398-.886-.398-1.454 0-.5.099-.906.296-1.216.197-.315.46-.561.79-.739a4.18 4.18 0 011.09-.398c.402-.09.805-.162 1.211-.215.53-.069.96-.12 1.289-.154.334-.038.576-.1.728-.187.155-.087.233-.239.233-.455v-.045c0-.561-.154-.997-.461-1.307-.303-.311-.763-.466-1.38-.466-.64 0-1.142.14-1.506.42-.364.281-.619.58-.767.898l-1.273-.454c.228-.531.531-.944.909-1.239.383-.299.8-.508 1.25-.625a5.205 5.205 0 011.341-.182c.281 0 .603.034.966.102.368.065.722.199 1.063.404.344.204.63.513.858.926.227.413.341.966.341 1.659V293h-1.341v-1.182h-.069a2.33 2.33 0 01-.454.608c-.212.216-.494.4-.847.551-.352.152-.782.228-1.289.228zm.204-1.205c.53 0 .977-.104 1.341-.312.367-.209.644-.478.83-.807.189-.33.284-.676.284-1.04v-1.227c-.057.068-.182.13-.375.187-.19.053-.409.101-.659.142-.247.038-.487.072-.722.102-.231.027-.419.05-.563.069a5.114 5.114 0 00-.977.221 1.69 1.69 0 00-.727.449c-.182.197-.273.466-.273.807 0 .466.173.818.517 1.057.349.235.79.352 1.324.352zm9.628 1.182c-.818 0-1.522-.193-2.113-.58a3.772 3.772 0 01-1.364-1.596c-.318-.678-.477-1.453-.477-2.324 0-.887.163-1.669.489-2.347.329-.682.787-1.214 1.375-1.596.59-.387 1.28-.58 2.068-.58.613 0 1.166.114 1.659.341.492.227.896.545 1.21.955.314.409.51.886.585 1.431h-1.341c-.102-.397-.329-.75-.681-1.056-.349-.311-.819-.466-1.41-.466-.522 0-.981.136-1.375.409-.39.269-.695.649-.914 1.142-.216.488-.324 1.062-.324 1.721 0 .675.106 1.262.318 1.762.216.5.519.888.909 1.164.394.277.856.415 1.386.415.349 0 .665-.06.949-.182.284-.121.525-.295.722-.522.197-.228.337-.5.42-.818h1.341a3.1 3.1 0 01-.562 1.392 3.158 3.158 0 01-1.176.977c-.485.238-1.05.358-1.694.358zm6.573-5.432V293h-1.34v-11.636h1.34v4.272h.114c.205-.45.511-.808.921-1.074.412-.268.962-.403 1.647-.403.595 0 1.116.119 1.563.358.447.235.793.597 1.04 1.085.25.485.375 1.103.375 1.853V293h-1.341v-5.455c0-.693-.18-1.229-.54-1.607-.356-.383-.851-.574-1.483-.574-.44 0-.833.092-1.182.278a2.032 2.032 0 00-.818.813c-.197.356-.296.787-.296 1.295z" fill="#2C2C2C"/></svg>