<svg width="340" height="105" viewBox="0 0 340 105" fill="none" xmlns="http://www.w3.org/2000/svg"><circle cx="118" cy="95.5" fill="#3A96C7" r="6"/><path d="M136.773 90.614v-1.25h8.727v1.25h-3.659V101h-1.409V90.614h-3.659zm12.84 10.568c-.788 0-1.479-.188-2.074-.563-.591-.375-1.053-.9-1.386-1.573-.33-.675-.495-1.463-.495-2.364 0-.91.165-1.703.495-2.38.333-.679.795-1.205 1.386-1.58.595-.375 1.286-.563 2.074-.563.788 0 1.477.188 2.068.563.595.375 1.057.901 1.386 1.58.334.677.5 1.47.5 2.38 0 .901-.166 1.69-.5 2.364a3.762 3.762 0 01-1.386 1.573c-.591.375-1.28.563-2.068.563zm0-1.205c.598 0 1.091-.153 1.477-.46a2.72 2.72 0 00.858-1.21c.186-.5.278-1.042.278-1.625 0-.584-.092-1.127-.278-1.63a2.755 2.755 0 00-.858-1.223c-.386-.31-.879-.465-1.477-.465-.599 0-1.091.155-1.478.465a2.747 2.747 0 00-.857 1.222 4.672 4.672 0 00-.279 1.63c0 .584.093 1.126.279 1.626.185.5.471.903.857 1.21.387.307.879.46 1.478.46zm9.637-7.704v1.136h-4.523v-1.136h4.523zm-3.205-2.091h1.341V98.5c0 .379.055.663.165.852a.85.85 0 00.432.375c.178.06.365.091.562.091.148 0 .269-.007.364-.022l.227-.046.273 1.205a2.74 2.74 0 01-.381.102 2.792 2.792 0 01-.619.057 2.7 2.7 0 01-1.114-.245 2.217 2.217 0 01-.898-.744c-.235-.333-.352-.754-.352-1.261v-8.682zm7.63 11.023a3.554 3.554 0 01-1.506-.313 2.581 2.581 0 01-1.074-.915c-.265-.401-.397-.886-.397-1.454 0-.5.098-.906.295-1.216.197-.315.46-.56.79-.739a4.14 4.14 0 011.091-.397c.401-.092.805-.163 1.21-.217.53-.068.96-.119 1.29-.153.333-.038.575-.1.727-.187.155-.088.233-.239.233-.455v-.045c0-.561-.153-.997-.46-1.307-.303-.31-.764-.466-1.381-.466-.64 0-1.142.14-1.506.42-.363.28-.619.58-.767.898l-1.272-.455c.227-.53.53-.943.909-1.238.382-.3.799-.508 1.25-.625a5.184 5.184 0 011.341-.182c.28 0 .602.034.965.102.368.065.722.2 1.063.404.345.204.631.513.858.926.227.413.341.966.341 1.659V101h-1.341v-1.182h-.068a2.36 2.36 0 01-.455.608c-.212.216-.494.4-.846.551-.353.152-.783.228-1.29.228zm.204-1.205c.531 0 .978-.104 1.341-.313a2.128 2.128 0 001.114-1.846v-1.227c-.057.068-.182.13-.375.187a6.29 6.29 0 01-.659.142 29.629 29.629 0 01-1.284.17 5.13 5.13 0 00-.978.222 1.687 1.687 0 00-.727.45c-.182.196-.273.465-.273.806 0 .466.173.818.518 1.057.348.235.789.352 1.323.352zm7.424-10.636V101h-1.341V89.364h1.341zM178.121 101V89.364h7.023v1.25h-5.614v3.931h5.25v1.25h-5.25v3.955h5.705V101h-7.114zm10.562-5.25V101h-1.341v-8.727h1.295v1.363h.114c.204-.443.515-.799.932-1.068.416-.272.954-.409 1.613-.409.591 0 1.108.121 1.551.364.444.238.788.602 1.034 1.09.247.486.37 1.1.37 1.841V101h-1.341v-5.454c0-.686-.178-1.22-.534-1.603-.356-.386-.845-.58-1.466-.58a2.34 2.34 0 00-1.148.279 2 2 0 00-.79.813c-.193.356-.289.787-.289 1.295zm11.381 8.705c-.648 0-1.205-.084-1.671-.25a3.535 3.535 0 01-1.164-.648 3.518 3.518 0 01-.733-.852l1.068-.75c.121.159.274.34.46.545.186.208.439.388.761.54.326.155.752.233 1.279.233.704 0 1.286-.171 1.744-.512.458-.341.688-.875.688-1.602v-1.773h-.114a7.34 7.34 0 01-.421.591c-.178.231-.435.438-.772.62-.334.178-.784.267-1.353.267-.704 0-1.337-.167-1.897-.5-.557-.334-.998-.819-1.324-1.455-.322-.636-.483-1.409-.483-2.318 0-.894.157-1.672.472-2.335.314-.667.751-1.182 1.312-1.546.561-.367 1.208-.55 1.943-.55.568 0 1.019.094 1.352.283.338.186.595.398.773.636.182.235.322.429.421.58h.136v-1.386h1.295v8.977c0 .75-.17 1.36-.511 1.83a2.91 2.91 0 01-1.364 1.039 5.13 5.13 0 01-1.897.336zm-.046-4.796c.538 0 .993-.123 1.364-.37.371-.245.653-.6.847-1.062.193-.462.289-1.015.289-1.659 0-.629-.094-1.183-.284-1.665-.189-.48-.469-.858-.841-1.13-.371-.273-.829-.41-1.375-.41-.568 0-1.041.145-1.42.433a2.634 2.634 0 00-.847 1.158 4.495 4.495 0 00-.278 1.614c0 .606.095 1.142.284 1.608.193.462.477.826.852 1.091.379.261.849.392 1.409.392zm8.681 1.546a3.546 3.546 0 01-1.505-.313 2.581 2.581 0 01-1.074-.915c-.265-.401-.398-.886-.398-1.454 0-.5.098-.906.295-1.216a2.09 2.09 0 01.79-.739 4.15 4.15 0 011.091-.397c.402-.092.805-.163 1.21-.217.531-.068.961-.119 1.29-.153.333-.038.576-.1.727-.187.156-.088.233-.239.233-.455v-.045c0-.561-.153-.997-.46-1.307-.303-.31-.763-.466-1.381-.466-.64 0-1.142.14-1.505.42-.364.28-.62.58-.767.898l-1.273-.455c.227-.53.53-.943.909-1.238a3.39 3.39 0 011.25-.625 5.196 5.196 0 011.341-.182c.28 0 .602.034.966.102.367.065.721.2 1.062.404.345.204.631.513.858.926.228.413.341.966.341 1.659V101h-1.341v-1.182h-.068c-.091.19-.242.392-.454.608-.213.216-.495.4-.847.551-.352.152-.782.228-1.29.228zm.205-1.205c.53 0 .977-.104 1.341-.313a2.124 2.124 0 001.113-1.846v-1.227c-.057.068-.182.13-.375.187a6.29 6.29 0 01-.659.142 30.27 30.27 0 01-1.284.17 5.19 5.19 0 00-.977.222 1.681 1.681 0 00-.727.45c-.182.196-.273.465-.273.806 0 .466.172.818.517 1.057.348.235.79.352 1.324.352zm9.605 4.455c-.647 0-1.204-.084-1.67-.25a3.55 3.55 0 01-1.165-.648 3.54 3.54 0 01-.733-.852l1.068-.75c.122.159.275.34.461.545.185.208.439.388.761.54.326.155.752.233 1.278.233.705 0 1.286-.171 1.745-.512.458-.341.687-.875.687-1.602v-1.773h-.113a7.34 7.34 0 01-.421.591c-.178.231-.436.438-.773.62-.333.178-.784.267-1.352.267a3.648 3.648 0 01-1.898-.5c-.556-.334-.998-.819-1.323-1.455-.322-.636-.483-1.409-.483-2.318 0-.894.157-1.672.471-2.335.315-.667.752-1.182 1.313-1.546.56-.367 1.208-.55 1.943-.55.568 0 1.019.094 1.352.283.337.186.595.398.773.636.182.235.322.429.42.58h.137v-1.386h1.295v8.977c0 .75-.17 1.36-.511 1.83a2.91 2.91 0 01-1.364 1.039 5.135 5.135 0 01-1.898.336zm-.045-4.796c.538 0 .992-.123 1.364-.37.371-.245.653-.6.846-1.062.193-.462.29-1.015.29-1.659 0-.629-.095-1.183-.284-1.665-.19-.48-.47-.858-.841-1.13-.371-.273-.83-.41-1.375-.41-.568 0-1.042.145-1.421.433a2.625 2.625 0 00-.846 1.158 4.473 4.473 0 00-.279 1.614c0 .606.095 1.142.285 1.608.193.462.477.826.852 1.091.379.261.848.392 1.409.392zm9.772 1.523c-.841 0-1.567-.186-2.176-.557a3.742 3.742 0 01-1.404-1.568c-.326-.674-.488-1.459-.488-2.353 0-.893.162-1.681.488-2.363.33-.686.788-1.22 1.375-1.602.591-.387 1.28-.58 2.068-.58.455 0 .904.076 1.347.227.443.152.847.398 1.21.739.364.337.654.784.87 1.34.215.558.323 1.243.323 2.058v.568h-6.727v-1.16h5.364c0-.492-.099-.931-.296-1.317a2.223 2.223 0 00-.829-.915c-.356-.224-.777-.335-1.262-.335-.534 0-.996.132-1.386.397a2.615 2.615 0 00-.892 1.023 3.01 3.01 0 00-.313 1.352v.773c0 .66.114 1.218.341 1.676.231.455.552.801.961 1.04.409.235.884.352 1.426.352.352 0 .67-.049.954-.148.288-.102.536-.253.745-.454.208-.204.369-.458.483-.761l1.295.363c-.136.44-.366.826-.687 1.159a3.35 3.35 0 01-1.194.773 4.416 4.416 0 01-1.596.273zm5.493-.182v-8.727h1.296v1.363h.113c.182-.465.476-.827.881-1.085.405-.261.892-.392 1.46-.392.576 0 1.055.13 1.438.392.386.258.687.62.903 1.085h.091a2.54 2.54 0 011.006-1.073c.447-.27.983-.404 1.608-.404.78 0 1.418.244 1.914.733.497.485.745 1.24.745 2.267V101h-1.341v-5.84c0-.645-.176-1.105-.529-1.382a1.955 1.955 0 00-1.244-.414c-.614 0-1.089.185-1.426.556-.337.368-.506.834-.506 1.398V101h-1.363v-5.977c0-.496-.161-.896-.483-1.2-.322-.306-.737-.46-1.245-.46-.348 0-.674.093-.977.279a2.1 2.1 0 00-.727.773 2.28 2.28 0 00-.273 1.13V101h-1.341zm17.405.182c-.84 0-1.566-.186-2.176-.557a3.733 3.733 0 01-1.403-1.568c-.326-.674-.489-1.459-.489-2.353 0-.893.163-1.681.489-2.363.329-.686.788-1.22 1.375-1.602.591-.387 1.28-.58 2.068-.58.455 0 .904.076 1.347.227a3.34 3.34 0 011.21.739c.364.337.653.784.869 1.34.216.558.324 1.243.324 2.058v.568h-6.727v-1.16h5.363c0-.492-.098-.931-.295-1.317a2.225 2.225 0 00-.83-.915c-.356-.224-.776-.335-1.261-.335-.534 0-.996.132-1.386.397a2.608 2.608 0 00-.892 1.023c-.209.42-.313.871-.313 1.352v.773c0 .66.114 1.218.341 1.676.231.455.551.801.96 1.04.409.235.885.352 1.426.352a2.9 2.9 0 00.955-.148 2.03 2.03 0 00.744-.454c.209-.204.37-.458.483-.761l1.296.363c-.137.44-.366.826-.688 1.159-.322.33-.719.587-1.193.773a4.421 4.421 0 01-1.597.273zm6.835-5.432V101h-1.341v-8.727h1.295v1.363h.114c.205-.443.515-.799.932-1.068.416-.272.954-.409 1.613-.409.591 0 1.108.121 1.552.364.443.238.787.602 1.034 1.09.246.486.369 1.1.369 1.841V101h-1.341v-5.454c0-.686-.178-1.22-.534-1.603-.356-.386-.845-.58-1.466-.58a2.34 2.34 0 00-1.148.279 1.992 1.992 0 00-.789.813c-.194.356-.29.787-.29 1.295zm11.654-3.477v1.136H265.1v-1.136h4.523zm-3.205-2.091h1.341V98.5c0 .379.055.663.165.852.114.186.257.31.432.375.178.06.365.091.562.091.148 0 .269-.007.364-.022l.227-.046.273 1.205a2.74 2.74 0 01-.381.102 2.792 2.792 0 01-.619.057 2.7 2.7 0 01-1.114-.245 2.217 2.217 0 01-.898-.744c-.234-.333-.352-.754-.352-1.261v-8.682zm11.087 4.045l-1.204.341a2.262 2.262 0 00-.335-.585 1.628 1.628 0 00-.591-.477c-.25-.125-.57-.188-.961-.188-.534 0-.979.123-1.335.37-.352.242-.528.55-.528.926 0 .333.121.596.363.79.243.193.622.354 1.137.482l1.295.319c.781.189 1.362.479 1.745.869.382.386.573.884.573 1.494 0 .5-.144.947-.431 1.341-.284.394-.682.705-1.194.932-.511.227-1.106.341-1.784.341-.89 0-1.627-.193-2.21-.58-.583-.386-.953-.95-1.108-1.693l1.273-.318c.121.47.35.822.687 1.057.341.235.786.352 1.336.352.625 0 1.121-.133 1.488-.398.371-.269.557-.59.557-.966 0-.303-.106-.556-.318-.761-.212-.208-.538-.364-.977-.466l-1.455-.34c-.799-.19-1.386-.484-1.761-.882-.372-.401-.557-.903-.557-1.505 0-.493.138-.928.415-1.307a2.82 2.82 0 011.142-.892c.485-.216 1.034-.324 1.647-.324.864 0 1.542.19 2.035.568a3.06 3.06 0 011.056 1.5z" fill="#2C2C2C"/><path d="M3 48L66 3.5 101 48l54-24.5L205 48h74l58-24.5" stroke="#3A96C7" stroke-width="2" stroke-linecap="round"/><ellipse cx="3" cy="47.995" rx="3" ry="2.995" fill="#3A96C7"/><ellipse cx="102" cy="47.995" rx="3" ry="2.995" fill="#3A96C7"/><ellipse cx="155" cy="22.995" rx="3" ry="2.995" fill="#3A96C7"/><ellipse cx="337" cy="22.995" rx="3" ry="2.995" fill="#3A96C7"/><ellipse cx="279" cy="47.995" rx="3" ry="2.995" fill="#3A96C7"/><ellipse cx="205" cy="47.995" rx="3" ry="2.995" fill="#3A96C7"/><ellipse cx="66" cy="2.995" rx="3" ry="2.995" fill="#3A96C7"/></svg>