<svg width="451" height="385" viewBox="0 0 451 385" fill="none" xmlns="http://www.w3.org/2000/svg"><ellipse cx="293.067" cy="30.263" rx="4.319" ry="4.315" fill="#6441A5"/><ellipse cx="154.001" cy="35.292" rx="4.319" ry="4.315" fill="#6441A5"/><path d="M9.566 173.354c19.481-34.429 65.556-121.592 81.37-121.592 31.741 0 41.956-15.09 62.341-15.09 20.386 0 41.087 75.961 69.344 75.961 28.256 0 41.349-80.991 69.724-80.991 27.286 0 66.629 52.151 93.717 56.151 2.104.31 4.226-.036 6.312-.453 35.14-7.024 53.505 15.903 53.505 15.903" stroke="#5A3795" stroke-width="2.66" stroke-linecap="round"/><path fill-rule="evenodd" clip-rule="evenodd" d="M2.337 200.091c-1.112-17.301 14.482-38.607 24.446-52.792 19.672-28.005 40.311-78.49 59.376-93.264 2.943-2.281 6.707-2.88 10.423-3.103 27.397-1.641 37.57-14.924 56.695-14.924 20.386 0 42.324 77.213 70.58 77.213 28.257 0 40.113-82.243 68.488-82.243s67.598 55.331 94.71 55.331c23.65 0 62.34-.059 62.34 23.592V259.71c0 14.69-11.908 26.598-26.598 26.598H32.994c-13.96 0-25.54-10.76-26.508-24.686-1.232-17.734-2.886-41.877-4.15-61.531z" fill="url(#paint0_linear_263_951)"/><ellipse cx="446.179" cy="102.825" rx="4.319" ry="4.315" fill="#6441A5"/><path d="M393.425 86.258a4.317 4.317 0 01-4.32 4.315 4.317 4.317 0 01-4.319-4.315 4.317 4.317 0 014.319-4.315 4.317 4.317 0 014.32 4.315z" fill="#6441A5"/><ellipse cx="223.539" cy="111.589" rx="4.319" ry="4.315" fill="#6441A5"/><ellipse cx="91.659" cy="50.383" rx="4.319" ry="4.315" fill="#6441A5"/><ellipse cx="8.938" cy="172.31" rx="4.319" ry="4.315" fill="#6441A5"/><circle cx="164.65" cy="322.65" fill="#5A3795" r="6.65"/><path d="M184.773 317.614v-1.25h8.727v1.25h-3.659V328h-1.409v-10.386h-3.659zm12.84 10.568c-.788 0-1.479-.188-2.074-.563-.591-.375-1.053-.899-1.386-1.574-.33-.674-.495-1.462-.495-2.363 0-.909.165-1.703.495-2.381.333-.678.795-1.204 1.386-1.579.595-.375 1.286-.563 2.074-.563.788 0 1.477.188 2.068.563.595.375 1.057.901 1.386 1.579.334.678.5 1.472.5 2.381 0 .901-.166 1.689-.5 2.363a3.758 3.758 0 01-1.386 1.574c-.591.375-1.28.563-2.068.563zm0-1.205c.598 0 1.091-.153 1.477-.46a2.72 2.72 0 00.858-1.21c.186-.5.278-1.042.278-1.625 0-.584-.092-1.127-.278-1.631a2.748 2.748 0 00-.858-1.221c-.386-.311-.879-.466-1.477-.466-.599 0-1.091.155-1.478.466-.386.31-.672.717-.857 1.221a4.672 4.672 0 00-.279 1.631c0 .583.093 1.125.279 1.625.185.5.471.903.857 1.21.387.307.879.46 1.478.46zm9.637-7.704v1.136h-4.523v-1.136h4.523zm-3.205-2.091h1.341v8.318c0 .379.055.663.165.852a.845.845 0 00.432.375c.178.061.365.091.562.091.148 0 .269-.007.364-.023l.227-.045.273 1.205a2.74 2.74 0 01-.381.102 2.792 2.792 0 01-.619.057 2.7 2.7 0 01-1.114-.245 2.217 2.217 0 01-.898-.744c-.235-.333-.352-.754-.352-1.261v-8.682zm7.63 11.023a3.554 3.554 0 01-1.506-.313 2.58 2.58 0 01-1.074-.915c-.265-.401-.397-.886-.397-1.454 0-.5.098-.906.295-1.216.197-.315.46-.561.79-.739.329-.178.693-.31 1.091-.398.401-.09.805-.162 1.21-.215.53-.069.96-.12 1.29-.154.333-.038.575-.1.727-.187.155-.087.233-.239.233-.455v-.045c0-.561-.153-.997-.46-1.307-.303-.311-.764-.466-1.381-.466-.64 0-1.142.14-1.506.42-.363.281-.619.58-.767.898l-1.272-.454c.227-.531.53-.944.909-1.239a3.398 3.398 0 011.25-.625 5.193 5.193 0 011.341-.182c.28 0 .602.034.965.102.368.065.722.199 1.063.404.345.204.631.513.858.926.227.413.341.966.341 1.659V328h-1.341v-1.182h-.068a2.36 2.36 0 01-.455.608c-.212.216-.494.4-.846.551-.353.152-.783.228-1.29.228zm.204-1.205c.531 0 .978-.104 1.341-.312.368-.209.644-.478.83-.807.189-.33.284-.676.284-1.04v-1.227c-.057.068-.182.13-.375.187a6.143 6.143 0 01-.659.142c-.246.038-.487.072-.722.102-.231.027-.418.05-.562.069a5.107 5.107 0 00-.978.221 1.69 1.69 0 00-.727.449c-.182.197-.273.466-.273.807 0 .466.173.818.518 1.057.348.235.789.352 1.323.352zm7.424-10.636V328h-1.341v-11.636h1.341zM226.121 328v-11.636h6.977v1.25h-5.568v3.931h5.046v1.25h-5.046V328h-1.409zm11.954.182c-.788 0-1.48-.188-2.074-.563-.591-.375-1.053-.899-1.387-1.574-.329-.674-.494-1.462-.494-2.363 0-.909.165-1.703.494-2.381.334-.678.796-1.204 1.387-1.579.594-.375 1.286-.563 2.074-.563.787 0 1.477.188 2.068.563.594.375 1.057.901 1.386 1.579.333.678.5 1.472.5 2.381 0 .901-.167 1.689-.5 2.363a3.765 3.765 0 01-1.386 1.574c-.591.375-1.281.563-2.068.563zm0-1.205c.598 0 1.091-.153 1.477-.46a2.72 2.72 0 00.858-1.21c.185-.5.278-1.042.278-1.625 0-.584-.093-1.127-.278-1.631a2.748 2.748 0 00-.858-1.221c-.386-.311-.879-.466-1.477-.466-.599 0-1.091.155-1.478.466-.386.31-.672.717-.858 1.221a4.695 4.695 0 00-.278 1.631c0 .583.093 1.125.278 1.625.186.5.472.903.858 1.21.387.307.879.46 1.478.46zm7.182-10.613V328h-1.341v-11.636h1.341zm3.637 0V328h-1.341v-11.636h1.341zm5.841 11.818c-.788 0-1.479-.188-2.074-.563-.591-.375-1.053-.899-1.386-1.574-.33-.674-.494-1.462-.494-2.363 0-.909.164-1.703.494-2.381.333-.678.795-1.204 1.386-1.579.595-.375 1.286-.563 2.074-.563.788 0 1.478.188 2.068.563.595.375 1.057.901 1.387 1.579.333.678.5 1.472.5 2.381 0 .901-.167 1.689-.5 2.363-.33.675-.792 1.199-1.387 1.574-.59.375-1.28.563-2.068.563zm0-1.205c.599 0 1.091-.153 1.478-.46a2.71 2.71 0 00.857-1.21c.186-.5.279-1.042.279-1.625 0-.584-.093-1.127-.279-1.631a2.738 2.738 0 00-.857-1.221c-.387-.311-.879-.466-1.478-.466-.598 0-1.091.155-1.477.466-.386.31-.672.717-.858 1.221a4.671 4.671 0 00-.278 1.631c0 .583.092 1.125.278 1.625.186.5.472.903.858 1.21.386.307.879.46 1.477.46zm7.522 1.023l-2.659-8.727h1.409l1.886 6.682h.091l1.864-6.682h1.432l1.841 6.659h.091l1.886-6.659h1.409L268.848 328h-1.318l-1.909-6.705h-.137L263.575 328h-1.318zm14.225.182c-.841 0-1.566-.186-2.176-.557a3.744 3.744 0 01-1.404-1.568c-.325-.674-.488-1.459-.488-2.352 0-.894.163-1.682.488-2.364.33-.686.788-1.22 1.375-1.602.591-.387 1.281-.58 2.069-.58.454 0 .903.076 1.346.227.443.152.847.398 1.21.739.364.337.654.784.87 1.341.216.557.324 1.242.324 2.057v.568h-6.728v-1.159h5.364c0-.493-.098-.932-.295-1.318a2.226 2.226 0 00-.83-.915c-.356-.224-.777-.335-1.261-.335-.534 0-.997.132-1.387.397a2.633 2.633 0 00-.892 1.023 3.01 3.01 0 00-.312 1.352v.773c0 .659.113 1.218.341 1.676.231.455.551.801.96 1.04.409.235.884.352 1.426.352.352 0 .67-.049.955-.147.287-.103.536-.254.744-.455.208-.205.369-.458.483-.761l1.295.363a2.86 2.86 0 01-.687 1.159c-.322.33-.72.587-1.193.773a4.425 4.425 0 01-1.597.273zm5.493-.182v-8.727h1.296v1.318h.091c.159-.432.447-.782.863-1.051a2.544 2.544 0 011.409-.404c.099 0 .222.002.37.006a5.5 5.5 0 01.335.017v1.364a3.416 3.416 0 00-.312-.051 3.035 3.035 0 00-.506-.04 2.38 2.38 0 00-1.137.267c-.329.174-.59.417-.784.727a1.963 1.963 0 00-.284 1.051V328h-1.341zm11.975-6.773l-1.204.341a2.253 2.253 0 00-.335-.585 1.63 1.63 0 00-.591-.477c-.25-.125-.57-.188-.961-.188-.534 0-.979.123-1.335.37-.352.242-.528.551-.528.926 0 .333.121.596.363.789.243.194.622.355 1.137.483l1.295.319c.781.189 1.362.479 1.745.869.382.386.573.884.573 1.494 0 .5-.144.947-.431 1.341-.284.394-.682.705-1.194.932-.511.227-1.106.341-1.784.341-.89 0-1.627-.193-2.21-.58-.583-.386-.953-.95-1.108-1.693l1.273-.318c.121.47.35.822.687 1.057.341.235.786.352 1.336.352.625 0 1.121-.133 1.488-.398.371-.269.557-.591.557-.966 0-.303-.106-.556-.318-.761-.212-.208-.538-.364-.977-.466l-1.455-.341c-.799-.189-1.386-.483-1.761-.88-.372-.402-.557-.904-.557-1.506 0-.493.138-.928.415-1.307a2.82 2.82 0 011.142-.892c.485-.216 1.034-.324 1.647-.324.864 0 1.542.189 2.035.568.496.379.848.879 1.056 1.5z" fill="#2C2C2C"/><defs><linearGradient id="paint0_linear_263_951" x1="7.999" y1="21.985" x2="7.999" y2="438.267" gradientUnits="userSpaceOnUse"><stop stop-color="#6441A5"/><stop offset="1" stop-color="#fff" stop-opacity=".01"/></linearGradient></defs></svg>