<svg width="446" height="292" viewBox="0 0 446 292" fill="none" xmlns="http://www.w3.org/2000/svg"><path d="M3.323 193.527c17.61-24.894 53.825-61.533 72.764-69.701 10.778-4.649 15.275-3.862 29.967-3.598 4.489.081 8.9-1.173 12.991-3.024 51.242-23.19 66.588 36.162 98.25 36.162 28.273 0 42.045-45.14 70.438-45.14 28.392 0 61.915 30.535 89.044 30.535 53.492-4.978 67.779 26.221 67.779 26.221" stroke="#FA0060" stroke-width="2.66" stroke-linecap="round"/><path fill-rule="evenodd" clip-rule="evenodd" d="M3.824 197.365c-.01-15.824 14.571-30.592 26.28-41.237 17.701-16.095 35.068-42.929 56.516-42.929 31.738 0 41.953-8.178 62.336-8.178 20.384 0 42.321 41.845 70.576 41.845 28.254 0 40.11-44.571 68.482-44.571 28.373 0 67.594 29.986 94.704 29.986 25.466 0 62.336 7.116 62.336 32.582v54.75c0 14.729-11.969 26.654-26.698 26.599l-388.022-1.46c-14.623-.055-26.46-11.905-26.484-26.529-.012-6.718-.021-13.983-.026-20.858z" fill="url(#paint0_linear_263_953)"/><path d="M380.099 138.43a4.317 4.317 0 01-4.32 4.315 4.317 4.317 0 01-4.319-4.315 4.317 4.317 0 014.319-4.315 4.317 4.317 0 014.32 4.315z" fill="#FA0060"/><ellipse cx="283.412" cy="107.894" rx="4.319" ry="4.315" fill="#FA0060"/><ellipse cx="216.962" cy="154.362" rx="4.319" ry="4.315" fill="#FA0060"/><ellipse cx="109.977" cy="120.507" rx="4.319" ry="4.315" fill="#FA0060"/><ellipse cx="78.08" cy="120.507" rx="4.319" ry="4.315" fill="#FA0060"/><ellipse cx="4.319" cy="193.527" rx="4.319" ry="4.315" fill="#FA0060"/><circle cx="190.471" cy="282.5" fill="#FA0060" r="6.65"/><path d="M211.529 288v-11.636h1.409v10.386h5.409V288h-6.818zm8.658 0v-8.727h1.341V288h-1.341zm.682-10.182a.953.953 0 01-.676-.267.856.856 0 01-.278-.642c0-.25.092-.464.278-.642a.953.953 0 01.676-.267c.262 0 .485.089.671.267a.851.851 0 01.284.642c0 .25-.095.464-.284.642a.935.935 0 01-.671.267zm4.296 4.932V288h-1.341v-8.727h1.296v1.363h.113c.205-.443.516-.799.932-1.068.417-.273.955-.409 1.614-.409.591 0 1.108.121 1.551.364.443.238.788.602 1.034 1.091.246.484.369 1.098.369 1.841V288h-1.341v-5.455c0-.685-.178-1.219-.534-1.602-.356-.386-.844-.579-1.466-.579-.428 0-.81.092-1.147.278a1.985 1.985 0 00-.79.813c-.193.356-.29.787-.29 1.295zm9.109 2.068l-.023-1.659h.273l3.818-3.886h1.659l-4.068 4.113h-.114l-1.545 1.432zm-1.25 3.182v-11.636h1.341V288h-1.341zm5.545 0l-3.409-4.318.955-.932 4.159 5.25h-1.705zm16.883-8h-1.409a2.931 2.931 0 00-1.187-1.841 3.19 3.19 0 00-.972-.477 3.881 3.881 0 00-1.114-.159c-.704 0-1.342.178-1.914.534-.569.356-1.021.881-1.358 1.574-.334.693-.5 1.543-.5 2.551 0 1.007.166 1.858.5 2.551.337.693.789 1.218 1.358 1.574.572.356 1.21.534 1.914.534.387 0 .758-.053 1.114-.159a3.25 3.25 0 00.972-.472c.295-.212.545-.471.75-.778a2.99 2.99 0 00.437-1.068h1.409a4.695 4.695 0 01-.579 1.596 4.36 4.36 0 01-1.046 1.199 4.552 4.552 0 01-1.403.744 5.215 5.215 0 01-1.654.256c-.992 0-1.875-.242-2.647-.727-.773-.485-1.381-1.174-1.824-2.068-.443-.894-.665-1.955-.665-3.182 0-1.227.222-2.288.665-3.182.443-.894 1.051-1.583 1.824-2.068.772-.485 1.655-.727 2.647-.727.588 0 1.139.085 1.654.255.519.171.987.421 1.403.75.417.326.765.724 1.046 1.193.28.466.473.999.579 1.597zm3.276-3.636V288h-1.341v-11.636h1.341zM261.024 288v-8.727h1.341V288h-1.341zm.682-10.182a.953.953 0 01-.676-.267.856.856 0 01-.278-.642c0-.25.092-.464.278-.642a.953.953 0 01.676-.267c.261 0 .485.089.671.267a.851.851 0 01.284.642c0 .25-.095.464-.284.642a.936.936 0 01-.671.267zm6.501 10.364c-.819 0-1.523-.193-2.114-.58a3.78 3.78 0 01-1.364-1.596c-.318-.678-.477-1.453-.477-2.324 0-.887.163-1.669.489-2.347.329-.682.788-1.214 1.375-1.596.591-.387 1.28-.58 2.068-.58.614 0 1.167.114 1.659.341.492.227.896.545 1.21.955.315.409.51.886.585 1.431h-1.34c-.103-.397-.33-.75-.682-1.056-.349-.311-.818-.466-1.409-.466-.523 0-.981.136-1.375.409-.391.269-.695.649-.915 1.142-.216.488-.324 1.062-.324 1.721 0 .675.106 1.262.318 1.762.216.5.519.888.909 1.164.394.277.856.415 1.387.415.348 0 .664-.06.948-.182a1.95 1.95 0 00.722-.522c.197-.228.337-.5.421-.818h1.34a3.1 3.1 0 01-.562 1.392 3.158 3.158 0 01-1.176.977c-.485.238-1.049.358-1.693.358zm6.482-3.364l-.023-1.659h.273l3.818-3.886h1.659l-4.068 4.113h-.114l-1.545 1.432zm-1.25 3.182v-11.636h1.341V288h-1.341zm5.545 0l-3.409-4.318.955-.932 4.159 5.25h-1.705zm9.18-6.773l-1.205.341a2.224 2.224 0 00-.335-.585 1.63 1.63 0 00-.591-.477c-.25-.125-.57-.188-.96-.188-.534 0-.979.123-1.336.37-.352.242-.528.551-.528.926 0 .333.121.596.364.789.242.194.621.355 1.136.483l1.295.319c.781.189 1.362.479 1.745.869.382.386.574.884.574 1.494 0 .5-.144.947-.432 1.341-.284.394-.682.705-1.193.932-.512.227-1.106.341-1.784.341-.891 0-1.627-.193-2.211-.58-.583-.386-.952-.95-1.108-1.693l1.273-.318c.121.47.351.822.688 1.057.341.235.786.352 1.335.352.625 0 1.121-.133 1.488-.398.372-.269.557-.591.557-.966 0-.303-.106-.556-.318-.761-.212-.208-.538-.364-.977-.466l-1.455-.341c-.799-.189-1.386-.483-1.761-.88-.371-.402-.557-.904-.557-1.506 0-.493.138-.928.415-1.307a2.82 2.82 0 011.142-.892c.485-.216 1.034-.324 1.648-.324.863 0 1.541.189 2.034.568a3.07 3.07 0 011.057 1.5z" fill="#2C2C2C"/><defs><linearGradient id="paint0_linear_263_953" x1="3.688" y1="97.421" x2="3.688" y2="323.023" gradientUnits="userSpaceOnUse"><stop stop-color="#FA0060"/><stop offset="1" stop-color="#fff" stop-opacity=".01"/></linearGradient></defs></svg>