<svg width="26" height="22" viewBox="0 0 26 22" fill="none" xmlns="http://www.w3.org/2000/svg"><mask id="a" style="mask-type:alpha" maskUnits="userSpaceOnUse" x="2" y="6" width="13" height="15"><path fill-rule="evenodd" clip-rule="evenodd" d="M3.063 15.81a3.43 3.43 0 012.426-1.004h5.489a3.43 3.43 0 013.43 3.43v1.372a.686.686 0 11-1.372 0v-1.372a2.058 2.058 0 00-2.058-2.058h-5.49a2.058 2.058 0 00-2.058 2.058v1.372a.686.686 0 11-1.372 0v-1.372c0-.91.362-1.782 1.005-2.426zm5.17-7.866a2.058 2.058 0 100 4.117 2.058 2.058 0 000-4.117zm-3.43 2.059a3.43 3.43 0 116.86 0 3.43 3.43 0 01-6.86 0z" fill="#061938"/></mask><g mask="url(#a)"><path fill="#fff" d="M0 5.2h16.467v16.467H0z"/></g><mask id="b" style="mask-type:alpha" maskUnits="userSpaceOnUse" x="13" y="4" width="9" height="9"><path fill-rule="evenodd" clip-rule="evenodd" d="M14.336 4.116a.686.686 0 000 1.372h5.155l-5.64 5.69a.686.686 0 10.97.97l5.69-5.74v5.255a.686.686 0 101.372 0v-6.86a.686.686 0 00-.686-.687h-6.861z" fill="#061938"/></mask><g mask="url(#b)"><path fill="#fff" d="M9.533 0h24v24h-24z"/></g></svg>