<svg width="948" height="270" viewBox="0 0 948 270" fill="none" xmlns="http://www.w3.org/2000/svg"><path d="M61.633 205.818V216h-1.232v-8.889h-.06l-2.486 1.65v-1.252l2.546-1.691h1.232zM64.563 216v-.895l3.36-3.679c.395-.431.72-.805.975-1.123.255-.322.444-.624.567-.905.126-.285.189-.584.189-.895 0-.358-.087-.668-.259-.93a1.672 1.672 0 00-.696-.606 2.25 2.25 0 00-.994-.214c-.391 0-.733.081-1.024.243a1.68 1.68 0 00-.672.672 2.1 2.1 0 00-.233 1.014h-1.173c0-.597.137-1.12.412-1.571.275-.451.65-.802 1.124-1.054a3.386 3.386 0 011.606-.378c.596 0 1.125.126 1.585.378.461.252.823.591 1.084 1.019.262.428.393.903.393 1.427 0 .374-.068.741-.204 1.099-.132.354-.364.75-.696 1.188-.328.434-.784.964-1.367 1.591l-2.287 2.446v.079h4.733V216h-6.423zm16.49-10.182h1.233v7.279c0 .649-.119 1.201-.357 1.655a2.43 2.43 0 01-1.01 1.034c-.434.236-.946.353-1.536.353-.557 0-1.052-.101-1.486-.303a2.453 2.453 0 01-1.025-.875c-.248-.378-.372-.827-.372-1.347h1.213c0 .288.07.54.213.755.146.212.345.378.597.497.252.12.539.179.86.179.355 0 .656-.074.905-.223.248-.149.437-.368.567-.657.132-.291.199-.647.199-1.068v-7.279zm8.358 7.06v-4.514h1.173V216H89.41v-1.293h-.08a2.507 2.507 0 01-.835.99c-.378.268-.855.402-1.432.402-.477 0-.901-.104-1.273-.313a2.191 2.191 0 01-.875-.954c-.212-.428-.318-.966-.318-1.616v-4.852h1.174v4.772c0 .557.155 1.001.467 1.333.315.331.716.497 1.203.497a2 2 0 00.89-.224 1.94 1.94 0 00.766-.686c.208-.308.313-.701.313-1.178zm4.495-1.472V216h-1.173v-7.636h1.134v1.193h.099c.179-.388.45-.7.815-.935.365-.238.836-.358 1.412-.358.517 0 .97.106 1.358.318.387.209.689.527.904.955.216.424.324.961.324 1.611V216h-1.174v-4.773c0-.6-.156-1.067-.467-1.402-.312-.338-.74-.507-1.283-.507-.374 0-.71.081-1.004.244a1.738 1.738 0 00-.691.711c-.17.311-.254.689-.254 1.133zm54.728-5.588V216h-1.233v-8.889h-.06l-2.486 1.65v-1.252l2.546-1.691h1.233zm6.169-.139c.418.003.835.083 1.253.239.418.155.799.414 1.144.775.344.358.621.847.83 1.467.209.62.313 1.397.313 2.331 0 .905-.086 1.709-.258 2.412-.17.699-.415 1.289-.736 1.77-.318.48-.706.845-1.164 1.093a3.15 3.15 0 01-1.541.373c-.57 0-1.079-.112-1.526-.338a3.002 3.002 0 01-1.094-.949 3.31 3.31 0 01-.542-1.417h1.213c.11.467.327.853.652 1.158.328.302.76.452 1.297.452.786 0 1.405-.343 1.86-1.029.457-.686.686-1.655.686-2.908h-.08a3.139 3.139 0 01-.661.721 2.91 2.91 0 01-1.845.631 3.095 3.095 0 01-1.605-.432 3.288 3.288 0 01-1.164-1.198c-.288-.511-.432-1.094-.432-1.75 0-.624.139-1.194.417-1.711.282-.52.676-.934 1.184-1.243.51-.308 1.11-.457 1.799-.447zm0 1.094c-.417 0-.794.104-1.128.313a2.252 2.252 0 00-.791.835 2.358 2.358 0 00-.288 1.159c0 .424.093.81.278 1.158.189.345.446.62.771.825a2.09 2.09 0 001.118.303 2.12 2.12 0 001.591-.696c.206-.218.367-.465.483-.74.116-.279.174-.569.174-.87a2.27 2.27 0 00-.289-1.119 2.282 2.282 0 00-.785-.845 2.03 2.03 0 00-1.134-.323zm13.509-.955h1.233v7.279c0 .649-.119 1.201-.358 1.655a2.427 2.427 0 01-1.009 1.034c-.434.236-.946.353-1.536.353-.557 0-1.052-.101-1.487-.303a2.456 2.456 0 01-1.024-.875c-.248-.378-.373-.827-.373-1.347h1.213c0 .288.072.54.214.755.146.212.345.378.597.497.252.12.538.179.86.179.355 0 .656-.074.905-.223.248-.149.437-.368.566-.657.133-.291.199-.647.199-1.068v-7.279zm8.358 7.06v-4.514h1.173V216h-1.173v-1.293h-.08a2.505 2.505 0 01-.835.99c-.378.268-.855.402-1.432.402a2.55 2.55 0 01-1.273-.313 2.192 2.192 0 01-.875-.954c-.212-.428-.318-.966-.318-1.616v-4.852h1.173v4.772c0 .557.156 1.001.468 1.333.315.331.716.497 1.203.497.291 0 .588-.075.89-.224.305-.149.56-.378.765-.686.209-.308.314-.701.314-1.178zm4.495-1.472V216h-1.173v-7.636h1.133v1.193h.1c.179-.388.451-.7.815-.935.365-.238.835-.358 1.412-.358.517 0 .97.106 1.357.318.388.209.69.527.905.955.216.424.323.961.323 1.611V216h-1.173v-4.773c0-.6-.156-1.067-.467-1.402-.312-.338-.739-.507-1.283-.507-.375 0-.709.081-1.004.244a1.736 1.736 0 00-.691.711c-.169.311-.254.689-.254 1.133zM233.054 216v-.895l3.361-3.679c.394-.431.719-.805.974-1.123.255-.322.444-.624.567-.905.126-.285.189-.584.189-.895 0-.358-.086-.668-.259-.93a1.67 1.67 0 00-.696-.606 2.248 2.248 0 00-.994-.214c-.391 0-.732.081-1.024.243-.288.16-.512.383-.671.672a2.097 2.097 0 00-.234 1.014h-1.173c0-.597.137-1.12.412-1.571.275-.451.65-.802 1.124-1.054a3.386 3.386 0 011.606-.378c.596 0 1.125.126 1.586.378.46.252.822.591 1.084 1.019.261.428.392.903.392 1.427 0 .374-.068.741-.204 1.099-.132.354-.364.75-.696 1.188-.328.434-.783.964-1.367 1.591l-2.287 2.446v.079h4.733V216h-6.423zm11.857.139a3.811 3.811 0 01-1.253-.238 3.016 3.016 0 01-1.143-.771c-.345-.365-.622-.857-.83-1.477-.209-.623-.314-1.405-.314-2.346 0-.902.085-1.7.254-2.396.169-.7.414-1.288.736-1.765a3.304 3.304 0 011.163-1.094 3.182 3.182 0 011.546-.373c.57 0 1.077.114 1.522.343.447.225.812.54 1.093.945.282.404.464.87.547 1.397h-1.213a2.25 2.25 0 00-.656-1.139c-.325-.301-.756-.452-1.293-.452-.789 0-1.41.343-1.864 1.029-.451.686-.678 1.649-.681 2.888h.079a3.004 3.004 0 011.517-1.188 2.97 2.97 0 01.989-.164c.583 0 1.117.146 1.601.438.484.288.872.687 1.163 1.198.292.507.438 1.088.438 1.745 0 .629-.141 1.206-.423 1.73-.282.52-.678.935-1.188 1.243-.507.305-1.104.454-1.79.447zm0-1.094c.418 0 .792-.104 1.124-.313.335-.209.598-.489.79-.84.196-.351.294-.742.294-1.173 0-.421-.095-.804-.284-1.149a2.16 2.16 0 00-.77-.83 2.043 2.043 0 00-1.114-.308c-.315 0-.608.063-.88.189-.272.122-.51.291-.716.507a2.44 2.44 0 00-.477.741 2.354 2.354 0 00.109 2.003c.192.351.454.635.786.85a2.05 2.05 0 001.138.323zm13.37-9.227h1.233v7.279c0 .649-.119 1.201-.358 1.655a2.433 2.433 0 01-1.009 1.034c-.434.236-.946.353-1.536.353-.557 0-1.053-.101-1.487-.303a2.456 2.456 0 01-1.024-.875c-.249-.378-.373-.827-.373-1.347h1.213c0 .288.071.54.214.755.146.212.345.378.597.497.251.12.538.179.86.179.354 0 .656-.074.904-.223a1.41 1.41 0 00.567-.657c.133-.291.199-.647.199-1.068v-7.279zm8.357 7.06v-4.514h1.174V216h-1.174v-1.293h-.079a2.514 2.514 0 01-.835.99c-.378.268-.856.402-1.432.402-.478 0-.902-.104-1.273-.313a2.192 2.192 0 01-.875-.954c-.212-.428-.318-.966-.318-1.616v-4.852h1.173v4.772c0 .557.156 1.001.467 1.333.315.331.716.497 1.204.497.291 0 .588-.075.889-.224.305-.149.561-.378.766-.686.209-.308.313-.701.313-1.178zm4.496-1.472V216h-1.173v-7.636h1.133v1.193h.1c.179-.388.45-.7.815-.935.364-.238.835-.358 1.412-.358.517 0 .969.106 1.357.318.388.209.689.527.905.955.215.424.323.961.323 1.611V216h-1.173v-4.773c0-.6-.156-1.067-.468-1.402-.311-.338-.739-.507-1.282-.507-.375 0-.71.081-1.005.244a1.742 1.742 0 00-.691.711c-.169.311-.253.689-.253 1.133zm55.36 4.733c-.656 0-1.241-.112-1.755-.338a3.007 3.007 0 01-1.218-.939 2.535 2.535 0 01-.487-1.407h1.253c.026.328.139.611.338.85.199.235.459.417.781.547a2.84 2.84 0 001.068.193c.438 0 .826-.076 1.164-.228.338-.153.603-.365.795-.637.192-.271.289-.586.289-.944a1.77 1.77 0 00-.279-.99c-.185-.288-.457-.513-.815-.676-.358-.162-.796-.243-1.313-.243h-.815v-1.094h.815c.405 0 .759-.073 1.064-.219a1.651 1.651 0 00.985-1.551c0-.345-.077-.645-.229-.9a1.566 1.566 0 00-.646-.596 2.087 2.087 0 00-.975-.214c-.351 0-.683.064-.994.194-.308.126-.56.31-.756.552a1.441 1.441 0 00-.318.865h-1.193c.02-.534.18-1.001.482-1.402.302-.405.696-.72 1.183-.945a3.83 3.83 0 011.616-.338c.63 0 1.17.128 1.621.383.451.252.797.585 1.039.999.242.414.363.862.363 1.342 0 .574-.151 1.063-.453 1.467a2.294 2.294 0 01-1.218.84v.08c.643.106 1.145.379 1.507.82.361.438.542.979.542 1.626 0 .553-.151 1.05-.453 1.491a3.068 3.068 0 01-1.223 1.034c-.517.252-1.105.378-1.765.378zm13.488-10.321h1.233v7.279c0 .649-.119 1.201-.358 1.655a2.427 2.427 0 01-1.009 1.034c-.434.236-.946.353-1.536.353-.557 0-1.053-.101-1.487-.303a2.456 2.456 0 01-1.024-.875c-.248-.378-.373-.827-.373-1.347h1.213c0 .288.072.54.214.755.146.212.345.378.597.497.252.12.538.179.86.179.354 0 .656-.074.905-.223.248-.149.437-.368.566-.657.133-.291.199-.647.199-1.068v-7.279zm8.357 7.06v-4.514h1.174V216h-1.174v-1.293h-.079a2.505 2.505 0 01-.835.99c-.378.268-.855.402-1.432.402a2.55 2.55 0 01-1.273-.313 2.192 2.192 0 01-.875-.954c-.212-.428-.318-.966-.318-1.616v-4.852h1.173v4.772c0 .557.156 1.001.468 1.333.314.331.716.497 1.203.497.291 0 .588-.075.89-.224.305-.149.56-.378.765-.686.209-.308.313-.701.313-1.178zm4.496-7.06V216h-1.173v-10.182h1.173zm49.799 0V216h-1.233v-8.889h-.06l-2.486 1.65v-1.252l2.546-1.691h1.233zm6.249 10.321c-.749 0-1.387-.204-1.914-.611-.527-.411-.93-1.006-1.208-1.785-.279-.782-.418-1.727-.418-2.834 0-1.1.139-2.04.418-2.819.281-.782.686-1.379 1.213-1.79.53-.414 1.166-.621 1.909-.621.742 0 1.377.207 1.904.621.53.411.935 1.008 1.213 1.79.282.779.423 1.719.423 2.819 0 1.107-.14 2.052-.418 2.834-.278.779-.681 1.374-1.208 1.785-.527.407-1.165.611-1.914.611zm0-1.094c.742 0 1.319-.358 1.73-1.073.411-.716.616-1.737.616-3.063 0-.882-.094-1.632-.283-2.252-.186-.62-.454-1.092-.805-1.417a1.778 1.778 0 00-1.258-.487c-.736 0-1.311.363-1.725 1.089-.415.722-.622 1.745-.622 3.067 0 .882.093 1.631.279 2.247.185.617.452 1.086.8 1.407a1.81 1.81 0 001.268.482zm13.443-9.227h1.233v7.279c0 .649-.119 1.201-.358 1.655a2.433 2.433 0 01-1.009 1.034c-.434.236-.946.353-1.536.353-.557 0-1.053-.101-1.487-.303a2.45 2.45 0 01-1.024-.875c-.249-.378-.373-.827-.373-1.347h1.213c0 .288.071.54.214.755.146.212.345.378.596.497.252.12.539.179.861.179.354 0 .656-.074.904-.223a1.41 1.41 0 00.567-.657c.133-.291.199-.647.199-1.068v-7.279zm8.357 7.06v-4.514h1.174V216h-1.174v-1.293h-.079a2.508 2.508 0 01-.836.99c-.377.268-.855.402-1.431.402-.478 0-.902-.104-1.273-.313a2.192 2.192 0 01-.875-.954c-.212-.428-.318-.966-.318-1.616v-4.852h1.173v4.772c0 .557.156 1.001.467 1.333.315.331.716.497 1.203.497.292 0 .589-.075.89-.224.305-.149.561-.378.766-.686.209-.308.313-.701.313-1.178zm4.496-7.06V216h-1.173v-10.182h1.173zm50.455 0V216h-1.233v-8.889h-.06l-2.486 1.65v-1.252l2.546-1.691h1.233zM488.88 216l4.554-9.009v-.079h-5.25v-1.094h6.523v1.154L490.173 216h-1.293zm15.694-10.182h1.233v7.279c0 .649-.119 1.201-.358 1.655a2.433 2.433 0 01-1.009 1.034c-.434.236-.946.353-1.536.353-.557 0-1.053-.101-1.487-.303a2.456 2.456 0 01-1.024-.875c-.249-.378-.373-.827-.373-1.347h1.213c0 .288.071.54.214.755.146.212.345.378.597.497.251.12.538.179.86.179.354 0 .656-.074.904-.223a1.41 1.41 0 00.567-.657c.133-.291.199-.647.199-1.068v-7.279zm8.357 7.06v-4.514h1.174V216h-1.174v-1.293h-.079a2.514 2.514 0 01-.835.99c-.378.268-.856.402-1.432.402-.478 0-.902-.104-1.273-.313a2.192 2.192 0 01-.875-.954c-.212-.428-.318-.966-.318-1.616v-4.852h1.173v4.772c0 .557.156 1.001.467 1.333.315.331.716.497 1.204.497.291 0 .588-.075.889-.224.305-.149.561-.378.766-.686.209-.308.313-.701.313-1.178zm4.496-7.06V216h-1.173v-10.182h1.173zM564.054 216v-.895l3.361-3.679c.394-.431.719-.805.974-1.123.255-.322.444-.624.567-.905.126-.285.189-.584.189-.895 0-.358-.086-.668-.259-.93a1.67 1.67 0 00-.696-.606 2.248 2.248 0 00-.994-.214c-.391 0-.732.081-1.024.243-.288.16-.512.383-.671.672a2.097 2.097 0 00-.234 1.014h-1.173c0-.597.137-1.12.412-1.571.275-.451.65-.802 1.124-1.054a3.386 3.386 0 011.606-.378c.596 0 1.125.126 1.586.378.46.252.822.591 1.084 1.019.261.428.392.903.392 1.427 0 .374-.068.741-.204 1.099-.132.354-.364.75-.696 1.188-.328.434-.783.964-1.367 1.591l-2.287 2.446v.079h4.733V216h-6.423zm8.019-2.088v-1.014l4.475-7.08h.735v1.571h-.497l-3.38 5.35v.079h6.025v1.094h-7.358zm4.793 2.088v-10.182h1.173V216h-1.173zm12.442-10.182h1.233v7.279c0 .649-.119 1.201-.358 1.655a2.427 2.427 0 01-1.009 1.034c-.434.236-.946.353-1.536.353-.557 0-1.052-.101-1.487-.303a2.456 2.456 0 01-1.024-.875c-.248-.378-.373-.827-.373-1.347h1.214c0 .288.071.54.213.755.146.212.345.378.597.497.252.12.538.179.86.179.355 0 .656-.074.905-.223.248-.149.437-.368.567-.657.132-.291.198-.647.198-1.068v-7.279zm8.358 7.06v-4.514h1.173V216h-1.173v-1.293h-.08a2.505 2.505 0 01-.835.99c-.378.268-.855.402-1.432.402-.477 0-.901-.104-1.273-.313a2.192 2.192 0 01-.875-.954c-.212-.428-.318-.966-.318-1.616v-4.852h1.173v4.772c0 .557.156 1.001.468 1.333.315.331.716.497 1.203.497a2 2 0 00.89-.224c.305-.149.56-.378.765-.686.209-.308.314-.701.314-1.178zm4.495-7.06V216h-1.173v-10.182h1.173zm50.333 10.321c-.656 0-1.241-.112-1.755-.338a3.007 3.007 0 01-1.218-.939 2.535 2.535 0 01-.487-1.407h1.253c.026.328.139.611.338.85.199.235.459.417.781.547a2.84 2.84 0 001.068.193c.438 0 .826-.076 1.164-.228.338-.153.603-.365.795-.637.192-.271.289-.586.289-.944a1.77 1.77 0 00-.279-.99c-.185-.288-.457-.513-.815-.676-.358-.162-.796-.243-1.313-.243h-.815v-1.094h.815c.405 0 .759-.073 1.064-.219a1.651 1.651 0 00.985-1.551c0-.345-.077-.645-.229-.9a1.566 1.566 0 00-.646-.596 2.087 2.087 0 00-.975-.214c-.351 0-.683.064-.994.194-.308.126-.56.31-.756.552a1.441 1.441 0 00-.318.865h-1.193c.02-.534.18-1.001.482-1.402.302-.405.696-.72 1.183-.945a3.83 3.83 0 011.616-.338c.63 0 1.17.128 1.621.383.451.252.797.585 1.039.999.242.414.363.862.363 1.342 0 .574-.151 1.063-.453 1.467a2.294 2.294 0 01-1.218.84v.08c.643.106 1.145.379 1.507.82.361.438.542.979.542 1.626 0 .553-.151 1.05-.453 1.491a3.068 3.068 0 01-1.223 1.034c-.517.252-1.105.378-1.765.378zm9.054-10.321V216h-1.233v-8.889h-.06l-2.486 1.65v-1.252l2.546-1.691h1.233zm10.942 0h1.233v7.279c0 .649-.119 1.201-.358 1.655a2.433 2.433 0 01-1.009 1.034c-.434.236-.946.353-1.536.353-.557 0-1.053-.101-1.487-.303a2.456 2.456 0 01-1.024-.875c-.249-.378-.373-.827-.373-1.347h1.213c0 .288.071.54.214.755.146.212.345.378.597.497.251.12.538.179.86.179.354 0 .656-.074.904-.223a1.41 1.41 0 00.567-.657c.133-.291.199-.647.199-1.068v-7.279zm8.357 7.06v-4.514h1.174V216h-1.174v-1.293h-.079a2.514 2.514 0 01-.835.99c-.378.268-.856.402-1.432.402-.478 0-.902-.104-1.273-.313a2.192 2.192 0 01-.875-.954c-.212-.428-.318-.966-.318-1.616v-4.852h1.173v4.772c0 .557.156 1.001.467 1.333.315.331.716.497 1.204.497.291 0 .588-.075.889-.224.305-.149.561-.378.766-.686.209-.308.313-.701.313-1.178zm4.496-7.06V216h-1.173v-10.182h1.173zM732.372 216l4.554-9.009v-.079h-5.25v-1.094h6.523v1.154L733.665 216h-1.293zm17.365-7.636a1.564 1.564 0 00-.726-1.174c-.424-.278-.945-.417-1.561-.417-.451 0-.845.073-1.183.218a1.894 1.894 0 00-.786.602 1.438 1.438 0 00-.278.87c0 .272.064.506.193.701.133.192.302.353.508.482.205.126.421.231.646.314.225.079.432.144.621.193l1.034.279c.266.069.561.166.885.288.329.123.642.29.94.502.302.209.55.478.746.806.195.328.293.731.293 1.208 0 .55-.144 1.047-.432 1.491-.285.444-.703.797-1.253 1.059-.547.262-1.212.393-1.994.393-.729 0-1.36-.118-1.894-.353-.53-.235-.948-.563-1.253-.984a2.808 2.808 0 01-.512-1.467h1.273c.033.384.162.703.388.955.228.248.517.434.865.556.351.12.729.179 1.133.179.471 0 .893-.076 1.268-.228.374-.156.671-.372.89-.647.219-.278.328-.603.328-.974 0-.338-.095-.613-.283-.825a2.078 2.078 0 00-.746-.517 7.702 7.702 0 00-1-.348l-1.252-.358c-.796-.229-1.426-.556-1.89-.98-.464-.424-.696-.979-.696-1.665 0-.57.155-1.068.463-1.492a3.067 3.067 0 011.253-.994 4.224 4.224 0 011.765-.358c.656 0 1.239.118 1.75.353.51.232.914.55 1.213.955.301.404.46.863.477 1.377h-1.193zm6.402 7.795c-.736 0-1.371-.162-1.904-.487a3.266 3.266 0 01-1.228-1.372c-.285-.59-.428-1.276-.428-2.059 0-.782.143-1.471.428-2.068.288-.6.689-1.067 1.203-1.402.517-.338 1.12-.507 1.81-.507.397 0 .79.066 1.178.199.388.133.741.348 1.059.646.318.295.571.686.76 1.174.189.487.284 1.087.284 1.799v.498h-5.887v-1.015h4.694c0-.431-.087-.815-.259-1.153a1.943 1.943 0 00-.726-.8c-.311-.196-.679-.294-1.103-.294-.468 0-.872.116-1.214.348a2.288 2.288 0 00-.78.895 2.632 2.632 0 00-.274 1.183v.676c0 .577.1 1.066.299 1.467.202.398.482.701.84.91.358.205.774.308 1.248.308.308 0 .586-.043.835-.129.252-.09.469-.222.651-.398.183-.179.324-.401.423-.666l1.133.318a2.497 2.497 0 01-.601 1.014c-.282.289-.63.514-1.044.676-.414.16-.88.239-1.397.239zm4.947 2.705v-10.5h1.133v1.213h.139c.086-.133.206-.302.358-.507.156-.209.378-.395.666-.557.292-.166.687-.249 1.184-.249.643 0 1.209.161 1.7.482.491.322.873.778 1.148 1.368.276.59.413 1.286.413 2.088 0 .808-.137 1.509-.413 2.103-.275.59-.656 1.047-1.143 1.372-.487.321-1.049.482-1.685.482-.491 0-.884-.081-1.179-.244a2.182 2.182 0 01-.681-.561 7.523 7.523 0 01-.368-.527h-.099v4.037h-1.173zm1.153-6.682c0 .577.085 1.085.254 1.526.169.438.415.781.74 1.029.325.245.723.368 1.193.368.491 0 .9-.129 1.228-.388a2.37 2.37 0 00.746-1.054c.169-.444.254-.938.254-1.481 0-.537-.083-1.021-.249-1.452a2.238 2.238 0 00-.741-1.029c-.328-.255-.74-.383-1.238-.383-.477 0-.878.121-1.203.363-.324.239-.57.573-.735 1.004-.166.428-.249.927-.249 1.497zm55.395-6.364V216h-1.233v-8.889h-.06l-2.486 1.65v-1.252l2.546-1.691h1.233zm2.689 8.094v-1.014l4.475-7.08h.735v1.571h-.497l-3.38 5.35v.079h6.025v1.094h-7.358zm4.793 2.088v-10.182h1.173V216h-1.173zm14.113-7.636a1.564 1.564 0 00-.726-1.174c-.424-.278-.945-.417-1.561-.417-.451 0-.845.073-1.183.218a1.894 1.894 0 00-.786.602 1.445 1.445 0 00-.278.87c0 .272.064.506.194.701.132.192.301.353.507.482.205.126.421.231.646.314.225.079.433.144.622.193l1.034.279c.265.069.56.166.885.288.328.123.641.29.939.502.302.209.55.478.746.806.195.328.293.731.293 1.208 0 .55-.144 1.047-.432 1.491-.285.444-.703.797-1.253 1.059-.547.262-1.212.393-1.994.393-.729 0-1.36-.118-1.894-.353-.53-.235-.948-.563-1.253-.984a2.817 2.817 0 01-.512-1.467h1.273c.033.384.162.703.388.955.228.248.517.434.865.556.351.12.729.179 1.133.179.471 0 .894-.076 1.268-.228.375-.156.671-.372.89-.647.219-.278.328-.603.328-.974 0-.338-.094-.613-.283-.825a2.078 2.078 0 00-.746-.517 7.687 7.687 0 00-.999-.348l-1.253-.358c-.796-.229-1.425-.556-1.889-.98-.464-.424-.696-.979-.696-1.665 0-.57.154-1.068.462-1.492a3.073 3.073 0 011.253-.994 4.224 4.224 0 011.765-.358c.656 0 1.239.118 1.75.353.51.232.914.55 1.213.955.301.404.46.863.477 1.377h-1.193zm6.402 7.795c-.736 0-1.37-.162-1.904-.487a3.273 3.273 0 01-1.228-1.372c-.285-.59-.428-1.276-.428-2.059 0-.782.143-1.471.428-2.068.288-.6.689-1.067 1.203-1.402.517-.338 1.12-.507 1.81-.507.397 0 .79.066 1.178.199.388.133.741.348 1.059.646.318.295.572.686.761 1.174.189.487.283 1.087.283 1.799v.498h-5.886v-1.015h4.693c0-.431-.086-.815-.259-1.153a1.943 1.943 0 00-.726-.8c-.311-.196-.679-.294-1.103-.294-.468 0-.872.116-1.213.348a2.29 2.29 0 00-.781.895 2.632 2.632 0 00-.273 1.183v.676c0 .577.099 1.066.298 1.467.202.398.482.701.84.91.358.205.774.308 1.248.308.308 0 .587-.043.835-.129.252-.09.469-.222.652-.398.182-.179.323-.401.422-.666l1.134.318a2.51 2.51 0 01-.602 1.014c-.282.289-.63.514-1.044.676-.414.16-.88.239-1.397.239zm4.947 2.705v-10.5h1.133v1.213h.139c.087-.133.206-.302.358-.507a2.09 2.09 0 01.667-.557c.291-.166.686-.249 1.183-.249.643 0 1.21.161 1.7.482.491.322.874.778 1.149 1.368.275.59.412 1.286.412 2.088 0 .808-.137 1.509-.412 2.103-.275.59-.657 1.047-1.144 1.372-.487.321-1.049.482-1.685.482-.491 0-.884-.081-1.178-.244a2.187 2.187 0 01-.682-.561 7.881 7.881 0 01-.368-.527h-.099v4.037h-1.173zm1.153-6.682c0 .577.085 1.085.254 1.526.169.438.416.781.74 1.029.325.245.723.368 1.194.368.49 0 .9-.129 1.228-.388.331-.262.58-.613.745-1.054.169-.444.254-.938.254-1.481 0-.537-.083-1.021-.249-1.452a2.243 2.243 0 00-.74-1.029c-.329-.255-.741-.383-1.238-.383-.478 0-.879.121-1.203.363-.325.239-.571.573-.736 1.004-.166.428-.249.927-.249 1.497zM904.054 216v-.895l3.361-3.679c.394-.431.719-.805.974-1.123.255-.322.444-.624.567-.905.126-.285.189-.584.189-.895 0-.358-.086-.668-.259-.93a1.67 1.67 0 00-.696-.606 2.248 2.248 0 00-.994-.214c-.391 0-.732.081-1.024.243-.288.16-.512.383-.671.672a2.097 2.097 0 00-.234 1.014h-1.173c0-.597.137-1.12.412-1.571.275-.451.65-.802 1.124-1.054a3.386 3.386 0 011.606-.378c.596 0 1.125.126 1.586.378.46.252.822.591 1.084 1.019.261.428.392.903.392 1.427 0 .374-.068.741-.204 1.099-.132.354-.364.75-.696 1.188-.328.434-.783.964-1.367 1.591l-2.287 2.446v.079h4.733V216h-6.423zm12.056-10.182V216h-1.233v-8.889h-.06l-2.485 1.65v-1.252l2.545-1.691h1.233zm12.613 2.546a1.564 1.564 0 00-.726-1.174c-.424-.278-.944-.417-1.561-.417-.451 0-.845.073-1.183.218a1.894 1.894 0 00-.786.602 1.445 1.445 0 00-.278.87c0 .272.065.506.194.701.132.192.301.353.507.482.205.126.421.231.646.314.226.079.433.144.622.193l1.034.279c.265.069.56.166.885.288.328.123.641.29.939.502.302.209.551.478.746.806.196.328.293.731.293 1.208 0 .55-.144 1.047-.432 1.491-.285.444-.703.797-1.253 1.059-.547.262-1.211.393-1.994.393-.729 0-1.36-.118-1.894-.353-.53-.235-.948-.563-1.253-.984a2.817 2.817 0 01-.512-1.467h1.273c.033.384.162.703.388.955a2.1 2.1 0 00.865.556c.351.12.729.179 1.133.179.471 0 .894-.076 1.268-.228.375-.156.671-.372.89-.647.219-.278.328-.603.328-.974 0-.338-.094-.613-.283-.825a2.078 2.078 0 00-.746-.517 7.687 7.687 0 00-.999-.348l-1.253-.358c-.795-.229-1.425-.556-1.889-.98-.464-.424-.696-.979-.696-1.665 0-.57.154-1.068.462-1.492a3.073 3.073 0 011.253-.994 4.224 4.224 0 011.765-.358c.656 0 1.239.118 1.75.353.51.232.915.55 1.213.955.302.404.461.863.477 1.377h-1.193zm6.402 7.795c-.736 0-1.37-.162-1.904-.487a3.273 3.273 0 01-1.228-1.372c-.285-.59-.427-1.276-.427-2.059 0-.782.142-1.471.427-2.068.288-.6.689-1.067 1.203-1.402.517-.338 1.12-.507 1.81-.507.398 0 .79.066 1.178.199.388.133.741.348 1.059.646.318.295.572.686.761 1.174.189.487.283 1.087.283 1.799v.498h-5.886v-1.015h4.693c0-.431-.086-.815-.259-1.153a1.948 1.948 0 00-.725-.8c-.312-.196-.68-.294-1.104-.294-.467 0-.872.116-1.213.348a2.298 2.298 0 00-.781.895 2.632 2.632 0 00-.273 1.183v.676c0 .577.099 1.066.298 1.467.202.398.482.701.84.91.358.205.774.308 1.248.308.308 0 .587-.043.835-.129.252-.09.469-.222.652-.398.182-.179.323-.401.422-.666l1.134.318a2.51 2.51 0 01-.602 1.014c-.281.289-.63.514-1.044.676-.414.16-.88.239-1.397.239zm4.947 2.705v-10.5h1.133v1.213h.14c.086-.133.205-.302.358-.507.155-.209.377-.395.666-.557.291-.166.686-.249 1.183-.249.643 0 1.21.161 1.7.482.491.322.874.778 1.149 1.368.275.59.412 1.286.412 2.088 0 .808-.137 1.509-.412 2.103-.275.59-.657 1.047-1.144 1.372-.487.321-1.049.482-1.685.482-.491 0-.883-.081-1.178-.244a2.182 2.182 0 01-.681-.561 7.195 7.195 0 01-.368-.527h-.1v4.037h-1.173zm1.153-6.682c0 .577.085 1.085.254 1.526.169.438.416.781.741 1.029.324.245.722.368 1.193.368.49 0 .9-.129 1.228-.388.331-.262.58-.613.746-1.054.169-.444.253-.938.253-1.481 0-.537-.083-1.021-.248-1.452a2.252 2.252 0 00-.741-1.029c-.328-.255-.741-.383-1.238-.383-.477 0-.878.121-1.203.363-.325.239-.57.573-.736 1.004-.166.428-.249.927-.249 1.497zM11.948 82.14a3.811 3.811 0 01-1.253-.24 3.002 3.002 0 01-1.143-.77c-.345-.365-.621-.857-.83-1.477-.209-.623-.313-1.405-.313-2.346 0-.902.084-1.7.253-2.397.17-.699.414-1.287.736-1.764.321-.481.71-.846 1.163-1.094a3.185 3.185 0 011.546-.373c.57 0 1.078.114 1.522.343a2.9 2.9 0 011.094.945c.281.404.463.87.546 1.397h-1.213a2.25 2.25 0 00-.656-1.139c-.325-.301-.756-.452-1.293-.452-.788 0-1.41.343-1.864 1.029-.45.686-.678 1.649-.681 2.888h.08a2.991 2.991 0 011.516-1.188c.311-.11.641-.164.99-.164a3.04 3.04 0 011.6.438c.484.288.872.687 1.163 1.198.292.507.438 1.088.438 1.745a3.59 3.59 0 01-.423 1.73 3.22 3.22 0 01-1.188 1.243c-.507.305-1.104.454-1.79.447zm0-1.094c.418 0 .793-.105 1.124-.314.335-.209.598-.489.79-.84.196-.351.294-.742.294-1.173 0-.421-.095-.804-.284-1.149a2.16 2.16 0 00-.77-.83 2.038 2.038 0 00-1.114-.308c-.315 0-.608.063-.88.189-.272.122-.51.291-.716.507a2.45 2.45 0 00-.477.74 2.357 2.357 0 00.11 2.004c.192.352.453.635.785.85.335.216.714.324 1.138.324zm8.677 1.093c-.75 0-1.387-.204-1.914-.611-.527-.411-.93-1.006-1.208-1.785-.279-.782-.418-1.727-.418-2.834 0-1.1.14-2.04.418-2.819.282-.782.686-1.379 1.213-1.79.53-.414 1.167-.621 1.909-.621s1.377.207 1.904.621c.53.411.935 1.008 1.213 1.79.282.78.423 1.719.423 2.82 0 1.106-.14 2.05-.418 2.833-.278.779-.68 1.374-1.208 1.785-.527.407-1.165.611-1.914.611zm0-1.093c.742 0 1.32-.359 1.73-1.074.411-.716.617-1.737.617-3.063 0-.882-.095-1.632-.284-2.252-.185-.62-.454-1.092-.805-1.417a1.778 1.778 0 00-1.258-.487c-.736 0-1.31.363-1.725 1.089-.414.722-.622 1.745-.622 3.067 0 .882.093 1.63.279 2.247.185.617.452 1.086.8 1.407.352.322.774.483 1.268.483zM11.938 48.14c-.682 0-1.286-.122-1.81-.364-.52-.245-.926-.581-1.217-1.009a2.535 2.535 0 01-.433-1.472 2.706 2.706 0 01.96-2.113 2.163 2.163 0 011.009-.472v-.06a1.966 1.966 0 01-1.163-.82 2.485 2.485 0 01-.428-1.447 2.462 2.462 0 01.393-1.387c.265-.407.63-.729 1.093-.964.468-.235 1-.353 1.596-.353.59 0 1.117.118 1.581.353.464.235.829.557 1.094.964.269.408.405.87.408 1.387a2.521 2.521 0 01-.443 1.447c-.288.421-.67.695-1.148.82v.06c.368.066.7.224.994.472a2.773 2.773 0 01.975 2.114 2.571 2.571 0 01-.448 1.471c-.292.428-.697.764-1.218 1.01-.517.241-1.115.362-1.795.362zm0-1.095c.461 0 .859-.074 1.194-.223.334-.15.593-.36.775-.632a1.7 1.7 0 00.278-.954 1.832 1.832 0 00-.298-1.02 2.024 2.024 0 00-.8-.695 2.513 2.513 0 00-1.149-.254c-.434 0-.822.085-1.163.254a2.024 2.024 0 00-.8.696 1.795 1.795 0 00-.284 1.019c-.003.364.085.683.264.954.182.272.442.483.78.632.338.149.74.223 1.203.223zm0-4.832c.365 0 .688-.073.97-.219a1.66 1.66 0 00.671-.611c.162-.262.245-.569.249-.92a1.698 1.698 0 00-.244-.9 1.58 1.58 0 00-.661-.596 2.154 2.154 0 00-.985-.214c-.38 0-.714.071-.999.214a1.543 1.543 0 00-.661.596 1.661 1.661 0 00-.229.9 1.71 1.71 0 00.234.92c.162.262.386.465.671.611.285.146.613.22.984.22zm8.687 5.926c-.75 0-1.387-.204-1.914-.611-.527-.411-.93-1.006-1.208-1.785-.279-.782-.418-1.727-.418-2.834 0-1.1.14-2.04.418-2.819.282-.782.686-1.379 1.213-1.79.53-.414 1.167-.621 1.909-.621s1.377.207 1.904.621c.53.411.935 1.008 1.213 1.79.282.78.423 1.719.423 2.82 0 1.106-.14 2.05-.418 2.833-.278.779-.68 1.374-1.208 1.785-.527.407-1.165.611-1.914.611zm0-1.094c.742 0 1.32-.358 1.73-1.073.411-.716.617-1.737.617-3.063 0-.881-.095-1.632-.284-2.252-.185-.62-.454-1.092-.805-1.417a1.778 1.778 0 00-1.258-.487c-.736 0-1.31.363-1.725 1.089-.414.722-.622 1.745-.622 3.067 0 .882.093 1.63.279 2.247.185.617.452 1.086.8 1.407.352.322.774.482 1.268.482zM5.626 3.818V14H4.393V5.11h-.06L1.847 6.762V5.51l2.546-1.69h1.233zm6.249 10.321c-.75 0-1.387-.204-1.914-.611-.527-.411-.93-1.006-1.208-1.785-.279-.782-.418-1.727-.418-2.834 0-1.1.14-2.04.418-2.819.282-.782.686-1.379 1.213-1.79.53-.414 1.167-.621 1.909-.621s1.377.207 1.904.621c.53.411.935 1.008 1.213 1.79.282.78.423 1.719.423 2.82 0 1.106-.14 2.05-.418 2.833-.278.779-.68 1.374-1.208 1.785-.527.407-1.165.611-1.914.611zm0-1.093c.742 0 1.32-.358 1.73-1.074.411-.716.617-1.737.617-3.063 0-.882-.095-1.632-.284-2.252-.185-.62-.454-1.092-.805-1.417a1.778 1.778 0 00-1.258-.487c-.736 0-1.31.363-1.725 1.089-.414.722-.622 1.745-.622 3.067 0 .882.093 1.63.279 2.247.185.617.452 1.086.8 1.407.352.322.774.482 1.268.482zm8.75 1.093c-.75 0-1.387-.204-1.914-.611-.527-.411-.93-1.006-1.208-1.785-.279-.782-.418-1.727-.418-2.834 0-1.1.14-2.04.418-2.819.282-.782.686-1.379 1.213-1.79.53-.414 1.167-.621 1.909-.621s1.377.207 1.904.621c.53.411.935 1.008 1.213 1.79.282.78.423 1.719.423 2.82 0 1.106-.14 2.05-.418 2.833-.278.779-.68 1.374-1.208 1.785-.527.407-1.165.611-1.914.611zm0-1.093c.742 0 1.32-.358 1.73-1.074.411-.716.617-1.737.617-3.063 0-.882-.095-1.632-.284-2.252-.185-.62-.454-1.092-.805-1.417a1.778 1.778 0 00-1.258-.487c-.736 0-1.31.363-1.725 1.089-.414.722-.622 1.745-.622 3.067 0 .882.093 1.63.279 2.247.185.617.452 1.086.8 1.407.352.322.774.482 1.268.482zM8.827 150v-.895l3.361-3.679c.395-.431.72-.805.975-1.123.255-.322.444-.624.566-.905.126-.285.19-.584.19-.895a1.65 1.65 0 00-.26-.93 1.67 1.67 0 00-.695-.606 2.25 2.25 0 00-.995-.214c-.39 0-.732.081-1.024.243-.288.16-.512.383-.67.672a2.1 2.1 0 00-.235 1.014H8.867c0-.597.138-1.12.413-1.571a2.87 2.87 0 011.123-1.054 3.386 3.386 0 011.606-.378c.597 0 1.125.126 1.586.378.46.252.822.591 1.084 1.019.262.428.393.903.393 1.427 0 .374-.068.741-.204 1.099-.133.354-.365.75-.696 1.188-.328.434-.784.964-1.367 1.591l-2.287 2.446v.079h4.733V150H8.827zm11.798.139c-.75 0-1.387-.204-1.914-.611-.527-.411-.93-1.006-1.208-1.785-.279-.782-.418-1.727-.418-2.834 0-1.1.14-2.04.418-2.819.282-.782.686-1.379 1.213-1.79.53-.414 1.167-.621 1.909-.621s1.377.207 1.904.621c.53.411.935 1.008 1.213 1.79.282.779.423 1.719.423 2.819 0 1.107-.14 2.052-.418 2.834-.278.779-.68 1.374-1.208 1.785-.527.407-1.165.611-1.914.611zm0-1.094c.742 0 1.32-.358 1.73-1.073.411-.716.617-1.737.617-3.063 0-.882-.095-1.632-.284-2.252-.185-.62-.454-1.092-.805-1.417a1.777 1.777 0 00-1.258-.487c-.736 0-1.31.363-1.725 1.089-.414.722-.622 1.745-.622 3.067 0 .882.093 1.631.279 2.247.185.617.452 1.086.8 1.407a1.81 1.81 0 001.268.482zM8.083 113.912v-1.014l4.474-7.08h.736v1.571h-.497l-3.38 5.35v.079h6.025v1.094H8.083zM12.876 116v-10.182h1.173V116h-1.173zm7.749.139c-.75 0-1.387-.204-1.914-.611-.527-.411-.93-1.006-1.208-1.785-.279-.782-.418-1.727-.418-2.834 0-1.1.14-2.04.418-2.819.282-.782.686-1.379 1.213-1.79.53-.414 1.167-.621 1.909-.621s1.377.207 1.904.621c.53.411.935 1.008 1.213 1.79.282.779.423 1.719.423 2.819 0 1.107-.14 2.052-.418 2.834-.278.779-.68 1.374-1.208 1.785-.527.407-1.165.611-1.914.611zm0-1.094c.742 0 1.32-.358 1.73-1.073.411-.716.617-1.737.617-3.063 0-.882-.095-1.632-.284-2.252-.185-.62-.454-1.092-.805-1.417a1.777 1.777 0 00-1.258-.487c-.736 0-1.31.363-1.725 1.089-.414.722-.622 1.745-.622 3.067 0 .882.093 1.631.279 2.247.185.617.452 1.086.8 1.407a1.81 1.81 0 001.268.482zm0 69.094c-.75 0-1.387-.204-1.914-.611-.527-.411-.93-1.006-1.208-1.785-.279-.782-.418-1.727-.418-2.834 0-1.1.14-2.04.418-2.819.282-.782.686-1.379 1.213-1.79.53-.414 1.167-.621 1.909-.621s1.377.207 1.904.621c.53.411.935 1.008 1.213 1.79.282.779.423 1.719.423 2.819 0 1.107-.14 2.052-.418 2.834-.278.779-.68 1.374-1.208 1.785-.527.407-1.165.611-1.914.611zm0-1.094c.742 0 1.32-.358 1.73-1.073.411-.716.617-1.737.617-3.063 0-.882-.095-1.632-.284-2.252-.185-.62-.454-1.092-.805-1.417a1.777 1.777 0 00-1.258-.487c-.736 0-1.31.363-1.725 1.089-.414.722-.622 1.745-.622 3.067 0 .882.093 1.631.279 2.247.185.617.452 1.086.8 1.407a1.81 1.81 0 001.268.482z" fill="#7B91B0"/><circle cx="319" cy="260.5" fill="#5A3795" r="6"/><path d="M337.773 255.614v-1.25h8.727v1.25h-3.659V266h-1.409v-10.386h-3.659zM349.31 266l-2.659-8.727h1.409l1.887 6.682h.09l1.864-6.682h1.432l1.841 6.659h.091l1.886-6.659h1.409L355.901 266h-1.318l-1.909-6.705h-.137L350.628 266h-1.318zm10.863 0v-8.727h1.341V266h-1.341zm.682-10.182a.951.951 0 01-.676-.267.857.857 0 01-.279-.642c0-.25.093-.464.279-.642a.951.951 0 01.676-.267c.261 0 .485.089.67.267.19.178.284.392.284.642s-.094.464-.284.642a.932.932 0 01-.67.267zm6.75 1.455v1.136h-4.522v-1.136h4.522zm-3.204-2.091h1.341v8.318c0 .379.055.663.164.852a.853.853 0 00.432.375c.178.061.366.091.563.091.147 0 .269-.007.363-.023l.228-.045.272 1.205a2.72 2.72 0 01-.38.102c-.163.038-.37.057-.62.057-.378 0-.75-.082-1.113-.245a2.217 2.217 0 01-.898-.744c-.235-.333-.352-.754-.352-1.261v-8.682zm8.857 2.091v1.136h-4.523v-1.136h4.523zm-3.205-2.091h1.341v8.318c0 .379.055.663.165.852a.849.849 0 00.432.375c.178.061.365.091.562.091.148 0 .269-.007.364-.023l.227-.045.273 1.205a2.74 2.74 0 01-.381.102 2.792 2.792 0 01-.619.057 2.7 2.7 0 01-1.114-.245 2.217 2.217 0 01-.898-.744c-.234-.333-.352-.754-.352-1.261v-8.682zm8.627 11c-.841 0-1.566-.186-2.176-.557a3.736 3.736 0 01-1.403-1.568c-.326-.674-.489-1.459-.489-2.352 0-.894.163-1.682.489-2.364.329-.686.787-1.22 1.375-1.602.59-.387 1.28-.58 2.068-.58.454 0 .903.076 1.346.227.444.152.847.398 1.211.739.363.337.653.784.869 1.341.216.557.324 1.242.324 2.057v.568h-6.728v-1.159h5.364c0-.493-.098-.932-.295-1.318a2.226 2.226 0 00-.83-.915c-.356-.224-.776-.335-1.261-.335-.534 0-.996.132-1.387.397a2.633 2.633 0 00-.892 1.023 3.01 3.01 0 00-.312 1.352v.773c0 .659.113 1.218.341 1.676.231.455.551.801.96 1.04.409.235.884.352 1.426.352.352 0 .671-.049.955-.147.288-.103.536-.254.744-.455.208-.205.369-.458.483-.761l1.295.363a2.86 2.86 0 01-.687 1.159c-.322.33-.72.587-1.193.773a4.425 4.425 0 01-1.597.273zm5.494-.182v-8.727h1.295v1.318h.091c.159-.432.447-.782.864-1.051a2.54 2.54 0 011.409-.404c.098 0 .221.002.369.006a5.5 5.5 0 01.335.017v1.364a3.351 3.351 0 00-.312-.051 3.026 3.026 0 00-.506-.04c-.424 0-.803.089-1.136.267a1.955 1.955 0 00-1.069 1.778V266h-1.34z" fill="#2C2C2C"/><circle cx="427" cy="260.5" fill="#00D3A2" r="6"/><path d="M446.409 266v-11.636h6.977v1.25h-5.568v3.931h5.046v1.25h-5.046V266h-1.409zm11.617.205a3.554 3.554 0 01-1.506-.313 2.583 2.583 0 01-1.073-.915c-.266-.401-.398-.886-.398-1.454 0-.5.098-.906.295-1.216.197-.315.46-.561.79-.739.33-.178.693-.31 1.091-.398.401-.09.805-.162 1.21-.215.53-.069.96-.12 1.29-.154.333-.038.576-.1.727-.187.156-.087.233-.239.233-.455v-.045c0-.561-.153-.997-.46-1.307-.303-.311-.763-.466-1.381-.466-.64 0-1.142.14-1.505.42-.364.281-.62.58-.767.898l-1.273-.454c.227-.531.53-.944.909-1.239a3.398 3.398 0 011.25-.625 5.193 5.193 0 011.341-.182c.28 0 .602.034.966.102.367.065.721.199 1.062.404.345.204.631.513.858.926.227.413.341.966.341 1.659V266h-1.341v-1.182h-.068c-.091.19-.242.392-.455.608-.212.216-.494.4-.846.551-.352.152-.782.228-1.29.228zm.205-1.205c.53 0 .977-.104 1.341-.312a2.14 2.14 0 00.829-.807c.189-.33.284-.676.284-1.04v-1.227c-.057.068-.182.13-.375.187a6.143 6.143 0 01-.659.142c-.246.038-.487.072-.722.102-.231.027-.418.05-.562.069a5.114 5.114 0 00-.977.221c-.3.099-.542.248-.728.449-.181.197-.272.466-.272.807 0 .466.172.818.517 1.057.348.235.79.352 1.324.352zm9.628 1.182c-.818 0-1.523-.193-2.114-.58a3.77 3.77 0 01-1.363-1.596c-.318-.678-.478-1.453-.478-2.324 0-.887.163-1.669.489-2.347.33-.682.788-1.214 1.375-1.596.591-.387 1.28-.58 2.068-.58.614 0 1.167.114 1.659.341a3.17 3.17 0 011.211.955c.314.409.509.886.585 1.431h-1.341c-.102-.397-.33-.75-.682-1.056-.348-.311-.818-.466-1.409-.466-.523 0-.981.136-1.375.409-.39.269-.695.649-.915 1.142-.216.488-.324 1.062-.324 1.721 0 .675.106 1.262.319 1.762.215.5.518.888.909 1.164.394.277.856.415 1.386.415.348 0 .665-.06.949-.182.284-.121.524-.295.721-.522.197-.228.338-.5.421-.818h1.341a3.102 3.102 0 01-.563 1.392 3.142 3.142 0 01-1.176.977c-.485.238-1.049.358-1.693.358zm8.891 0c-.841 0-1.566-.186-2.176-.557a3.736 3.736 0 01-1.403-1.568c-.326-.674-.489-1.459-.489-2.352 0-.894.163-1.682.489-2.364.329-.686.787-1.22 1.375-1.602.59-.387 1.28-.58 2.068-.58.454 0 .903.076 1.346.227.444.152.847.398 1.211.739.363.337.653.784.869 1.341.216.557.324 1.242.324 2.057v.568h-6.728v-1.159H479c0-.493-.098-.932-.295-1.318a2.226 2.226 0 00-.83-.915c-.356-.224-.776-.335-1.261-.335-.534 0-.996.132-1.387.397a2.633 2.633 0 00-.892 1.023 3.01 3.01 0 00-.312 1.352v.773c0 .659.113 1.218.341 1.676.231.455.551.801.96 1.04.409.235.884.352 1.426.352.352 0 .671-.049.955-.147.288-.103.536-.254.744-.455.208-.205.369-.458.483-.761l1.295.363a2.86 2.86 0 01-.687 1.159c-.322.33-.72.587-1.193.773a4.425 4.425 0 01-1.597.273zm5.675-.182v-11.636h1.341v4.295h.114c.098-.151.235-.345.409-.579.178-.239.432-.451.761-.637.334-.189.784-.284 1.353-.284.734 0 1.382.184 1.943.551.56.368.998.888 1.312 1.563.315.674.472 1.469.472 2.386 0 .924-.157 1.725-.472 2.403-.314.675-.75 1.197-1.307 1.569-.556.367-1.198.551-1.926.551-.56 0-1.009-.093-1.346-.279-.337-.189-.597-.403-.779-.642a8.61 8.61 0 01-.42-.602h-.159V266h-1.296zm1.319-4.364c0 .659.096 1.241.289 1.745.193.5.476.892.847 1.176.371.28.826.42 1.364.42.56 0 1.028-.147 1.403-.443.379-.299.663-.701.852-1.204.193-.508.29-1.072.29-1.694 0-.613-.095-1.166-.284-1.659-.186-.496-.468-.888-.847-1.176-.375-.292-.846-.437-1.414-.437-.546 0-1.004.138-1.375.414-.372.273-.652.656-.841 1.148-.19.489-.284 1.059-.284 1.71zm11.822 4.546c-.787 0-1.479-.188-2.073-.563-.591-.375-1.053-.899-1.387-1.574-.329-.674-.494-1.462-.494-2.363 0-.909.165-1.703.494-2.381.334-.678.796-1.204 1.387-1.579.594-.375 1.286-.563 2.073-.563.788 0 1.478.188 2.069.563.594.375 1.056.901 1.386 1.579.333.678.5 1.472.5 2.381 0 .901-.167 1.689-.5 2.363a3.772 3.772 0 01-1.386 1.574c-.591.375-1.281.563-2.069.563zm0-1.205c.599 0 1.091-.153 1.478-.46a2.72 2.72 0 00.858-1.21c.185-.5.278-1.042.278-1.625 0-.584-.093-1.127-.278-1.631a2.748 2.748 0 00-.858-1.221c-.387-.311-.879-.466-1.478-.466-.598 0-1.09.155-1.477.466-.386.31-.672.717-.858 1.221a4.695 4.695 0 00-.278 1.631c0 .583.093 1.125.278 1.625.186.5.472.903.858 1.21.387.307.879.46 1.477.46zm9.387 1.205c-.788 0-1.479-.188-2.074-.563-.59-.375-1.053-.899-1.386-1.574-.329-.674-.494-1.462-.494-2.363 0-.909.165-1.703.494-2.381.333-.678.796-1.204 1.386-1.579.595-.375 1.286-.563 2.074-.563.788 0 1.478.188 2.069.563.594.375 1.056.901 1.386 1.579.333.678.5 1.472.5 2.381 0 .901-.167 1.689-.5 2.363a3.772 3.772 0 01-1.386 1.574c-.591.375-1.281.563-2.069.563zm0-1.205c.599 0 1.091-.153 1.478-.46a2.72 2.72 0 00.858-1.21c.185-.5.278-1.042.278-1.625 0-.584-.093-1.127-.278-1.631a2.748 2.748 0 00-.858-1.221c-.387-.311-.879-.466-1.478-.466-.598 0-1.091.155-1.477.466-.386.31-.672.717-.858 1.221a4.695 4.695 0 00-.278 1.631c0 .583.093 1.125.278 1.625.186.5.472.903.858 1.21.386.307.879.46 1.477.46zm7.092-2.159l-.023-1.659h.273l3.818-3.886h1.659l-4.068 4.113h-.114l-1.545 1.432zm-1.25 3.182v-11.636h1.341V266h-1.341zm5.545 0l-3.409-4.318.955-.932 4.159 5.25h-1.705z" fill="#2C2C2C"/><circle cx="557" cy="260.5" fill="#FA0060" r="6"/><path d="M575.409 254.364h1.614l3.227 5.431h.136l3.228-5.431h1.613l-4.204 6.841V266h-1.409v-4.795l-4.205-6.841zm13.61 11.818c-.788 0-1.479-.188-2.074-.563-.591-.375-1.053-.899-1.386-1.574-.33-.674-.495-1.462-.495-2.363 0-.909.165-1.703.495-2.381.333-.678.795-1.204 1.386-1.579.595-.375 1.286-.563 2.074-.563.788 0 1.477.188 2.068.563.595.375 1.057.901 1.387 1.579.333.678.5 1.472.5 2.381 0 .901-.167 1.689-.5 2.363-.33.675-.792 1.199-1.387 1.574-.591.375-1.28.563-2.068.563zm0-1.205c.598 0 1.091-.153 1.477-.46.387-.307.673-.71.858-1.21.186-.5.279-1.042.279-1.625 0-.584-.093-1.127-.279-1.631a2.732 2.732 0 00-.858-1.221c-.386-.311-.879-.466-1.477-.466-.599 0-1.091.155-1.477.466-.387.31-.673.717-.858 1.221a4.672 4.672 0 00-.279 1.631c0 .583.093 1.125.279 1.625.185.5.471.903.858 1.21.386.307.878.46 1.477.46zm11.341-2.545v-5.159h1.341V266h-1.341v-1.477h-.091c-.204.443-.522.82-.954 1.13-.432.307-.977.461-1.636.461-.546 0-1.031-.12-1.455-.358-.424-.243-.758-.606-1-1.091-.242-.489-.364-1.104-.364-1.847v-5.545h1.341v5.454c0 .637.178 1.144.534 1.523.36.379.819.568 1.375.568.334 0 .673-.085 1.017-.256.349-.17.641-.431.875-.784.239-.352.358-.801.358-1.346zm7.433-5.159v1.136h-4.523v-1.136h4.523zm-3.205-2.091h1.341v8.318c0 .379.055.663.165.852a.849.849 0 00.432.375c.178.061.365.091.562.091.148 0 .269-.007.364-.023l.227-.045.273 1.205a2.74 2.74 0 01-.381.102 2.792 2.792 0 01-.619.057 2.7 2.7 0 01-1.114-.245 2.217 2.217 0 01-.898-.744c-.234-.333-.352-.754-.352-1.261v-8.682zm10.562 7.25v-5.159h1.341V266h-1.341v-1.477h-.091c-.205.443-.523.82-.955 1.13-.431.307-.977.461-1.636.461-.545 0-1.03-.12-1.455-.358-.424-.243-.757-.606-1-1.091-.242-.489-.363-1.104-.363-1.847v-5.545h1.341v5.454c0 .637.178 1.144.534 1.523.36.379.818.568 1.375.568.333 0 .672-.085 1.017-.256.348-.17.64-.431.875-.784.238-.352.358-.801.358-1.346zm3.818 3.568v-11.636h1.341v4.295h.114c.098-.151.235-.345.409-.579.178-.239.432-.451.761-.637.334-.189.785-.284 1.353-.284.735 0 1.382.184 1.943.551.561.368.998.888 1.312 1.563.315.674.472 1.469.472 2.386 0 .924-.157 1.725-.472 2.403-.314.675-.75 1.197-1.306 1.569-.557.367-1.199.551-1.927.551-.56 0-1.009-.093-1.346-.279-.337-.189-.597-.403-.779-.642a8.61 8.61 0 01-.42-.602h-.159V266h-1.296zm1.319-4.364c0 .659.096 1.241.289 1.745.194.5.476.892.847 1.176.371.28.826.42 1.364.42.56 0 1.028-.147 1.403-.443.379-.299.663-.701.852-1.204.194-.508.29-1.072.29-1.694 0-.613-.095-1.166-.284-1.659-.186-.496-.468-.888-.847-1.176-.375-.292-.846-.437-1.414-.437-.546 0-1.004.138-1.375.414-.372.273-.652.656-.841 1.148-.19.489-.284 1.059-.284 1.71zm11.936 4.546c-.841 0-1.566-.186-2.176-.557a3.736 3.736 0 01-1.403-1.568c-.326-.674-.489-1.459-.489-2.352 0-.894.163-1.682.489-2.364.329-.686.788-1.22 1.375-1.602.591-.387 1.28-.58 2.068-.58.454 0 .903.076 1.346.227.444.152.847.398 1.211.739.363.337.653.784.869 1.341.216.557.324 1.242.324 2.057v.568h-6.727v-1.159h5.363c0-.493-.098-.932-.295-1.318a2.219 2.219 0 00-.83-.915c-.356-.224-.776-.335-1.261-.335-.534 0-.996.132-1.386.397a2.627 2.627 0 00-.893 1.023 3.01 3.01 0 00-.312 1.352v.773c0 .659.114 1.218.341 1.676.231.455.551.801.96 1.04.409.235.885.352 1.426.352.353 0 .671-.049.955-.147.288-.103.536-.254.744-.455.208-.205.369-.458.483-.761l1.296.363c-.137.44-.366.826-.688 1.159-.322.33-.72.587-1.193.773a4.425 4.425 0 01-1.597.273z" fill="#2C2C2C"/><path d="M70.5 178l89.5-52 26.5-57L246 178h90.5L412 19l81 107 89 52h85l78-52 85 52 91.5-101" stroke="#5A3795" stroke-width="2" stroke-linecap="round"/><ellipse cx="70" cy="177.995" rx="3" ry="2.995" fill="#5A3795"/><ellipse cx="160" cy="125.995" rx="3" ry="2.995" fill="#5A3795"/><ellipse cx="187" cy="67.995" rx="3" ry="2.995" fill="#5A3795"/><ellipse cx="246" cy="177.995" rx="3" ry="2.995" fill="#5A3795"/><ellipse cx="337" cy="177.995" rx="3" ry="2.995" fill="#5A3795"/><ellipse cx="412" cy="18.995" rx="3" ry="2.995" fill="#5A3795"/><ellipse cx="493" cy="125.995" rx="3" ry="2.995" fill="#5A3795"/><ellipse cx="581" cy="177.995" rx="3" ry="2.995" fill="#5A3795"/><ellipse cx="668" cy="177.995" rx="3" ry="2.995" fill="#5A3795"/><ellipse cx="747" cy="125.995" rx="3" ry="2.995" fill="#5A3795"/><ellipse cx="830" cy="177.995" rx="3" ry="2.995" fill="#5A3795"/><ellipse cx="922" cy="77.995" rx="3" ry="2.995" fill="#5A3795"/><path d="M69.5 177.5h512l86.5-15 79 15h173" stroke="#FA0060" stroke-width="2" stroke-linecap="round"/><ellipse cx="70" cy="177.995" rx="3" ry="2.995" fill="#FA0060"/><ellipse cx="160" cy="176.995" rx="3" ry="2.995" fill="#FA0060"/><ellipse cx="246" cy="177.995" rx="3" ry="2.995" fill="#FA0060"/><ellipse cx="337" cy="177.995" rx="3" ry="2.995" fill="#FA0060"/><ellipse cx="493" cy="177.995" rx="3" ry="2.995" fill="#FA0060"/><ellipse cx="581" cy="177.995" rx="3" ry="2.995" fill="#FA0060"/><ellipse cx="668" cy="162.995" rx="3" ry="2.995" fill="#FA0060"/><ellipse cx="747" cy="177.995" rx="3" ry="2.995" fill="#FA0060"/><ellipse cx="830" cy="177.995" rx="3" ry="2.995" fill="#FA0060"/><ellipse cx="922" cy="177.995" rx="3" ry="2.995" fill="#FA0060"/><path d="M70.5 177.5l87-67.5 28.5-3 57 51.5 92 10.5 80-62 77 36 87 26h167.5l82.5-11.5 91 11.5" stroke="#00D3A2" stroke-width="2" stroke-linecap="round"/><ellipse cx="70" cy="177.995" rx="3" ry="2.995" fill="#00D3A2"/><ellipse cx="156" cy="110.995" rx="3" ry="2.995" fill="#00D3A2"/><ellipse cx="186" cy="106.995" rx="3" ry="2.995" fill="#00D3A2"/><ellipse cx="243" cy="157.995" rx="3" ry="2.995" fill="#00D3A2"/><ellipse cx="335" cy="168.995" rx="3" ry="2.995" fill="#00D3A2"/><ellipse cx="415" cy="107.995" rx="3" ry="2.995" fill="#00D3A2"/><ellipse cx="493" cy="142.995" rx="3" ry="2.995" fill="#00D3A2"/><ellipse cx="581" cy="168.995" rx="3" ry="2.995" fill="#00D3A2"/><ellipse cx="668" cy="168.995" rx="3" ry="2.995" fill="#00D3A2"/><ellipse cx="747" cy="168.995" rx="3" ry="2.995" fill="#00D3A2"/><ellipse cx="830" cy="156.995" rx="3" ry="2.995" fill="#00D3A2"/><ellipse cx="922" cy="168.995" rx="3" ry="2.995" fill="#00D3A2"/></svg>