<svg width="338" height="338" viewBox="0 0 338 338" fill="none" xmlns="http://www.w3.org/2000/svg"><mask id="a" fill="#fff"><path d="M338 169c0 93.336-75.664 169-169 169S0 262.336 0 169 75.664 0 169 0s169 75.664 169 169zm-294.06 0c0 69.069 55.991 125.06 125.06 125.06S294.06 238.069 294.06 169 238.069 43.94 169 43.94 43.94 99.931 43.94 169z"/></mask><path d="M338 169c0 93.336-75.664 169-169 169S0 262.336 0 169 75.664 0 169 0s169 75.664 169 169zm-294.06 0c0 69.069 55.991 125.06 125.06 125.06S294.06 238.069 294.06 169 238.069 43.94 169 43.94 43.94 99.931 43.94 169z" fill="#F8777F" stroke="#fff" stroke-width="2" mask="url(#a)"/><mask id="b" fill="#fff"><path d="M338 169a169.002 169.002 0 01-145.188 167.314A169.001 169.001 0 0115.524 98.246a169 169 0 01296.167-19.8l-37.099 23.543a125.065 125.065 0 00-157.056-46.97 125.061 125.061 0 00-16.374 219.043A125.058 125.058 0 00294.06 169H338z"/></mask><path d="M338 169a169.002 169.002 0 01-145.188 167.314A169.001 169.001 0 0115.524 98.246a169 169 0 01296.167-19.8l-37.099 23.543a125.065 125.065 0 00-157.056-46.97 125.061 125.061 0 00-16.374 219.043A125.058 125.058 0 00294.06 169H338z" fill="#D0A3E5" stroke="#fff" stroke-width="2" mask="url(#b)"/><mask id="c" fill="#fff"><path d="M338 169A169 169 0 11158.388.333l2.759 43.854A125.063 125.063 0 0047.395 198.195 125.06 125.06 0 00294.06 169H338z"/></mask><path d="M338 169A169 169 0 11158.388.333l2.759 43.854A125.063 125.063 0 0047.395 198.195 125.06 125.06 0 00294.06 169H338z" fill="#75B1DF" stroke="#fff" stroke-width="2" mask="url(#c)"/><mask id="d" fill="#fff"><path d="M338 169a168.997 168.997 0 01-94.65 151.767 168.998 168.998 0 01-232.904-93.273A169 169 0 01126.97 5.309l10.928 42.56a125.058 125.058 0 00-86.23 164.416 125.061 125.061 0 00223.446 22.894A125.063 125.063 0 00294.06 169H338z"/></mask><path d="M338 169a168.997 168.997 0 01-94.65 151.767 168.998 168.998 0 01-232.904-93.273A169 169 0 01126.97 5.309l10.928 42.56a125.058 125.058 0 00-86.23 164.416 125.061 125.061 0 00223.446 22.894A125.063 125.063 0 00294.06 169H338z" fill="#E2E47C" stroke="#fff" stroke-width="2" mask="url(#d)"/><mask id="e" fill="#fff"><path d="M338 169a168.995 168.995 0 01-78.445 142.691 169.008 169.008 0 01-79.943 25.976 169.01 169.01 0 01-147.336-69.331 169.003 169.003 0 0129-229.553L89.283 72.64a125.063 125.063 0 00-21.46 169.868A125.06 125.06 0 00294.06 169H338z"/></mask><path d="M338 169a168.995 168.995 0 01-78.445 142.691 169.008 169.008 0 01-79.943 25.976 169.01 169.01 0 01-147.336-69.331 169.003 169.003 0 0129-229.553L89.283 72.64a125.063 125.063 0 00-21.46 169.868A125.06 125.06 0 00294.06 169H338z" fill="#E1B9F4" stroke="#fff" stroke-width="2" mask="url(#e)"/><mask id="f" fill="#fff"><path d="M338 169a169.005 169.005 0 01-138.637 166.25A168.998 168.998 0 0110.91 228.737 168.996 168.996 0 0126.309 78.445l37.1 23.544a125.066 125.066 0 00-11.396 111.217 125.055 125.055 0 0082.096 75.888 125.055 125.055 0 00109.98-20.085A125.061 125.061 0 00294.06 169H338z"/></mask><path d="M338 169a169.005 169.005 0 01-138.637 166.25A168.998 168.998 0 0110.91 228.737 168.996 168.996 0 0126.309 78.445l37.1 23.544a125.066 125.066 0 00-11.396 111.217 125.055 125.055 0 0082.096 75.888 125.055 125.055 0 00109.98-20.085A125.061 125.061 0 00294.06 169H338z" fill="#ADEBCF" stroke="#fff" stroke-width="2" mask="url(#f)"/><mask id="g" fill="#fff"><path d="M338 169A169.001 169.001 0 0186.423 316.452 169.01 169.01 0 014.365 207.16a168.996 168.996 0 01-1.372-69.827l43.162 8.233A125.06 125.06 0 10294.06 169H338z"/></mask><path d="M338 169A169.001 169.001 0 0186.423 316.452 169.01 169.01 0 014.365 207.16a168.996 168.996 0 01-1.372-69.827l43.162 8.233A125.06 125.06 0 10294.06 169H338z" fill="#F6979D" stroke="#fff" stroke-width="2" mask="url(#g)"/><mask id="h" fill="#fff"><path d="M338 169a169.005 169.005 0 01-40.491 109.757 169.005 169.005 0 01-216.811 34.339A169 169 0 018.27 221.224l41.79-13.578a125.06 125.06 0 00244-38.646H338z"/></mask><path d="M338 169a169.005 169.005 0 01-40.491 109.757 169.005 169.005 0 01-216.811 34.339A169 169 0 018.27 221.224l41.79-13.578a125.06 125.06 0 00244-38.646H338z" fill="#A8D4F6" stroke="#fff" stroke-width="2" mask="url(#h)"/><mask id="i" fill="#fff"><path d="M338 169a168.997 168.997 0 01-134.729 165.489 169.015 169.015 0 01-76.3-1.798l10.928-42.56a125.07 125.07 0 0056.462 1.331A125.06 125.06 0 00294.06 169H338z"/></mask><path d="M338 169a168.997 168.997 0 01-134.729 165.489 169.015 169.015 0 01-76.3-1.798l10.928-42.56a125.07 125.07 0 0056.462 1.331A125.06 125.06 0 00294.06 169H338z" fill="#71B37C" stroke="#fff" stroke-width="2" mask="url(#i)"/><mask id="j" fill="#fff"><path d="M338 169a168.999 168.999 0 01-106.787 157.132l-16.175-40.854A125.06 125.06 0 00294.06 169H338z"/></mask><path d="M338 169a168.999 168.999 0 01-106.787 157.132l-16.175-40.854A125.06 125.06 0 00294.06 169H338z" fill="#EC932F" stroke="#fff" stroke-width="2" mask="url(#j)"/><path d="M152.55 146.727V170h-4.216v-19.17h-.137l-5.443 3.477v-3.864l5.784-3.716h4.012zm14.511 23.716c-1.871 0-3.477-.473-4.818-1.42-1.333-.955-2.36-2.33-3.08-4.125-.712-1.803-1.068-3.974-1.068-6.512.008-2.538.368-4.697 1.08-6.477.719-1.788 1.746-3.151 3.079-4.091 1.341-.939 2.943-1.409 4.807-1.409 1.864 0 3.466.47 4.807 1.409 1.341.94 2.367 2.303 3.079 4.091.72 1.788 1.08 3.947 1.08 6.477 0 2.546-.36 4.72-1.08 6.523-.712 1.796-1.738 3.167-3.079 4.114-1.333.947-2.936 1.42-4.807 1.42zm0-3.557c1.455 0 2.602-.716 3.443-2.147.849-1.44 1.273-3.557 1.273-6.353 0-1.848-.193-3.401-.58-4.659-.386-1.257-.931-2.204-1.636-2.841a3.582 3.582 0 00-2.5-.966c-1.447 0-2.591.72-3.432 2.16-.841 1.431-1.265 3.534-1.272 6.306-.008 1.856.178 3.417.556 4.682.387 1.265.932 2.22 1.637 2.864.704.636 1.541.954 2.511.954zm20.832 3.432c-1.515 0-2.871-.284-4.068-.852-1.197-.576-2.147-1.364-2.852-2.364-.697-1-1.068-2.144-1.114-3.432h4.091c.076.955.489 1.735 1.239 2.341.75.599 1.651.898 2.704.898.826 0 1.561-.189 2.205-.568a4.069 4.069 0 001.523-1.58c.371-.674.553-1.443.545-2.306.008-.879-.178-1.66-.557-2.341a4.163 4.163 0 00-1.556-1.603c-.66-.394-1.417-.591-2.273-.591a5.428 5.428 0 00-2.057.387c-.674.265-1.208.613-1.602 1.045l-3.807-.625 1.216-12h13.5v3.523h-10.012l-.67 6.17h.136c.432-.507 1.042-.928 1.83-1.261.788-.341 1.651-.511 2.591-.511 1.409 0 2.666.333 3.773 1a7.067 7.067 0 012.613 2.727c.637 1.159.955 2.485.955 3.977 0 1.538-.356 2.909-1.068 4.114-.705 1.197-1.686 2.14-2.944 2.829-1.25.682-2.697 1.023-4.341 1.023zM144.389 194v-14.545h5.185c1.131 0 2.069.206 2.812.617.744.412 1.3.976 1.669 1.691.37.71.554 1.51.554 2.4 0 .895-.187 1.7-.561 2.415-.369.71-.928 1.274-1.676 1.69-.743.412-1.679.618-2.805.618h-3.566v-1.86h3.367c.715 0 1.295-.124 1.74-.37a2.32 2.32 0 00.98-1.022c.208-.431.312-.921.312-1.471 0-.549-.104-1.037-.312-1.463a2.24 2.24 0 00-.987-1.001c-.445-.242-1.033-.362-1.762-.362h-2.755V194h-2.195zm17.081.22c-1.023 0-1.915-.234-2.678-.703-.762-.469-1.354-1.124-1.775-1.967-.422-.843-.632-1.828-.632-2.955 0-1.131.21-2.121.632-2.969.421-.847 1.013-1.505 1.775-1.974.763-.469 1.655-.703 2.678-.703s1.915.234 2.678.703c.762.469 1.354 1.127 1.775 1.974.422.848.632 1.838.632 2.969 0 1.127-.21 2.112-.632 2.955-.421.843-1.013 1.498-1.775 1.967-.763.469-1.655.703-2.678.703zm.007-1.782c.663 0 1.212-.176 1.648-.526.435-.35.757-.817.966-1.399a5.57 5.57 0 00.319-1.925 5.55 5.55 0 00-.319-1.918c-.209-.587-.531-1.058-.966-1.413-.436-.355-.985-.533-1.648-.533-.668 0-1.221.178-1.662.533-.435.355-.76.826-.973 1.413a5.67 5.67 0 00-.312 1.918c0 .701.104 1.342.312 1.925.213.582.538 1.049.973 1.399.441.35.994.526 1.662.526zm15.623-6.684l-1.924.341a2.303 2.303 0 00-.384-.703 1.895 1.895 0 00-.696-.547c-.294-.142-.66-.213-1.101-.213-.601 0-1.103.135-1.505.405-.403.265-.604.608-.604 1.03 0 .364.135.658.405.88.27.223.705.405 1.306.547l1.733.398c1.004.232 1.752.59 2.245 1.072.492.483.738 1.111.738 1.883a2.86 2.86 0 01-.568 1.747c-.374.506-.897.904-1.569 1.193-.668.289-1.442.433-2.323.433-1.221 0-2.218-.26-2.99-.781-.772-.526-1.245-1.271-1.42-2.237l2.052-.313c.128.535.391.94.789 1.215.397.27.916.405 1.555.405.696 0 1.252-.145 1.669-.434.417-.293.625-.651.625-1.072 0-.341-.128-.628-.384-.86-.25-.232-.636-.407-1.157-.525l-1.847-.405c-1.018-.232-1.771-.601-2.258-1.108-.483-.507-.725-1.148-.725-1.925 0-.644.18-1.207.54-1.69.36-.483.857-.859 1.492-1.129.634-.275 1.361-.412 2.18-.412 1.179 0 2.107.256 2.784.767.677.507 1.125 1.186 1.342 2.038zm7.641-2.663v1.704h-5.959v-1.704h5.959zm-4.361-2.614h2.123v10.32c0 .412.062.722.185.93a.958.958 0 00.476.419c.199.071.414.107.646.107.171 0 .32-.012.448-.036l.298-.056.383 1.754a3.697 3.697 0 01-.525.142 4.18 4.18 0 01-.852.085c-.559.01-1.08-.09-1.563-.298a2.693 2.693 0 01-1.172-.966c-.298-.436-.447-.983-.447-1.641v-10.76zm14.709 5.277l-1.925.341a2.282 2.282 0 00-.384-.703 1.895 1.895 0 00-.696-.547c-.293-.142-.66-.213-1.101-.213-.601 0-1.103.135-1.505.405-.403.265-.604.608-.604 1.03 0 .364.135.658.405.88.27.223.705.405 1.307.547l1.733.398c1.004.232 1.752.59 2.244 1.072.492.483.739 1.111.739 1.883a2.86 2.86 0 01-.569 1.747c-.374.506-.897.904-1.569 1.193-.668.289-1.442.433-2.323.433-1.221 0-2.218-.26-2.99-.781-.771-.526-1.245-1.271-1.42-2.237l2.052-.313c.128.535.391.94.789 1.215.398.27.916.405 1.555.405.696 0 1.253-.145 1.669-.434.417-.293.625-.651.625-1.072 0-.341-.128-.628-.383-.86-.251-.232-.637-.407-1.158-.525l-1.847-.405c-1.018-.232-1.77-.601-2.258-1.108-.483-.507-.724-1.148-.724-1.925 0-.644.179-1.207.539-1.69.36-.483.857-.859 1.492-1.129.634-.275 1.361-.412 2.18-.412 1.179 0 2.107.256 2.784.767.677.507 1.125 1.186 1.343 2.038z" fill="#000"/></svg>