<svg width="948" height="270" viewBox="0 0 948 270" fill="none" xmlns="http://www.w3.org/2000/svg"><path d="M61.633 205.818V216h-1.232v-8.889h-.06l-2.486 1.65v-1.252l2.546-1.691h1.232zM64.563 216v-.895l3.36-3.679c.395-.431.72-.805.975-1.123.255-.322.444-.624.567-.905.126-.285.189-.584.189-.895 0-.358-.087-.668-.259-.93a1.672 1.672 0 00-.696-.606 2.25 2.25 0 00-.994-.214c-.391 0-.733.081-1.024.243a1.68 1.68 0 00-.672.672 2.1 2.1 0 00-.233 1.014h-1.173c0-.597.137-1.12.412-1.571.275-.451.65-.802 1.124-1.054a3.386 3.386 0 011.606-.378c.596 0 1.125.126 1.585.378.461.252.823.591 1.084 1.019.262.428.393.903.393 1.427 0 .374-.068.741-.204 1.099-.132.354-.364.75-.696 1.188-.328.434-.784.964-1.367 1.591l-2.287 2.446v.079h4.733V216h-6.423zm16.49-10.182h1.233v7.279c0 .649-.119 1.201-.357 1.655a2.43 2.43 0 01-1.01 1.034c-.434.236-.946.353-1.536.353-.557 0-1.052-.101-1.486-.303a2.453 2.453 0 01-1.025-.875c-.248-.378-.372-.827-.372-1.347h1.213c0 .288.07.54.213.755.146.212.345.378.597.497.252.12.539.179.86.179.355 0 .656-.074.905-.223.248-.149.437-.368.567-.657.132-.291.199-.647.199-1.068v-7.279zm8.358 7.06v-4.514h1.173V216H89.41v-1.293h-.08a2.507 2.507 0 01-.835.99c-.378.268-.855.402-1.432.402-.477 0-.901-.104-1.273-.313a2.191 2.191 0 01-.875-.954c-.212-.428-.318-.966-.318-1.616v-4.852h1.174v4.772c0 .557.155 1.001.467 1.333.315.331.716.497 1.203.497a2 2 0 00.89-.224 1.94 1.94 0 00.766-.686c.208-.308.313-.701.313-1.178zm4.495-1.472V216h-1.173v-7.636h1.134v1.193h.099c.179-.388.45-.7.815-.935.365-.238.836-.358 1.412-.358.517 0 .97.106 1.358.318.387.209.689.527.904.955.216.424.324.961.324 1.611V216h-1.174v-4.773c0-.6-.156-1.067-.467-1.402-.312-.338-.74-.507-1.283-.507-.374 0-.71.081-1.004.244a1.738 1.738 0 00-.691.711c-.17.311-.254.689-.254 1.133zm54.728-5.588V216h-1.233v-8.889h-.06l-2.486 1.65v-1.252l2.546-1.691h1.233zm6.169-.139c.418.003.835.083 1.253.239.418.155.799.414 1.144.775.344.358.621.847.83 1.467.209.62.313 1.397.313 2.331 0 .905-.086 1.709-.258 2.412-.17.699-.415 1.289-.736 1.77-.318.48-.706.845-1.164 1.093a3.15 3.15 0 01-1.541.373c-.57 0-1.079-.112-1.526-.338a3.002 3.002 0 01-1.094-.949 3.31 3.31 0 01-.542-1.417h1.213c.11.467.327.853.652 1.158.328.302.76.452 1.297.452.786 0 1.405-.343 1.86-1.029.457-.686.686-1.655.686-2.908h-.08a3.139 3.139 0 01-.661.721 2.91 2.91 0 01-1.845.631 3.095 3.095 0 01-1.605-.432 3.288 3.288 0 01-1.164-1.198c-.288-.511-.432-1.094-.432-1.75 0-.624.139-1.194.417-1.711.282-.52.676-.934 1.184-1.243.51-.308 1.11-.457 1.799-.447zm0 1.094c-.417 0-.794.104-1.128.313a2.252 2.252 0 00-.791.835 2.358 2.358 0 00-.288 1.159c0 .424.093.81.278 1.158.189.345.446.62.771.825a2.09 2.09 0 001.118.303 2.12 2.12 0 001.591-.696c.206-.218.367-.465.483-.74.116-.279.174-.569.174-.87a2.27 2.27 0 00-.289-1.119 2.282 2.282 0 00-.785-.845 2.03 2.03 0 00-1.134-.323zm13.509-.955h1.233v7.279c0 .649-.119 1.201-.358 1.655a2.427 2.427 0 01-1.009 1.034c-.434.236-.946.353-1.536.353-.557 0-1.052-.101-1.487-.303a2.456 2.456 0 01-1.024-.875c-.248-.378-.373-.827-.373-1.347h1.213c0 .288.072.54.214.755.146.212.345.378.597.497.252.12.538.179.86.179.355 0 .656-.074.905-.223.248-.149.437-.368.566-.657.133-.291.199-.647.199-1.068v-7.279zm8.358 7.06v-4.514h1.173V216h-1.173v-1.293h-.08a2.505 2.505 0 01-.835.99c-.378.268-.855.402-1.432.402a2.55 2.55 0 01-1.273-.313 2.192 2.192 0 01-.875-.954c-.212-.428-.318-.966-.318-1.616v-4.852h1.173v4.772c0 .557.156 1.001.468 1.333.315.331.716.497 1.203.497.291 0 .588-.075.89-.224.305-.149.56-.378.765-.686.209-.308.314-.701.314-1.178zm4.495-1.472V216h-1.173v-7.636h1.133v1.193h.1c.179-.388.451-.7.815-.935.365-.238.835-.358 1.412-.358.517 0 .97.106 1.357.318.388.209.69.527.905.955.216.424.323.961.323 1.611V216h-1.173v-4.773c0-.6-.156-1.067-.467-1.402-.312-.338-.739-.507-1.283-.507-.375 0-.709.081-1.004.244a1.736 1.736 0 00-.691.711c-.169.311-.254.689-.254 1.133zM233.054 216v-.895l3.361-3.679c.394-.431.719-.805.974-1.123.255-.322.444-.624.567-.905.126-.285.189-.584.189-.895 0-.358-.086-.668-.259-.93a1.67 1.67 0 00-.696-.606 2.248 2.248 0 00-.994-.214c-.391 0-.732.081-1.024.243-.288.16-.512.383-.671.672a2.097 2.097 0 00-.234 1.014h-1.173c0-.597.137-1.12.412-1.571.275-.451.65-.802 1.124-1.054a3.386 3.386 0 011.606-.378c.596 0 1.125.126 1.586.378.46.252.822.591 1.084 1.019.261.428.392.903.392 1.427 0 .374-.068.741-.204 1.099-.132.354-.364.75-.696 1.188-.328.434-.783.964-1.367 1.591l-2.287 2.446v.079h4.733V216h-6.423zm11.857.139a3.811 3.811 0 01-1.253-.238 3.016 3.016 0 01-1.143-.771c-.345-.365-.622-.857-.83-1.477-.209-.623-.314-1.405-.314-2.346 0-.902.085-1.7.254-2.396.169-.7.414-1.288.736-1.765a3.304 3.304 0 011.163-1.094 3.182 3.182 0 011.546-.373c.57 0 1.077.114 1.522.343.447.225.812.54 1.093.945.282.404.464.87.547 1.397h-1.213a2.25 2.25 0 00-.656-1.139c-.325-.301-.756-.452-1.293-.452-.789 0-1.41.343-1.864 1.029-.451.686-.678 1.649-.681 2.888h.079a3.004 3.004 0 011.517-1.188 2.97 2.97 0 01.989-.164c.583 0 1.117.146 1.601.438.484.288.872.687 1.163 1.198.292.507.438 1.088.438 1.745 0 .629-.141 1.206-.423 1.73-.282.52-.678.935-1.188 1.243-.507.305-1.104.454-1.79.447zm0-1.094c.418 0 .792-.104 1.124-.313.335-.209.598-.489.79-.84.196-.351.294-.742.294-1.173 0-.421-.095-.804-.284-1.149a2.16 2.16 0 00-.77-.83 2.043 2.043 0 00-1.114-.308c-.315 0-.608.063-.88.189-.272.122-.51.291-.716.507a2.44 2.44 0 00-.477.741 2.354 2.354 0 00.109 2.003c.192.351.454.635.786.85a2.05 2.05 0 001.138.323zm13.37-9.227h1.233v7.279c0 .649-.119 1.201-.358 1.655a2.433 2.433 0 01-1.009 1.034c-.434.236-.946.353-1.536.353-.557 0-1.053-.101-1.487-.303a2.456 2.456 0 01-1.024-.875c-.249-.378-.373-.827-.373-1.347h1.213c0 .288.071.54.214.755.146.212.345.378.597.497.251.12.538.179.86.179.354 0 .656-.074.904-.223a1.41 1.41 0 00.567-.657c.133-.291.199-.647.199-1.068v-7.279zm8.357 7.06v-4.514h1.174V216h-1.174v-1.293h-.079a2.514 2.514 0 01-.835.99c-.378.268-.856.402-1.432.402-.478 0-.902-.104-1.273-.313a2.192 2.192 0 01-.875-.954c-.212-.428-.318-.966-.318-1.616v-4.852h1.173v4.772c0 .557.156 1.001.467 1.333.315.331.716.497 1.204.497.291 0 .588-.075.889-.224.305-.149.561-.378.766-.686.209-.308.313-.701.313-1.178zm4.496-1.472V216h-1.173v-7.636h1.133v1.193h.1c.179-.388.45-.7.815-.935.364-.238.835-.358 1.412-.358.517 0 .969.106 1.357.318.388.209.689.527.905.955.215.424.323.961.323 1.611V216h-1.173v-4.773c0-.6-.156-1.067-.468-1.402-.311-.338-.739-.507-1.282-.507-.375 0-.71.081-1.005.244a1.742 1.742 0 00-.691.711c-.169.311-.253.689-.253 1.133zm55.36 4.733c-.656 0-1.241-.112-1.755-.338a3.007 3.007 0 01-1.218-.939 2.535 2.535 0 01-.487-1.407h1.253c.026.328.139.611.338.85.199.235.459.417.781.547a2.84 2.84 0 001.068.193c.438 0 .826-.076 1.164-.228.338-.153.603-.365.795-.637.192-.271.289-.586.289-.944a1.77 1.77 0 00-.279-.99c-.185-.288-.457-.513-.815-.676-.358-.162-.796-.243-1.313-.243h-.815v-1.094h.815c.405 0 .759-.073 1.064-.219a1.651 1.651 0 00.985-1.551c0-.345-.077-.645-.229-.9a1.566 1.566 0 00-.646-.596 2.087 2.087 0 00-.975-.214c-.351 0-.683.064-.994.194-.308.126-.56.31-.756.552a1.441 1.441 0 00-.318.865h-1.193c.02-.534.18-1.001.482-1.402.302-.405.696-.72 1.183-.945a3.83 3.83 0 011.616-.338c.63 0 1.17.128 1.621.383.451.252.797.585 1.039.999.242.414.363.862.363 1.342 0 .574-.151 1.063-.453 1.467a2.294 2.294 0 01-1.218.84v.08c.643.106 1.145.379 1.507.82.361.438.542.979.542 1.626 0 .553-.151 1.05-.453 1.491a3.068 3.068 0 01-1.223 1.034c-.517.252-1.105.378-1.765.378zm13.488-10.321h1.233v7.279c0 .649-.119 1.201-.358 1.655a2.427 2.427 0 01-1.009 1.034c-.434.236-.946.353-1.536.353-.557 0-1.053-.101-1.487-.303a2.456 2.456 0 01-1.024-.875c-.248-.378-.373-.827-.373-1.347h1.213c0 .288.072.54.214.755.146.212.345.378.597.497.252.12.538.179.86.179.354 0 .656-.074.905-.223.248-.149.437-.368.566-.657.133-.291.199-.647.199-1.068v-7.279zm8.357 7.06v-4.514h1.174V216h-1.174v-1.293h-.079a2.505 2.505 0 01-.835.99c-.378.268-.855.402-1.432.402a2.55 2.55 0 01-1.273-.313 2.192 2.192 0 01-.875-.954c-.212-.428-.318-.966-.318-1.616v-4.852h1.173v4.772c0 .557.156 1.001.468 1.333.314.331.716.497 1.203.497.291 0 .588-.075.89-.224.305-.149.56-.378.765-.686.209-.308.313-.701.313-1.178zm4.496-7.06V216h-1.173v-10.182h1.173zm49.799 0V216h-1.233v-8.889h-.06l-2.486 1.65v-1.252l2.546-1.691h1.233zm6.249 10.321c-.749 0-1.387-.204-1.914-.611-.527-.411-.93-1.006-1.208-1.785-.279-.782-.418-1.727-.418-2.834 0-1.1.139-2.04.418-2.819.281-.782.686-1.379 1.213-1.79.53-.414 1.166-.621 1.909-.621.742 0 1.377.207 1.904.621.53.411.935 1.008 1.213 1.79.282.779.423 1.719.423 2.819 0 1.107-.14 2.052-.418 2.834-.278.779-.681 1.374-1.208 1.785-.527.407-1.165.611-1.914.611zm0-1.094c.742 0 1.319-.358 1.73-1.073.411-.716.616-1.737.616-3.063 0-.882-.094-1.632-.283-2.252-.186-.62-.454-1.092-.805-1.417a1.778 1.778 0 00-1.258-.487c-.736 0-1.311.363-1.725 1.089-.415.722-.622 1.745-.622 3.067 0 .882.093 1.631.279 2.247.185.617.452 1.086.8 1.407a1.81 1.81 0 001.268.482zm13.443-9.227h1.233v7.279c0 .649-.119 1.201-.358 1.655a2.433 2.433 0 01-1.009 1.034c-.434.236-.946.353-1.536.353-.557 0-1.053-.101-1.487-.303a2.45 2.45 0 01-1.024-.875c-.249-.378-.373-.827-.373-1.347h1.213c0 .288.071.54.214.755.146.212.345.378.596.497.252.12.539.179.861.179.354 0 .656-.074.904-.223a1.41 1.41 0 00.567-.657c.133-.291.199-.647.199-1.068v-7.279zm8.357 7.06v-4.514h1.174V216h-1.174v-1.293h-.079a2.508 2.508 0 01-.836.99c-.377.268-.855.402-1.431.402-.478 0-.902-.104-1.273-.313a2.192 2.192 0 01-.875-.954c-.212-.428-.318-.966-.318-1.616v-4.852h1.173v4.772c0 .557.156 1.001.467 1.333.315.331.716.497 1.203.497.292 0 .589-.075.89-.224.305-.149.561-.378.766-.686.209-.308.313-.701.313-1.178zm4.496-7.06V216h-1.173v-10.182h1.173zm50.455 0V216h-1.233v-8.889h-.06l-2.486 1.65v-1.252l2.546-1.691h1.233zM488.88 216l4.554-9.009v-.079h-5.25v-1.094h6.523v1.154L490.173 216h-1.293zm15.694-10.182h1.233v7.279c0 .649-.119 1.201-.358 1.655a2.433 2.433 0 01-1.009 1.034c-.434.236-.946.353-1.536.353-.557 0-1.053-.101-1.487-.303a2.456 2.456 0 01-1.024-.875c-.249-.378-.373-.827-.373-1.347h1.213c0 .288.071.54.214.755.146.212.345.378.597.497.251.12.538.179.86.179.354 0 .656-.074.904-.223a1.41 1.41 0 00.567-.657c.133-.291.199-.647.199-1.068v-7.279zm8.357 7.06v-4.514h1.174V216h-1.174v-1.293h-.079a2.514 2.514 0 01-.835.99c-.378.268-.856.402-1.432.402-.478 0-.902-.104-1.273-.313a2.192 2.192 0 01-.875-.954c-.212-.428-.318-.966-.318-1.616v-4.852h1.173v4.772c0 .557.156 1.001.467 1.333.315.331.716.497 1.204.497.291 0 .588-.075.889-.224.305-.149.561-.378.766-.686.209-.308.313-.701.313-1.178zm4.496-7.06V216h-1.173v-10.182h1.173zM564.054 216v-.895l3.361-3.679c.394-.431.719-.805.974-1.123.255-.322.444-.624.567-.905.126-.285.189-.584.189-.895 0-.358-.086-.668-.259-.93a1.67 1.67 0 00-.696-.606 2.248 2.248 0 00-.994-.214c-.391 0-.732.081-1.024.243-.288.16-.512.383-.671.672a2.097 2.097 0 00-.234 1.014h-1.173c0-.597.137-1.12.412-1.571.275-.451.65-.802 1.124-1.054a3.386 3.386 0 011.606-.378c.596 0 1.125.126 1.586.378.46.252.822.591 1.084 1.019.261.428.392.903.392 1.427 0 .374-.068.741-.204 1.099-.132.354-.364.75-.696 1.188-.328.434-.783.964-1.367 1.591l-2.287 2.446v.079h4.733V216h-6.423zm8.019-2.088v-1.014l4.475-7.08h.735v1.571h-.497l-3.38 5.35v.079h6.025v1.094h-7.358zm4.793 2.088v-10.182h1.173V216h-1.173zm12.442-10.182h1.233v7.279c0 .649-.119 1.201-.358 1.655a2.427 2.427 0 01-1.009 1.034c-.434.236-.946.353-1.536.353-.557 0-1.052-.101-1.487-.303a2.456 2.456 0 01-1.024-.875c-.248-.378-.373-.827-.373-1.347h1.214c0 .288.071.54.213.755.146.212.345.378.597.497.252.12.538.179.86.179.355 0 .656-.074.905-.223.248-.149.437-.368.567-.657.132-.291.198-.647.198-1.068v-7.279zm8.358 7.06v-4.514h1.173V216h-1.173v-1.293h-.08a2.505 2.505 0 01-.835.99c-.378.268-.855.402-1.432.402-.477 0-.901-.104-1.273-.313a2.192 2.192 0 01-.875-.954c-.212-.428-.318-.966-.318-1.616v-4.852h1.173v4.772c0 .557.156 1.001.468 1.333.315.331.716.497 1.203.497a2 2 0 00.89-.224c.305-.149.56-.378.765-.686.209-.308.314-.701.314-1.178zm4.495-7.06V216h-1.173v-10.182h1.173zm50.333 10.321c-.656 0-1.241-.112-1.755-.338a3.007 3.007 0 01-1.218-.939 2.535 2.535 0 01-.487-1.407h1.253c.026.328.139.611.338.85.199.235.459.417.781.547a2.84 2.84 0 001.068.193c.438 0 .826-.076 1.164-.228.338-.153.603-.365.795-.637.192-.271.289-.586.289-.944a1.77 1.77 0 00-.279-.99c-.185-.288-.457-.513-.815-.676-.358-.162-.796-.243-1.313-.243h-.815v-1.094h.815c.405 0 .759-.073 1.064-.219a1.651 1.651 0 00.985-1.551c0-.345-.077-.645-.229-.9a1.566 1.566 0 00-.646-.596 2.087 2.087 0 00-.975-.214c-.351 0-.683.064-.994.194-.308.126-.56.31-.756.552a1.441 1.441 0 00-.318.865h-1.193c.02-.534.18-1.001.482-1.402.302-.405.696-.72 1.183-.945a3.83 3.83 0 011.616-.338c.63 0 1.17.128 1.621.383.451.252.797.585 1.039.999.242.414.363.862.363 1.342 0 .574-.151 1.063-.453 1.467a2.294 2.294 0 01-1.218.84v.08c.643.106 1.145.379 1.507.82.361.438.542.979.542 1.626 0 .553-.151 1.05-.453 1.491a3.068 3.068 0 01-1.223 1.034c-.517.252-1.105.378-1.765.378zm9.054-10.321V216h-1.233v-8.889h-.06l-2.486 1.65v-1.252l2.546-1.691h1.233zm10.942 0h1.233v7.279c0 .649-.119 1.201-.358 1.655a2.433 2.433 0 01-1.009 1.034c-.434.236-.946.353-1.536.353-.557 0-1.053-.101-1.487-.303a2.456 2.456 0 01-1.024-.875c-.249-.378-.373-.827-.373-1.347h1.213c0 .288.071.54.214.755.146.212.345.378.597.497.251.12.538.179.86.179.354 0 .656-.074.904-.223a1.41 1.41 0 00.567-.657c.133-.291.199-.647.199-1.068v-7.279zm8.357 7.06v-4.514h1.174V216h-1.174v-1.293h-.079a2.514 2.514 0 01-.835.99c-.378.268-.856.402-1.432.402-.478 0-.902-.104-1.273-.313a2.192 2.192 0 01-.875-.954c-.212-.428-.318-.966-.318-1.616v-4.852h1.173v4.772c0 .557.156 1.001.467 1.333.315.331.716.497 1.204.497.291 0 .588-.075.889-.224.305-.149.561-.378.766-.686.209-.308.313-.701.313-1.178zm4.496-7.06V216h-1.173v-10.182h1.173zM732.372 216l4.554-9.009v-.079h-5.25v-1.094h6.523v1.154L733.665 216h-1.293zm17.365-7.636a1.564 1.564 0 00-.726-1.174c-.424-.278-.945-.417-1.561-.417-.451 0-.845.073-1.183.218a1.894 1.894 0 00-.786.602 1.438 1.438 0 00-.278.87c0 .272.064.506.193.701.133.192.302.353.508.482.205.126.421.231.646.314.225.079.432.144.621.193l1.034.279c.266.069.561.166.885.288.329.123.642.29.94.502.302.209.55.478.746.806.195.328.293.731.293 1.208 0 .55-.144 1.047-.432 1.491-.285.444-.703.797-1.253 1.059-.547.262-1.212.393-1.994.393-.729 0-1.36-.118-1.894-.353-.53-.235-.948-.563-1.253-.984a2.808 2.808 0 01-.512-1.467h1.273c.033.384.162.703.388.955.228.248.517.434.865.556.351.12.729.179 1.133.179.471 0 .893-.076 1.268-.228.374-.156.671-.372.89-.647.219-.278.328-.603.328-.974 0-.338-.095-.613-.283-.825a2.078 2.078 0 00-.746-.517 7.702 7.702 0 00-1-.348l-1.252-.358c-.796-.229-1.426-.556-1.89-.98-.464-.424-.696-.979-.696-1.665 0-.57.155-1.068.463-1.492a3.067 3.067 0 011.253-.994 4.224 4.224 0 011.765-.358c.656 0 1.239.118 1.75.353.51.232.914.55 1.213.955.301.404.46.863.477 1.377h-1.193zm6.402 7.795c-.736 0-1.371-.162-1.904-.487a3.266 3.266 0 01-1.228-1.372c-.285-.59-.428-1.276-.428-2.059 0-.782.143-1.471.428-2.068.288-.6.689-1.067 1.203-1.402.517-.338 1.12-.507 1.81-.507.397 0 .79.066 1.178.199.388.133.741.348 1.059.646.318.295.571.686.76 1.174.189.487.284 1.087.284 1.799v.498h-5.887v-1.015h4.694c0-.431-.087-.815-.259-1.153a1.943 1.943 0 00-.726-.8c-.311-.196-.679-.294-1.103-.294-.468 0-.872.116-1.214.348a2.288 2.288 0 00-.78.895 2.632 2.632 0 00-.274 1.183v.676c0 .577.1 1.066.299 1.467.202.398.482.701.84.91.358.205.774.308 1.248.308.308 0 .586-.043.835-.129.252-.09.469-.222.651-.398.183-.179.324-.401.423-.666l1.133.318a2.497 2.497 0 01-.601 1.014c-.282.289-.63.514-1.044.676-.414.16-.88.239-1.397.239zm4.947 2.705v-10.5h1.133v1.213h.139c.086-.133.206-.302.358-.507.156-.209.378-.395.666-.557.292-.166.687-.249 1.184-.249.643 0 1.209.161 1.7.482.491.322.873.778 1.148 1.368.276.59.413 1.286.413 2.088 0 .808-.137 1.509-.413 2.103-.275.59-.656 1.047-1.143 1.372-.487.321-1.049.482-1.685.482-.491 0-.884-.081-1.179-.244a2.182 2.182 0 01-.681-.561 7.523 7.523 0 01-.368-.527h-.099v4.037h-1.173zm1.153-6.682c0 .577.085 1.085.254 1.526.169.438.415.781.74 1.029.325.245.723.368 1.193.368.491 0 .9-.129 1.228-.388a2.37 2.37 0 00.746-1.054c.169-.444.254-.938.254-1.481 0-.537-.083-1.021-.249-1.452a2.238 2.238 0 00-.741-1.029c-.328-.255-.74-.383-1.238-.383-.477 0-.878.121-1.203.363-.324.239-.57.573-.735 1.004-.166.428-.249.927-.249 1.497zm55.395-6.364V216h-1.233v-8.889h-.06l-2.486 1.65v-1.252l2.546-1.691h1.233zm2.689 8.094v-1.014l4.475-7.08h.735v1.571h-.497l-3.38 5.35v.079h6.025v1.094h-7.358zm4.793 2.088v-10.182h1.173V216h-1.173zm14.113-7.636a1.564 1.564 0 00-.726-1.174c-.424-.278-.945-.417-1.561-.417-.451 0-.845.073-1.183.218a1.894 1.894 0 00-.786.602 1.445 1.445 0 00-.278.87c0 .272.064.506.194.701.132.192.301.353.507.482.205.126.421.231.646.314.225.079.433.144.622.193l1.034.279c.265.069.56.166.885.288.328.123.641.29.939.502.302.209.55.478.746.806.195.328.293.731.293 1.208 0 .55-.144 1.047-.432 1.491-.285.444-.703.797-1.253 1.059-.547.262-1.212.393-1.994.393-.729 0-1.36-.118-1.894-.353-.53-.235-.948-.563-1.253-.984a2.817 2.817 0 01-.512-1.467h1.273c.033.384.162.703.388.955.228.248.517.434.865.556.351.12.729.179 1.133.179.471 0 .894-.076 1.268-.228.375-.156.671-.372.89-.647.219-.278.328-.603.328-.974 0-.338-.094-.613-.283-.825a2.078 2.078 0 00-.746-.517 7.687 7.687 0 00-.999-.348l-1.253-.358c-.796-.229-1.425-.556-1.889-.98-.464-.424-.696-.979-.696-1.665 0-.57.154-1.068.462-1.492a3.073 3.073 0 011.253-.994 4.224 4.224 0 011.765-.358c.656 0 1.239.118 1.75.353.51.232.914.55 1.213.955.301.404.46.863.477 1.377h-1.193zm6.402 7.795c-.736 0-1.37-.162-1.904-.487a3.273 3.273 0 01-1.228-1.372c-.285-.59-.428-1.276-.428-2.059 0-.782.143-1.471.428-2.068.288-.6.689-1.067 1.203-1.402.517-.338 1.12-.507 1.81-.507.397 0 .79.066 1.178.199.388.133.741.348 1.059.646.318.295.572.686.761 1.174.189.487.283 1.087.283 1.799v.498h-5.886v-1.015h4.693c0-.431-.086-.815-.259-1.153a1.943 1.943 0 00-.726-.8c-.311-.196-.679-.294-1.103-.294-.468 0-.872.116-1.213.348a2.29 2.29 0 00-.781.895 2.632 2.632 0 00-.273 1.183v.676c0 .577.099 1.066.298 1.467.202.398.482.701.84.91.358.205.774.308 1.248.308.308 0 .587-.043.835-.129.252-.09.469-.222.652-.398.182-.179.323-.401.422-.666l1.134.318a2.51 2.51 0 01-.602 1.014c-.282.289-.63.514-1.044.676-.414.16-.88.239-1.397.239zm4.947 2.705v-10.5h1.133v1.213h.139c.087-.133.206-.302.358-.507a2.09 2.09 0 01.667-.557c.291-.166.686-.249 1.183-.249.643 0 1.21.161 1.7.482.491.322.874.778 1.149 1.368.275.59.412 1.286.412 2.088 0 .808-.137 1.509-.412 2.103-.275.59-.657 1.047-1.144 1.372-.487.321-1.049.482-1.685.482-.491 0-.884-.081-1.178-.244a2.187 2.187 0 01-.682-.561 7.881 7.881 0 01-.368-.527h-.099v4.037h-1.173zm1.153-6.682c0 .577.085 1.085.254 1.526.169.438.416.781.74 1.029.325.245.723.368 1.194.368.49 0 .9-.129 1.228-.388.331-.262.58-.613.745-1.054.169-.444.254-.938.254-1.481 0-.537-.083-1.021-.249-1.452a2.243 2.243 0 00-.74-1.029c-.329-.255-.741-.383-1.238-.383-.478 0-.879.121-1.203.363-.325.239-.571.573-.736 1.004-.166.428-.249.927-.249 1.497zM904.054 216v-.895l3.361-3.679c.394-.431.719-.805.974-1.123.255-.322.444-.624.567-.905.126-.285.189-.584.189-.895 0-.358-.086-.668-.259-.93a1.67 1.67 0 00-.696-.606 2.248 2.248 0 00-.994-.214c-.391 0-.732.081-1.024.243-.288.16-.512.383-.671.672a2.097 2.097 0 00-.234 1.014h-1.173c0-.597.137-1.12.412-1.571.275-.451.65-.802 1.124-1.054a3.386 3.386 0 011.606-.378c.596 0 1.125.126 1.586.378.46.252.822.591 1.084 1.019.261.428.392.903.392 1.427 0 .374-.068.741-.204 1.099-.132.354-.364.75-.696 1.188-.328.434-.783.964-1.367 1.591l-2.287 2.446v.079h4.733V216h-6.423zm12.056-10.182V216h-1.233v-8.889h-.06l-2.485 1.65v-1.252l2.545-1.691h1.233zm12.613 2.546a1.564 1.564 0 00-.726-1.174c-.424-.278-.944-.417-1.561-.417-.451 0-.845.073-1.183.218a1.894 1.894 0 00-.786.602 1.445 1.445 0 00-.278.87c0 .272.065.506.194.701.132.192.301.353.507.482.205.126.421.231.646.314.226.079.433.144.622.193l1.034.279c.265.069.56.166.885.288.328.123.641.29.939.502.302.209.551.478.746.806.196.328.293.731.293 1.208 0 .55-.144 1.047-.432 1.491-.285.444-.703.797-1.253 1.059-.547.262-1.211.393-1.994.393-.729 0-1.36-.118-1.894-.353-.53-.235-.948-.563-1.253-.984a2.817 2.817 0 01-.512-1.467h1.273c.033.384.162.703.388.955a2.1 2.1 0 00.865.556c.351.12.729.179 1.133.179.471 0 .894-.076 1.268-.228.375-.156.671-.372.89-.647.219-.278.328-.603.328-.974 0-.338-.094-.613-.283-.825a2.078 2.078 0 00-.746-.517 7.687 7.687 0 00-.999-.348l-1.253-.358c-.795-.229-1.425-.556-1.889-.98-.464-.424-.696-.979-.696-1.665 0-.57.154-1.068.462-1.492a3.073 3.073 0 011.253-.994 4.224 4.224 0 011.765-.358c.656 0 1.239.118 1.75.353.51.232.915.55 1.213.955.302.404.461.863.477 1.377h-1.193zm6.402 7.795c-.736 0-1.37-.162-1.904-.487a3.273 3.273 0 01-1.228-1.372c-.285-.59-.427-1.276-.427-2.059 0-.782.142-1.471.427-2.068.288-.6.689-1.067 1.203-1.402.517-.338 1.12-.507 1.81-.507.398 0 .79.066 1.178.199.388.133.741.348 1.059.646.318.295.572.686.761 1.174.189.487.283 1.087.283 1.799v.498h-5.886v-1.015h4.693c0-.431-.086-.815-.259-1.153a1.948 1.948 0 00-.725-.8c-.312-.196-.68-.294-1.104-.294-.467 0-.872.116-1.213.348a2.298 2.298 0 00-.781.895 2.632 2.632 0 00-.273 1.183v.676c0 .577.099 1.066.298 1.467.202.398.482.701.84.91.358.205.774.308 1.248.308.308 0 .587-.043.835-.129.252-.09.469-.222.652-.398.182-.179.323-.401.422-.666l1.134.318a2.51 2.51 0 01-.602 1.014c-.281.289-.63.514-1.044.676-.414.16-.88.239-1.397.239zm4.947 2.705v-10.5h1.133v1.213h.14c.086-.133.205-.302.358-.507.155-.209.377-.395.666-.557.291-.166.686-.249 1.183-.249.643 0 1.21.161 1.7.482.491.322.874.778 1.149 1.368.275.59.412 1.286.412 2.088 0 .808-.137 1.509-.412 2.103-.275.59-.657 1.047-1.144 1.372-.487.321-1.049.482-1.685.482-.491 0-.883-.081-1.178-.244a2.182 2.182 0 01-.681-.561 7.195 7.195 0 01-.368-.527h-.1v4.037h-1.173zm1.153-6.682c0 .577.085 1.085.254 1.526.169.438.416.781.741 1.029.324.245.722.368 1.193.368.49 0 .9-.129 1.228-.388.331-.262.58-.613.746-1.054.169-.444.253-.938.253-1.481 0-.537-.083-1.021-.248-1.452a2.252 2.252 0 00-.741-1.029c-.328-.255-.741-.383-1.238-.383-.477 0-.878.121-1.203.363-.325.239-.57.573-.736 1.004-.166.428-.249.927-.249 1.497zM5.243 59.818V70H4.01v-8.89h-.06l-2.486 1.651v-1.253l2.546-1.69h1.233zm6.25 10.321c-.75 0-1.388-.204-1.915-.611-.527-.411-.93-1.006-1.208-1.785-.278-.782-.418-1.727-.418-2.834 0-1.1.14-2.04.418-2.819.282-.782.686-1.379 1.213-1.79.53-.414 1.167-.621 1.91-.621.742 0 1.376.207 1.903.621.53.411.935 1.008 1.213 1.79.282.78.423 1.719.423 2.82 0 1.106-.14 2.05-.418 2.833-.278.779-.68 1.374-1.208 1.785-.527.407-1.165.611-1.914.611zm0-1.093c.742 0 1.318-.359 1.73-1.074.41-.716.616-1.737.616-3.063 0-.882-.095-1.632-.284-2.252-.185-.62-.454-1.092-.805-1.417a1.778 1.778 0 00-1.258-.487c-.736 0-1.31.363-1.725 1.089-.414.722-.621 1.745-.621 3.067 0 .882.092 1.63.278 2.247.186.617.452 1.086.8 1.407.352.322.774.483 1.268.483zM17.1 70V59.818h1.233v5.051h.12l4.573-5.05h1.611l-4.276 4.593L24.637 70h-1.491l-3.54-4.733-1.273 1.432V70H17.1zM5.475 3.818V14H4.242V5.11h-.06L1.698 6.762V5.51l2.545-1.69h1.233zm6.11 10.321a3.496 3.496 0 01-1.576-.348 2.927 2.927 0 01-1.123-.954 2.6 2.6 0 01-.463-1.383h1.194c.046.461.255.842.626 1.144.375.298.822.447 1.342.447.418 0 .79-.097 1.114-.293a2.07 2.07 0 00.77-.805 2.39 2.39 0 00.284-1.169c0-.444-.098-.84-.293-1.188a2.152 2.152 0 00-.796-.83 2.247 2.247 0 00-1.158-.308 3.183 3.183 0 00-.96.144 2.65 2.65 0 00-.81.373l-1.153-.14.616-5.01h5.29v1.093h-4.256l-.358 3.003h.06c.209-.166.47-.303.785-.413.315-.11.643-.164.985-.164.623 0 1.178.15 1.665.448.49.294.875.699 1.154 1.213.281.513.422 1.1.422 1.76 0 .65-.146 1.23-.437 1.74a3.199 3.199 0 01-1.194 1.203c-.507.291-1.083.437-1.73.437zM17.1 14V3.818h1.233V8.87h.12l4.573-5.05h1.611l-4.276 4.593L24.637 14h-1.491l-3.54-4.733-1.273 1.432V14H17.1zm-5.515 112.139a3.496 3.496 0 01-1.576-.348 2.929 2.929 0 01-1.123-.954 2.602 2.602 0 01-.463-1.382h1.194c.046.46.255.841.626 1.143.375.298.822.447 1.342.447.418 0 .79-.097 1.114-.293.328-.195.585-.464.77-.805a2.39 2.39 0 00.284-1.169c0-.444-.098-.84-.293-1.188a2.153 2.153 0 00-.796-.83 2.246 2.246 0 00-1.158-.308 3.143 3.143 0 00-.96.144 2.65 2.65 0 00-.81.373l-1.153-.139.616-5.012h5.29v1.094h-4.256l-.358 3.003h.06c.209-.166.47-.303.785-.413a2.99 2.99 0 01.985-.164c.623 0 1.178.149 1.665.448.49.294.875.699 1.154 1.213.281.513.422 1.1.422 1.76 0 .649-.146 1.229-.437 1.74a3.2 3.2 0 01-1.194 1.203c-.507.291-1.083.437-1.73.437zM17.1 126v-10.182h1.233v5.051h.12l4.573-5.051h1.611l-4.276 4.594L24.637 126h-1.491l-3.54-4.733-1.273 1.432V126H17.1zm3.525 56.139c-.75 0-1.387-.204-1.914-.611-.527-.411-.93-1.006-1.208-1.785-.279-.782-.418-1.727-.418-2.834 0-1.1.14-2.04.418-2.819.282-.782.686-1.379 1.213-1.79.53-.414 1.167-.621 1.909-.621s1.377.207 1.904.621c.53.411.935 1.008 1.213 1.79.282.779.423 1.719.423 2.819 0 1.107-.14 2.052-.418 2.834-.278.779-.68 1.374-1.208 1.785-.527.407-1.165.611-1.914.611zm0-1.094c.742 0 1.32-.358 1.73-1.073.411-.716.617-1.737.617-3.063 0-.882-.095-1.632-.284-2.252-.185-.62-.454-1.092-.805-1.417a1.777 1.777 0 00-1.258-.487c-.736 0-1.31.363-1.725 1.089-.414.722-.622 1.745-.622 3.067 0 .882.093 1.631.279 2.247.185.617.452 1.086.8 1.407a1.81 1.81 0 001.268.482z" fill="#7B91B0"/><circle cx="173" cy="260.5" fill="#5A3795" r="6"/><path d="M191.773 255.614v-1.25h8.727v1.25h-3.659V266h-1.409v-10.386h-3.659zM203.31 266l-2.659-8.727h1.409l1.887 6.682h.09l1.864-6.682h1.432l1.841 6.659h.091l1.886-6.659h1.409L209.901 266h-1.318l-1.909-6.705h-.137L204.628 266h-1.318zm14.225.182c-.841 0-1.566-.186-2.176-.557a3.736 3.736 0 01-1.403-1.568c-.326-.674-.489-1.459-.489-2.352 0-.894.163-1.682.489-2.364.329-.686.787-1.22 1.375-1.602.59-.387 1.28-.58 2.068-.58.454 0 .903.076 1.346.227.444.152.847.398 1.211.739.363.337.653.784.869 1.341.216.557.324 1.242.324 2.057v.568h-6.728v-1.159h5.364c0-.493-.098-.932-.295-1.318a2.226 2.226 0 00-.83-.915c-.356-.224-.776-.335-1.261-.335-.534 0-.996.132-1.387.397a2.633 2.633 0 00-.892 1.023 3.01 3.01 0 00-.312 1.352v.773c0 .659.113 1.218.341 1.676.231.455.551.801.96 1.04.409.235.884.352 1.426.352.352 0 .671-.049.955-.147.288-.103.536-.254.744-.455.208-.205.369-.458.483-.761l1.295.363a2.86 2.86 0 01-.687 1.159c-.322.33-.72.587-1.193.773a4.425 4.425 0 01-1.597.273zm9.153 0c-.841 0-1.567-.186-2.177-.557a3.742 3.742 0 01-1.403-1.568c-.326-.674-.489-1.459-.489-2.352 0-.894.163-1.682.489-2.364.33-.686.788-1.22 1.375-1.602.591-.387 1.28-.58 2.068-.58.455 0 .904.076 1.347.227.443.152.846.398 1.21.739.364.337.653.784.869 1.341.216.557.324 1.242.324 2.057v.568h-6.727v-1.159h5.364c0-.493-.099-.932-.296-1.318a2.223 2.223 0 00-.829-.915c-.356-.224-.777-.335-1.262-.335-.534 0-.996.132-1.386.397a2.625 2.625 0 00-.892 1.023 3.01 3.01 0 00-.313 1.352v.773c0 .659.114 1.218.341 1.676.231.455.551.801.96 1.04.41.235.885.352 1.427.352.352 0 .67-.049.954-.147.288-.103.536-.254.744-.455.209-.205.37-.458.483-.761l1.296.363c-.136.44-.366.826-.688 1.159-.322.33-.719.587-1.193.773a4.416 4.416 0 01-1.596.273zm9.288-8.909v1.136h-4.522v-1.136h4.522zm-3.204-2.091h1.341v8.318c0 .379.055.663.165.852a.847.847 0 00.431.375c.178.061.366.091.563.091.148 0 .269-.007.364-.023l.227-.045.273 1.205a2.74 2.74 0 01-.381.102 2.792 2.792 0 01-.619.057 2.7 2.7 0 01-1.114-.245 2.217 2.217 0 01-.898-.744c-.235-.333-.352-.754-.352-1.261v-8.682zm11.087 4.045l-1.204.341a2.229 2.229 0 00-.336-.585 1.63 1.63 0 00-.591-.477c-.25-.125-.57-.188-.96-.188-.534 0-.979.123-1.335.37-.352.242-.528.551-.528.926 0 .333.121.596.363.789.243.194.621.355 1.137.483l1.295.319c.78.189 1.362.479 1.744.869.383.386.574.884.574 1.494 0 .5-.144.947-.432 1.341-.284.394-.681.705-1.193.932-.511.227-1.106.341-1.784.341-.89 0-1.627-.193-2.21-.58-.583-.386-.953-.95-1.108-1.693l1.273-.318c.121.47.35.822.687 1.057.341.235.786.352 1.335.352.625 0 1.122-.133 1.489-.398.371-.269.557-.591.557-.966 0-.303-.106-.556-.318-.761-.212-.208-.538-.364-.978-.466l-1.454-.341c-.799-.189-1.387-.483-1.762-.88-.371-.402-.556-.904-.556-1.506 0-.493.138-.928.414-1.307a2.827 2.827 0 011.142-.892c.485-.216 1.035-.324 1.648-.324.864 0 1.542.189 2.034.568.496.379.849.879 1.057 1.5zm12.903-1.954a1.784 1.784 0 00-.829-1.341c-.485-.318-1.08-.477-1.785-.477-.515 0-.965.083-1.352.25a2.156 2.156 0 00-.898.687 1.649 1.649 0 00-.318.994c0 .311.074.578.222.802.151.219.345.403.579.551.235.144.481.263.739.358.258.09.494.164.71.221l1.182.318c.303.08.64.19 1.011.33.375.14.733.331 1.074.574.345.238.629.545.853.92.223.375.335.835.335 1.381 0 .629-.165 1.197-.494 1.704-.326.508-.804.911-1.432 1.211-.625.299-1.385.449-2.279.449-.833 0-1.555-.135-2.164-.404-.607-.269-1.084-.644-1.432-1.125a3.213 3.213 0 01-.586-1.676h1.455c.038.439.186.803.443 1.091.262.284.591.496.989.636.401.137.833.205 1.295.205.538 0 1.021-.087 1.449-.262.428-.178.767-.424 1.017-.738.25-.318.375-.69.375-1.114 0-.386-.108-.701-.324-.943a2.39 2.39 0 00-.852-.591 9.083 9.083 0 00-1.142-.398l-1.432-.409c-.909-.261-1.629-.634-2.159-1.119-.53-.485-.795-1.119-.795-1.903 0-.652.176-1.22.528-1.705a3.503 3.503 0 011.432-1.136c.602-.273 1.274-.409 2.017-.409.75 0 1.417.134 2 .403.583.265 1.045.629 1.386 1.091.345.462.527.987.546 1.574h-1.364zm7.157 8.909c-.841 0-1.566-.186-2.176-.557a3.744 3.744 0 01-1.404-1.568c-.325-.674-.488-1.459-.488-2.352 0-.894.163-1.682.488-2.364.33-.686.788-1.22 1.375-1.602.591-.387 1.281-.58 2.069-.58.454 0 .903.076 1.346.227.443.152.847.398 1.21.739.364.337.654.784.87 1.341.216.557.324 1.242.324 2.057v.568h-6.728v-1.159h5.364c0-.493-.099-.932-.296-1.318a2.217 2.217 0 00-.829-.915c-.356-.224-.777-.335-1.261-.335-.535 0-.997.132-1.387.397a2.625 2.625 0 00-.892 1.023 3.01 3.01 0 00-.312 1.352v.773c0 .659.113 1.218.341 1.676.231.455.551.801.96 1.04.409.235.884.352 1.426.352.352 0 .67-.049.954-.147.288-.103.536-.254.745-.455.208-.205.369-.458.483-.761l1.295.363a2.86 2.86 0 01-.687 1.159 3.35 3.35 0 01-1.194.773 4.416 4.416 0 01-1.596.273zm6.834-5.432V266h-1.341v-8.727h1.296v1.363h.113c.205-.443.516-.799.932-1.068.417-.273.955-.409 1.614-.409.591 0 1.108.121 1.551.364.443.238.788.602 1.034 1.091.246.484.369 1.098.369 1.841V266h-1.341v-5.455c0-.685-.178-1.219-.534-1.602-.356-.386-.844-.579-1.466-.579-.428 0-.81.092-1.147.278a1.985 1.985 0 00-.79.813c-.193.356-.29.787-.29 1.295zm11.654-3.477v1.136h-4.523v-1.136h4.523zm-3.204-2.091h1.34v8.318c0 .379.055.663.165.852a.853.853 0 00.432.375c.178.061.366.091.563.091.147 0 .268-.007.363-.023l.227-.045.273 1.205a2.76 2.76 0 01-.38.102c-.163.038-.37.057-.62.057-.379 0-.75-.082-1.113-.245a2.21 2.21 0 01-.898-.744c-.235-.333-.352-.754-.352-1.261v-8.682z" fill="#2C2C2C"/><circle cx="330" cy="260.5" fill="#FA0060" r="6"/><path d="M353 266h-3.591v-11.636h3.75c1.129 0 2.095.233 2.898.698.803.463 1.418 1.127 1.846 1.995.428.863.642 1.898.642 3.102 0 1.212-.215 2.256-.647 3.131a4.618 4.618 0 01-1.887 2.011c-.825.466-1.829.699-3.011.699zm-2.182-1.25h2.091c.962 0 1.76-.186 2.392-.557a3.428 3.428 0 001.415-1.585c.311-.686.466-1.502.466-2.449 0-.939-.154-1.748-.46-2.426a3.396 3.396 0 00-1.375-1.568c-.61-.368-1.37-.551-2.279-.551h-2.25v9.136zm9.931-10.386h1.682l3.954 9.659h.137l3.954-9.659h1.682V266h-1.318v-8.841h-.114L367.09 266h-1.273l-3.636-8.841h-.114V266h-1.318v-11.636zm20.074 4.863l-1.204.341a2.253 2.253 0 00-.335-.585 1.63 1.63 0 00-.591-.477c-.25-.125-.57-.188-.96-.188-.535 0-.98.123-1.336.37-.352.242-.528.551-.528.926 0 .333.121.596.364.789.242.194.621.355 1.136.483l1.295.319c.781.189 1.362.479 1.745.869.382.386.574.884.574 1.494 0 .5-.144.947-.432 1.341-.284.394-.682.705-1.193.932-.512.227-1.107.341-1.785.341-.89 0-1.626-.193-2.21-.58-.583-.386-.952-.95-1.108-1.693l1.273-.318c.121.47.35.822.688 1.057.34.235.785.352 1.335.352.625 0 1.121-.133 1.488-.398.372-.269.557-.591.557-.966 0-.303-.106-.556-.318-.761-.212-.208-.538-.364-.977-.466l-1.455-.341c-.799-.189-1.386-.483-1.761-.88-.371-.402-.557-.904-.557-1.506 0-.493.138-.928.415-1.307a2.82 2.82 0 011.142-.892c.485-.216 1.034-.324 1.648-.324.863 0 1.541.189 2.034.568.496.379.848.879 1.056 1.5zm12.903-1.954a1.782 1.782 0 00-.829-1.341c-.485-.318-1.08-.477-1.784-.477-.515 0-.966.083-1.352.25a2.15 2.15 0 00-.898.687 1.649 1.649 0 00-.318.994c0 .311.074.578.221.802.152.219.345.403.58.551.235.144.481.263.738.358.258.09.495.164.711.221l1.181.318c.304.08.641.19 1.012.33.375.14.733.331 1.074.574.344.238.628.545.852.92.223.375.335.835.335 1.381 0 .629-.165 1.197-.494 1.704-.326.508-.803.911-1.432 1.211-.625.299-1.384.449-2.278.449-.834 0-1.555-.135-2.165-.404-.606-.269-1.083-.644-1.432-1.125a3.203 3.203 0 01-.585-1.676h1.454c.038.439.186.803.444 1.091.261.284.59.496.988.636.402.137.834.205 1.296.205.538 0 1.02-.087 1.449-.262.428-.178.767-.424 1.017-.738.25-.318.375-.69.375-1.114 0-.386-.108-.701-.324-.943a2.386 2.386 0 00-.853-.591 9.083 9.083 0 00-1.142-.398l-1.431-.409c-.91-.261-1.629-.634-2.16-1.119-.53-.485-.795-1.119-.795-1.903 0-.652.176-1.22.528-1.705a3.51 3.51 0 011.432-1.136c.603-.273 1.275-.409 2.017-.409.75 0 1.417.134 2 .403.584.265 1.046.629 1.387 1.091.344.462.526.987.545 1.574h-1.364zm7.157 8.909c-.841 0-1.566-.186-2.176-.557a3.736 3.736 0 01-1.403-1.568c-.326-.674-.489-1.459-.489-2.352 0-.894.163-1.682.489-2.364.329-.686.788-1.22 1.375-1.602.591-.387 1.28-.58 2.068-.58.454 0 .903.076 1.346.227.444.152.847.398 1.211.739.363.337.653.784.869 1.341.216.557.324 1.242.324 2.057v.568h-6.727v-1.159h5.363c0-.493-.098-.932-.295-1.318a2.219 2.219 0 00-.83-.915c-.356-.224-.776-.335-1.261-.335-.534 0-.996.132-1.386.397a2.627 2.627 0 00-.893 1.023 3.01 3.01 0 00-.312 1.352v.773c0 .659.114 1.218.341 1.676.231.455.551.801.96 1.04.409.235.885.352 1.426.352.353 0 .671-.049.955-.147.288-.103.536-.254.744-.455.208-.205.369-.458.483-.761l1.296.363c-.137.44-.366.826-.688 1.159-.322.33-.72.587-1.193.773a4.425 4.425 0 01-1.597.273zm6.835-5.432V266h-1.341v-8.727h1.295v1.363h.114c.204-.443.515-.799.932-1.068.416-.273.954-.409 1.613-.409.591 0 1.108.121 1.551.364.444.238.788.602 1.034 1.091.247.484.37 1.098.37 1.841V266h-1.341v-5.455c0-.685-.178-1.219-.534-1.602-.356-.386-.845-.579-1.466-.579-.428 0-.811.092-1.148.278a1.998 1.998 0 00-.79.813c-.193.356-.289.787-.289 1.295zm11.653-3.477v1.136h-4.522v-1.136h4.522zm-3.204-2.091h1.341v8.318c0 .379.055.663.165.852a.847.847 0 00.431.375c.178.061.366.091.563.091.148 0 .269-.007.364-.023l.227-.045.273 1.205a2.74 2.74 0 01-.381.102 2.792 2.792 0 01-.619.057 2.7 2.7 0 01-1.114-.245 2.217 2.217 0 01-.898-.744c-.235-.333-.352-.754-.352-1.261v-8.682z" fill="#2C2C2C"/><circle cx="467" cy="260.5" fill="#00D3A2" r="6"/><path d="M485.773 255.614v-1.25h8.727v1.25h-3.659V266h-1.409v-10.386h-3.659zM497.31 266l-2.659-8.727h1.409l1.887 6.682h.09l1.864-6.682h1.432l1.841 6.659h.091l1.886-6.659h1.409L503.901 266h-1.318l-1.909-6.705h-.137L498.628 266h-1.318zm14.225.182c-.841 0-1.566-.186-2.176-.557a3.736 3.736 0 01-1.403-1.568c-.326-.674-.489-1.459-.489-2.352 0-.894.163-1.682.489-2.364.329-.686.787-1.22 1.375-1.602.59-.387 1.28-.58 2.068-.58.454 0 .903.076 1.346.227.444.152.847.398 1.211.739.363.337.653.784.869 1.341.216.557.324 1.242.324 2.057v.568h-6.728v-1.159h5.364c0-.493-.098-.932-.295-1.318a2.226 2.226 0 00-.83-.915c-.356-.224-.776-.335-1.261-.335-.534 0-.996.132-1.387.397a2.633 2.633 0 00-.892 1.023 3.01 3.01 0 00-.312 1.352v.773c0 .659.113 1.218.341 1.676.231.455.551.801.96 1.04.409.235.884.352 1.426.352.352 0 .671-.049.955-.147.288-.103.536-.254.744-.455.208-.205.369-.458.483-.761l1.295.363a2.86 2.86 0 01-.687 1.159c-.322.33-.72.587-1.193.773a4.425 4.425 0 01-1.597.273zm9.153 0c-.841 0-1.567-.186-2.177-.557a3.742 3.742 0 01-1.403-1.568c-.326-.674-.489-1.459-.489-2.352 0-.894.163-1.682.489-2.364.33-.686.788-1.22 1.375-1.602.591-.387 1.28-.58 2.068-.58.455 0 .904.076 1.347.227.443.152.846.398 1.21.739.364.337.653.784.869 1.341.216.557.324 1.242.324 2.057v.568h-6.727v-1.159h5.364c0-.493-.099-.932-.296-1.318a2.223 2.223 0 00-.829-.915c-.356-.224-.777-.335-1.262-.335-.534 0-.996.132-1.386.397a2.625 2.625 0 00-.892 1.023 3.01 3.01 0 00-.313 1.352v.773c0 .659.114 1.218.341 1.676.231.455.551.801.96 1.04.41.235.885.352 1.427.352.352 0 .67-.049.954-.147.288-.103.536-.254.744-.455.209-.205.37-.458.483-.761l1.296.363c-.136.44-.366.826-.688 1.159-.322.33-.719.587-1.193.773a4.416 4.416 0 01-1.596.273zm9.288-8.909v1.136h-4.522v-1.136h4.522zm-3.204-2.091h1.341v8.318c0 .379.055.663.165.852a.847.847 0 00.431.375c.178.061.366.091.563.091.148 0 .269-.007.364-.023l.227-.045.273 1.205a2.74 2.74 0 01-.381.102 2.792 2.792 0 01-.619.057 2.7 2.7 0 01-1.114-.245 2.217 2.217 0 01-.898-.744c-.235-.333-.352-.754-.352-1.261v-8.682zm11.087 4.045l-1.204.341a2.229 2.229 0 00-.336-.585 1.63 1.63 0 00-.591-.477c-.25-.125-.57-.188-.96-.188-.534 0-.979.123-1.335.37-.352.242-.528.551-.528.926 0 .333.121.596.363.789.243.194.621.355 1.137.483l1.295.319c.78.189 1.362.479 1.744.869.383.386.574.884.574 1.494 0 .5-.144.947-.432 1.341-.284.394-.681.705-1.193.932-.511.227-1.106.341-1.784.341-.89 0-1.627-.193-2.21-.58-.583-.386-.953-.95-1.108-1.693l1.273-.318c.121.47.35.822.687 1.057.341.235.786.352 1.335.352.625 0 1.122-.133 1.489-.398.371-.269.557-.591.557-.966 0-.303-.106-.556-.318-.761-.212-.208-.538-.364-.978-.466l-1.454-.341c-.799-.189-1.387-.483-1.762-.88-.371-.402-.556-.904-.556-1.506 0-.493.138-.928.414-1.307a2.827 2.827 0 011.142-.892c.485-.216 1.035-.324 1.648-.324.864 0 1.542.189 2.034.568.496.379.849.879 1.057 1.5zm6.539 6.773v-11.636h3.932c.909 0 1.656.155 2.239.466.583.306 1.015.729 1.295 1.267.281.537.421 1.149.421 1.835 0 .685-.14 1.293-.421 1.824-.28.53-.71.947-1.289 1.25-.58.299-1.32.449-2.222.449h-3.182v-1.273h3.137c.621 0 1.121-.091 1.5-.273.382-.182.659-.439.829-.773.174-.337.261-.738.261-1.204 0-.466-.087-.873-.261-1.222a1.788 1.788 0 00-.835-.807c-.383-.193-.888-.289-1.517-.289h-2.477V266h-1.41zm5.478-5.227l2.863 5.227h-1.636l-2.818-5.227h1.591zm7.98 5.409c-.841 0-1.566-.186-2.176-.557a3.736 3.736 0 01-1.403-1.568c-.326-.674-.489-1.459-.489-2.352 0-.894.163-1.682.489-2.364.329-.686.788-1.22 1.375-1.602.591-.387 1.28-.58 2.068-.58.455 0 .903.076 1.347.227.443.152.846.398 1.21.739.363.337.653.784.869 1.341.216.557.324 1.242.324 2.057v.568h-6.727v-1.159h5.363c0-.493-.098-.932-.295-1.318a2.219 2.219 0 00-.83-.915c-.356-.224-.776-.335-1.261-.335-.534 0-.996.132-1.386.397a2.617 2.617 0 00-.892 1.023 2.997 2.997 0 00-.313 1.352v.773c0 .659.114 1.218.341 1.676.231.455.551.801.96 1.04.409.235.885.352 1.426.352.353 0 .671-.049.955-.147.288-.103.536-.254.744-.455.209-.205.37-.458.483-.761l1.296.363c-.137.44-.366.826-.688 1.159-.322.33-.72.587-1.193.773a4.425 4.425 0 01-1.597.273zm9.039 0c-.818 0-1.523-.193-2.113-.58a3.772 3.772 0 01-1.364-1.596c-.318-.678-.477-1.453-.477-2.324 0-.887.163-1.669.488-2.347.33-.682.788-1.214 1.375-1.596.591-.387 1.281-.58 2.068-.58.614 0 1.167.114 1.66.341.492.227.895.545 1.21.955.314.409.509.886.585 1.431h-1.341c-.102-.397-.329-.75-.682-1.056-.348-.311-.818-.466-1.409-.466-.523 0-.981.136-1.375.409-.39.269-.695.649-.915 1.142-.215.488-.323 1.062-.323 1.721 0 .675.106 1.262.318 1.762.216.5.519.888.909 1.164.394.277.856.415 1.386.415.349 0 .665-.06.949-.182.284-.121.525-.295.722-.522.197-.228.337-.5.42-.818h1.341a3.112 3.112 0 01-.562 1.392 3.153 3.153 0 01-1.177.977c-.484.238-1.049.358-1.693.358zm8.891 0c-.841 0-1.566-.186-2.176-.557a3.736 3.736 0 01-1.403-1.568c-.326-.674-.489-1.459-.489-2.352 0-.894.163-1.682.489-2.364.329-.686.788-1.22 1.375-1.602.591-.387 1.28-.58 2.068-.58.455 0 .903.076 1.347.227.443.152.846.398 1.21.739.363.337.653.784.869 1.341.216.557.324 1.242.324 2.057v.568h-6.727v-1.159h5.363c0-.493-.098-.932-.295-1.318a2.219 2.219 0 00-.83-.915c-.356-.224-.776-.335-1.261-.335-.534 0-.996.132-1.386.397a2.617 2.617 0 00-.892 1.023 2.997 2.997 0 00-.313 1.352v.773c0 .659.114 1.218.341 1.676.231.455.551.801.96 1.04.409.235.885.352 1.426.352.353 0 .671-.049.955-.147.288-.103.536-.254.744-.455.209-.205.37-.458.483-.761l1.296.363c-.137.44-.366.826-.688 1.159-.322.33-.72.587-1.193.773a4.425 4.425 0 01-1.597.273zm5.494-.182v-8.727h1.341V266h-1.341zm.682-10.182a.955.955 0 01-.677-.267.86.86 0 01-.278-.642.86.86 0 01.278-.642.955.955 0 01.677-.267c.261 0 .484.089.67.267a.851.851 0 01.284.642c0 .25-.095.464-.284.642a.934.934 0 01-.67.267zm10.091 1.455L588.826 266h-1.364l-3.227-8.727h1.454l2.409 6.954h.091l2.409-6.954h1.455zm4.956 8.909c-.84 0-1.566-.186-2.176-.557a3.736 3.736 0 01-1.403-1.568c-.326-.674-.489-1.459-.489-2.352 0-.894.163-1.682.489-2.364.329-.686.788-1.22 1.375-1.602.591-.387 1.28-.58 2.068-.58.455 0 .904.076 1.347.227.443.152.846.398 1.21.739.364.337.653.784.869 1.341.216.557.324 1.242.324 2.057v.568h-6.727v-1.159h5.363c0-.493-.098-.932-.295-1.318a2.219 2.219 0 00-.83-.915c-.356-.224-.776-.335-1.261-.335-.534 0-.996.132-1.386.397a2.617 2.617 0 00-.892 1.023 2.997 2.997 0 00-.313 1.352v.773c0 .659.114 1.218.341 1.676.231.455.551.801.96 1.04.409.235.885.352 1.426.352.353 0 .671-.049.955-.147.288-.103.536-.254.744-.455.209-.205.37-.458.483-.761l1.296.363c-.137.44-.366.826-.688 1.159-.322.33-.719.587-1.193.773a4.421 4.421 0 01-1.597.273zm8.789 0c-.727 0-1.369-.184-1.926-.551-.557-.372-.992-.894-1.307-1.569-.314-.678-.471-1.479-.471-2.403 0-.917.157-1.712.471-2.386.315-.675.752-1.195 1.313-1.563.561-.367 1.208-.551 1.943-.551.568 0 1.017.095 1.347.284.333.186.587.398.761.637.178.234.316.428.415.579h.113v-4.295h1.341V266h-1.295v-1.341h-.159c-.099.159-.239.36-.421.602-.181.239-.441.453-.778.642-.337.186-.786.279-1.347.279zm.182-1.205c.538 0 .993-.14 1.364-.42.371-.284.653-.676.846-1.176.194-.504.29-1.086.29-1.745 0-.651-.095-1.221-.284-1.71-.189-.492-.47-.875-.841-1.148-.371-.276-.829-.414-1.375-.414-.568 0-1.041.145-1.42.437-.375.288-.657.68-.847 1.176a4.694 4.694 0 00-.278 1.659c0 .622.094 1.186.284 1.694.193.503.477.905.852 1.204.379.296.849.443 1.409.443z" fill="#2C2C2C"/><path d="M70.5 178l89.5-52 26.5-57L246 178h90.5L412 19l81 107 89 52h85l78-52 85 52 91.5-101" stroke="#5A3795" stroke-width="2" stroke-linecap="round"/><ellipse cx="70" cy="177.995" rx="3" ry="2.995" fill="#5A3795"/><ellipse cx="160" cy="125.995" rx="3" ry="2.995" fill="#5A3795"/><ellipse cx="187" cy="67.995" rx="3" ry="2.995" fill="#5A3795"/><ellipse cx="246" cy="177.995" rx="3" ry="2.995" fill="#5A3795"/><ellipse cx="337" cy="177.995" rx="3" ry="2.995" fill="#5A3795"/><ellipse cx="412" cy="18.995" rx="3" ry="2.995" fill="#5A3795"/><ellipse cx="493" cy="125.995" rx="3" ry="2.995" fill="#5A3795"/><ellipse cx="581" cy="177.995" rx="3" ry="2.995" fill="#5A3795"/><ellipse cx="668" cy="177.995" rx="3" ry="2.995" fill="#5A3795"/><ellipse cx="747" cy="125.995" rx="3" ry="2.995" fill="#5A3795"/><ellipse cx="830" cy="177.995" rx="3" ry="2.995" fill="#5A3795"/><ellipse cx="922" cy="77.995" rx="3" ry="2.995" fill="#5A3795"/><path d="M69.5 177.5L164 134l81.5 43.5h336l86.5-15 79 15h173" stroke="#FA0060" stroke-width="2" stroke-linecap="round"/><ellipse cx="70" cy="177.995" rx="3" ry="2.995" fill="#FA0060"/><ellipse cx="164" cy="134.995" rx="3" ry="2.995" fill="#FA0060"/><ellipse cx="246" cy="177.995" rx="3" ry="2.995" fill="#FA0060"/><ellipse cx="337" cy="177.995" rx="3" ry="2.995" fill="#FA0060"/><ellipse cx="493" cy="177.995" rx="3" ry="2.995" fill="#FA0060"/><ellipse cx="581" cy="177.995" rx="3" ry="2.995" fill="#FA0060"/><ellipse cx="668" cy="162.995" rx="3" ry="2.995" fill="#FA0060"/><ellipse cx="747" cy="177.995" rx="3" ry="2.995" fill="#FA0060"/><ellipse cx="830" cy="177.995" rx="3" ry="2.995" fill="#FA0060"/><ellipse cx="922" cy="177.995" rx="3" ry="2.995" fill="#FA0060"/><path d="M70.5 177.5l87-67.5 28.5-3 57 51.5 92 10.5 80-62 77 36 87 26h167.5l82.5-11.5 91 11.5" stroke="#00D3A2" stroke-width="2" stroke-linecap="round"/><ellipse cx="70" cy="177.995" rx="3" ry="2.995" fill="#00D3A2"/><ellipse cx="156" cy="110.995" rx="3" ry="2.995" fill="#00D3A2"/><ellipse cx="186" cy="106.995" rx="3" ry="2.995" fill="#00D3A2"/><ellipse cx="243" cy="157.995" rx="3" ry="2.995" fill="#00D3A2"/><ellipse cx="335" cy="168.995" rx="3" ry="2.995" fill="#00D3A2"/><ellipse cx="415" cy="107.995" rx="3" ry="2.995" fill="#00D3A2"/><ellipse cx="493" cy="142.995" rx="3" ry="2.995" fill="#00D3A2"/><ellipse cx="581" cy="168.995" rx="3" ry="2.995" fill="#00D3A2"/><ellipse cx="668" cy="168.995" rx="3" ry="2.995" fill="#00D3A2"/><ellipse cx="747" cy="168.995" rx="3" ry="2.995" fill="#00D3A2"/><ellipse cx="830" cy="156.995" rx="3" ry="2.995" fill="#00D3A2"/><ellipse cx="922" cy="168.995" rx="3" ry="2.995" fill="#00D3A2"/><circle cx="658" cy="260.5" fill="#FEDE35" r="6"/><path d="M681 266h-3.591v-11.636h3.75c1.129 0 2.095.233 2.898.698.803.463 1.418 1.127 1.846 1.995.428.863.642 1.898.642 3.102 0 1.212-.215 2.256-.647 3.131a4.618 4.618 0 01-1.887 2.011c-.825.466-1.829.699-3.011.699zm-2.182-1.25h2.091c.962 0 1.76-.186 2.392-.557a3.428 3.428 0 001.415-1.585c.311-.686.466-1.502.466-2.449 0-.939-.154-1.748-.46-2.426a3.396 3.396 0 00-1.375-1.568c-.61-.368-1.37-.551-2.279-.551h-2.25v9.136zm9.931-10.386h1.682l3.954 9.659h.137l3.954-9.659h1.682V266h-1.318v-8.841h-.114L695.09 266h-1.273l-3.636-8.841h-.114V266h-1.318v-11.636zm20.074 4.863l-1.204.341a2.253 2.253 0 00-.335-.585 1.63 1.63 0 00-.591-.477c-.25-.125-.57-.188-.96-.188-.535 0-.98.123-1.336.37-.352.242-.528.551-.528.926 0 .333.121.596.364.789.242.194.621.355 1.136.483l1.295.319c.781.189 1.362.479 1.745.869.382.386.574.884.574 1.494 0 .5-.144.947-.432 1.341-.284.394-.682.705-1.193.932-.512.227-1.107.341-1.785.341-.89 0-1.626-.193-2.21-.58-.583-.386-.952-.95-1.108-1.693l1.273-.318c.121.47.35.822.688 1.057.34.235.785.352 1.335.352.625 0 1.121-.133 1.488-.398.372-.269.557-.591.557-.966 0-.303-.106-.556-.318-.761-.212-.208-.538-.364-.977-.466l-1.455-.341c-.799-.189-1.386-.483-1.761-.88-.371-.402-.557-.904-.557-1.506 0-.493.138-.928.415-1.307a2.82 2.82 0 011.142-.892c.485-.216 1.034-.324 1.648-.324.863 0 1.541.189 2.034.568.496.379.848.879 1.056 1.5zm6.54 6.773v-11.636h3.932c.909 0 1.655.155 2.238.466.584.306 1.015.729 1.296 1.267.28.537.42 1.149.42 1.835 0 .685-.14 1.293-.42 1.824-.281.53-.71.947-1.29 1.25-.58.299-1.32.449-2.222.449h-3.181v-1.273h3.136c.621 0 1.121-.091 1.5-.273.383-.182.659-.439.829-.773.175-.337.262-.738.262-1.204 0-.466-.087-.873-.262-1.222a1.784 1.784 0 00-.835-.807c-.382-.193-.888-.289-1.517-.289h-2.477V266h-1.409zm5.477-5.227l2.864 5.227h-1.637l-2.818-5.227h1.591zm7.981 5.409c-.841 0-1.567-.186-2.176-.557a3.744 3.744 0 01-1.404-1.568c-.326-.674-.488-1.459-.488-2.352 0-.894.162-1.682.488-2.364.33-.686.788-1.22 1.375-1.602.591-.387 1.28-.58 2.068-.58.455 0 .904.076 1.347.227.443.152.847.398 1.21.739.364.337.654.784.87 1.341.215.557.323 1.242.323 2.057v.568h-6.727v-1.159h5.364c0-.493-.099-.932-.296-1.318a2.217 2.217 0 00-.829-.915c-.356-.224-.777-.335-1.262-.335-.534 0-.996.132-1.386.397a2.625 2.625 0 00-.892 1.023 3.01 3.01 0 00-.313 1.352v.773c0 .659.114 1.218.341 1.676.231.455.552.801.961 1.04.409.235.884.352 1.426.352.352 0 .67-.049.954-.147.288-.103.536-.254.745-.455.208-.205.369-.458.483-.761l1.295.363c-.136.44-.366.826-.687 1.159a3.35 3.35 0 01-1.194.773 4.416 4.416 0 01-1.596.273zm9.039 0c-.819 0-1.523-.193-2.114-.58a3.78 3.78 0 01-1.364-1.596c-.318-.678-.477-1.453-.477-2.324 0-.887.163-1.669.489-2.347.329-.682.788-1.214 1.375-1.596.591-.387 1.28-.58 2.068-.58.614 0 1.167.114 1.659.341.492.227.896.545 1.21.955.315.409.51.886.585 1.431h-1.34c-.103-.397-.33-.75-.682-1.056-.349-.311-.818-.466-1.409-.466-.523 0-.981.136-1.375.409-.391.269-.695.649-.915 1.142-.216.488-.324 1.062-.324 1.721 0 .675.106 1.262.318 1.762.216.5.519.888.909 1.164.394.277.856.415 1.387.415.348 0 .664-.06.948-.182a1.95 1.95 0 00.722-.522c.197-.228.337-.5.421-.818h1.34a3.1 3.1 0 01-.562 1.392 3.158 3.158 0 01-1.176.977c-.485.238-1.049.358-1.693.358zm8.891 0c-.841 0-1.567-.186-2.176-.557a3.744 3.744 0 01-1.404-1.568c-.326-.674-.488-1.459-.488-2.352 0-.894.162-1.682.488-2.364.33-.686.788-1.22 1.375-1.602.591-.387 1.28-.58 2.068-.58.455 0 .904.076 1.347.227.443.152.847.398 1.21.739.364.337.654.784.87 1.341.215.557.323 1.242.323 2.057v.568h-6.727v-1.159h5.364c0-.493-.099-.932-.296-1.318a2.217 2.217 0 00-.829-.915c-.356-.224-.777-.335-1.262-.335-.534 0-.996.132-1.386.397a2.625 2.625 0 00-.892 1.023 3.01 3.01 0 00-.313 1.352v.773c0 .659.114 1.218.341 1.676.231.455.552.801.961 1.04.409.235.884.352 1.426.352.352 0 .67-.049.954-.147.288-.103.536-.254.745-.455.208-.205.369-.458.483-.761l1.295.363c-.136.44-.366.826-.687 1.159a3.35 3.35 0 01-1.194.773 4.416 4.416 0 01-1.596.273zm5.493-.182v-8.727h1.341V266h-1.341zm.682-10.182a.953.953 0 01-.676-.267.857.857 0 01-.279-.642c0-.25.093-.464.279-.642a.953.953 0 01.676-.267c.261 0 .485.089.67.267.19.178.285.392.285.642s-.095.464-.285.642a.932.932 0 01-.67.267zm10.091 1.455L759.79 266h-1.364l-3.227-8.727h1.455l2.409 6.954h.091l2.409-6.954h1.454zm4.957 8.909c-.841 0-1.566-.186-2.176-.557a3.744 3.744 0 01-1.404-1.568c-.325-.674-.488-1.459-.488-2.352 0-.894.163-1.682.488-2.364.33-.686.788-1.22 1.375-1.602.591-.387 1.281-.58 2.069-.58.454 0 .903.076 1.346.227.443.152.847.398 1.21.739.364.337.654.784.87 1.341.216.557.324 1.242.324 2.057v.568h-6.728v-1.159h5.364c0-.493-.099-.932-.296-1.318a2.217 2.217 0 00-.829-.915c-.356-.224-.777-.335-1.261-.335-.535 0-.997.132-1.387.397a2.625 2.625 0 00-.892 1.023 3.01 3.01 0 00-.312 1.352v.773c0 .659.113 1.218.341 1.676.231.455.551.801.96 1.04.409.235.884.352 1.426.352.352 0 .67-.049.954-.147.288-.103.536-.254.745-.455.208-.205.369-.458.483-.761l1.295.363a2.86 2.86 0 01-.687 1.159 3.35 3.35 0 01-1.194.773 4.416 4.416 0 01-1.596.273zm8.789 0c-.728 0-1.37-.184-1.926-.551-.557-.372-.993-.894-1.307-1.569-.315-.678-.472-1.479-.472-2.403 0-.917.157-1.712.472-2.386.314-.675.752-1.195 1.312-1.563.561-.367 1.209-.551 1.943-.551.569 0 1.017.095 1.347.284.333.186.587.398.761.637.178.234.317.428.415.579h.114v-4.295h1.341V266h-1.296v-1.341h-.159c-.098.159-.238.36-.42.602-.182.239-.442.453-.779.642-.337.186-.786.279-1.346.279zm.182-1.205c.537 0 .992-.14 1.363-.42.371-.284.654-.676.847-1.176.193-.504.29-1.086.29-1.745 0-.651-.095-1.221-.285-1.71-.189-.492-.469-.875-.84-1.148-.372-.276-.83-.414-1.375-.414-.569 0-1.042.145-1.421.437-.375.288-.657.68-.847 1.176a4.694 4.694 0 00-.278 1.659c0 .622.095 1.186.284 1.694.193.503.477.905.852 1.204.379.296.849.443 1.41.443z" fill="#2C2C2C"/><path d="M70 178h176l42.5-49.5 47-19 79.5 37L491 94l90 52.5 85.5-14 79.5 14 84.5-14 91.5-21" stroke="#FEDE35" stroke-width="2" stroke-linecap="round"/><ellipse cx="70" cy="177.995" rx="3" ry="2.995" fill="#FEDE35"/><ellipse cx="164" cy="177.995" rx="3" ry="2.995" fill="#FEDE35"/><ellipse cx="246" cy="177.995" rx="3" ry="2.995" fill="#FEDE35"/><ellipse cx="337" cy="109.995" rx="3" ry="2.995" fill="#FEDE35"/><ellipse cx="415" cy="145.995" rx="3" ry="2.995" fill="#FEDE35"/><ellipse cx="492" cy="93.995" rx="3" ry="2.995" fill="#FEDE35"/><ellipse cx="581" cy="145.995" rx="3" ry="2.995" fill="#FEDE35"/><ellipse cx="668" cy="132.995" rx="3" ry="2.995" fill="#FEDE35"/><ellipse cx="747" cy="145.995" rx="3" ry="2.995" fill="#FEDE35"/><ellipse cx="830" cy="131.995" rx="3" ry="2.995" fill="#FEDE35"/><ellipse cx="922" cy="110.995" rx="3" ry="2.995" fill="#FEDE35"/></svg>