<svg width="364" height="267" viewBox="0 0 364 267" fill="none" xmlns="http://www.w3.org/2000/svg"><path d="M265.805 110.047c1.105 0 2.003-.896 1.976-2a82.55 82.55 0 00-34.913-65.44c-.902-.637-2.146-.39-2.761.528L218.813 59.98c-.615.917-.368 2.157.528 2.803a58.273 58.273 0 0124.149 45.263c.037 1.104.929 2 2.034 2h20.281z" fill="#FA0060" stroke="#fff"/><path d="M230.106 43.135c.615-.917.371-2.162-.561-2.755a82.557 82.557 0 00-126.631 63.588c-.081 1.101.771 2.04 1.875 2.095l20.256 1.003c1.104.054 2.039-.796 2.131-1.897a58.28 58.28 0 0131.92-47.201 58.276 58.276 0 0156.923 2.59c.938.583 2.178.34 2.793-.577l11.294-16.846z" fill="#00D3A2" stroke="#fff"/><path d="M104.79 106.063c-1.103-.055-2.044.795-2.072 1.899a82.76 82.76 0 00.118 6.974c.066 1.103 1.035 1.92 2.136 1.828l20.211-1.691c1.101-.092 1.915-1.059 1.86-2.162a58.546 58.546 0 01-.063-3.748c.016-1.104-.83-2.043-1.933-2.097l-20.257-1.003z" fill="#FEDE35" stroke="#fff"/><path d="M104.972 116.764c-1.101.092-1.921 1.06-1.803 2.158a82.561 82.561 0 0085.525 73.61 82.558 82.558 0 0079.088-80.486c.026-1.104-.872-1.999-1.976-1.999h-20.282c-1.104 0-1.996.896-2.034 2a58.28 58.28 0 01-55.81 56.225 58.28 58.28 0 01-60.304-51.376c-.129-1.096-1.093-1.915-2.194-1.823l-20.21 1.691z" fill="#5A3795" stroke="#fff"/><path d="M258.088 71.186l21.423-11.43" stroke="#999"/><path d="M282.821 47.914v7.273h-.88v-6.35h-.043l-1.775 1.18v-.896l1.818-1.207h.88zm4.464 7.372c-.535 0-.991-.145-1.367-.437-.376-.293-.664-.718-.863-1.274-.199-.56-.298-1.234-.298-2.025 0-.786.099-1.457.298-2.013.201-.559.49-.985.867-1.279.378-.295.833-.443 1.363-.443s.984.148 1.36.444c.379.293.668.72.867 1.278.201.556.302 1.227.302 2.013 0 .791-.1 1.466-.299 2.025-.199.556-.486.98-.863 1.274-.376.292-.832.437-1.367.437zm0-.781c.53 0 .942-.256 1.236-.767.294-.511.44-1.24.44-2.188 0-.63-.067-1.166-.202-1.608-.133-.443-.324-.78-.575-1.012a1.27 1.27 0 00-.899-.348c-.525 0-.936.259-1.232.777-.296.517-.444 1.247-.444 2.191 0 .63.066 1.165.199 1.606.132.44.323.775.572 1.005.251.23.552.344.905.344zm7.585-.682v-.383c0-.265.055-.508.164-.728.111-.223.272-.4.483-.533.213-.135.471-.203.774-.203.308 0 .566.068.774.203.208.133.366.31.472.533.107.22.16.462.16.728v.383c0 .265-.054.51-.163.732-.107.22-.265.397-.476.532-.208.133-.464.2-.767.2-.308 0-.567-.067-.778-.2a1.313 1.313 0 01-.479-.532 1.641 1.641 0 01-.164-.732zm.725-.383v.383c0 .22.052.418.156.593.104.173.284.26.54.26.248 0 .424-.087.525-.26a1.13 1.13 0 00.157-.593v-.383c0-.22-.05-.417-.149-.59-.1-.175-.277-.263-.533-.263-.249 0-.427.088-.536.263-.107.173-.16.37-.16.59zm-4.347-3.779v-.383c0-.265.055-.508.164-.728.111-.223.272-.4.483-.533.213-.135.471-.202.774-.202.307 0 .565.067.774.202.208.133.366.31.472.533.107.22.16.463.16.728v.383c0 .265-.055.51-.163.732-.107.22-.266.398-.476.532-.209.133-.464.2-.767.2-.308 0-.567-.067-.778-.2a1.305 1.305 0 01-.479-.532 1.64 1.64 0 01-.164-.732zm.725-.383v.383c0 .22.052.418.156.593.104.173.284.26.54.26.248 0 .423-.087.525-.26a1.14 1.14 0 00.156-.593v-.383c0-.22-.049-.417-.149-.59-.099-.175-.277-.263-.532-.263-.249 0-.428.088-.537.263-.106.173-.159.37-.159.59zm-.455 5.909l5-7.273h.81l-5 7.273h-.81z" fill="#666"/><path d="M148.201 36.269l-10.896-21.7" stroke="#999"/><path d="M126.791 8.509v-.725l3.196-5.056h.526V3.85h-.355l-2.415 3.82v.058h4.304v.78h-5.256zM130.215 10V2.728h.838V10h-.838zm5.535.1c-.535 0-.991-.146-1.367-.437-.377-.294-.664-.719-.863-1.275-.199-.559-.298-1.233-.298-2.024 0-.786.099-1.457.298-2.014.201-.558.49-.984.866-1.278.379-.296.834-.444 1.364-.444.53 0 .984.148 1.36.444.379.294.668.72.867 1.278.201.557.301 1.228.301 2.014 0 .79-.099 1.465-.298 2.024-.199.556-.486.981-.863 1.275-.376.291-.832.437-1.367.437zm0-.782c.53 0 .942-.255 1.236-.767.293-.511.44-1.24.44-2.187 0-.63-.067-1.166-.202-1.609-.133-.442-.325-.78-.576-1.012a1.268 1.268 0 00-.898-.348c-.526 0-.936.26-1.232.778-.296.516-.444 1.246-.444 2.19 0 .63.066 1.166.199 1.606.132.44.323.775.571 1.005.251.23.553.344.906.344zm7.585-.681v-.384c0-.265.055-.508.164-.728.111-.222.272-.4.483-.533.213-.135.471-.202.774-.202.307 0 .565.067.774.202.208.133.366.31.472.533.107.22.16.463.16.728v.384c0 .265-.055.509-.163.731a1.3 1.3 0 01-.476.533 1.407 1.407 0 01-.767.199c-.308 0-.567-.067-.778-.2a1.306 1.306 0 01-.479-.532 1.64 1.64 0 01-.164-.731zm.725-.384v.384c0 .22.052.417.156.593.104.172.284.259.54.259.248 0 .423-.087.525-.26a1.14 1.14 0 00.157-.592v-.384c0-.22-.05-.417-.15-.59-.099-.175-.277-.262-.532-.262-.249 0-.428.087-.537.263a1.102 1.102 0 00-.159.59zm-4.347-3.778V4.09c0-.265.055-.508.163-.728.112-.222.273-.4.483-.533.213-.134.471-.202.775-.202.307 0 .565.068.774.202.208.133.365.31.472.533.107.22.16.463.16.728v.384c0 .265-.055.509-.164.731-.106.22-.265.398-.475.533a1.407 1.407 0 01-.767.199c-.308 0-.567-.067-.778-.2a1.315 1.315 0 01-.48-.532 1.654 1.654 0 01-.163-.731zm.725-.384v.384c0 .22.052.418.156.593.104.173.284.259.54.259.248 0 .423-.086.525-.26a1.14 1.14 0 00.156-.592V4.09c0-.22-.049-.417-.149-.59-.099-.175-.277-.262-.532-.262-.249 0-.428.087-.537.263a1.102 1.102 0 00-.159.59zm-.455 5.91l5-7.273h.81l-5 7.272h-.81z" fill="#666"/><path d="M102.704 111.451l-24.278.413" stroke="#999"/><path d="M61.573 116v-.639l2.4-2.628c.282-.308.514-.575.697-.803a2.96 2.96 0 00.405-.646c.09-.204.135-.417.135-.639a1.18 1.18 0 00-.185-.664 1.193 1.193 0 00-.497-.433 1.609 1.609 0 00-.71-.153c-.28 0-.524.058-.732.174a1.2 1.2 0 00-.48.479 1.505 1.505 0 00-.166.725h-.838c0-.426.098-.8.294-1.122a2.05 2.05 0 01.803-.753c.34-.18.723-.27 1.147-.27.426 0 .804.09 1.133.27.329.18.587.422.774.728.187.305.28.645.28 1.019a2.2 2.2 0 01-.145.785c-.095.253-.26.536-.497.848-.235.311-.56.689-.977 1.137l-1.633 1.747v.057h3.38V116h-4.588zm9.762-1.364v-.383c0-.265.055-.508.164-.728a1.3 1.3 0 01.483-.533c.213-.135.47-.202.774-.202.307 0 .566.067.774.202.208.133.366.31.472.533.107.22.16.463.16.728v.383c0 .266-.055.509-.163.732a1.3 1.3 0 01-.476.533c-.209.132-.464.198-.767.198-.308 0-.567-.066-.778-.198a1.317 1.317 0 01-.48-.533 1.642 1.642 0 01-.163-.732zm.725-.383v.383c0 .221.052.418.156.593.104.173.284.26.54.26.248 0 .424-.087.525-.26.104-.175.156-.372.156-.593v-.383c0-.22-.05-.417-.149-.59-.1-.175-.277-.262-.532-.262-.249 0-.428.087-.537.262-.106.173-.16.37-.16.59zm-4.347-3.779v-.383c0-.265.055-.508.163-.728.112-.223.273-.4.483-.533a1.42 1.42 0 01.775-.202c.307 0 .565.067.774.202.208.133.365.31.472.533.107.22.16.463.16.728v.383c0 .266-.055.509-.164.732-.106.22-.265.398-.475.533a1.406 1.406 0 01-.767.199c-.308 0-.567-.067-.778-.199a1.317 1.317 0 01-.48-.533 1.642 1.642 0 01-.163-.732zm.725-.383v.383c0 .221.052.418.156.593.104.173.284.26.54.26.248 0 .423-.087.525-.26.104-.175.156-.372.156-.593v-.383c0-.22-.05-.417-.149-.59-.1-.175-.277-.262-.532-.262-.25 0-.428.087-.537.262-.106.173-.16.37-.16.59zM67.983 116l5-7.273h.81l-5 7.273h-.81z" fill="#666"/><path d="M238 172.565l14.357 19.582" stroke="#999"/><path d="M244.582 201.509v-.725l3.196-5.057h.526v1.122h-.355l-2.415 3.821v.057h4.304v.782h-5.256zm3.424 1.491v-7.273h.838V203h-.838zm5.492.099c-.487 0-.918-.086-1.292-.259a2.108 2.108 0 01-.87-.721 1.8 1.8 0 01-.309-1.051 1.923 1.923 0 01.685-1.509 1.54 1.54 0 01.721-.337v-.043a1.403 1.403 0 01-.831-.586 1.768 1.768 0 01-.305-1.033c-.003-.37.091-.7.28-.991.19-.291.45-.521.781-.689a2.502 2.502 0 011.14-.252c.422 0 .798.084 1.13.252.331.168.592.398.781.689.192.291.289.621.291.991a1.8 1.8 0 01-.316 1.033 1.4 1.4 0 01-.82.586v.043c.263.047.499.159.71.337.211.175.379.394.504.657.126.26.19.544.192.852a1.83 1.83 0 01-.32 1.051 2.108 2.108 0 01-.87.721c-.369.173-.796.259-1.282.259zm0-.781c.329 0 .614-.053.853-.16.239-.106.423-.256.554-.451a1.22 1.22 0 00.199-.681 1.309 1.309 0 00-.214-.728 1.444 1.444 0 00-.571-.498 1.807 1.807 0 00-.821-.181c-.31 0-.587.061-.831.181a1.444 1.444 0 00-.571.498c-.138.21-.205.453-.203.728-.002.26.061.487.188.681.131.195.317.345.558.451.242.107.528.16.859.16zm0-3.452c.261 0 .492-.052.693-.156a1.19 1.19 0 00.479-.437 1.25 1.25 0 00.178-.657 1.221 1.221 0 00-.174-.642 1.126 1.126 0 00-.472-.426 1.54 1.54 0 00-.704-.153c-.272 0-.51.051-.713.153a1.1 1.1 0 00-.473.426 1.19 1.19 0 00-.163.642c-.002.251.053.47.167.657.116.187.276.333.479.437.204.104.438.156.703.156zm7.54 2.77v-.383c0-.265.055-.508.164-.728.111-.223.272-.4.483-.533.213-.135.471-.202.774-.202.308 0 .566.067.774.202.208.133.366.31.472.533.107.22.16.463.16.728v.383c0 .266-.054.509-.163.732-.107.22-.265.398-.476.533-.208.132-.464.198-.767.198-.308 0-.567-.066-.778-.198a1.315 1.315 0 01-.479-.533 1.641 1.641 0 01-.164-.732zm.725-.383v.383c0 .221.052.418.156.593.104.173.284.26.54.26.248 0 .424-.087.525-.26.105-.175.157-.372.157-.593v-.383c0-.22-.05-.417-.15-.59-.099-.175-.277-.262-.532-.262-.249 0-.428.087-.536.262-.107.173-.16.37-.16.59zm-4.347-3.779v-.383c0-.265.055-.508.164-.728.111-.223.272-.4.482-.533.214-.135.472-.202.775-.202.307 0 .565.067.774.202.208.133.366.31.472.533.107.22.16.463.16.728v.383c0 .266-.055.509-.163.732a1.3 1.3 0 01-.476.533 1.407 1.407 0 01-.767.199c-.308 0-.567-.067-.778-.199a1.308 1.308 0 01-.479-.533 1.641 1.641 0 01-.164-.732zm.725-.383v.383c0 .221.052.418.156.593.104.173.284.26.54.26.248 0 .423-.087.525-.26.104-.175.156-.372.156-.593v-.383c0-.22-.049-.417-.149-.59-.099-.175-.277-.262-.532-.262-.249 0-.428.087-.537.262-.106.173-.159.37-.159.59zm-.455 5.909l5-7.273h.81l-5 7.273h-.81z" fill="#666"/><circle cx="5" cy="258" fill="#5A3795" r="5"/><path d="M21.233 264v-10.182h3.44c.8 0 1.452.144 1.96.433.51.285.887.671 1.133 1.158.245.487.368 1.031.368 1.631a3.6 3.6 0 01-.368 1.635 2.735 2.735 0 01-1.124 1.174c-.507.288-1.157.432-1.949.432h-2.466v-1.093h2.426c.547 0 .986-.095 1.318-.284a1.69 1.69 0 00.72-.766c.153-.324.23-.691.23-1.098 0-.408-.077-.772-.23-1.094a1.638 1.638 0 00-.725-.756c-.335-.185-.779-.278-1.332-.278h-2.168V264h-1.233zm9.76-10.182V264h-1.172v-10.182h1.173zm4.257 10.361c-.484 0-.923-.091-1.318-.273a2.265 2.265 0 01-.94-.801c-.231-.351-.347-.775-.347-1.273 0-.437.086-.792.258-1.064.173-.275.403-.49.691-.646.289-.156.607-.272.955-.348.351-.079.704-.142 1.059-.189.464-.059.84-.104 1.129-.134.291-.033.503-.088.636-.164.136-.076.204-.209.204-.398v-.04c0-.49-.134-.871-.403-1.143-.265-.272-.668-.408-1.208-.408-.56 0-1 .123-1.318.368-.318.245-.542.507-.67.786l-1.114-.398c.199-.464.464-.825.795-1.084.335-.262.7-.444 1.094-.547a4.544 4.544 0 011.173-.159c.245 0 .527.03.845.09.322.056.632.174.93.353.302.179.552.449.75.81.2.361.299.845.299 1.452V264h-1.173v-1.034h-.06c-.08.166-.212.343-.398.532-.185.189-.432.35-.74.482-.309.133-.685.199-1.129.199zm.179-1.054c.464 0 .855-.091 1.173-.273a1.863 1.863 0 00.975-1.616v-1.074c-.05.06-.16.114-.328.164a5.527 5.527 0 01-.577.124c-.216.033-.426.063-.631.09-.203.023-.367.043-.493.059-.305.04-.59.105-.855.194a1.47 1.47 0 00-.636.393c-.16.172-.239.408-.239.706 0 .408.151.716.453.925.304.205.69.308 1.158.308zm5.322.875v-7.636h1.174V264h-1.173zm.597-8.909a.833.833 0 01-.591-.234.751.751 0 01-.244-.562c0-.218.081-.406.244-.561a.833.833 0 01.591-.234c.229 0 .424.078.587.234a.742.742 0 01.248.561.744.744 0 01-.248.562.817.817 0 01-.587.234zm3.76 4.315V264h-1.174v-7.636h1.133v1.193h.1c.179-.388.45-.7.815-.935.365-.238.835-.358 1.412-.358.517 0 .97.106 1.357.318.388.209.69.527.905.955.215.424.323.961.323 1.611V264h-1.173v-4.773c0-.6-.156-1.067-.467-1.402-.312-.338-.74-.507-1.283-.507-.375 0-.71.081-1.004.244a1.738 1.738 0 00-.691.711c-.17.311-.254.689-.254 1.133zm10.275-4.494v-1.094h7.636v1.094h-3.201V264h-1.233v-9.088h-3.202zm11.334 9.247c-.735 0-1.37-.162-1.904-.487a3.273 3.273 0 01-1.228-1.372c-.285-.59-.427-1.276-.427-2.059 0-.782.142-1.471.427-2.068.289-.6.69-1.067 1.203-1.402.517-.338 1.12-.507 1.81-.507.398 0 .79.066 1.178.199.388.133.741.348 1.06.646.317.295.571.686.76 1.174.189.487.283 1.087.283 1.799v.498h-5.886v-1.015h4.693c0-.431-.086-.815-.258-1.153a1.944 1.944 0 00-.726-.8c-.312-.196-.68-.294-1.104-.294-.467 0-.872.116-1.213.348a2.29 2.29 0 00-.78.895 2.628 2.628 0 00-.274 1.183v.676c0 .577.1 1.066.298 1.467.203.398.483.701.84.91.359.205.775.308 1.248.308.309 0 .587-.043.836-.129a1.79 1.79 0 00.65-.398c.183-.179.324-.401.423-.666l1.134.318a2.51 2.51 0 01-.602 1.014c-.281.289-.63.514-1.043.676-.415.16-.88.239-1.398.239zm5.477-7.795l1.83 3.122 1.83-3.122h1.352l-2.466 3.818L77.206 264h-1.353l-1.83-2.963L72.195 264h-1.352l2.426-3.818-2.426-3.818h1.352zm9.867 0v.994h-3.958v-.994h3.958zm-2.804-1.83h1.173v7.278c0 .332.048.581.144.746.1.163.225.272.378.328.156.053.32.08.492.08.13 0 .236-.007.318-.02l.2-.04.238 1.054c-.08.03-.19.06-.333.09a2.467 2.467 0 01-.542.049 2.37 2.37 0 01-.975-.213 1.939 1.939 0 01-.785-.652c-.206-.291-.308-.659-.308-1.103v-7.597z" fill="#2C2C2C"/><circle cx="120" cy="258" fill="#FA0060" r="5"/><path d="M136.651 253.818l3.022 8.571h.12l3.022-8.571h1.293L140.369 264h-1.272l-3.739-10.182h1.293zM145.395 264v-7.636h1.173V264h-1.173zm.596-8.909a.832.832 0 01-.591-.234.75.75 0 01-.244-.562c0-.218.081-.406.244-.561a.832.832 0 01.591-.234c.229 0 .425.078.587.234a.741.741 0 01.249.561.744.744 0 01-.249.562.816.816 0 01-.587.234zm5.47 9.068c-.637 0-1.199-.161-1.686-.482-.487-.325-.868-.782-1.143-1.372-.275-.594-.413-1.295-.413-2.103 0-.802.138-1.498.413-2.088.275-.59.658-1.046 1.148-1.368.491-.321 1.057-.482 1.7-.482.498 0 .89.083 1.179.249.291.162.513.348.666.557.156.205.277.374.363.507h.099v-3.759h1.174V264h-1.134v-1.173h-.139a7.523 7.523 0 01-.368.527 2.182 2.182 0 01-.681.561c-.295.163-.688.244-1.178.244zm.159-1.054c.47 0 .868-.123 1.193-.368.325-.248.572-.591.741-1.029.169-.441.253-.949.253-1.526 0-.57-.083-1.069-.248-1.497-.166-.431-.411-.765-.736-1.004-.325-.242-.726-.363-1.203-.363-.497 0-.912.128-1.243.383a2.296 2.296 0 00-.741 1.029 4.102 4.102 0 00-.244 1.452c0 .543.083 1.037.249 1.481.169.441.418.792.746 1.054.331.259.742.388 1.233.388zm8.714 1.054c-.736 0-1.37-.162-1.904-.487a3.273 3.273 0 01-1.228-1.372c-.285-.59-.428-1.276-.428-2.059 0-.782.143-1.471.428-2.068.288-.6.689-1.067 1.203-1.402.517-.338 1.12-.507 1.81-.507.397 0 .79.066 1.178.199.388.133.741.348 1.059.646.318.295.572.686.761 1.174.189.487.283 1.087.283 1.799v.498h-5.886v-1.015h4.693c0-.431-.086-.815-.259-1.153a1.943 1.943 0 00-.726-.8c-.311-.196-.679-.294-1.103-.294-.468 0-.872.116-1.213.348a2.29 2.29 0 00-.781.895 2.632 2.632 0 00-.273 1.183v.676c0 .577.099 1.066.298 1.467.202.398.482.701.84.91.358.205.774.308 1.248.308.308 0 .587-.043.835-.129.252-.09.469-.222.652-.398.182-.179.323-.401.422-.666l1.134.318a2.51 2.51 0 01-.602 1.014c-.282.289-.63.514-1.044.676-.414.16-.88.239-1.397.239zm7.909 0c-.689 0-1.294-.164-1.815-.492a3.345 3.345 0 01-1.213-1.377c-.288-.59-.432-1.28-.432-2.068 0-.796.144-1.49.432-2.084a3.347 3.347 0 011.213-1.382c.521-.328 1.126-.492 1.815-.492.689 0 1.293.164 1.81.492.52.329.924.789 1.213 1.382.291.594.437 1.288.437 2.084 0 .788-.146 1.478-.437 2.068a3.303 3.303 0 01-1.213 1.377c-.517.328-1.121.492-1.81.492zm0-1.054c.524 0 .955-.134 1.293-.403.338-.268.588-.621.75-1.059.163-.437.244-.911.244-1.421 0-.511-.081-.986-.244-1.427a2.401 2.401 0 00-.75-1.069c-.338-.272-.769-.408-1.293-.408-.524 0-.954.136-1.293.408a2.401 2.401 0 00-.75 1.069 4.081 4.081 0 00-.244 1.427c0 .51.081.984.244 1.421.162.438.412.791.75 1.059.339.269.769.403 1.293.403zm10.52-5.031l-1.054.298a1.954 1.954 0 00-.293-.512 1.43 1.43 0 00-.517-.418c-.219-.109-.499-.164-.84-.164-.467 0-.857.108-1.168.324-.309.212-.463.482-.463.81 0 .292.106.522.318.691.212.169.544.31.995.423l1.133.278c.683.166 1.192.419 1.526.761.335.338.503.774.503 1.307 0 .438-.126.829-.378 1.173-.249.345-.597.617-1.044.816-.448.199-.968.298-1.561.298-.779 0-1.424-.169-1.934-.507-.511-.338-.834-.832-.97-1.482l1.114-.278c.106.411.306.719.601.925.299.205.688.308 1.169.308.547 0 .981-.116 1.302-.348.325-.235.488-.517.488-.845a.887.887 0 00-.279-.666c-.185-.183-.47-.319-.855-.408l-1.273-.298c-.699-.166-1.213-.423-1.541-.771-.325-.351-.487-.79-.487-1.317 0-.431.121-.812.363-1.144a2.47 2.47 0 01.999-.78 3.508 3.508 0 011.442-.284c.756 0 1.349.166 1.78.497.434.332.742.769.924 1.313z" fill="#2C2C2C"/><circle cx="217" cy="258" fill="#00D3A2" r="5"/><path d="M233.233 264v-10.182h3.44c.799 0 1.452.144 1.959.433a2.71 2.71 0 011.134 1.158c.245.487.368 1.031.368 1.631 0 .6-.123 1.145-.368 1.635a2.737 2.737 0 01-1.124 1.174c-.507.288-1.157.432-1.949.432h-2.466v-1.093h2.426c.547 0 .986-.095 1.318-.284a1.69 1.69 0 00.721-.766c.152-.324.228-.691.228-1.098a2.53 2.53 0 00-.228-1.094 1.636 1.636 0 00-.726-.756c-.335-.185-.779-.278-1.332-.278h-2.168V264h-1.233zm9.761-4.594V264h-1.173v-10.182h1.173v3.739h.099c.179-.395.448-.708.806-.94.361-.235.842-.353 1.441-.353.521 0 .977.105 1.368.313.391.206.694.522.909.95.219.424.329.964.329 1.621V264h-1.174v-4.773c0-.606-.157-1.075-.472-1.407-.312-.334-.744-.502-1.298-.502a2.16 2.16 0 00-1.034.244c-.301.162-.54.399-.716.711-.172.311-.258.689-.258 1.133zm10.06 4.753c-.689 0-1.294-.164-1.814-.492a3.338 3.338 0 01-1.213-1.377c-.289-.59-.433-1.28-.433-2.068 0-.796.144-1.49.433-2.084a3.34 3.34 0 011.213-1.382c.52-.328 1.125-.492 1.814-.492.69 0 1.293.164 1.81.492.52.329.925.789 1.213 1.382.292.594.438 1.288.438 2.084 0 .788-.146 1.478-.438 2.068a3.296 3.296 0 01-1.213 1.377c-.517.328-1.12.492-1.81.492zm0-1.054c.524 0 .955-.134 1.293-.403.338-.268.588-.621.751-1.059.162-.437.243-.911.243-1.421 0-.511-.081-.986-.243-1.427a2.411 2.411 0 00-.751-1.069c-.338-.272-.769-.408-1.293-.408-.523 0-.954.136-1.292.408a2.403 2.403 0 00-.751 1.069 4.104 4.104 0 00-.244 1.427c0 .51.082.984.244 1.421.162.438.413.791.751 1.059.338.269.769.403 1.292.403zm8.433-6.741v.994h-3.958v-.994h3.958zm-2.804-1.83h1.173v7.278c0 .332.048.581.144.746.1.163.225.272.378.328.156.053.32.08.492.08.129 0 .235-.007.318-.02l.199-.04.239 1.054a2.469 2.469 0 01-.875.139c-.332 0-.656-.071-.975-.213a1.944 1.944 0 01-.785-.652c-.206-.291-.308-.659-.308-1.103v-7.597zm7.449 9.625c-.69 0-1.295-.164-1.815-.492a3.345 3.345 0 01-1.213-1.377c-.288-.59-.432-1.28-.432-2.068 0-.796.144-1.49.432-2.084a3.347 3.347 0 011.213-1.382c.52-.328 1.125-.492 1.815-.492.689 0 1.292.164 1.809.492.521.329.925.789 1.213 1.382.292.594.438 1.288.438 2.084 0 .788-.146 1.478-.438 2.068a3.29 3.29 0 01-1.213 1.377c-.517.328-1.12.492-1.809.492zm0-1.054c.523 0 .954-.134 1.292-.403.338-.268.589-.621.751-1.059.162-.437.244-.911.244-1.421 0-.511-.082-.986-.244-1.427a2.403 2.403 0 00-.751-1.069c-.338-.272-.769-.408-1.292-.408-.524 0-.955.136-1.293.408a2.411 2.411 0 00-.751 1.069 4.104 4.104 0 00-.243 1.427c0 .51.081.984.243 1.421.163.438.413.791.751 1.059.338.269.769.403 1.293.403zm10.52-5.031l-1.054.298a1.954 1.954 0 00-.293-.512 1.438 1.438 0 00-.517-.418c-.219-.109-.499-.164-.84-.164-.468 0-.857.108-1.169.324-.308.212-.462.482-.462.81 0 .292.106.522.318.691.212.169.544.31.994.423l1.134.278c.683.166 1.191.419 1.526.761.335.338.502.774.502 1.307 0 .438-.126.829-.378 1.173-.248.345-.596.617-1.044.816-.447.199-.967.298-1.561.298-.779 0-1.423-.169-1.934-.507-.51-.338-.833-.832-.969-1.482l1.114-.278c.106.411.306.719.601.925.298.205.688.308 1.168.308.547 0 .982-.116 1.303-.348.325-.235.487-.517.487-.845a.89.89 0 00-.278-.666c-.186-.183-.471-.319-.855-.408l-1.273-.298c-.699-.166-1.213-.423-1.541-.771-.325-.351-.487-.79-.487-1.317 0-.431.121-.812.362-1.144a2.48 2.48 0 011-.78 3.508 3.508 0 011.442-.284c.755 0 1.349.166 1.779.497.435.332.743.769.925 1.313z" fill="#2C2C2C"/><circle cx="315" cy="258" fill="#FEDE35" r="5"/><path d="M331.233 264v-10.182h1.233v9.088h4.733V264h-5.966zm7.576 0v-7.636h1.173V264h-1.173zm.596-8.909a.834.834 0 01-.591-.234.75.75 0 01-.244-.562c0-.218.081-.406.244-.561a.834.834 0 01.591-.234c.229 0 .425.078.587.234a.741.741 0 01.249.561.744.744 0 01-.249.562.816.816 0 01-.587.234zm3.759 4.315V264h-1.173v-7.636h1.134v1.193h.099c.179-.388.451-.7.815-.935.365-.238.836-.358 1.412-.358.517 0 .97.106 1.358.318.387.209.689.527.904.955.216.424.324.961.324 1.611V264h-1.174v-4.773c0-.6-.155-1.067-.467-1.402-.312-.338-.739-.507-1.283-.507-.374 0-.709.081-1.004.244a1.736 1.736 0 00-.691.711c-.169.311-.254.689-.254 1.133zm7.97 1.81l-.02-1.452h.239l3.341-3.4h1.452l-3.56 3.599h-.099l-1.353 1.253zM350.041 264v-10.182h1.173V264h-1.173zm4.852 0l-2.983-3.778.835-.816 3.639 4.594h-1.491zm8.032-5.926l-1.054.298a1.954 1.954 0 00-.293-.512 1.438 1.438 0 00-.517-.418c-.219-.109-.499-.164-.841-.164-.467 0-.856.108-1.168.324-.308.212-.462.482-.462.81 0 .292.106.522.318.691.212.169.543.31.994.423l1.134.278c.682.166 1.191.419 1.526.761.335.338.502.774.502 1.307 0 .438-.126.829-.378 1.173-.248.345-.596.617-1.044.816-.447.199-.968.298-1.561.298-.779 0-1.423-.169-1.934-.507-.51-.338-.833-.832-.969-1.482l1.113-.278c.106.411.307.719.602.925.298.205.688.308 1.168.308.547 0 .981-.116 1.303-.348.325-.235.487-.517.487-.845a.89.89 0 00-.278-.666c-.186-.183-.471-.319-.855-.408l-1.273-.298c-.7-.166-1.213-.423-1.541-.771-.325-.351-.488-.79-.488-1.317 0-.431.121-.812.363-1.144a2.48 2.48 0 011-.78 3.503 3.503 0 011.441-.284c.756 0 1.349.166 1.78.497.434.332.743.769.925 1.313z" fill="#2C2C2C"/></svg>