<svg width="364" height="277" viewBox="0 0 364 277" fill="none" xmlns="http://www.w3.org/2000/svg"><path d="M182.194 37.28l.214-24.28" stroke="#999"/><path d="M172.989 10v-.64l2.401-2.627c.281-.308.513-.575.696-.803a3 3 0 00.405-.646c.09-.204.135-.417.135-.64a1.18 1.18 0 00-.185-.663 1.203 1.203 0 00-.497-.433 1.615 1.615 0 00-.711-.153c-.279 0-.523.058-.731.174a1.193 1.193 0 00-.479.48 1.493 1.493 0 00-.167.724h-.838c0-.426.098-.8.294-1.122a2.05 2.05 0 01.803-.753c.341-.18.723-.27 1.147-.27.426 0 .804.09 1.133.27.329.18.587.422.774.728.187.305.28.645.28 1.019a2.2 2.2 0 01-.145.785c-.095.253-.261.536-.497.848-.235.31-.56.69-.977 1.137l-1.633 1.747v.057h3.38V10h-4.588zm8.328.1c-.417 0-.792-.083-1.126-.25a2.096 2.096 0 01-.803-.681 1.86 1.86 0 01-.33-.987h.852c.033.329.183.601.448.817.267.213.587.32.959.32.298 0 .563-.07.795-.21a1.48 1.48 0 00.55-.576c.135-.246.203-.524.203-.834 0-.317-.07-.6-.21-.849a1.531 1.531 0 00-.568-.593 1.603 1.603 0 00-.827-.22 2.278 2.278 0 00-.686.103 1.898 1.898 0 00-.578.266l-.824-.1.44-3.579h3.778v.782h-3.039l-.256 2.144h.043c.149-.118.336-.216.561-.294a2.13 2.13 0 01.703-.118c.445 0 .841.107 1.189.32.351.21.625.5.824.867.202.367.302.786.302 1.257 0 .464-.104.878-.312 1.243-.206.362-.49.648-.853.859a2.432 2.432 0 01-1.235.312zm7.518-1.464v-.383c0-.265.055-.508.164-.728.111-.223.272-.4.483-.533.213-.135.471-.202.774-.202.307 0 .565.067.774.202.208.133.366.31.472.533.107.22.16.463.16.728v.383c0 .266-.055.51-.163.732a1.3 1.3 0 01-.476.533c-.209.132-.464.198-.767.198-.308 0-.567-.066-.778-.198a1.306 1.306 0 01-.479-.533 1.64 1.64 0 01-.164-.732zm.725-.383v.383c0 .22.052.418.156.593.104.173.284.26.54.26.248 0 .423-.087.525-.26a1.14 1.14 0 00.157-.593v-.383c0-.22-.05-.417-.15-.59-.099-.175-.277-.262-.532-.262-.249 0-.428.087-.537.262-.106.173-.159.37-.159.59zm-4.347-3.779v-.383c0-.265.055-.508.163-.728.112-.223.273-.4.483-.533.213-.135.471-.202.775-.202.307 0 .565.067.774.202.208.133.365.31.472.533.107.22.16.463.16.728v.383c0 .266-.055.51-.164.732-.106.22-.265.398-.475.533a1.407 1.407 0 01-.767.199c-.308 0-.567-.067-.778-.2a1.315 1.315 0 01-.48-.532 1.654 1.654 0 01-.163-.732zm.725-.383v.383c0 .22.052.418.156.593.104.173.284.26.54.26.248 0 .423-.087.525-.26a1.14 1.14 0 00.156-.593v-.383c0-.22-.049-.417-.149-.59-.099-.175-.277-.262-.532-.262-.249 0-.428.087-.537.262-.106.173-.159.37-.159.59zM185.483 10l5-7.273h.81l-5 7.273h-.81z" fill="#666"/><path d="M233.5 182.565l14.357 19.582" stroke="#999"/><path d="M241.48 213l3.253-6.435v-.056h-3.75v-.782h4.659v.824L242.403 213h-.923zm7.661.099c-.417 0-.792-.082-1.126-.248a2.087 2.087 0 01-.802-.682 1.853 1.853 0 01-.331-.987h.853c.033.329.182.601.447.817.268.213.587.319.959.319a1.482 1.482 0 001.346-.785c.135-.246.202-.524.202-.834 0-.317-.07-.6-.209-.849a1.545 1.545 0 00-.569-.593 1.603 1.603 0 00-.827-.22 2.279 2.279 0 00-.685.103 1.9 1.9 0 00-.579.266l-.824-.099.44-3.58h3.779v.782h-3.04l-.256 2.144h.043c.149-.118.336-.216.561-.294a2.13 2.13 0 01.703-.118 2.239 2.239 0 012.014 1.187c.201.367.301.786.301 1.257 0 .464-.104.878-.312 1.243-.206.362-.49.648-.852.859a2.441 2.441 0 01-1.236.312zm7.518-1.463v-.383c0-.265.055-.508.164-.728.111-.223.272-.4.483-.533.213-.135.471-.202.774-.202.308 0 .566.067.774.202.208.133.366.31.472.533.107.22.16.463.16.728v.383c0 .266-.054.509-.163.732-.107.22-.265.398-.476.533-.208.132-.464.198-.767.198-.308 0-.567-.066-.778-.198a1.322 1.322 0 01-.479-.533 1.641 1.641 0 01-.164-.732zm.725-.383v.383c0 .221.052.418.156.593.104.173.284.26.54.26.248 0 .424-.087.525-.26.105-.175.157-.372.157-.593v-.383c0-.22-.05-.417-.149-.59-.1-.175-.277-.262-.533-.262-.249 0-.427.087-.536.262-.107.173-.16.37-.16.59zm-4.347-3.779v-.383c0-.265.055-.508.164-.728.111-.223.272-.4.483-.533.213-.135.471-.202.774-.202.308 0 .566.067.774.202.208.133.366.31.472.533.107.22.16.463.16.728v.383c0 .266-.054.509-.163.732a1.3 1.3 0 01-.476.533 1.407 1.407 0 01-.767.199c-.308 0-.567-.067-.778-.199a1.315 1.315 0 01-.479-.533 1.641 1.641 0 01-.164-.732zm.725-.383v.383c0 .221.052.418.156.593.104.173.284.26.54.26.248 0 .424-.087.525-.26.104-.175.157-.372.157-.593v-.383c0-.22-.05-.417-.15-.59-.099-.175-.277-.262-.532-.262-.249 0-.428.087-.536.262-.107.173-.16.37-.16.59zm-.455 5.909l5-7.273h.81l-5 7.273h-.81z" fill="#666"/><circle cx="111.5" cy="268" fill="#5A3795" r="5"/><path d="M127.176 264.912v-1.094h7.636v1.094h-3.201V274h-1.233v-9.088h-3.202zM137.271 274l-2.326-7.636h1.233l1.65 5.846h.08l1.63-5.846h1.253l1.611 5.826h.08l1.65-5.826h1.233L143.038 274h-1.153l-1.67-5.866h-.12l-1.67 5.866h-1.154zm12.447.159c-.736 0-1.37-.162-1.904-.487a3.273 3.273 0 01-1.228-1.372c-.285-.59-.427-1.276-.427-2.059 0-.782.142-1.471.427-2.068.288-.6.69-1.067 1.203-1.402.517-.338 1.121-.507 1.81-.507.398 0 .79.066 1.178.199.388.133.741.348 1.059.646.318.295.572.686.761 1.174.189.487.283 1.087.283 1.799v.498h-5.886v-1.015h4.693c0-.431-.086-.815-.259-1.153a1.948 1.948 0 00-.725-.8c-.312-.196-.68-.294-1.104-.294-.467 0-.872.116-1.213.348a2.298 2.298 0 00-.781.895 2.632 2.632 0 00-.273 1.183v.676c0 .577.099 1.066.298 1.467.202.398.482.701.84.91.358.205.774.308 1.248.308.308 0 .587-.043.835-.129.252-.09.469-.222.652-.398.182-.179.323-.401.422-.666l1.134.318c-.119.385-.32.723-.602 1.014a2.905 2.905 0 01-1.044.676c-.414.16-.88.239-1.397.239zm8.009 0c-.736 0-1.371-.162-1.904-.487a3.266 3.266 0 01-1.228-1.372c-.285-.59-.428-1.276-.428-2.059 0-.782.143-1.471.428-2.068.288-.6.689-1.067 1.203-1.402.517-.338 1.12-.507 1.809-.507.398 0 .791.066 1.179.199.387.133.74.348 1.059.646.318.295.571.686.76 1.174.189.487.284 1.087.284 1.799v.498h-5.887v-1.015h4.693c0-.431-.086-.815-.258-1.153a1.943 1.943 0 00-.726-.8c-.312-.196-.679-.294-1.104-.294-.467 0-.871.116-1.213.348a2.288 2.288 0 00-.78.895 2.62 2.62 0 00-.274 1.183v.676c0 .577.1 1.066.299 1.467.202.398.482.701.84.91.358.205.774.308 1.248.308.308 0 .586-.043.835-.129.252-.09.469-.222.651-.398a1.82 1.82 0 00.423-.666l1.133.318c-.119.385-.32.723-.601 1.014-.282.289-.63.514-1.044.676-.415.16-.88.239-1.397.239zm8.127-7.795v.994h-3.957v-.994h3.957zm-2.804-1.83h1.174v7.278c0 .332.048.581.144.746a.739.739 0 00.378.328c.156.053.32.08.492.08.129 0 .235-.007.318-.02l.199-.04.239 1.054a2.475 2.475 0 01-.875.139c-.332 0-.657-.071-.975-.213a1.931 1.931 0 01-.785-.652c-.206-.291-.309-.659-.309-1.103v-7.597zm9.702 3.54l-1.054.298a1.959 1.959 0 00-.294-.512 1.43 1.43 0 00-.517-.418c-.218-.109-.498-.164-.84-.164-.467 0-.857.108-1.168.324-.308.212-.463.482-.463.81 0 .292.107.522.319.691.212.169.543.31.994.423l1.133.278c.683.166 1.192.419 1.527.761.335.338.502.774.502 1.307 0 .438-.126.829-.378 1.173-.249.345-.597.617-1.044.816-.447.199-.968.298-1.561.298-.779 0-1.424-.169-1.934-.507-.51-.338-.834-.832-.969-1.482l1.113-.278c.106.411.307.719.602.925.298.205.687.308 1.168.308.547 0 .981-.116 1.303-.348.324-.235.487-.517.487-.845a.887.887 0 00-.279-.666c-.185-.183-.47-.319-.855-.408l-1.272-.298c-.7-.166-1.213-.423-1.542-.771-.324-.351-.487-.79-.487-1.317 0-.431.121-.812.363-1.144a2.47 2.47 0 01.999-.78 3.511 3.511 0 011.442-.284c.756 0 1.349.166 1.78.497.434.332.742.769.925 1.313z" fill="#2C2C2C"/><circle cx="211.5" cy="268" fill="#FA0060" r="5"/><path d="M230.875 274h-3.142v-10.182h3.281c.988 0 1.833.204 2.536.612a4 4 0 011.615 1.745c.375.755.562 1.66.562 2.714 0 1.061-.189 1.974-.566 2.74a4.037 4.037 0 01-1.651 1.759c-.723.408-1.601.612-2.635.612zm-1.909-1.094h1.829c.842 0 1.54-.162 2.093-.487a2.996 2.996 0 001.238-1.387c.272-.6.408-1.314.408-2.143 0-.822-.134-1.529-.403-2.123a2.967 2.967 0 00-1.203-1.372c-.533-.321-1.198-.482-1.993-.482h-1.969v7.994zm8.689-9.088h1.472l3.46 8.452h.12l3.46-8.452h1.471V274h-1.153v-7.736h-.099L243.204 274h-1.114l-3.182-7.736h-.099V274h-1.154v-10.182zm17.566 4.256l-1.054.298a1.987 1.987 0 00-.294-.512 1.43 1.43 0 00-.517-.418c-.219-.109-.499-.164-.84-.164-.467 0-.857.108-1.168.324-.309.212-.463.482-.463.81 0 .292.106.522.318.691.213.169.544.31.995.423l1.133.278c.683.166 1.192.419 1.527.761.334.338.502.774.502 1.307 0 .438-.126.829-.378 1.173-.249.345-.597.617-1.044.816-.448.199-.968.298-1.561.298-.779 0-1.424-.169-1.934-.507-.511-.338-.834-.832-.97-1.482l1.114-.278c.106.411.307.719.602.925.298.205.687.308 1.168.308.547 0 .981-.116 1.302-.348.325-.235.488-.517.488-.845a.887.887 0 00-.279-.666c-.185-.183-.47-.319-.855-.408l-1.273-.298c-.699-.166-1.213-.423-1.541-.771-.325-.351-.487-.79-.487-1.317 0-.431.121-.812.363-1.144a2.47 2.47 0 01.999-.78 3.508 3.508 0 011.442-.284c.756 0 1.349.166 1.78.497.434.332.742.769.925 1.313z" fill="#2C2C2C"/><mask id="a" fill="#fff"><path d="M245.44 69.946c.871-.68 2.13-.526 2.789.36a82.503 82.503 0 015.571 89.827 82.507 82.507 0 01-81.863 41.251 82.493 82.493 0 01-69.439-59.846 82.497 82.497 0 0127.156-85.804c.854-.701 2.112-.545 2.792.326l12.398 15.872c.68.87.523 2.124-.324 2.834a58.365 58.365 0 00-18.759 60.324 58.356 58.356 0 0049.12 42.334 58.361 58.361 0 0054.315-92.252c-.65-.893-.498-2.148.372-2.828l15.872-12.398z"/></mask><path d="M245.44 69.946c.871-.68 2.13-.526 2.789.36a82.503 82.503 0 015.571 89.827 82.507 82.507 0 01-81.863 41.251 82.493 82.493 0 01-69.439-59.846 82.497 82.497 0 0127.156-85.804c.854-.701 2.112-.545 2.792.326l12.398 15.872c.68.87.523 2.124-.324 2.834a58.365 58.365 0 00-18.759 60.324 58.356 58.356 0 0049.12 42.334 58.361 58.361 0 0054.315-92.252c-.65-.893-.498-2.148.372-2.828l15.872-12.398z" fill="#5A3795" stroke="#fff" stroke-width="2" mask="url(#a)"/><mask id="b" fill="#fff"><path d="M132.446 56.06c-.68-.87-.527-2.13.36-2.788a82.5 82.5 0 01112.96 13.882c.701.854.545 2.112-.326 2.792l-15.872 12.398c-.87.68-2.124.523-2.834-.323a58.355 58.355 0 00-79.062-9.717c-.893.65-2.148.498-2.828-.372L132.446 56.06z"/></mask><path d="M132.446 56.06c-.68-.87-.527-2.13.36-2.788a82.5 82.5 0 01112.96 13.882c.701.854.545 2.112-.326 2.792l-15.872 12.398c-.87.68-2.124.523-2.834-.323a58.355 58.355 0 00-79.062-9.717c-.893.65-2.148.498-2.828-.372L132.446 56.06z" fill="#FA0060" stroke="#fff" stroke-width="2" mask="url(#b)"/></svg>