<svg width="507" height="398" viewBox="0 0 507 398" fill="none" xmlns="http://www.w3.org/2000/svg"><path d="M253.5 318a135.996 135.996 0 01-68-18.221l19.04-32.978a97.923 97.923 0 0048.96 13.119V318z" fill="#6366F1" stroke="#fff" stroke-width="2"/><path d="M117.658 175.439a135.999 135.999 0 01100.104-124.66l10.007 36.742a97.916 97.916 0 00-72.075 89.755l-38.036-1.837z" fill="#0095FF"/><path d="M349.667 278.167a136.006 136.006 0 01-157.91 25.01 136.002 136.002 0 01-72.583-142.452l37.612 5.957A97.92 97.92 0 00322.74 251.24l26.927 26.927z" fill="#4867AA"/><g filter="url(#filter0_d_251_235)"><path d="M236.716 47.04a136 136 0 0190.223 249.427l-20.563-32.051a97.914 97.914 0 0039.866-50.997 97.914 97.914 0 00-41.561-114.898 97.917 97.917 0 00-63.265-13.692l-4.7-37.79z" fill="#FFA800"/></g><circle cx="10" cy="388" r="10" fill="#FFA800"/><path d="M30.804 390l-2.327-7.636h1.233l1.65 5.846h.08l1.631-5.846h1.253l1.61 5.826h.08l1.65-5.826h1.234L36.57 390h-1.153l-1.67-5.866h-.12L31.958 390h-1.154zm11.235 0l-2.327-7.636h1.233l1.65 5.846h.08l1.631-5.846h1.253l1.61 5.826h.08l1.65-5.826h1.234L47.806 390h-1.153l-1.67-5.866h-.12L43.193 390h-1.154zm11.235 0l-2.327-7.636h1.233l1.65 5.846h.08l1.631-5.846h1.253l1.61 5.826h.08l1.65-5.826h1.234L59.04 390h-1.153l-1.67-5.866h-.12L54.428 390h-1.154zm9.32.08a.86.86 0 01-.63-.264.862.862 0 01-.264-.631c0-.246.088-.456.264-.632a.864.864 0 01.63-.263c.246 0 .457.088.632.263a.862.862 0 01.264.632.928.928 0 01-.447.775.85.85 0 01-.448.12zm3.955-2.864l-.02-1.452h.239l3.34-3.4h1.452L68 385.963h-.099l-1.352 1.253zM65.455 390v-10.182h1.174V390h-1.174zm4.853 0l-2.983-3.778.835-.816L71.799 390h-1.492zm5.51.159c-.736 0-1.37-.162-1.904-.487a3.272 3.272 0 01-1.228-1.372c-.285-.59-.428-1.276-.428-2.059 0-.782.143-1.471.428-2.068.288-.6.689-1.067 1.203-1.402.517-.338 1.12-.507 1.81-.507.397 0 .79.066 1.178.199.388.133.74.348 1.059.646.318.295.571.686.76 1.174.19.487.284 1.087.284 1.799v.498h-5.887v-1.015h4.694c0-.431-.087-.815-.259-1.153a1.944 1.944 0 00-.726-.8c-.311-.196-.68-.294-1.104-.294-.467 0-.871.116-1.213.348a2.29 2.29 0 00-.78.895 2.628 2.628 0 00-.274 1.183v.676c0 .577.1 1.066.299 1.467.202.398.482.701.84.91.358.205.774.308 1.248.308.308 0 .586-.043.835-.129a1.79 1.79 0 00.651-.398c.183-.179.323-.401.423-.666l1.133.318c-.119.385-.32.723-.601 1.014-.282.289-.63.514-1.044.676-.415.16-.88.239-1.397.239zm5.662-.079a.86.86 0 01-.632-.264.861.861 0 01-.263-.631c0-.246.088-.456.263-.632a.863.863 0 01.632-.263c.245 0 .455.088.631.263a.862.862 0 01.263.632.928.928 0 01-.447.775.849.849 0 01-.447.12zm5.962.079c-.716 0-1.332-.169-1.85-.507a3.306 3.306 0 01-1.192-1.397c-.279-.593-.418-1.271-.418-2.033 0-.776.142-1.46.428-2.054a3.384 3.384 0 011.203-1.397c.517-.338 1.12-.507 1.81-.507.536 0 1.02.1 1.451.298.43.199.784.478 1.059.836a2.6 2.6 0 01.512 1.253h-1.173a1.824 1.824 0 00-.597-.925c-.305-.272-.716-.408-1.233-.408a2.06 2.06 0 00-1.203.358c-.341.235-.608.569-.8.999-.19.428-.284.93-.284 1.507 0 .59.093 1.104.279 1.541.189.438.454.777.795 1.019.345.242.75.363 1.213.363.305 0 .582-.053.83-.159a1.71 1.71 0 00.632-.457c.172-.199.295-.438.368-.716h1.173a2.72 2.72 0 01-.492 1.218 2.749 2.749 0 01-1.03.855c-.424.209-.917.313-1.48.313zm7.68 0c-.689 0-1.294-.164-1.814-.492a3.343 3.343 0 01-1.213-1.377c-.288-.59-.433-1.28-.433-2.068 0-.796.144-1.49.433-2.084a3.345 3.345 0 011.213-1.382c.52-.328 1.125-.492 1.814-.492.69 0 1.293.164 1.81.492.52.329.925.789 1.213 1.382.292.594.438 1.288.438 2.084 0 .788-.146 1.478-.438 2.068a3.297 3.297 0 01-1.213 1.377c-.517.328-1.12.492-1.81.492zm0-1.054c.524 0 .955-.134 1.293-.403a2.37 2.37 0 00.75-1.059 4.05 4.05 0 00.244-1.421c0-.511-.08-.986-.243-1.427a2.406 2.406 0 00-.75-1.069c-.339-.272-.77-.408-1.293-.408-.524 0-.955.136-1.293.408a2.406 2.406 0 00-.75 1.069 4.095 4.095 0 00-.244 1.427c0 .51.08.984.243 1.421.163.438.413.791.75 1.059.339.269.77.403 1.294.403zm5.112.895v-7.636h1.133v1.193h.1c.159-.408.416-.724.77-.95.355-.228.781-.343 1.278-.343.504 0 .923.115 1.258.343.338.226.601.542.79.95h.08a2.22 2.22 0 01.88-.94c.391-.235.86-.353 1.407-.353.683 0 1.241.214 1.675.642.434.424.652 1.085.652 1.983V390h-1.174v-5.111c0-.563-.154-.966-.462-1.208a1.71 1.71 0 00-1.089-.363c-.537 0-.953.163-1.248.487-.295.322-.442.73-.442 1.223V390h-1.193v-5.23c0-.434-.141-.784-.423-1.049-.282-.269-.645-.403-1.089-.403-.305 0-.59.081-.855.244a1.833 1.833 0 00-.636.676 1.997 1.997 0 00-.239.989V390h-1.173zm12.883.08a.863.863 0 01-.632-.264.864.864 0 01-.263-.631c0-.246.088-.456.263-.632a.866.866 0 01.632-.263c.245 0 .456.088.631.263a.861.861 0 01.264.632.842.842 0 01-.125.447.923.923 0 01-.323.328.845.845 0 01-.447.12zm2.86 2.784v-10.5h1.134v1.213h.139c.086-.133.205-.302.358-.507.156-.209.378-.395.666-.557.292-.166.686-.249 1.183-.249.643 0 1.21.161 1.701.482.49.322.873.778 1.148 1.368.275.59.413 1.286.413 2.088 0 .808-.138 1.509-.413 2.103-.275.59-.656 1.047-1.143 1.372-.488.321-1.049.482-1.686.482-.49 0-.883-.081-1.178-.244a2.182 2.182 0 01-.681-.561 7.523 7.523 0 01-.368-.527h-.099v4.037h-1.174zm1.154-6.682c0 .577.084 1.085.253 1.526.169.438.416.781.741 1.029.325.245.722.368 1.193.368.491 0 .9-.129 1.228-.388a2.37 2.37 0 00.746-1.054c.169-.444.253-.938.253-1.481 0-.537-.082-1.021-.248-1.452a2.252 2.252 0 00-.741-1.029c-.328-.255-.741-.383-1.238-.383-.477 0-.878.121-1.203.363-.325.239-.57.573-.736 1.004-.166.428-.248.927-.248 1.497zm8.331 1.034l-.02-1.452h.239l3.341-3.4h1.452l-3.56 3.599h-.1l-1.352 1.253zM124.368 390v-10.182h1.174V390h-1.174zm4.853 0l-2.983-3.778.835-.816 3.639 4.594h-1.491z" fill="#2C2C2C"/><circle cx="161" cy="388" r="10" fill="#4867AA"/><path d="M181.804 390l-2.327-7.636h1.233l1.651 5.846h.079l1.631-5.846h1.253l1.611 5.826h.079l1.651-5.826h1.233L187.571 390h-1.153l-1.671-5.866h-.119L182.957 390h-1.153zm11.235 0l-2.327-7.636h1.233l1.651 5.846h.079l1.631-5.846h1.253l1.611 5.826h.079l1.651-5.826h1.233L198.806 390h-1.153l-1.671-5.866h-.119L194.192 390h-1.153zm11.235 0l-2.327-7.636h1.233l1.651 5.846h.079l1.631-5.846h1.253l1.611 5.826h.079l1.651-5.826h1.233L210.041 390h-1.153l-1.671-5.866h-.119L205.427 390h-1.153zm9.321.08a.859.859 0 01-.631-.264.86.86 0 01-.264-.631c0-.246.088-.456.264-.632a.862.862 0 01.631-.263c.245 0 .456.088.631.263a.861.861 0 01.264.632.85.85 0 01-.124.447.934.934 0 01-.324.328.845.845 0 01-.447.12zm6.261-7.716v.994h-4.117v-.994h4.117zM216.972 390v-8.69c0-.438.103-.802.309-1.094.205-.292.472-.511.8-.656a2.525 2.525 0 011.039-.219 2.709 2.709 0 011.114.199l-.338 1.014a5.995 5.995 0 00-.249-.075 1.55 1.55 0 00-.408-.044c-.387 0-.667.097-.84.293-.169.196-.253.482-.253.86V390h-1.174zm6.417.179c-.484 0-.923-.091-1.318-.273a2.275 2.275 0 01-.94-.801c-.232-.351-.348-.775-.348-1.273 0-.437.087-.792.259-1.064.172-.275.403-.49.691-.646.288-.156.607-.272.955-.348.351-.079.704-.142 1.059-.189.464-.059.84-.104 1.128-.134.292-.033.504-.088.636-.164.136-.076.204-.209.204-.398v-.04c0-.49-.134-.871-.402-1.143-.266-.272-.668-.408-1.208-.408-.561 0-1 .123-1.318.368-.318.245-.542.507-.671.786l-1.114-.398c.199-.464.464-.825.796-1.084a2.977 2.977 0 011.093-.547 4.547 4.547 0 011.174-.159c.245 0 .527.03.845.09.321.056.631.174.93.353.301.179.551.449.75.81.199.361.299.845.299 1.452V390h-1.174v-1.034h-.059c-.08.166-.212.343-.398.532-.186.189-.433.35-.741.482-.308.133-.684.199-1.128.199zm.179-1.054c.464 0 .855-.091 1.173-.273.321-.183.563-.418.726-.706.165-.289.248-.592.248-.91v-1.074c-.049.06-.159.114-.328.164a5.534 5.534 0 01-.577.124 29 29 0 01-.631.09c-.202.023-.366.043-.492.059-.305.04-.59.105-.855.194a1.475 1.475 0 00-.637.393c-.159.172-.238.408-.238.706 0 .408.151.716.452.925.305.205.691.308 1.159.308zm8.424 1.034c-.716 0-1.332-.169-1.849-.507a3.303 3.303 0 01-1.193-1.397c-.279-.593-.418-1.271-.418-2.033 0-.776.143-1.46.428-2.054a3.38 3.38 0 011.203-1.397c.517-.338 1.12-.507 1.809-.507.537 0 1.021.1 1.452.298.431.199.784.478 1.059.836a2.6 2.6 0 01.512 1.253h-1.173a1.817 1.817 0 00-.597-.925c-.305-.272-.716-.408-1.233-.408a2.06 2.06 0 00-1.203.358c-.341.235-.608.569-.8.999-.189.428-.284.93-.284 1.507 0 .59.093 1.104.279 1.541.189.438.454.777.795 1.019.345.242.749.363 1.213.363.305 0 .582-.053.831-.159a1.71 1.71 0 00.631-.457c.172-.199.295-.438.368-.716h1.173a2.72 2.72 0 01-.492 1.218 2.748 2.748 0 01-1.029.855c-.424.209-.918.313-1.482.313zm7.78 0c-.736 0-1.37-.162-1.904-.487a3.273 3.273 0 01-1.228-1.372c-.285-.59-.428-1.276-.428-2.059 0-.782.143-1.471.428-2.068.288-.6.689-1.067 1.203-1.402.517-.338 1.12-.507 1.81-.507.398 0 .79.066 1.178.199.388.133.741.348 1.059.646.318.295.572.686.761 1.174.189.487.283 1.087.283 1.799v.498h-5.886v-1.015h4.693c0-.431-.086-.815-.259-1.153a1.948 1.948 0 00-.725-.8c-.312-.196-.68-.294-1.104-.294-.468 0-.872.116-1.213.348a2.29 2.29 0 00-.781.895 2.632 2.632 0 00-.273 1.183v.676c0 .577.099 1.066.298 1.467.202.398.482.701.84.91.358.205.774.308 1.248.308.308 0 .587-.043.835-.129.252-.09.469-.222.652-.398.182-.179.323-.401.422-.666l1.134.318a2.51 2.51 0 01-.602 1.014c-.282.289-.63.514-1.044.676-.414.16-.88.239-1.397.239zm4.966-.159v-10.182h1.173v3.759h.1c.086-.133.205-.302.358-.507.155-.209.377-.395.666-.557.291-.166.686-.249 1.183-.249.643 0 1.21.161 1.7.482.491.322.874.778 1.149 1.368.275.59.412 1.286.412 2.088 0 .808-.137 1.509-.412 2.103-.275.59-.656 1.047-1.144 1.372-.487.321-1.049.482-1.685.482-.491 0-.883-.081-1.178-.244a2.182 2.182 0 01-.681-.561 7.195 7.195 0 01-.368-.527h-.14V390h-1.133zm1.153-3.818c0 .577.085 1.085.254 1.526.169.438.416.781.741 1.029.324.245.722.368 1.193.368.49 0 .9-.129 1.228-.388.331-.262.58-.613.746-1.054.169-.444.253-.938.253-1.481 0-.537-.083-1.021-.248-1.452a2.252 2.252 0 00-.741-1.029c-.328-.255-.741-.383-1.238-.383-.477 0-.878.121-1.203.363-.325.239-.57.573-.736 1.004-.166.428-.249.927-.249 1.497zm10.345 3.977c-.689 0-1.294-.164-1.814-.492a3.338 3.338 0 01-1.213-1.377c-.289-.59-.433-1.28-.433-2.068 0-.796.144-1.49.433-2.084a3.34 3.34 0 011.213-1.382c.52-.328 1.125-.492 1.814-.492.69 0 1.293.164 1.81.492.52.329.925.789 1.213 1.382.292.594.438 1.288.438 2.084 0 .788-.146 1.478-.438 2.068a3.296 3.296 0 01-1.213 1.377c-.517.328-1.12.492-1.81.492zm0-1.054c.524 0 .955-.134 1.293-.403.338-.268.588-.621.751-1.059.162-.437.243-.911.243-1.421 0-.511-.081-.986-.243-1.427a2.411 2.411 0 00-.751-1.069c-.338-.272-.769-.408-1.293-.408-.523 0-.954.136-1.292.408a2.411 2.411 0 00-.751 1.069 4.104 4.104 0 00-.243 1.427c0 .51.081.984.243 1.421.163.438.413.791.751 1.059.338.269.769.403 1.292.403zm8.214 1.054c-.689 0-1.294-.164-1.815-.492a3.345 3.345 0 01-1.213-1.377c-.288-.59-.432-1.28-.432-2.068 0-.796.144-1.49.432-2.084a3.347 3.347 0 011.213-1.382c.521-.328 1.126-.492 1.815-.492.689 0 1.293.164 1.81.492.52.329.924.789 1.213 1.382.291.594.437 1.288.437 2.084 0 .788-.146 1.478-.437 2.068a3.303 3.303 0 01-1.213 1.377c-.517.328-1.121.492-1.81.492zm0-1.054c.524 0 .955-.134 1.293-.403.338-.268.588-.621.75-1.059.163-.437.244-.911.244-1.421 0-.511-.081-.986-.244-1.427a2.401 2.401 0 00-.75-1.069c-.338-.272-.769-.408-1.293-.408-.524 0-.955.136-1.293.408a2.401 2.401 0 00-.75 1.069 4.081 4.081 0 00-.244 1.427c0 .51.081.984.244 1.421.162.438.412.791.75 1.059.338.269.769.403 1.293.403zm6.205-1.889l-.02-1.452h.239l3.341-3.4h1.451l-3.559 3.599h-.1l-1.352 1.253zM269.561 390v-10.182h1.174V390h-1.174zm4.852 0l-2.982-3.778.835-.816 3.639 4.594h-1.492zm3.479.08a.861.861 0 01-.632-.264.864.864 0 01-.263-.631c0-.246.088-.456.263-.632a.864.864 0 01.632-.263c.245 0 .455.088.631.263a.86.86 0 01.263.632.841.841 0 01-.124.447.923.923 0 01-.323.328.85.85 0 01-.447.12zm2.86 2.784v-10.5h1.133v1.213h.14c.086-.133.205-.302.358-.507.155-.209.377-.395.666-.557.291-.166.686-.249 1.183-.249.643 0 1.21.161 1.7.482.491.322.874.778 1.149 1.368.275.59.412 1.286.412 2.088 0 .808-.137 1.509-.412 2.103-.275.59-.657 1.047-1.144 1.372-.487.321-1.049.482-1.685.482-.491 0-.883-.081-1.178-.244a2.182 2.182 0 01-.681-.561 7.195 7.195 0 01-.368-.527h-.1v4.037h-1.173zm1.153-6.682c0 .577.085 1.085.254 1.526.169.438.416.781.741 1.029.324.245.722.368 1.193.368.49 0 .9-.129 1.228-.388.331-.262.58-.613.746-1.054.169-.444.253-.938.253-1.481 0-.537-.083-1.021-.248-1.452a2.252 2.252 0 00-.741-1.029c-.328-.255-.741-.383-1.238-.383-.477 0-.878.121-1.203.363-.325.239-.57.573-.736 1.004-.166.428-.249.927-.249 1.497zm8.332 1.034l-.02-1.452h.239l3.341-3.4h1.451l-3.559 3.599h-.1l-1.352 1.253zM289.143 390v-10.182h1.173V390h-1.173zm4.852 0l-2.983-3.778.836-.816 3.639 4.594h-1.492z" fill="#2C2C2C"/><circle cx="326" cy="388" r="10" fill="#0095FF"/><path d="M345.074 390v-7.636h1.173V390h-1.173zm.596-8.909a.834.834 0 01-.591-.234.75.75 0 01-.244-.562c0-.218.081-.406.244-.561a.834.834 0 01.591-.234c.229 0 .425.078.587.234a.741.741 0 01.249.561.744.744 0 01-.249.562.816.816 0 01-.587.234zm3.759 4.315V390h-1.173v-7.636h1.134v1.193h.099c.179-.388.451-.7.815-.935.365-.238.836-.358 1.412-.358.517 0 .97.106 1.358.318.387.209.689.527.904.955.216.424.324.961.324 1.611V390h-1.174v-4.773c0-.6-.155-1.067-.467-1.402-.312-.338-.739-.507-1.283-.507-.374 0-.709.081-1.004.244a1.736 1.736 0 00-.691.711c-.169.311-.254.689-.254 1.133zm10.198-3.042v.994h-3.958v-.994h3.958zm-2.804-1.83h1.173v7.278c0 .332.048.581.144.746.1.163.225.272.378.328.156.053.32.08.492.08.129 0 .235-.007.318-.02l.199-.04.239 1.054a2.469 2.469 0 01-.875.139c-.332 0-.656-.071-.975-.213a1.944 1.944 0 01-.785-.652c-.206-.291-.308-.659-.308-1.103v-7.597zm7.548 9.625c-.736 0-1.37-.162-1.904-.487a3.273 3.273 0 01-1.228-1.372c-.285-.59-.427-1.276-.427-2.059 0-.782.142-1.471.427-2.068.288-.6.689-1.067 1.203-1.402.517-.338 1.12-.507 1.81-.507.398 0 .79.066 1.178.199.388.133.741.348 1.059.646.318.295.572.686.761 1.174.189.487.283 1.087.283 1.799v.498h-5.886v-1.015h4.693c0-.431-.086-.815-.259-1.153a1.948 1.948 0 00-.725-.8c-.312-.196-.68-.294-1.104-.294-.467 0-.872.116-1.213.348a2.298 2.298 0 00-.781.895 2.632 2.632 0 00-.273 1.183v.676c0 .577.099 1.066.298 1.467.202.398.482.701.84.91.358.205.774.308 1.248.308.308 0 .587-.043.835-.129.252-.09.469-.222.652-.398.182-.179.323-.401.422-.666l1.134.318a2.51 2.51 0 01-.602 1.014 2.905 2.905 0 01-1.044.676c-.414.16-.88.239-1.397.239zm4.807-.159v-7.636h1.133v1.153h.08c.139-.378.391-.684.756-.92a2.224 2.224 0 011.233-.353c.086 0 .194.002.323.005.129.004.227.009.293.015v1.193a3.702 3.702 0 00-.273-.044 2.617 2.617 0 00-.443-.035c-.371 0-.702.078-.994.234a1.712 1.712 0 00-.935 1.556V390h-1.173zm10.478-5.926l-1.054.298a1.954 1.954 0 00-.293-.512 1.438 1.438 0 00-.517-.418c-.219-.109-.499-.164-.841-.164-.467 0-.856.108-1.168.324-.308.212-.462.482-.462.81 0 .292.106.522.318.691.212.169.544.31.994.423l1.134.278c.683.166 1.191.419 1.526.761.335.338.502.774.502 1.307 0 .438-.126.829-.378 1.173-.248.345-.596.617-1.044.816-.447.199-.967.298-1.561.298-.779 0-1.423-.169-1.934-.507-.51-.338-.833-.832-.969-1.482l1.113-.278c.107.411.307.719.602.925.298.205.688.308 1.168.308.547 0 .981-.116 1.303-.348.325-.235.487-.517.487-.845a.89.89 0 00-.278-.666c-.186-.183-.471-.319-.855-.408l-1.273-.298c-.699-.166-1.213-.423-1.541-.771-.325-.351-.488-.79-.488-1.317 0-.431.121-.812.363-1.144a2.48 2.48 0 011-.78 3.506 3.506 0 011.441-.284c.756 0 1.349.166 1.78.497.434.332.743.769.925 1.313zm5.086-1.71v.994h-3.957v-.994h3.957zm-2.804-1.83h1.174v7.278c0 .332.048.581.144.746a.739.739 0 00.378.328c.155.053.32.08.492.08.129 0 .235-.007.318-.02l.199-.04.239 1.054c-.08.03-.191.06-.334.09a2.459 2.459 0 01-.541.049c-.332 0-.657-.071-.975-.213a1.931 1.931 0 01-.785-.652c-.206-.291-.309-.659-.309-1.103v-7.597zm4.429 9.466v-7.636h1.174V390h-1.174zm.597-8.909a.834.834 0 01-.592-.234.752.752 0 01-.243-.562.75.75 0 01.243-.561.834.834 0 01.592-.234c.229 0 .424.078.587.234a.744.744 0 01.248.561.746.746 0 01-.248.562.818.818 0 01-.587.234zm5.907 1.273v.994h-3.958v-.994h3.958zm-2.804-1.83h1.173v7.278c0 .332.048.581.144.746.1.163.225.272.378.328.156.053.32.08.492.08.129 0 .235-.007.318-.02l.199-.04.239 1.054a2.469 2.469 0 01-.875.139c-.332 0-.656-.071-.975-.213a1.938 1.938 0 01-.785-.652c-.206-.291-.308-.659-.308-1.103v-7.597zm4.429 9.466v-7.636h1.173V390h-1.173zm.596-8.909a.834.834 0 01-.592-.234.752.752 0 01-.243-.562.75.75 0 01.243-.561.834.834 0 01.592-.234c.229 0 .424.078.587.234a.744.744 0 01.248.561.746.746 0 01-.248.562.818.818 0 01-.587.234zm4.833 9.088c-.484 0-.923-.091-1.318-.273a2.266 2.266 0 01-.939-.801c-.232-.351-.348-.775-.348-1.273 0-.437.086-.792.258-1.064.173-.275.403-.49.691-.646.289-.156.607-.272.955-.348.351-.079.704-.142 1.059-.189.464-.059.84-.104 1.128-.134.292-.033.504-.088.637-.164.136-.076.204-.209.204-.398v-.04c0-.49-.135-.871-.403-1.143-.265-.272-.668-.408-1.208-.408-.56 0-.999.123-1.318.368-.318.245-.542.507-.671.786l-1.113-.398c.198-.464.464-.825.795-1.084a2.981 2.981 0 011.094-.547 4.54 4.54 0 011.173-.159c.245 0 .527.03.845.09.322.056.632.174.93.353.302.179.552.449.751.81.198.361.298.845.298 1.452V390h-1.173v-1.034h-.06c-.08.166-.212.343-.398.532a2.27 2.27 0 01-.741.482c-.308.133-.684.199-1.128.199zm.179-1.054c.464 0 .855-.091 1.173-.273a1.863 1.863 0 00.975-1.616v-1.074c-.05.06-.159.114-.328.164a5.534 5.534 0 01-.577.124c-.216.033-.426.063-.632.09-.202.023-.366.043-.492.059-.305.04-.59.105-.855.194a1.465 1.465 0 00-.636.393c-.159.172-.239.408-.239.706 0 .408.151.716.453.925.304.205.691.308 1.158.308zm6.496-9.307V390h-1.174v-10.182h1.174zm2.864 10.262a.863.863 0 01-.632-.264.864.864 0 01-.263-.631c0-.246.088-.456.263-.632a.866.866 0 01.632-.263c.245 0 .456.088.631.263a.861.861 0 01.264.632.842.842 0 01-.125.447.923.923 0 01-.323.328.845.845 0 01-.447.12zm5.962.079c-.689 0-1.294-.164-1.814-.492a3.338 3.338 0 01-1.213-1.377c-.289-.59-.433-1.28-.433-2.068 0-.796.144-1.49.433-2.084a3.34 3.34 0 011.213-1.382c.52-.328 1.125-.492 1.814-.492.69 0 1.293.164 1.81.492.52.329.925.789 1.213 1.382.292.594.438 1.288.438 2.084 0 .788-.146 1.478-.438 2.068a3.296 3.296 0 01-1.213 1.377c-.517.328-1.12.492-1.81.492zm0-1.054c.524 0 .955-.134 1.293-.403.338-.268.588-.621.751-1.059.162-.437.243-.911.243-1.421 0-.511-.081-.986-.243-1.427a2.411 2.411 0 00-.751-1.069c-.338-.272-.769-.408-1.293-.408-.523 0-.954.136-1.292.408a2.411 2.411 0 00-.751 1.069 4.104 4.104 0 00-.243 1.427c0 .51.081.984.243 1.421.163.438.413.791.751 1.059.338.269.769.403 1.292.403zm5.112 3.759v-10.5h1.133v1.213h.139c.087-.133.206-.302.358-.507a2.09 2.09 0 01.667-.557c.291-.166.686-.249 1.183-.249.643 0 1.21.161 1.7.482.491.322.873.778 1.149 1.368.275.59.412 1.286.412 2.088 0 .808-.137 1.509-.412 2.103-.276.59-.657 1.047-1.144 1.372-.487.321-1.049.482-1.685.482-.491 0-.884-.081-1.179-.244a2.182 2.182 0 01-.681-.561 7.881 7.881 0 01-.368-.527h-.099v4.037h-1.173zm1.153-6.682c0 .577.085 1.085.254 1.526.169.438.416.781.74 1.029.325.245.723.368 1.194.368.49 0 .899-.129 1.228-.388.331-.262.58-.613.745-1.054.169-.444.254-.938.254-1.481 0-.537-.083-1.021-.249-1.452a2.243 2.243 0 00-.74-1.029c-.329-.255-.741-.383-1.238-.383-.478 0-.879.121-1.204.363-.324.239-.57.573-.735 1.004-.166.428-.249.927-.249 1.497zm10.44 3.977c-.736 0-1.371-.162-1.904-.487a3.266 3.266 0 01-1.228-1.372c-.285-.59-.428-1.276-.428-2.059 0-.782.143-1.471.428-2.068.288-.6.689-1.067 1.203-1.402.517-.338 1.12-.507 1.809-.507.398 0 .791.066 1.179.199.387.133.74.348 1.059.646.318.295.571.686.76 1.174.189.487.284 1.087.284 1.799v.498h-5.887v-1.015h4.693c0-.431-.086-.815-.258-1.153a1.943 1.943 0 00-.726-.8c-.312-.196-.679-.294-1.104-.294-.467 0-.871.116-1.213.348a2.288 2.288 0 00-.78.895 2.62 2.62 0 00-.274 1.183v.676c0 .577.1 1.066.299 1.467.202.398.482.701.84.91.358.205.774.308 1.248.308.308 0 .586-.043.835-.129.252-.09.469-.222.651-.398a1.82 1.82 0 00.423-.666l1.133.318c-.119.385-.32.723-.601 1.014-.282.289-.63.514-1.044.676-.415.16-.88.239-1.397.239zm4.806-.159v-7.636h1.134v1.153h.079c.14-.378.392-.684.756-.92a2.229 2.229 0 011.233-.353c.086 0 .194.002.323.005.13.004.227.009.294.015v1.193a3.667 3.667 0 00-.274-.044 2.605 2.605 0 00-.442-.035c-.372 0-.703.078-.995.234a1.759 1.759 0 00-.686.636 1.72 1.72 0 00-.248.92V390h-1.174zm7.317.179c-.484 0-.924-.091-1.318-.273a2.269 2.269 0 01-.94-.801c-.232-.351-.348-.775-.348-1.273 0-.437.087-.792.259-1.064.172-.275.403-.49.691-.646.288-.156.607-.272.955-.348.351-.079.704-.142 1.058-.189.464-.059.841-.104 1.129-.134.292-.033.504-.088.636-.164.136-.076.204-.209.204-.398v-.04c0-.49-.134-.871-.402-1.143-.266-.272-.668-.408-1.209-.408-.56 0-.999.123-1.317.368-.318.245-.542.507-.671.786l-1.114-.398c.199-.464.464-.825.796-1.084a2.977 2.977 0 011.093-.547 4.547 4.547 0 011.174-.159c.245 0 .527.03.845.09.321.056.631.174.93.353.301.179.551.449.75.81.199.361.299.845.299 1.452V390h-1.174v-1.034h-.059c-.08.166-.213.343-.398.532-.186.189-.433.35-.741.482-.308.133-.684.199-1.128.199zm.179-1.054c.464 0 .855-.091 1.173-.273.321-.183.563-.418.726-.706.165-.289.248-.592.248-.91v-1.074c-.049.06-.159.114-.328.164a5.534 5.534 0 01-.577.124 29 29 0 01-.631.09c-.202.023-.366.043-.492.059-.305.04-.59.105-.855.194a1.475 1.475 0 00-.637.393c-.159.172-.238.408-.238.706 0 .408.151.716.452.925.305.205.691.308 1.159.308zm9.697-4.037v1.094h-4.455v-1.094h4.455zm1.924 4.912v-7.636h1.134v1.193h.099c.16-.408.416-.724.771-.95.355-.228.781-.343 1.278-.343.504 0 .923.115 1.258.343.338.226.601.542.79.95h.08c.195-.395.488-.708.88-.94.391-.235.86-.353 1.407-.353.682 0 1.241.214 1.675.642.434.424.651 1.085.651 1.983V390h-1.173v-5.111c0-.563-.154-.966-.462-1.208a1.714 1.714 0 00-1.089-.363c-.537 0-.953.163-1.248.487-.295.322-.443.73-.443 1.223V390h-1.193v-5.23c0-.434-.141-.784-.422-1.049-.282-.269-.645-.403-1.089-.403-.305 0-.59.081-.855.244a1.844 1.844 0 00-.637.676 1.997 1.997 0 00-.238.989V390h-1.174zm12.028 0v-7.636h1.174V390h-1.174zm.597-8.909a.834.834 0 01-.592-.234.752.752 0 01-.243-.562.75.75 0 01.243-.561.834.834 0 01.592-.234c.229 0 .424.078.587.234a.744.744 0 01.248.561.746.746 0 01-.248.562.818.818 0 01-.587.234zm3.759 4.315V390h-1.173v-7.636h1.133v1.193h.1c.179-.388.45-.7.815-.935.365-.238.835-.358 1.412-.358.517 0 .969.106 1.357.318.388.209.69.527.905.955.215.424.323.961.323 1.611V390h-1.173v-4.773c0-.6-.156-1.067-.467-1.402-.312-.338-.74-.507-1.283-.507-.375 0-.709.081-1.004.244a1.736 1.736 0 00-.691.711c-.169.311-.254.689-.254 1.133zm6.876 4.594v-7.636h1.173V390h-1.173zm.597-8.909a.834.834 0 01-.592-.234.752.752 0 01-.243-.562.75.75 0 01.243-.561.834.834 0 01.592-.234c.228 0 .424.078.586.234a.741.741 0 01.249.561.744.744 0 01-.249.562.815.815 0 01-.586.234zm3.441 8.989a.861.861 0 01-.632-.264.86.86 0 01-.263-.631.86.86 0 01.263-.632.864.864 0 01.632-.263c.245 0 .455.088.631.263a.86.86 0 01.263.632.841.841 0 01-.124.447.923.923 0 01-.323.328.85.85 0 01-.447.12zm4.033-4.674V390h-1.173v-7.636h1.133v1.193h.1c.179-.388.451-.7.815-.935.365-.238.835-.358 1.412-.358.517 0 .97.106 1.357.318.388.209.69.527.905.955.216.424.323.961.323 1.611V390h-1.173v-4.773c0-.6-.156-1.067-.467-1.402-.312-.338-.739-.507-1.283-.507-.374 0-.709.081-1.004.244a1.736 1.736 0 00-.691.711c-.169.311-.254.689-.254 1.133zm10.078 4.753c-.736 0-1.37-.162-1.904-.487a3.273 3.273 0 01-1.228-1.372c-.285-.59-.428-1.276-.428-2.059 0-.782.143-1.471.428-2.068.288-.6.689-1.067 1.203-1.402.517-.338 1.12-.507 1.81-.507.397 0 .79.066 1.178.199.388.133.741.348 1.059.646.318.295.572.686.761 1.174.189.487.283 1.087.283 1.799v.498h-5.886v-1.015h4.693c0-.431-.086-.815-.259-1.153a1.943 1.943 0 00-.726-.8c-.311-.196-.679-.294-1.103-.294-.468 0-.872.116-1.213.348a2.29 2.29 0 00-.781.895 2.632 2.632 0 00-.273 1.183v.676c0 .577.099 1.066.298 1.467.202.398.482.701.84.91.358.205.774.308 1.248.308.308 0 .587-.043.835-.129.252-.09.469-.222.652-.398.182-.179.323-.401.422-.666l1.134.318a2.51 2.51 0 01-.602 1.014c-.282.289-.63.514-1.044.676-.414.16-.88.239-1.397.239zm8.128-7.795v.994h-3.958v-.994h3.958zm-2.804-1.83h1.173v7.278c0 .332.048.581.144.746.1.163.226.272.378.328.156.053.32.08.492.08.13 0 .236-.007.319-.02l.198-.04.239 1.054a2.469 2.469 0 01-.875.139c-.331 0-.656-.071-.974-.213a1.94 1.94 0 01-.786-.652c-.205-.291-.308-.659-.308-1.103v-7.597z" fill="#2C2C2C"/><defs><filter id="filter0_d_251_235" x="186.716" y="0" width="252.784" height="350.467" filterUnits="userSpaceOnUse" color-interpolation-filters="sRGB"><feFlood flood-opacity="0" result="BackgroundImageFix"/><feColorMatrix in="SourceAlpha" values="0 0 0 0 0 0 0 0 0 0 0 0 0 0 0 0 0 0 127 0" result="hardAlpha"/><feOffset dy="4"/><feGaussianBlur stdDeviation="25"/><feComposite in2="hardAlpha" operator="out"/><feColorMatrix values="0 0 0 0 0 0 0 0 0 0 0 0 0 0 0 0 0 0 0.1 0"/><feBlend in2="BackgroundImageFix" result="effect1_dropShadow_251_235"/><feBlend in="SourceGraphic" in2="effect1_dropShadow_251_235" result="shape"/></filter></defs></svg>