<svg width="40" height="40" viewBox="0 0 40 40" fill="none" xmlns="http://www.w3.org/2000/svg"><g clip-path="url(#clip0_226_920)"><mask id="a" style="mask-type:luminance" maskUnits="userSpaceOnUse" x="0" y="0" width="40" height="40"><path d="M40 0H0v40h40V0z" fill="#fff"/></mask><g mask="url(#a)"><path d="M35.313 0H4.686A4.687 4.687 0 000 4.688v30.625A4.688 4.688 0 004.688 40h30.625A4.688 4.688 0 0040 35.312V4.689A4.688 4.688 0 0035.312 0z" fill="#000"/><path d="M25.176 12h2.76l-6.03 6.777L29 28h-5.554l-4.35-5.593L14.116 28h-2.762l6.45-7.25L11 12h5.695l3.933 5.113L25.176 12zm-.969 14.375h1.53L15.864 13.54h-1.64l9.983 12.836z" fill="#fff"/></g></g><defs><clipPath id="clip0_226_920"><rect width="40" height="40" rx="20" fill="#fff"/></clipPath></defs></svg>