<svg width="235" height="29" viewBox="0 0 235 29" fill="none" xmlns="http://www.w3.org/2000/svg">
<path d="M17.2682 15.6891H4.84407C5.36044 17.6997 6.84908 19.2228 9.67378 19.2228C11.5778 19.1804 13.4311 18.5995 15.0203 17.5472L16.7215 20.5631C14.6047 22.0548 12.0792 22.8528 9.49188 22.8475C3.2945 22.8475 0.500038 18.6136 0.500038 14.1637C0.500038 9.19831 3.96299 5.45142 9.12717 5.45142C13.8355 5.45142 17.4203 8.5298 17.4203 13.798C17.4175 14.4313 17.3667 15.0635 17.2682 15.6891ZM4.84407 12.4903H13.2586C13.1245 11.4997 12.6268 10.5949 11.8627 9.95266C11.0987 9.31047 10.1233 8.97713 9.12717 9.01775C8.11793 8.99068 7.13215 9.32549 6.34705 9.96203C5.56195 10.5986 5.02901 11.4951 4.84407 12.4903Z" fill="#5454FB"/>
<path d="M18.5445 5.88001H22.7364V8.19478C23.5873 6.64134 25.4704 5.42285 27.9313 5.42285C31.2728 5.42285 34.4013 7.64664 34.4013 12.3377V22.4817H30.1182V13.4951C30.1182 10.8146 28.6905 9.38294 26.625 9.38294C24.3772 9.38294 22.8281 11.0889 22.8281 13.5865V22.4817H18.5445V5.88001Z" fill="#5454FB"/>
<path d="M48.0409 21.5069C46.5719 22.4162 44.8766 22.8914 43.1502 22.8779C39.3533 22.8779 37.3771 20.6233 37.3771 16.3283V9.47545H34.6738V5.88109H37.411V0H41.6639V5.88109H47.1314V9.47545H41.6621V16.0554C41.6621 17.9741 42.391 18.9794 43.9988 18.9794C44.9788 18.943 45.932 18.6489 46.763 18.1266L48.0409 21.5069Z" fill="#5454FB"/>
<path d="M63.9284 15.689H51.5039C52.0203 17.6996 53.5089 19.2227 56.3341 19.2227C58.2378 19.1804 60.0912 18.5995 61.6801 17.5471L63.3814 20.563C61.2641 22.0546 58.7381 22.8521 56.1503 22.846C49.9534 22.846 47.1585 18.6121 47.1585 14.1622C47.1585 9.19685 50.6219 5.44995 55.7861 5.44995C60.4944 5.44995 64.0792 8.52834 64.0792 13.7965C64.0769 14.4303 64.0265 15.0629 63.9284 15.689ZM51.5039 12.4903H59.9184C59.7842 11.4997 59.2866 10.5949 58.5228 9.95271C57.759 9.31052 56.7835 8.97714 55.7874 9.01766C54.7781 8.99051 53.7921 9.32522 53.0072 9.96176C52.2219 10.5983 51.689 11.4949 51.5039 12.4903Z" fill="#5454FB"/>
<path d="M92.2214 14.1657C92.2214 9.10884 95.8667 5.45337 101.122 5.45337C104.403 5.45337 107.44 7.06791 108.837 10.0838L105.405 11.9727C104.983 11.2179 104.371 10.5873 103.63 10.1438C102.889 9.70039 102.045 9.45963 101.183 9.44562C99.9414 9.45104 98.7515 9.94625 97.8713 10.8242C96.9911 11.7021 96.4908 12.8923 96.4789 14.1371C96.467 15.382 96.9439 16.5816 97.8071 17.4765C98.6704 18.3715 99.8497 18.8897 101.091 18.9192C101.952 18.912 102.796 18.6771 103.537 18.2383C104.279 17.7994 104.891 17.1721 105.314 16.4198L108.776 18.4607C107.379 21.1109 104.432 22.8472 101 22.8472C95.836 22.8458 92.2214 19.2225 92.2214 14.1657Z" fill="#5454FB"/>
<path d="M122.203 21.5069C120.734 22.4161 119.039 22.8913 117.313 22.8779C113.515 22.8779 111.54 20.6233 111.54 16.3283V9.47545H108.836V5.88109H111.57V0H115.823V5.88109H121.291V9.47545H115.824V16.0554C115.824 17.9741 116.553 18.9794 118.163 18.9794C119.143 18.9431 120.097 18.649 120.927 18.1266L122.203 21.5069Z" fill="#5454FB"/>
<path d="M75.4472 5.99341C75.4472 7.24544 75.4307 8.40603 75.4563 9.56617C75.4646 9.9535 75.202 9.99669 74.9624 10.1125C72.7223 11.1959 71.1315 12.8426 70.5762 15.3342C70.4356 16.0274 70.365 16.733 70.365 17.4404C70.3352 19.1092 70.3554 20.7788 70.3554 22.4821H65.8074C65.796 22.3038 65.7767 22.1333 65.7763 21.9629C65.774 20.5248 65.834 19.0834 65.7575 17.6495C65.7053 16.3091 65.9985 14.9779 66.6093 13.7845C68.3132 10.2283 70.8768 7.59371 74.6357 6.23784C74.873 6.15238 75.1186 6.09127 75.4472 5.99341Z" fill="#5454FB"/>
<path d="M65.847 12.1241C65.847 9.55941 65.8126 8.01792 65.8126 5.38843H70.29C70.3775 5.68253 70.3761 5.99602 70.2858 6.28925C70.1956 6.58247 70.0206 6.84225 69.7828 7.03559C68.0747 8.5486 66.9961 9.46844 66.1544 11.5741C66.0779 11.7653 65.9968 11.9546 65.918 12.1443L65.847 12.1241Z" fill="#5454FB"/>
<path d="M90.6298 11.3556C90.5565 8.75137 89.434 6.64842 86.9021 5.62015C83.824 4.3704 80.7166 4.61761 77.6321 5.67115C77.513 5.71204 77.3471 5.86229 77.3453 5.96429C77.3251 7.11523 77.3324 8.26664 77.3324 9.47043C77.7379 9.32386 78.0623 9.18878 78.3973 9.08862C80.3345 8.43751 82.438 8.4904 84.3404 9.23794C85.0354 9.46808 85.6155 9.95704 85.9614 10.6038C86.3073 11.2506 86.3926 12.0059 86.1992 12.7138C85.3745 12.552 84.5548 12.3264 83.7223 12.2469C82.8623 12.1641 81.9968 12.1607 81.1363 12.2368C78.4078 12.4854 75.9648 13.7921 75.858 17.227C75.7934 19.3249 76.3771 21.0865 78.3418 22.1377C80.1562 23.1077 83.5587 23.2308 85.6169 21.3976C85.7855 21.2469 85.9651 21.1086 86.2464 20.8765V22.5012H90.6055C90.6275 22.4333 90.6427 22.3634 90.6514 22.2926C90.6564 18.6468 90.732 14.9987 90.6298 11.3556ZM83.9752 19.4802C81.1344 20.1336 79.4607 19.4343 79.507 17.38C79.5533 15.3258 81.4621 14.7198 83.3236 14.9063C84.2144 14.98 85.1 15.1047 85.9765 15.2798C85.9765 15.2798 86.8145 18.8269 83.9752 19.4802Z" fill="#5454FB"/>
<path d="M126.983 22.5256C127.32 22.5261 127.653 22.4591 127.962 22.3285C128.273 22.1978 128.553 22.0063 128.788 21.7651C129.023 21.5239 129.207 21.2379 129.33 20.9241C129.453 20.6103 129.512 20.2749 129.503 19.9379C129.506 19.6037 129.444 19.2722 129.318 18.9625C129.193 18.6528 129.008 18.3709 128.774 18.1332C128.54 17.8955 128.261 17.7065 127.954 17.5771C127.646 17.4478 127.317 17.3807 126.983 17.3796C126.643 17.3716 126.306 17.4318 125.989 17.5568C125.673 17.6818 125.385 17.8691 125.142 18.1074C124.899 18.3459 124.706 18.6306 124.574 18.945C124.442 19.2594 124.375 19.5969 124.375 19.9379C124.369 20.2817 124.433 20.6232 124.562 20.9418C124.691 21.2603 124.884 21.5492 125.128 21.7911C125.371 22.033 125.661 22.2227 125.98 22.349C126.299 22.4752 126.641 22.5353 126.983 22.5256Z" fill="#5454FB"/>
<path d="M141.31 7.38989C143.501 7.38989 145.268 8.16973 146.611 9.72939C147.973 11.2693 148.654 13.0955 148.654 15.208C148.654 15.4251 148.634 15.7312 148.595 16.126H135.594C135.792 17.6265 136.424 18.8209 137.49 19.7093C138.576 20.578 139.908 21.0123 141.488 21.0123C142.613 21.0123 143.58 20.7853 144.39 20.3312C145.219 19.8574 145.841 19.2453 146.255 18.4951L147.973 19.502C147.322 20.5484 146.433 21.3776 145.308 21.9896C144.182 22.6016 142.899 22.9076 141.458 22.9076C139.128 22.9076 137.233 22.1771 135.772 20.7162C134.311 19.2552 133.581 17.3994 133.581 15.1487C133.581 12.9376 134.301 11.0916 135.743 9.61094C137.184 8.13024 139.04 7.38989 141.31 7.38989ZM141.31 9.28519C139.77 9.28519 138.477 9.74914 137.431 10.677C136.404 11.5852 135.792 12.7698 135.594 14.2307H146.64C146.443 12.671 145.841 11.4569 144.834 10.5882C143.827 9.71952 142.652 9.28519 141.31 9.28519Z" fill="#98999B"/>
<path d="M157.804 7.38989C159.601 7.38989 161.013 7.94269 162.039 9.04827C163.086 10.1341 163.609 11.6049 163.609 13.4608V22.5522H161.654V13.4608C161.654 12.138 161.299 11.1114 160.588 10.3809C159.897 9.65043 158.91 9.28519 157.627 9.28519C156.205 9.28519 155.05 9.73927 154.162 10.6474C153.274 11.5358 152.829 12.9178 152.829 14.7934V22.5522H150.875V7.74526H152.829V10.0551C153.935 8.27831 155.593 7.38989 157.804 7.38989Z" fill="#98999B"/>
<path d="M179.234 7.74526H181.188V21.96C181.188 24.0922 180.458 25.7703 178.997 26.9943C177.536 28.2184 175.789 28.8304 173.755 28.8304C170.28 28.8304 167.941 27.6261 166.737 25.2175L168.454 24.2402C169.343 26.0368 171.11 26.9351 173.755 26.9351C175.453 26.9351 176.786 26.481 177.753 25.5729C178.74 24.6844 179.234 23.4801 179.234 21.96V19.6501C177.871 21.8218 175.877 22.9076 173.252 22.9076C171.139 22.9076 169.333 22.1574 167.832 20.6569C166.352 19.1565 165.611 17.3204 165.611 15.1487C165.611 12.9771 166.352 11.141 167.832 9.64055C169.333 8.14011 171.139 7.38989 173.252 7.38989C175.877 7.38989 177.871 8.47574 179.234 10.6474V7.74526ZM169.254 19.3243C170.379 20.4496 171.761 21.0123 173.4 21.0123C175.038 21.0123 176.42 20.4496 177.546 19.3243C178.671 18.1792 179.234 16.7874 179.234 15.1487C179.234 13.5101 178.671 12.1281 177.546 11.0028C176.42 9.85772 175.038 9.28519 173.4 9.28519C171.761 9.28519 170.379 9.85772 169.254 11.0028C168.128 12.1281 167.566 13.5101 167.566 15.1487C167.566 16.7874 168.128 18.1792 169.254 19.3243Z" fill="#98999B"/>
<path d="M197.172 7.74526H199.127V22.5522H197.172V19.6501C195.81 21.8218 193.816 22.9076 191.19 22.9076C189.078 22.9076 187.271 22.1574 185.771 20.6569C184.29 19.1565 183.55 17.3204 183.55 15.1487C183.55 12.9771 184.29 11.141 185.771 9.64055C187.271 8.14011 189.078 7.38989 191.19 7.38989C193.816 7.38989 195.81 8.47574 197.172 10.6474V7.74526ZM187.192 19.3243C188.317 20.4496 189.699 21.0123 191.338 21.0123C192.977 21.0123 194.359 20.4496 195.484 19.3243C196.609 18.1792 197.172 16.7874 197.172 15.1487C197.172 13.5101 196.609 12.1281 195.484 11.0028C194.359 9.85772 192.977 9.28519 191.338 9.28519C189.699 9.28519 188.317 9.85772 187.192 11.0028C186.067 12.1281 185.504 13.5101 185.504 15.1487C185.504 16.7874 186.067 18.1792 187.192 19.3243Z" fill="#98999B"/>
<path d="M215.11 7.74526H217.065V21.96C217.065 24.0922 216.334 25.7703 214.874 26.9943C213.413 28.2184 211.665 28.8304 209.632 28.8304C206.157 28.8304 203.818 27.6261 202.613 25.2175L204.331 24.2402C205.219 26.0368 206.986 26.9351 209.632 26.9351C211.33 26.9351 212.662 26.481 213.63 25.5729C214.617 24.6844 215.11 23.4801 215.11 21.96V19.6501C213.748 21.8218 211.754 22.9076 209.128 22.9076C207.016 22.9076 205.21 22.1574 203.709 20.6569C202.228 19.1565 201.488 17.3204 201.488 15.1487C201.488 12.9771 202.228 11.141 203.709 9.64055C205.21 8.14011 207.016 7.38989 209.128 7.38989C211.754 7.38989 213.748 8.47574 215.11 10.6474V7.74526ZM205.131 19.3243C206.256 20.4496 207.638 21.0123 209.277 21.0123C210.915 21.0123 212.297 20.4496 213.422 19.3243C214.548 18.1792 215.11 16.7874 215.11 15.1487C215.11 13.5101 214.548 12.1281 213.422 11.0028C212.297 9.85772 210.915 9.28519 209.277 9.28519C207.638 9.28519 206.256 9.85772 205.131 11.0028C204.005 12.1281 203.443 13.5101 203.443 15.1487C203.443 16.7874 204.005 18.1792 205.131 19.3243Z" fill="#98999B"/>
<path d="M227.156 7.38989C229.347 7.38989 231.114 8.16973 232.457 9.72939C233.819 11.2693 234.5 13.0955 234.5 15.208C234.5 15.4251 234.48 15.7312 234.441 16.126H221.44C221.638 17.6265 222.269 18.8209 223.336 19.7093C224.421 20.578 225.754 21.0123 227.333 21.0123C228.459 21.0123 229.426 20.7853 230.236 20.3312C231.065 19.8574 231.687 19.2453 232.101 18.4951L233.819 19.502C233.167 20.5484 232.279 21.3776 231.154 21.9896C230.028 22.6016 228.745 22.9076 227.304 22.9076C224.974 22.9076 223.079 22.1771 221.618 20.7162C220.157 19.2552 219.426 17.3994 219.426 15.1487C219.426 12.9376 220.147 11.0916 221.588 9.61094C223.029 8.13024 224.885 7.38989 227.156 7.38989ZM227.156 9.28519C225.616 9.28519 224.323 9.74914 223.276 10.677C222.25 11.5852 221.638 12.7698 221.44 14.2307H232.486C232.289 12.671 231.687 11.4569 230.68 10.5882C229.673 9.71952 228.498 9.28519 227.156 9.28519Z" fill="#98999B"/>
</svg>
