<svg width="34" height="20" viewBox="0 0 34 20" fill="none" xmlns="http://www.w3.org/2000/svg">
<g clip-path="url(#clip0_1_400)">
<path d="M18.846 13.907C18.7153 14.0433 18.5585 14.1517 18.3848 14.2258C18.2112 14.2999 18.0243 14.338 17.8355 14.338C17.6467 14.338 17.4599 14.2999 17.2862 14.2258C17.1126 14.1517 16.9557 14.0433 16.825 13.907C16.5591 13.622 16.4112 13.2468 16.4112 12.857C16.4112 12.4672 16.5591 12.092 16.825 11.807C16.9557 11.6707 17.1126 11.5623 17.2862 11.4882C17.4599 11.4142 17.6467 11.376 17.8355 11.376C18.0243 11.376 18.2112 11.4142 18.3848 11.4882C18.5585 11.5623 18.7153 11.6707 18.846 11.807C19.1119 12.092 19.2598 12.4672 19.2598 12.857C19.2598 13.2468 19.1119 13.622 18.846 13.907Z" fill="#5454FB"/>
<path d="M14.717 9.14399H3.81703C4.02853 10.086 4.57517 10.9191 5.35518 11.4881C6.13519 12.0571 7.0954 12.3233 8.05703 12.237C9.72815 12.1997 11.3548 11.6916 12.75 10.771L14.243 13.411C12.3849 14.7168 10.1681 15.4154 7.89703 15.411C2.45703 15.411 0.00402949 11.705 0.00402949 7.81099C-0.0406029 6.80211 0.124317 5.79493 0.488386 4.85297C0.852455 3.91102 1.40777 3.05472 2.11932 2.33811C2.83086 1.62149 3.68318 1.06011 4.62253 0.689352C5.56187 0.318599 6.56786 0.146528 7.57703 0.183991C8.55015 0.127093 9.52428 0.2773 10.4351 0.624693C11.3458 0.972085 12.1726 1.50876 12.8606 2.19926C13.5487 2.88977 14.0824 3.71839 14.4265 4.63041C14.7707 5.54242 14.9174 6.51708 14.857 7.48999C14.8524 8.04408 14.8056 8.59701 14.717 9.14399ZM3.81103 6.34399H11.198C11.08 5.47694 10.643 4.68504 9.97225 4.12305C9.30153 3.56106 8.44535 3.26937 7.57103 3.30499C6.68618 3.28261 5.82231 3.57621 5.13435 4.13314C4.44639 4.69006 3.97936 5.47388 3.81703 6.34399H3.81103Z" fill="#5454FB"/>
<path d="M32.292 0.323003H34.002V13.258C34.0444 14.1163 33.8942 14.9732 33.5623 15.7659C33.2304 16.5586 32.7253 17.2669 32.084 17.839C30.8171 18.9472 29.1818 19.5421 27.499 19.507C24.4583 19.507 22.4113 18.411 21.358 16.219L22.858 15.33C23.6347 16.964 25.1807 17.7813 27.496 17.782C28.7824 17.8537 30.0448 17.4128 31.007 16.556C31.4402 16.1266 31.7782 15.6109 31.9993 15.0424C32.2203 14.4739 32.3193 13.8653 32.29 13.256V11.156C31.7763 12.0851 31.0153 12.8538 30.0915 13.377C29.1677 13.9001 28.117 14.1573 27.056 14.12C26.168 14.1314 25.2876 13.9549 24.4726 13.6021C23.6576 13.2493 22.9264 12.7282 22.327 12.073C21.0691 10.7068 20.3708 8.91761 20.3708 7.0605C20.3708 5.2034 21.0691 3.41418 22.327 2.048C22.9264 1.39259 23.6575 0.8713 24.4725 0.518346C25.2875 0.165393 26.1679 -0.0112512 27.056 2.58395e-06C28.1171 -0.0370937 29.1678 0.22028 30.0916 0.743611C31.0154 1.26694 31.7763 2.0358 32.29 2.965L32.292 0.323003ZM23.56 10.846C24.0287 11.3359 24.5919 11.7259 25.2154 11.9922C25.8389 12.2586 26.5099 12.396 27.188 12.396C27.8661 12.396 28.5371 12.2586 29.1606 11.9922C29.7841 11.7259 30.3473 11.3359 30.816 10.846C31.7656 9.81383 32.2926 8.46252 32.2926 7.06C32.2926 5.65749 31.7656 4.30618 30.816 3.274C30.3473 2.78407 29.7841 2.39414 29.1606 2.12776C28.5371 1.86137 27.8661 1.72403 27.188 1.72403C26.5099 1.72403 25.8389 1.86137 25.2154 2.12776C24.5919 2.39414 24.0287 2.78407 23.56 3.274C22.61 4.30597 22.0827 5.65735 22.0827 7.06C22.0827 8.46265 22.61 9.81404 23.56 10.846Z" fill="#5454FB"/>
</g>
<defs>
<clipPath id="clip0_1_400">
<rect width="34.002" height="19.51" fill="white"/>
</clipPath>
</defs>
</svg>
